/* XPM */
static char *f0b379ba8429433ee7cbcc1e92fd9467TTKApmQYiEYGYszO[] = {
/* columns rows colors chars-per-pixel */
"16 32 166 2 ",
"   c #1F0F25",
".  c #1C1025",
"X  c #1D1028",
"o  c #17192C",
"O  c #19192E",
"+  c #161E30",
"@  c #172132",
"#  c #192335",
"$  c #1D2A3D",
"%  c #19333F",
"&  c #1F2F45",
"*  c #1A344A",
"=  c #222E44",
"-  c #292B45",
";  c #223045",
":  c #24344B",
">  c #29354E",
",  c #253B52",
"<  c #2B3C55",
"1  c #2C3D58",
"2  c #313752",
"3  c #1F4B5B",
"4  c #244154",
"5  c #264659",
"6  c #2C435C",
"7  c #274D5E",
"8  c #32425D",
"9  c #1C4D62",
"0  c #195B6F",
"q  c #1C5D72",
"w  c #2D4761",
"e  c #2C4B63",
"r  c #254F6A",
"t  c #2F4D68",
"y  c #324762",
"u  c #3B4664",
"i  c #324B64",
"p  c #334E69",
"a  c #394D6A",
"s  c #265364",
"d  c #2B5166",
"f  c #255569",
"g  c #2B5B6C",
"h  c #245C6B",
"j  c #35526C",
"k  c #38546E",
"l  c #2B5772",
"z  c #275B70",
"x  c #2B5D73",
"c  c #355672",
"v  c #3B5571",
"b  c #355C74",
"n  c #395E77",
"m  c #375E7A",
"M  c #385E79",
"N  c #1B6476",
"B  c #1F657A",
"V  c #176C7B",
"C  c #1B6C7D",
"Z  c #24606F",
"A  c #266273",
"S  c #2C6476",
"D  c #226478",
"F  c #2B657A",
"G  c #25697C",
"H  c #2A6C7D",
"J  c #366177",
"K  c #35637C",
"L  c #39617A",
"P  c #32697D",
"I  c #2B717F",
"U  c #157586",
"Y  c #1A7382",
"T  c #147D8B",
"R  c #256D81",
"E  c #2E6E83",
"W  c #3A6580",
"Q  c #336C82",
"!  c #267584",
"~  c #2A7383",
"^  c #2C7987",
"/  c #257588",
"(  c #267A8C",
")  c #2C7C8E",
"_  c #327183",
"`  c #347589",
"'  c #317D8E",
"]  c #2D7F91",
"[  c #317E90",
"{  c #17838F",
"}  c #1F828E",
"|  c #178592",
" . c #1B8693",
".. c #1C8997",
"X. c #159097",
"o. c #15959E",
"O. c #1A949E",
"+. c #15989F",
"@. c #32808F",
"#. c #228593",
"$. c #2D8592",
"%. c #2B8A95",
"&. c #2C8C9B",
"*. c #318C9C",
"=. c #1B97A1",
"-. c #149AA0",
";. c #1B9DA7",
":. c #269CA4",
">. c #2A9BA4",
",. c #15AAB1",
"<. c #1FABB5",
"1. c #1FBEC3",
"2. c #20BEC1",
"3. c #1CCDCE",
"4. c #1CD3D6",
"5. c #28CDCF",
"6. c #24CED2",
"7. c #28CED0",
"8. c #24D2D5",
"9. c #29D2D3",
"0. c #24D5D9",
"q. c #27D9DA",
"w. c #32DFE1",
"e. c #2CE5E4",
"r. c #2CE8E7",
"t. c #2DEBEA",
"y. c #32E3E4",
"u. c #32EAEB",
"i. c #38EBE9",
"p. c #43EDEC",
"a. c #4CF0EE",
"s. c #43F5F2",
"d. c #49F7F2",
"f. c #4CF6F3",
"g. c #4DF5F3",
"h. c #43F8F5",
"j. c #41FAF6",
"k. c #4BF9F5",
"l. c #4DFAF7",
"z. c #4EFCF9",
"x. c #50F1F0",
"c. c #51FCFB",
"v. c #5FFCFA",
"b. c #67FDF9",
"n. c #66FBF9",
"m. c #6CFDFB",
"M. c #6EFFFD",
"N. c #6DFFFF",
"B. c #6DFFFF",
"V. c #73FDFA",
"C. c #71FCFA",
"Z. c #75FDFB",
"A. c #73FFFE",
"S. c #73FFFF",
"D. c #73FEFE",
"F. c #74FEFE",
"G. c #74FFFE",
"H. c #75FFFE",
"J. c #74FFFF",
"K. c #75FFFF",
"L. c #75FEFE",
"P. c #76FEFE",
"I. c #76FFFE",
"U. c #77FFFE",
"Y. c #76FFFF",
"T. c #71FFFF",
/* pixels */
"% H I I ~ I ~ I I H H H I ~ A @ ",
"H @.' L L L n Q $.J K $.Q L b = ",
"~ ' ^ a a a a b ^ j c :.) a j = ",
"! K a b &.[ ' ] H A ) E $.a k = ",
"! K b %.g  .-.+.o.X.o.#.b v j = ",
"! n ` G C r.l.f.k.k.z.q.G a p = ",
"! n K ..e.b.V.M.M.m.V.v.6.C ~ ; ",
"~ K b ;.d.Z.g.3.2.4.p.U.y.V P = ",
"~ $.^ =.s.U.0.9 - U r.U.y.q c = ",
"~ %.$.=.s.U.9.D ~ Y r.U.w.Y _ = ",
"! K b O.s.U.0.N e C r.U.w.Y Q = ",
"! W u  .s.D.6.#.&.Y r.U.y.Y _ = ",
"~ _ v  .s.D.8.R *.Y r.U.y.C P = ",
"! *._ ..s.U.8.l v R r.U.y.B k ; ",
"s l y  .h.U.8.r u B r.U.y.q 8 $ ",
"o O X T h.D.0.*   0 t.U.u.9 . + ",
"# 3 5 | h.D.4.9 4 N r.U.y.B 7 @ ",
"A ) _ ..s.D.e.O.#.,.i.U.y.G b ; ",
"~ _ g { h.D.n.x.a.g.n.M.e.9 2 ; ",
"E Q 4 , <.c.D.D.D.D.M.p.} = , ; ",
"F *.A 6 ! 1.9.5.7.5.0.;.1 x d = ",
"G ` 5 H >.S R / ! ( R ) f S K = ",
"G b > j e > g Z h Z &.c w i j = ",
"G m ; 1 > = > 1 1 : ( b 6 j j = ",
"F K S e , : 6 t i < ( c 6 i j = ",
"F Q $.K 1 & 6 e e 4 ( Q I 6 j = ",
"F F s p 6 = > , , : ( K g 6 j = ",
"F z s p j 1 : > > , &.t 1 p j = ",
"F e i p b S 6 6 6 6 G 6 j k p = ",
"x H ^ p Q &.S i i i i j k v j = ",
"f x S p c b j c k k c j j p 6 = ",
"# = = ; = = = = = = = = = = = # "
};
