/* XPM */
static char *_ef82701cb6c4cbb865b651813ca3403cZn74gIiDdXRIno6[] = {
/* columns rows colors chars-per-pixel */
"16 32 146 2 ",
"   c #180E22",
".  c #1B1126",
"X  c #17172C",
"o  c #19172C",
"O  c #17192C",
"+  c #19192E",
"@  c #1A1C31",
"#  c #192335",
"$  c #1C293D",
"%  c #20283F",
"&  c #1F2B43",
"*  c #1C3745",
"=  c #212E44",
"-  c #292E47",
";  c #233046",
":  c #24344A",
">  c #29334C",
",  c #243A4F",
"<  c #30364F",
"1  c #2B3751",
"2  c #263B51",
"3  c #2B3B54",
"4  c #2D3D58",
"5  c #303651",
"6  c #303D59",
"7  c #1E4455",
"8  c #144D5F",
"9  c #1F4B5B",
"0  c #244457",
"q  c #284257",
"w  c #264559",
"e  c #2B435C",
"r  c #244D5E",
"t  c #33455F",
"y  c #32485F",
"u  c #21515F",
"i  c #195964",
"p  c #155769",
"a  c #2F4761",
"s  c #2C4C63",
"d  c #364562",
"f  c #324B65",
"g  c #384965",
"h  c #344E69",
"j  c #394C6A",
"k  c #235363",
"l  c #2A5264",
"z  c #24576A",
"x  c #2E556C",
"c  c #245C6D",
"v  c #295B6D",
"b  c #35526C",
"n  c #39516C",
"m  c #2A5E72",
"M  c #365570",
"N  c #395571",
"B  c #345C74",
"V  c #395974",
"C  c #315F79",
"Z  c #395F79",
"A  c #1B6375",
"S  c #1E657A",
"D  c #1D6A7D",
"F  c #256070",
"G  c #2B6375",
"H  c #266976",
"J  c #226479",
"K  c #2B657A",
"L  c #256C7B",
"P  c #2B6B7C",
"I  c #336276",
"U  c #346279",
"Y  c #39607A",
"T  c #33697E",
"R  c #25727E",
"E  c #2B707F",
"W  c #1D7281",
"Q  c #197B8A",
"!  c #346D83",
"~  c #2C7382",
"^  c #2C7986",
"/  c #257689",
"(  c #2B7689",
")  c #2C7B8B",
"_  c #327184",
"`  c #337389",
"'  c #337B8D",
"]  c #138790",
"[  c #148C94",
"{  c #179098",
"}  c #2C828F",
"|  c #258191",
" . c #2C8393",
".. c #2D899A",
"X. c #348496",
"o. c #318896",
"O. c #338B9A",
"+. c #27929C",
"@. c #1D9CA4",
"#. c #2F93A0",
"$. c #2399A0",
"%. c #1AA2AB",
"&. c #2AA0A9",
"*. c #23ABB2",
"=. c #1DC2C4",
"-. c #18C9CB",
";. c #1DD3D4",
":. c #2CD0D2",
">. c #2CE6E5",
",. c #2DE9E6",
"<. c #2CE8E7",
"1. c #2DE9E8",
"2. c #2AEDEA",
"3. c #2CECEB",
"4. c #2CEEEA",
"5. c #3DE7E8",
"6. c #3BEAEA",
"7. c #3DE8E9",
"8. c #3EEBE9",
"9. c #3DEBEA",
"0. c #3CECEA",
"q. c #3CECEB",
"w. c #3BECEC",
"e. c #3CECEC",
"r. c #3CEFEF",
"t. c #3CEBEA",
"y. c #2EF0EE",
"u. c #3EF3F1",
"i. c #55E6E9",
"p. c #4AF8F6",
"a. c #5BF8F4",
"s. c #54FCFA",
"d. c #6CFAF9",
"f. c #68FCFA",
"g. c #6BFFFF",
"h. c #6FFEFC",
"j. c #73FEFD",
"k. c #75FFFD",
"l. c #77FFFE",
"z. c #77FFFF",
"x. c #77FEFE",
"c. c #79FFFE",
"v. c #7AFFFE",
"b. c #7AFFFF",
"n. c #7BFFFF",
"m. c #79FFFF",
/* pixels */
"* P E E ~ E ~ ~ ~ E ~ ~ ~ ~ H # ",
"~ ' ) Y Y Y Z !  .U T  .T Y Z = ",
") ) ^ n g j g B } M M $.^ g b = ",
") U j U .. .)  .E G ( ~  .j b = ",
") Z Z +.G k L m [ ] { ) U N b = ",
") V ' H - 2 c %.y.s.2.L j b f = ",
"^ V ' z q 7 @.p.d.k.8.D g m ~ = ",
"^ Z ' z l i =.g.f.h.0.D t k _ = ",
"~ ' O.z 4 2 *.i.a.j.8.D 1 0 U = ",
"^  .#.z ~ ) ^ W >.c.6.S 5 v _ = ",
"~ Z _ R r z s S ,.c.5.Q l v _ % ",
"^ Y n )  . ...Q >.c.8.Q L v _ % ",
"~ ! I n b M V W >.c.8.D G ^ T % ",
") o.} V V V N J 1.c.r.S T ^ b = ",
"z B x f f f d S 1.c.0.A 1 e f = ",
"+ + o X o + . p 3.k.r.8   @ @ @ ",
"# 9 r k k k r A ,.k.w.A r z k # ",
"G ) ^ U ` X.B A >.c.8.D M I B ; ",
"' _ v 3 x m y A <.k.8.J < > 1 ; ",
"_ ! 0 ; : , 1 A 3.c.u.A > ; 1 ; ",
"T O.v b ..#.X./ -.:.;.| y m s = ",
"T _ w ~ &.T ` ` ( / J P u P I = ",
"! M 1 M s 2 v F v c  .h e f b = ",
"! V ; e ; & 1 4 6 ; / M e h b = ",
"! U G s ; = e f f e ) b 4 e b = ",
"! !  .Z , = e a f q ) P R 4 b = ",
"P G z f 4 = 2 2 4 : ) C v 4 b = ",
"K m l h b 4 , 2 , , ..s 3 b b ; ",
"K e f b I K q e e e K e n N b ; ",
"K L ~ h ) +.m a s f f n N N b ; ",
"m m m h B I b M b M N b b h e ; ",
"$ ; = ; = = ; = = = = = = = = # "
};
