/* XPM */
static char *adc29db7473d4163f933199d70bd33d0dlj7O3waAlfz5evX[] = {
/* columns rows colors chars-per-pixel */
"16 32 173 2 ",
"   c #151729",
".  c #1E1329",
"X  c #18192E",
"o  c #1A1D31",
"O  c #1A2334",
"+  c #1A2C3D",
"@  c #1F2B40",
"#  c #1F3342",
"$  c #222D43",
"%  c #2A2F47",
"&  c #2D2F4A",
"*  c #223044",
"=  c #26354C",
"-  c #29364E",
";  c #27384E",
":  c #28384E",
">  c #2C3650",
",  c #273B52",
"<  c #2B3C54",
"1  c #313856",
"2  c #303E5C",
"3  c #224354",
"4  c #27455A",
"5  c #2C435C",
"6  c #244B5C",
"7  c #35425D",
"8  c #22505F",
"9  c #1E5361",
"0  c #155E6E",
"q  c #2D4660",
"w  c #264E60",
"e  c #2D4B63",
"r  c #324662",
"t  c #324B65",
"y  c #3B4C66",
"u  c #354E69",
"i  c #394C6A",
"p  c #265464",
"a  c #2A5465",
"s  c #265768",
"d  c #265D6D",
"f  c #2B5C6D",
"g  c #36536D",
"h  c #39536E",
"j  c #33596F",
"k  c #265E73",
"l  c #2C5E72",
"z  c #355771",
"x  c #395671",
"c  c #335B73",
"v  c #395F79",
"b  c #176473",
"n  c #1D6679",
"m  c #166B7A",
"M  c #25616F",
"N  c #256574",
"B  c #296374",
"V  c #256974",
"C  c #296A77",
"Z  c #266578",
"A  c #2E667A",
"S  c #246C7D",
"D  c #2A6D7C",
"F  c #326176",
"G  c #35657C",
"H  c #39627A",
"J  c #326A7C",
"K  c #38697E",
"L  c #26767F",
"P  c #2A717F",
"I  c #1B7683",
"U  c #1E7688",
"Y  c #157B89",
"T  c #1C7C8B",
"R  c #256C81",
"E  c #2C6E80",
"W  c #366780",
"Q  c #346C81",
"!  c #326F88",
"~  c #247484",
"^  c #2C7382",
"/  c #2B7987",
"(  c #247688",
")  c #24798B",
"_  c #2D7C8D",
"`  c #337183",
"'  c #317C8E",
"]  c #2B7F91",
"[  c #367A90",
"{  c #188693",
"}  c #178D97",
"|  c #128E9A",
" . c #16959E",
".. c #1A919D",
"X. c #21808C",
"o. c #2D818E",
"O. c #32818F",
"+. c #2A8492",
"@. c #268994",
"#. c #248C98",
"$. c #298C99",
"%. c #318591",
"&. c #328598",
"*. c #338E9E",
"=. c #23919D",
"-. c #1496A1",
";. c #149AA1",
":. c #1B9CA7",
">. c #2C9AA2",
",. c #15A0A7",
"<. c #1EA7AF",
"1. c #1BC4C7",
"2. c #19CBCC",
"3. c #1DDDDC",
"4. c #21C4C7",
"5. c #23CECE",
"6. c #25CFD0",
"7. c #25D1D1",
"8. c #2AD1D2",
"9. c #21DDDA",
"0. c #2CDDDD",
"q. c #34DDDC",
"w. c #24E1DD",
"e. c #2DE0E0",
"r. c #2DEBE6",
"t. c #2AECE9",
"y. c #36E6E5",
"u. c #39E4E3",
"i. c #33EAE7",
"p. c #36EDEC",
"a. c #3BEBE9",
"s. c #33F0EC",
"d. c #2AFBF3",
"f. c #3CF3F1",
"g. c #37F8F4",
"h. c #3CF9F5",
"j. c #43EAE9",
"k. c #4CEDEE",
"l. c #47F1EE",
"z. c #4BF1EF",
"x. c #55F2EF",
"c. c #4AF6F3",
"v. c #44F9F7",
"b. c #4BF8F6",
"n. c #40FFFB",
"m. c #4CFDFA",
"M. c #51F3F0",
"N. c #5FF5F3",
"B. c #58FEFA",
"V. c #60FBF8",
"C. c #64FBF8",
"Z. c #65FCFB",
"A. c #6EFCFA",
"S. c #6BFEFE",
"D. c #6BFFFE",
"F. c #6CFEFD",
"G. c #6CFFFE",
"H. c #6DFFFE",
"J. c #6FFFFE",
"K. c #6CFFFF",
"L. c #70FBF8",
"P. c #71FCF8",
"I. c #74FCF9",
"U. c #76FCFA",
"Y. c #73FEFC",
"T. c #77FEFD",
"R. c #74FEFC",
"E. c #75FFFF",
"W. c #7CFCFB",
"Q. c #7AFEFD",
"!. c #7AFEFE",
"~. c #7DFFFE",
"^. c #7FFFFF",
/* pixels */
"+ C E D ^ P ^ P D D ^ ^ ^ ^ P # ",
"M ' o.H H H v K o.J H %.Q v v : ",
"V ' / g i i i c _ c g $.+.i h - ",
"V K y c +._ _ +./ f ' F +.h x - ",
"V K h +.N } ;.;. .}  .X.H x x ; ",
"V H K ~ T t.b.c.c.b.b.w.) i g - ",
"N K h  .r.U.U.H.H.A.U.C.9.S P , ",
"V Q h ,.d.B.i.1.4.3.M.T.a.m J < ",
"N O.O.@. . .U , 1 -.s.!.i.0 j , ",
"N o.>.^ A ^ E / ^ | s.!.y.m ` - ",
"V G G +.s f s 6 I 0.x.~.i.m ` - ",
"C K i ` +.$.] ..0.D.Y.c.<.6 ^ = ",
"C ` F g z i ] r.V.H.v.;.B L ^ = ",
"C *.+.c i U u.P.L.p.:.r ` +.c = ",
"6 c j 7 Z e.Z.T.m...2 t r q t * ",
"X X . b y.H.D.j.T o X     X X o ",
"o 3 3  .n.W.k.T 4 w w 6 6 8 s + ",
"s ' J { f.~.q.Y #.=.=.=.=.G c < ",
"C ' f Y s.T.N.c.z.z.l.z.t.Z & - ",
"B [ 4 Y g.T.T.T.H.D.D.T.h.n % - ",
"f &.k T 3.8.6.6.7.6.5.7.2.( e = ",
"l Q 4 F #.k S ( ( ) R d 9 f Q = ",
"k v - g j : p d M d $.c 5 5 x : ",
"l H = , - $ > < < % S H r t x - ",
"l H N a , $ 5 t e - ~ K t 5 g - ",
"l W o.K < $ 5 q q - S ! o.6 u ; ",
"l G s u 5 * = , , $ S Q B 4 g ; ",
"f l a u h < $ = - $ +.c , u g - ",
"f e e g j B 4 4 4 < Z 4 r x g - ",
"f E ^ u E $.A r t t r g x x g ; ",
"p l l t z F g g g g g g g u 5 = ",
"O @ $ $ $ $ $ $ $ $ $ $ $ $ $ O "
};
