/* XPM */
static char *_4b14f50ad2142e8a632f65d0311361bcGxlgc7VcuU0L95D[] = {
/* columns rows colors chars-per-pixel */
"16 32 167 2 ",
"   c #1A1527",
".  c #161629",
"X  c #1A172A",
"o  c #161A2D",
"O  c #181B2D",
"+  c #171C30",
"@  c #191E32",
"#  c #162132",
"$  c #192134",
"%  c #1F273A",
"&  c #1F2A3E",
"*  c #21263C",
"=  c #202A3F",
"-  c #1D3346",
";  c #1F364A",
":  c #1E3A4A",
">  c #2C2540",
",  c #212D42",
"<  c #292E49",
"1  c #223146",
"2  c #24354B",
"3  c #2A334C",
"4  c #24394E",
"5  c #253C51",
"6  c #293B53",
"7  c #303F5B",
"8  c #1E4759",
"9  c #244356",
"0  c #284057",
"q  c #26445B",
"w  c #2C445C",
"e  c #254A5D",
"r  c #2A4A5F",
"t  c #32445E",
"y  c #1F5669",
"u  c #2E4660",
"i  c #274B61",
"p  c #2C4B62",
"a  c #304561",
"s  c #3C4565",
"d  c #334C65",
"f  c #394966",
"g  c #364E6A",
"h  c #394D6A",
"j  c #245363",
"k  c #285163",
"l  c #2C5569",
"z  c #235E6F",
"x  c #34526C",
"c  c #39526D",
"v  c #32586E",
"b  c #275E71",
"n  c #2A5C70",
"m  c #365672",
"M  c #395571",
"N  c #335B73",
"B  c #395973",
"V  c #365F7A",
"C  c #1C6275",
"Z  c #1F6D79",
"A  c #27626D",
"S  c #256473",
"D  c #2A6276",
"F  c #246578",
"G  c #256E7D",
"H  c #2C6C7D",
"J  c #336176",
"K  c #33657C",
"L  c #316B7E",
"P  c #1E7787",
"I  c #117885",
"U  c #1D7E8B",
"Y  c #2D6D81",
"T  c #326E82",
"R  c #217584",
"E  c #2C7383",
"W  c #247A85",
"Q  c #2C7987",
"!  c #2A7789",
"~  c #237B8A",
"^  c #2C7B8B",
"/  c #337284",
"(  c #317589",
")  c #327B8C",
"_  c #2D7E91",
"`  c #357F90",
"'  c #387E90",
"]  c #16848E",
"[  c #1A818C",
"{  c #1B8795",
"}  c #128995",
"|  c #1D8E9C",
" . c #0E919B",
".. c #19929D",
"X. c #26808E",
"o. c #29818B",
"O. c #248492",
"+. c #2A8493",
"@. c #248B96",
"#. c #298D94",
"$. c #2C8C99",
"%. c #348191",
"&. c #29969F",
"*. c #0E9FA8",
"=. c #179CA5",
"-. c #199CA5",
";. c #1A9FA9",
":. c #1CA2AC",
">. c #1CABAF",
",. c #12BBBF",
"<. c #1DB8BC",
"1. c #22A5B1",
"2. c #23AFB4",
"3. c #24B1B6",
"4. c #10BFC3",
"5. c #1CBFC1",
"6. c #0FC0C3",
"7. c #1CC1C4",
"8. c #13CACC",
"9. c #1ECDCD",
"0. c #1DD4D4",
"q. c #21C3C9",
"w. c #22CDCF",
"e. c #37CDD1",
"r. c #24D3D4",
"t. c #24DFDE",
"y. c #3BE0E0",
"u. c #3AF3F0",
"i. c #38FBF7",
"p. c #3BFFFC",
"a. c #47EDEF",
"s. c #41F3F3",
"d. c #4BF7F5",
"f. c #46F9F7",
"g. c #47FBFA",
"h. c #4BFFFC",
"j. c #53F7F4",
"k. c #54F9F7",
"l. c #56F8F5",
"z. c #59F8F7",
"x. c #50FDF9",
"c. c #51FEF9",
"v. c #52FEFA",
"b. c #57FEFA",
"n. c #55FFFE",
"m. c #58FCF9",
"M. c #5BFFFC",
"N. c #5BFFFC",
"B. c #67FBF8",
"V. c #66FDFB",
"C. c #62FFFE",
"Z. c #65FFFE",
"A. c #67FFFF",
"S. c #67FFFE",
"D. c #6CFBF9",
"F. c #69FEFD",
"G. c #68FFFE",
"H. c #6AFFFE",
"J. c #6FFEFD",
"K. c #6FFFFF",
"L. c #6DFFFE",
"P. c #70FFFF",
"I. c #75FEFE",
"U. c #74FEFE",
"Y. c #77FEFE",
"T. c #72FEFD",
"R. c #78FEFF",
/* pixels */
"j %.%.) ` ` ` ` %.) ` %.' %./ % ",
"^ ^ Q c h g f K o.g N #.J h g = ",
"^ T K c V J V T Q N K $.Q h x = ",
"^ B h Q +.X.O.O.G G ^ L T c x = ",
"^ M ( E C ,.5.5.7.5.7.| f M g , ",
"^ B T U q.m.G.G.Z.Z.M.t.~ x l = ",
"^ B m 4.p.b.c.c.c.l.D.Z.9.Z E = ",
"Q K L [ { [ [ [ [ 6.d.I.r.y N = ",
"Q +.&.i d p u u t { f.I.w.z J % ",
"Q E $.z ! ! ~ U P *.d.R.w.G L * ",
"Q c L X.b n R 5.<.t.B.C.7.S L * ",
") V c K ! T | h.P.V.J.r.C A Y * ",
") ) E g h s { i.l.j.G.y.U W N = ",
"^ %.E m B M Y | { 8.j.J.0.D c = ",
"; 6 6 6 6 6 3 < > } f.I.r.q 3 $ ",
". o o o X X O #   I g.I.r.; . + ",
": H H T ~ R F D n  .s.I.w.H K $ ",
"^ ) L 1.s.a.e.2.3.r.z.J.r.p t , ",
") / k ] d.P.P.J.J.J.T.n.>.2 6 1 ",
"( ( 9 3 ..u.M.M.N.M.h.<.i 2 6 1 ",
"T _ e H @.:.;.-.=.-.:.@.r Q l = ",
"/ v 4 / o.x E H G ! Y / j J v % ",
"/ x 2 c 3 1 9 9 9 8 +.x q g g % ",
"/ x 5 6 , , 7 a a 4 ! x w x g = ",
"/ K +.x , , w u u 5 ^ N i a x = ",
"/ K H x 2 , w u w 5 ^ Y R q g % ",
"L n e g w 1 1 1 1 - +.m q w x , ",
"H i p c M w 6 6 6 r $.w a c g , ",
"L i v x ( W 9 6 0 q k t c M x & ",
"T Y E x +.+.N M M M c B B B d , ",
"i u p w u u a u u u u p p w 6 % ",
"@ $ $ $ $ $ $ @ @ $ $ $ $ $ $ @ "
};
