/* XPM */
static char *_d43b27bd8de4b6fa99fe7923ca7dc659knL8puRG1KwliYa[] = {
/* columns rows colors chars-per-pixel */
"16 32 159 2 ",
"   c #1D1026",
".  c #171C2F",
"X  c #181E30",
"o  c #20182E",
"O  c #172032",
"+  c #1A2234",
"@  c #1C2539",
"#  c #20273D",
"$  c #22293E",
"%  c #1F2D43",
"&  c #1D3547",
"*  c #1E3649",
"=  c #212D43",
"-  c #223046",
";  c #24344B",
":  c #2A314B",
">  c #24394E",
",  c #263750",
"<  c #2A3751",
"1  c #253D53",
"2  c #293D55",
"3  c #2B3F59",
"4  c #1A4A5C",
"5  c #244255",
"6  c #294057",
"7  c #27445C",
"8  c #2B435B",
"9  c #30475F",
"0  c #1C5365",
"q  c #1F5469",
"w  c #1C5A6B",
"e  c #2E4661",
"r  c #234C61",
"t  c #2D4A62",
"y  c #334762",
"u  c #384764",
"i  c #324A65",
"p  c #384966",
"a  c #334E69",
"s  c #394F6B",
"d  c #245163",
"f  c #235769",
"g  c #2C546B",
"h  c #245A6C",
"j  c #2A596E",
"k  c #35536D",
"l  c #38506D",
"z  c #245C70",
"x  c #2C5C73",
"c  c #345671",
"v  c #345A74",
"b  c #385D77",
"n  c #365E79",
"m  c #385E79",
"M  c #1B6374",
"N  c #1A717E",
"B  c #236475",
"V  c #2C6275",
"C  c #256579",
"Z  c #2C657A",
"A  c #26697C",
"S  c #2B6C7D",
"D  c #326177",
"F  c #34647C",
"G  c #38617B",
"H  c #21707E",
"J  c #29707F",
"K  c #177382",
"L  c #1C7282",
"P  c #1D7B8A",
"I  c #226F81",
"U  c #2D6D81",
"Y  c #396781",
"T  c #336981",
"R  c #247484",
"E  c #2A7283",
"W  c #257987",
"Q  c #257688",
"!  c #2C7589",
"~  c #257C8C",
"^  c #2C7B8D",
"/  c #307182",
"(  c #31748A",
")  c #327C8E",
"_  c #257D90",
"`  c #2D7F91",
"'  c #317690",
"]  c #337D91",
"[  c #1A8090",
"{  c #1B8897",
"}  c #1D8E9A",
"|  c #26808D",
" . c #2B808D",
".. c #278291",
"X. c #2C8395",
"o. c #248A97",
"O. c #288896",
"+. c #248B9A",
"@. c #2A8A99",
"#. c #338193",
"$. c #318498",
"%. c #1E94A1",
"&. c #2195A2",
"*. c #279CA7",
"=. c #289AA6",
"-. c #18A7B0",
";. c #1BAEB5",
":. c #19B4BC",
">. c #21AFB7",
",. c #22B0BA",
"<. c #2CB6BD",
"1. c #15BCC1",
"2. c #19BEC4",
"3. c #36BCC4",
"4. c #0AC9CB",
"5. c #25DBDB",
"6. c #30DFDF",
"7. c #3ADFE1",
"8. c #2BE4E5",
"9. c #2DE9E7",
"0. c #34E5E5",
"q. c #3AE4E4",
"w. c #3BE9E9",
"e. c #39F6F1",
"r. c #3BFAF7",
"t. c #40EAE9",
"y. c #49EFEF",
"u. c #43F4F1",
"i. c #4DF3F2",
"p. c #4BF9F7",
"a. c #4DFBF9",
"s. c #55F9F7",
"d. c #5FFFFC",
"f. c #64F9F7",
"g. c #6AF8F7",
"h. c #63FEFC",
"j. c #67FFFE",
"k. c #64FCFA",
"l. c #69FBF9",
"z. c #6CFCFA",
"x. c #68FFFD",
"c. c #73FAF8",
"v. c #73FCFA",
"b. c #74FCFA",
"n. c #74FDFB",
"m. c #70FEFD",
"M. c #72FFFE",
"N. c #71FEFE",
"B. c #74FDFC",
"V. c #75FEFE",
"C. c #75FFFE",
"Z. c #77FFFE",
"A. c #77FEFC",
"S. c #7BFFFE",
"D. c #7AFFFF",
"F. c #7CFFFE",
"G. c #7DFFFF",
"H. c #7AFEFE",
"J. c #80FFFF",
/* pixels */
"& E E E R E E E E E E E E E C + ",
"R #.) n n n m T X.F Y ) F b c = ",
"R ` ^ l p p u k  .k c *.~ s k = ",
"R F s c X.X.^ ` R C ! U ^ s k = ",
"R F c +.E j U F W P %.+.+.v k = ",
"R n ( R : 6 z 8 t 2.9.s.8.C y - ",
"R n ( h 6 d } &.M 6.l.Z.q.M V = ",
"W G ! h g N &._ 3.l.l.m.q.M Z = ",
"R ^ O.f 2 5 r <.d.b.z.m.q.w k = ",
"Q @.=.0 U V <.d.c.0.t.D.7.K U = ",
"E F ( H 1 >.a.n.i.4.0.F.7.N S $ ",
"J G s E %.y.b.p.;.P 0.F.q.N S $ ",
"S T k ~ e.n.i.-.g L 0.D.q.L Z # ",
"E X./ { u.Z.8.:.,.1.q.D.q.B a % ",
"h D i [ u.Z.g.x.j.l.l.Z.q.z y = ",
"X +   K r.h.d.k.k.k.f.m.w.4 o + ",
". * & f ;.:.:.:.:.1.0.Z.w.w & O ",
"d ] #.F x S j j g R 0.D.q.I F % ",
"U U V 8 Z U i a y I 0.D.w.q : - ",
"Z F 5 ; 1 2 ; B d P q.J.w.0 : - ",
"V $.w 3 U X.^ @.O.o.5.w.5.B 6 = ",
"V ] r V *.^ ( ' ! U A I B S Z $ ",
"Z v ; v j 1 A R R Q ^ k 8 a k = ",
"Z n ; 9 , = ; < 1 ; | c 8 a k = ",
"Z n d 7 > ; 6 t e 1 | c 6 i k = ",
"Z T O.F 2 % 6 t 8 1 ..T A 2 k = ",
"Z D B a 6 % > 3 2 > ..Z Z 2 a = ",
"x j d i a ; % ; - * @.a < y k = ",
"V 7 8 a k g 2 6 3 7 ~ 1 i k a = ",
"x z V i U o.j 2 6 2 6 t k k k = ",
"x Z Z i V E v k c k c k k k y = ",
"& 1 < 2 2 2 2 2 2 2 3 2 2 2 ; @ "
};
