/* XPM */
static char *_75b5cef0c5b4df9acf52965b865acb97zUBOMLUTWspUgOV[] = {
/* columns rows colors chars-per-pixel */
"16 32 166 2 ",
"   c #1E172B",
".  c #181F2F",
"X  c #1B1E32",
"o  c #1B2134",
"O  c #1B2739",
"+  c #1D2C3E",
"@  c #22273E",
"#  c #1D2E41",
"$  c #1D3546",
"%  c #212D42",
"&  c #2B2E4A",
"*  c #223045",
"=  c #25344B",
"-  c #2B354E",
";  c #23394E",
":  c #283751",
">  c #253D54",
",  c #2A3C55",
"<  c #293F59",
"1  c #194457",
"2  c #254056",
"3  c #2A4156",
"4  c #23415E",
"5  c #2B435C",
"6  c #244B5E",
"7  c #294A5E",
"8  c #32455D",
"9  c #1B5263",
"0  c #2B4761",
"q  c #234C63",
"w  c #2B4A62",
"e  c #344460",
"r  c #394763",
"t  c #334C65",
"y  c #364E69",
"u  c #384B68",
"i  c #235465",
"p  c #285065",
"a  c #275B66",
"s  c #24556A",
"d  c #2C566C",
"f  c #235B6B",
"g  c #295B6B",
"h  c #355067",
"j  c #35536C",
"k  c #38536E",
"l  c #255C72",
"z  c #2F5F76",
"x  c #365670",
"c  c #385570",
"v  c #335B73",
"b  c #375F79",
"n  c #395F7A",
"m  c #166172",
"M  c #156878",
"N  c #246275",
"B  c #2D6375",
"V  c #226678",
"C  c #2D657A",
"Z  c #246A7B",
"A  c #2C6B7C",
"S  c #336077",
"D  c #35637B",
"F  c #39637A",
"G  c #326C7E",
"H  c #27707F",
"J  c #167D8E",
"K  c #2D6D82",
"L  c #346981",
"P  c #267383",
"I  c #2B7383",
"U  c #24778B",
"Y  c #2F7489",
"T  c #257C8B",
"R  c #2C7A8B",
"E  c #327585",
"W  c #30768B",
"Q  c #317B8D",
"!  c #247991",
"~  c #1D838E",
"^  c #1E8290",
"/  c #1C8E9B",
"(  c #1E919E",
")  c #23828F",
"_  c #2F808F",
"`  c #258492",
"'  c #2C8594",
"]  c #238994",
"[  c #2A8C96",
"{  c #288B9A",
"}  c #338492",
"|  c #1C95A2",
" . c #1B9AA6",
".. c #1F9BA8",
"X. c #2296A1",
"o. c #289AA2",
"O. c #14A5AE",
"+. c #13A6B1",
"@. c #1CA6B1",
"#. c #14AAB3",
"$. c #15B6BE",
"%. c #1EB7BE",
"&. c #1CBBBE",
"*. c #23A5AC",
"=. c #1BBFC6",
"-. c #20BBC1",
";. c #30BCC4",
":. c #1ACACF",
">. c #1BD3D5",
",. c #20C1C7",
"<. c #21C3C9",
"1. c #2AC3C8",
"2. c #27CACE",
"3. c #36C1C7",
"4. c #20CFD2",
"5. c #2BCED1",
"6. c #29D2D4",
"7. c #27D7D9",
"8. c #2AD7D9",
"9. c #26D8DA",
"0. c #29DADB",
"q. c #31DEDD",
"w. c #35E0DF",
"e. c #2BDEE0",
"r. c #2DE4E3",
"t. c #36E1E0",
"y. c #3CE3E4",
"u. c #34ECEA",
"i. c #3CE8E8",
"p. c #3EEEF0",
"a. c #37F0F0",
"s. c #3EF2F2",
"d. c #46E4E5",
"f. c #45EDED",
"g. c #4DF1EF",
"h. c #45F2F1",
"j. c #4CF5F4",
"k. c #4FF8F7",
"l. c #4DFEFC",
"z. c #54F6F5",
"x. c #59F3F2",
"c. c #57FAFA",
"v. c #58FFFF",
"b. c #65F8F8",
"n. c #6BF8F9",
"m. c #6AFDFD",
"M. c #6AFEFE",
"N. c #6DFDFD",
"B. c #6CFDFE",
"V. c #6FFEFE",
"C. c #6AFEFC",
"Z. c #75FAFB",
"A. c #73FDFD",
"S. c #70FFFE",
"D. c #70FFFF",
"F. c #73FFFF",
"G. c #77FDFC",
"H. c #75FFFF",
"J. c #75FFFE",
"K. c #75FEFE",
"L. c #7BFEFD",
"P. c #79FFFF",
"I. c #78FEFE",
"U. c #7CFCFD",
"Y. c #7DFEFD",
"T. c #7CFEFD",
/* pixels */
"$ A A H I I I I K I I A A I B o ",
"A Q R b b S b L _ D D Q D n v % ",
"I Q R y y y r v ' k j o.R u j % ",
"I b k x Y Y Y Y K A R G I y k * ",
"I b k X. ./ ( / / /  .^ ` v c % ",
"I v D $.a.j.f.f.f.h.f.h.4.d t * ",
"I v S #.z.U.G.F.F.F.F.P.5.N A % ",
"I b S +.j.G.y.7.8.6.5.8.=.N A % ",
"E E E +.j.G.1.q q U Z I 0 > v % ",
"E } } #.j.G.;.C W ' Z E & f I % ",
"E S F #.j.F.2.| *...` ` 5 i I % ",
"E v r O.k.Z.x.x.x.c.d.~ f f E @ ",
"E S h O.l.N.m.N.m.n.N.d.~ P A @ ",
"E Q G | :.<.<.<.,.>.x.G.6.Z j % ",
"a v j w w 0 0 w 3 J h.P.9.s 8 + ",
". X X o o o X o   m s.P.e.1   o ",
"X $ $ + O + # $ + M p.U.0.9 $ o ",
"g } E X.%.-.*.) ) O.f.U.8.V v + ",
"I E d @.v.m.g.y.d.f.b.G.8.q - * ",
"A S ; p 3.z.F.G.G.G.F.i.T % < * ",
"B R s e f &.u.t.q.w.r.( , i w % ",
"B Q 6 A [ W ! U T U N R i A B % ",
"A v = v g > Z P I Z T v 7 t t % ",
"A v = 8 * + : : ; $ ` v 3 t t % ",
"A v i 2 = = 5 0 5 > ] v < e j % ",
"A S [ D : * 5 7 7 > T K Z 2 t % ",
"A z g y < % : < < ; T C Z 3 t % ",
"C l 6 t y = % = * # { j - e j % ",
"C 4 w y k w : 3 < > R > e k t % ",
"C f C t I ] q : < < 3 0 j j t % ",
"B A A t C Y v x x x k j j j e % ",
"; : : < , : , < < < < < < < = O "
};
