/* XPM */
static char *_81e93665ee24008fd539c9561c21debOOab3z5YImXnu6KH[] = {
/* columns rows colors chars-per-pixel */
"16 32 168 2 ",
"   c #150C1F",
".  c #171224",
"X  c #181123",
"o  c #151A2C",
"O  c #151E30",
"+  c #172334",
"@  c #1A2135",
"#  c #1B2539",
"$  c #1C293B",
"%  c #20263D",
"&  c #28233A",
"*  c #25293D",
"=  c #1E2D41",
"-  c #1B364B",
";  c #1E384B",
":  c #292740",
">  c #2A2D47",
",  c #223145",
"<  c #25344C",
"1  c #28344D",
"2  c #243A4E",
"3  c #273750",
"4  c #283650",
"5  c #253C52",
"6  c #293C53",
"7  c #313D57",
"8  c #1F4755",
"9  c #1B495B",
"0  c #224154",
"q  c #2B4056",
"w  c #26465C",
"e  c #2C445A",
"r  c #244A5D",
"t  c #30435C",
"y  c #23505F",
"u  c #1E5064",
"i  c #1F5966",
"p  c #1D5A6C",
"a  c #2D4761",
"s  c #254E62",
"d  c #2D4B63",
"f  c #304662",
"g  c #394663",
"h  c #324A64",
"j  c #394A67",
"k  c #334F69",
"l  c #3A4C6A",
"z  c #245362",
"x  c #2A5063",
"c  c #245967",
"v  c #265369",
"b  c #2B536A",
"n  c #235B6A",
"m  c #2B5B6C",
"M  c #35526C",
"N  c #39516D",
"B  c #2B5B71",
"V  c #365570",
"C  c #395671",
"Z  c #335C74",
"A  c #385870",
"S  c #345E78",
"D  c #106673",
"F  c #146975",
"G  c #156B79",
"H  c #1C6D7D",
"J  c #236475",
"K  c #2C6275",
"L  c #206976",
"P  c #216478",
"I  c #2C647A",
"U  c #226C7A",
"Y  c #2C6B7D",
"T  c #336375",
"R  c #32647B",
"E  c #336B7D",
"W  c #26737D",
"Q  c #177180",
"!  c #1C7183",
"~  c #177D8D",
"^  c #1B7D8C",
"/  c #2B6C82",
"(  c #366780",
")  c #346B82",
"_  c #2B7183",
"`  c #2B768A",
"'  c #247B8A",
"]  c #2C7D8D",
"[  c #347087",
"{  c #337389",
"}  c #327A8C",
"|  c #2B7A91",
" . c #347D93",
".. c #1B818D",
"X. c #138292",
"o. c #1C8493",
"O. c #1E8897",
"+. c #1E8D9B",
"@. c #1C919F",
"#. c #24828E",
"$. c #2A838D",
"%. c #248494",
"&. c #2B8292",
"*. c #2D8A95",
"=. c #268A9A",
"-. c #2B8D9B",
";. c #348193",
":. c #24909D",
">. c #29919E",
",. c #0B9BA6",
"<. c #1C95A2",
"1. c #1B9AA4",
"2. c #1E9EA9",
"3. c #2393A1",
"4. c #1FA6B2",
"5. c #20A4AE",
"6. c #24B4BC",
"7. c #32BDC4",
"8. c #1FC6CB",
"9. c #19C9CE",
"0. c #2AC1C6",
"q. c #28C6CA",
"w. c #26C9CD",
"e. c #2AC8CB",
"r. c #30C8CC",
"t. c #28CBD0",
"y. c #30CED0",
"u. c #26D1D4",
"i. c #2CD3D7",
"p. c #2CDBDE",
"a. c #33D3D5",
"s. c #33D6D8",
"d. c #39D6D8",
"f. c #2FDFE0",
"g. c #2CE4E6",
"h. c #33E4E6",
"j. c #38E6E4",
"k. c #3CEDED",
"l. c #3EF4F2",
"z. c #40DFDF",
"x. c #44EDEC",
"c. c #4EEDED",
"v. c #44F4F2",
"b. c #49F4F3",
"n. c #40F8F5",
"m. c #50F4F3",
"M. c #5AF4F5",
"N. c #56FCFA",
"B. c #5AFEFC",
"V. c #61FDFD",
"C. c #6DFFFF",
"Z. c #6FFFFF",
"A. c #6CFFFE",
"S. c #75FBF9",
"D. c #75FCFB",
"F. c #70FAFC",
"G. c #71FFFF",
"H. c #72FEFE",
"J. c #75FFFF",
"K. c #77FFFF",
"L. c #74FCFC",
"P. c #7BFFFF",
"I. c #79FDFE",
"U. c #7EFEFE",
"Y. c #7DFEFE",
"T. c #78FCFC",
"R. c #80FFFF",
"E. c #80FCFD",
/* pixels */
"8 } } [ [ ) [ ) { { [ } [ ) ) 6 ",
"n ] $.S l l l l ] T j *.] l N 6 ",
"c { R C S ) ( ) ] K R _ =.M C 6 ",
"i [ j ) >.] ' %.%.P %.Y ] V C 6 ",
"i ) M >.h c 0.e.q.q.0.8./ N M 6 ",
"n ) T _ J z.A.C.H.C.J.N.5.a m 6 ",
"n [ M +.j.H.S.M.b.b.b.n.6.r $.w ",
"c } T @.k.D.m.9.~ +.<.1./ , B 6 ",
"c *.*.<.k.P.p.! h ` _ { t ; _ 6 ",
"c } E <.k.Y.a.Q =.O.P -.b 0 &.6 ",
"c [ g O.k.P.x.i.a.s.a.#.J 0 ] 6 ",
"c [ g ^ l.F.H.J.J.J.H.d.~ n ] 6 ",
"z ;.) o.k.P.c.j.x.j.M.C.s.^ Y 6 ",
"z ;.E ~ k.E.f.X.! ,.g.E.b.Q g 2 ",
"$ 2 : Q l.Y.h.u & 0 i.Y.b.G * # ",
"o o   D n.Y.h.9 . - i.P.b.F X O ",
"+ n K ~ k.Y.p.H K H u.P.x...E 2 ",
"z } E +.l.J.x.t.7.w.x.P.v.^ 7 6 ",
"z [ m p r.V.S.J.H.C.S.A.y.9 1 6 ",
"y  .n > v w.B.N.N.N.B.d.b 1 2 1 ",
"r  .P d ] -.4.1.1.1.2.3.B J Y 1 ",
"s ) 2 b -.B / _ / ` | R J x R 1 ",
"z ) 1 h t $ 0 r r 0 ' R e e N 6 ",
"z ( e 2 < , 6 f a 1 L E e e A 6 ",
"z ( ] / q = 5 a a 3 U ) b 5 M 6 ",
"z ) _ R t = 5 a a 4 U _ #.r h 6 ",
"s I c h M 1 = , < % U / w 6 M 6 ",
"z B r k M h 6 6 6 1 ] K 1 M M 6 ",
"x v w k Z ' s 3 3 1 z w k M M 6 ",
"s Y W M I :.Y k k M h M M M k 6 ",
"5 b d a h d f d h h k h h h 6 , ",
"o # @ # # # # # # # # # # # # @ "
};
