/* XPM */
static char *_23a08902dcf4613b7bb5e7085ef4a143L3cTcpXCkG9tqV0[] = {
/* columns rows colors chars-per-pixel */
"16 32 151 2 ",
"   c #161B2E",
".  c #1B192E",
"X  c #1B1F34",
"o  c #152335",
"O  c #1B2136",
"+  c #142738",
"@  c #1B2439",
"#  c #162B3D",
"$  c #1C293D",
"%  c #21273E",
"&  c #22283D",
"*  c #1E2E45",
"=  c #1B3246",
"-  c #1F3448",
";  c #1E3D4E",
":  c #212E44",
">  c #233046",
",  c #24334A",
"<  c #253B52",
"1  c #293D55",
"2  c #2B3E59",
"3  c #1D4052",
"4  c #1C4855",
"5  c #1F4A5B",
"6  c #234156",
"7  c #24455B",
"8  c #2C435C",
"9  c #224B5D",
"0  c #30445F",
"q  c #194F60",
"w  c #1E5563",
"e  c #1E5A6B",
"r  c #2D4560",
"t  c #264B61",
"y  c #2E4B64",
"u  c #344562",
"i  c #314A65",
"p  c #344E69",
"a  c #384E6C",
"s  c #245167",
"d  c #295167",
"f  c #24576B",
"g  c #2E566F",
"h  c #245A6C",
"j  c #33526D",
"k  c #265E71",
"l  c #2D5F76",
"z  c #355570",
"x  c #335B74",
"c  c #365F78",
"v  c #176777",
"b  c #1F6676",
"n  c #106E7C",
"m  c #1F6A78",
"M  c #256374",
"N  c #2D6377",
"B  c #246A77",
"V  c #2D657A",
"C  c #246B7D",
"Z  c #296A7E",
"A  c #32647B",
"S  c #316A7F",
"D  c #177581",
"F  c #1F7182",
"G  c #187C87",
"H  c #177B8C",
"J  c #1B7B8A",
"K  c #266B81",
"L  c #2D6D81",
"P  c #326C82",
"I  c #267385",
"U  c #2B7484",
"Y  c #227C87",
"T  c #2A7986",
"R  c #257789",
"E  c #2C7589",
"W  c #267A8B",
"Q  c #2B7B8D",
"!  c #307486",
"~  c #30758A",
"^  c #2D7E92",
"/  c #19818E",
"(  c #1B8592",
")  c #1A8997",
"_  c #1C8E9B",
"`  c #12929E",
"'  c #24828F",
"]  c #258292",
"[  c #298494",
"{  c #2D8599",
"}  c #228E9B",
"|  c #2B8A99",
" . c #308092",
".. c #1A97A7",
"X. c #1A9AA8",
"o. c #2593A1",
"O. c #2B93A2",
"+. c #299BA5",
"@. c #12A4AD",
"#. c #1CA4AD",
"$. c #1AA4B0",
"%. c #15ABB4",
"&. c #19A8B0",
"*. c #21A6AE",
"=. c #1DC7CC",
"-. c #1CCCCF",
";. c #29C5C8",
":. c #2ACBCD",
">. c #24CED1",
",. c #2DCFD4",
"<. c #3ACFD0",
"1. c #28D0D1",
"2. c #30D8DA",
"3. c #22E6E5",
"4. c #2FE2E0",
"5. c #2EEEEB",
"6. c #31E5E6",
"7. c #3BE3E3",
"8. c #35EBEA",
"9. c #3FEEED",
"0. c #42EDEC",
"q. c #43F5F2",
"w. c #4FF5F2",
"e. c #4EF8F5",
"r. c #50F5F3",
"t. c #55F6F4",
"y. c #52F8F6",
"u. c #52F9F7",
"i. c #50F8F7",
"p. c #51FDFB",
"a. c #57FFFD",
"s. c #5CFBFA",
"d. c #59FFFC",
"f. c #6EFDFA",
"g. c #68FEFC",
"h. c #6AFFFC",
"j. c #6DFEFC",
"k. c #6FFFFD",
"l. c #69FFFB",
"z. c #73FEFA",
"x. c #74FDFB",
"c. c #73FDFD",
"v. c #70FFFD",
"b. c #72FEFD",
"n. c #72FFFD",
"m. c #70FFFE",
"M. c #70FFFF",
"N. c #77FFFE",
"B. c #79FFFD",
"V. c #79FFFF",
"C. c #7BFFFD",
/* pixels */
"; U U U U U U U U U U U U T B @ ",
"U  .Q c c c c P W x A Q A c x : ",
"U Q U j p p a V ] j x o.I p j : ",
"U A p x ^ Q Q ^ Q I Q P I a j > ",
"T A j } #.....X.@.` %.$.} x j > ",
"T x P &.8.t.w.r.w.e.w.y.5.R u > ",
"T x S %.q.V.k.v.v.k.f.V.0.) V : ",
"T c P _ =.1.>.>.>.-.6.v.0.) Z : ",
"U ^ O.f < ; 6 7 8 H 3.N.9.J z > ",
"U [ +.e R W I R Z } y.v.<.J U : ",
"T c L m f k 9 w 3 #.v.a.G 4 E & ",
"T x p [ { { o.' b 7.k.7.v w U % ",
"U A x j z j P I *.s.d.@.9 Y P % ",
"U | Q z z z a I 0.v.4.C Z Q j : ",
"h l g p i i 2 *.h.x.:.t 8 r i : ",
"  O O @ @ X = :.z.p./ . O O @ X ",
"  o o o # . n q.h.2.q o + o o   ",
"5 R C C R J ;.l.y.J h W R I M @ ",
"! Q B 8 y ( q.C.7.M y y r 1 1 > ",
"P S 9 < , D 0.C.,.7 - , , > 1 , ",
"P ~ 7 8 d ( 3.0.=.K Z h 1 6 6 , ",
"S Q 9 V +.U I F Z E U [ 9 B V : ",
"P j , S L y U Z Z I R L b y j : ",
"S j , p , * < < < = W E C u p : ",
"P z < < > : 2 8 0 < R A s i j : ",
"P S W g , $ 2 8 8 1 W l e 8 j > ",
"P S k p , $ 1 8 8 1 Q V C < p > ",
"A N t y 8 : : , > = [ z , 1 j , ",
"V 7 8 y p 8 1 8 2 8 | 6 8 z j > ",
"N 9 t 8 U ' 9 < 1 1 7 8 z j j > ",
"N M M y L Q x j j j j j j j i > ",
"7 1 1 2 8 8 2 8 8 8 8 8 8 8 < $ "
};
