/* XPM */
static char *_8b7a60202b04d85ffa7d4e7264ad6fcRDPk9lF4K1aJuor7[] = {
/* columns rows colors chars-per-pixel */
"16 32 166 2 ",
"   c #150F21",
".  c #180F22",
"X  c #16172A",
"o  c #17192D",
"O  c #1A1B2E",
"+  c #161F31",
"@  c #162133",
"#  c #1A2335",
"$  c #1D283D",
"%  c #20273D",
"&  c #202B3F",
"*  c #1E2E42",
"=  c #1F3349",
"-  c #193A4C",
";  c #1F3F52",
":  c #212D43",
">  c #223046",
",  c #25344B",
"<  c #2B334C",
"1  c #21394E",
"2  c #293550",
"3  c #253C54",
"4  c #293953",
"5  c #2A3E58",
"6  c #194352",
"7  c #224156",
"8  c #264259",
"9  c #2C435D",
"0  c #1F4F60",
"q  c #1B5667",
"w  c #1D5C6B",
"e  c #2F4661",
"r  c #264F65",
"t  c #2C4B63",
"y  c #2E4F69",
"u  c #304660",
"i  c #314D66",
"p  c #384967",
"a  c #354D69",
"s  c #384D6B",
"d  c #235566",
"f  c #295266",
"g  c #26556A",
"h  c #29566B",
"j  c #255C6D",
"k  c #2A5A6E",
"l  c #33526C",
"z  c #2C5770",
"x  c #2B5D72",
"c  c #355571",
"v  c #325C75",
"b  c #375F7A",
"n  c #1E6173",
"m  c #1A6B79",
"M  c #21606F",
"N  c #226677",
"B  c #2B6376",
"V  c #25667B",
"C  c #2E647A",
"Z  c #226D7C",
"A  c #2B6B7C",
"S  c #32627A",
"D  c #38607B",
"F  c #32697E",
"G  c #2D747F",
"H  c #167182",
"J  c #1D7282",
"K  c #1E7E8F",
"L  c #2F6D83",
"P  c #346780",
"I  c #316B81",
"U  c #267483",
"Y  c #2C7384",
"T  c #237886",
"R  c #2A7A87",
"E  c #237588",
"W  c #2E778A",
"Q  c #257D8C",
"!  c #2C7B8A",
"~  c #307186",
"^  c #347B8C",
"/  c #2A7D93",
"(  c #337E90",
")  c #148A94",
"_  c #1F8A97",
"`  c #198D98",
"'  c #1F909D",
"]  c #23818E",
"[  c #30808F",
"{  c #258393",
"}  c #2B8393",
"|  c #248897",
" . c #2B8798",
".. c #258B9A",
"X. c #2A8C9A",
"o. c #149DA4",
"O. c #1D9AA5",
"+. c #2690A0",
"@. c #2B97A5",
"#. c #229CA7",
"$. c #09A2A8",
"%. c #15A4AC",
"&. c #1BA1AD",
"*. c #14A9AF",
"=. c #14A9B2",
"-. c #1DABB2",
";. c #08B6B9",
":. c #16B0B6",
">. c #11B5BC",
",. c #1CB4BB",
"<. c #22ABB4",
"1. c #31B8BE",
"2. c #0BBCC1",
"3. c #1BBDC3",
"4. c #21BDC3",
"5. c #0FC8CA",
"6. c #1DC0C6",
"7. c #10D2D5",
"8. c #22C3C9",
"9. c #2DC9CD",
"0. c #25CED0",
"q. c #28D1D3",
"w. c #27D7D8",
"e. c #2BD7D9",
"r. c #2DDCDC",
"t. c #30D5D7",
"y. c #30D7D9",
"u. c #2CE8E6",
"i. c #33E5E4",
"p. c #35EBE9",
"a. c #3BECEB",
"s. c #3FEFF0",
"d. c #3FF3F1",
"f. c #40ECEA",
"g. c #4EF2EE",
"h. c #41F4F2",
"j. c #4CF5F2",
"k. c #4DF9F6",
"l. c #52F6F4",
"z. c #55FAF6",
"x. c #5BF8F4",
"c. c #55FDFA",
"v. c #5CFFFB",
"b. c #65FAF7",
"n. c #6CF9F6",
"m. c #66FEFD",
"M. c #6AFFFD",
"N. c #6CFFFE",
"B. c #6DFFFF",
"V. c #6FFFFF",
"C. c #6FFEFC",
"Z. c #6BFDFB",
"A. c #70FDFB",
"S. c #77FCF9",
"D. c #74FFFA",
"F. c #74FEFE",
"G. c #75FEFE",
"H. c #75FFFE",
"J. c #77FFFF",
"K. c #76FEFE",
"L. c #71FFFF",
"P. c #78FEFB",
"I. c #79FEFD",
"U. c #7CFFFF",
"Y. c #7DFFFF",
"T. c #78FDFC",
/* pixels */
"d ( ^ ^ ^ ^ ^ ^ ! ^ ( [ ^ ( I & ",
"! ! ! a a a s v | c z ..x p a > ",
"R I I l c v v I / S C } R a l > ",
"R b p L +.} { ..K Z  .~ Y a l : ",
"Y v P | 9 ' 8.4.3.,.4.Q a c a : ",
"R c W B Z f.M.B.M.B.m.1.v l y : ",
"R v S o.g.J.b.z.c.l.n.B.9.J U : ",
"Y I v =.c.S.p.$.) 2.l.I.q.w C : ",
"Y X.} *.l.m.6.t 5 J d.J.0.n I : ",
"! ! Y *.z.m.-.V E J a.J.0.J W % ",
"! v l :.v.n.5.) ` ;.a.Y.y.m A % ",
"G c p { u.n.x.c.c.c.n.k.O.d A % ",
"A Y F S t.B.S.M.m.b.P.l.#.Z x % ",
"Y  .~ &.c.A.i.3.3.7.j.Y.r.V a : ",
"7 9 2 %.c.m.,.3 4 H a.J.e.d 5 $ ",
"o X . o.v.M.<.O   q s.J.r.-   + ",
"+ - - %.v.m.-.1 1 n a.J.e.q 6 @ ",
"d U B :.c.Z.w.=.&.>.g.I.e.n z > ",
"A Y x ) h.B.b.l.j.j.Z.B.9.3 < > ",
"Y I 7 : _ z.L.L.B.M.v.9.g : 1 : ",
"I } 0 y B <.8.4.4.6.,.A e j t : ",
"F C ; Y @.S B B A Y v W n x B : ",
"C y , S h 3 w M N Z ..S r u a : ",
"F l , 9 : $ , 2 2 : T b 9 e a : ",
"F v j 8 * * 8 9 9 1 Q D t e l : ",
"F I Q l 1 * 5 9 9 1 Q L ] 9 a : ",
"F x f i 3 : 1 3 4 = Q S x 3 a : ",
"B h t y i 1 * > > = X.l , i l : ",
"C 8 8 e z g 3 5 5 8 Z 3 i l a : ",
"C j x e Y ..g 9 e 9 9 i l l a : ",
"x k k e z C l l l l c l l i 9 : ",
"* , : > > > , , , , , , , , > # "
};
