/* XPM */
static char *_7733105c6184bb7ea429bbed259ee9dR3dTBKzIYvdOe4iX[] = {
/* columns rows colors chars-per-pixel */
"16 32 162 2 ",
"   c #161A2C",
".  c #1C1B2F",
"X  c #171E31",
"o  c #1C1F33",
"O  c #162335",
"+  c #1C2235",
"@  c #1C263B",
"#  c #1C2B3E",
"$  c #20293E",
"%  c #1E2C42",
"&  c #1B3343",
"*  c #1E3448",
"=  c #222D44",
"-  c #223147",
";  c #24344B",
":  c #29364F",
">  c #24384F",
",  c #233750",
"<  c #2D3751",
"1  c #253B52",
"2  c #293C54",
"3  c #2C3E59",
"4  c #1E4153",
"5  c #164F5F",
"6  c #1C4D5E",
"7  c #254156",
"8  c #25445B",
"9  c #2B425B",
"0  c #204C5E",
"q  c #31405D",
"w  c #1D4E60",
"e  c #165466",
"r  c #1A5D6E",
"t  c #2F4661",
"y  c #234D61",
"u  c #2D4B64",
"i  c #374462",
"p  c #334B66",
"a  c #354E6A",
"s  c #384F6C",
"d  c #255366",
"f  c #265569",
"g  c #2D526A",
"h  c #24596D",
"j  c #2A5B6E",
"k  c #34526D",
"l  c #32586F",
"z  c #275B70",
"x  c #2F5D74",
"c  c #345771",
"v  c #355C75",
"b  c #345F7A",
"n  c #196778",
"m  c #176E7A",
"M  c #1A6C7B",
"N  c #246475",
"B  c #2A6374",
"V  c #236877",
"C  c #266778",
"Z  c #2C657A",
"A  c #256B7D",
"S  c #2A6C7B",
"D  c #34637C",
"F  c #2B707C",
"G  c #157484",
"H  c #1D7484",
"J  c #1E7887",
"K  c #1C7D8C",
"L  c #256C80",
"P  c #2A6F84",
"I  c #326B82",
"U  c #247284",
"Y  c #2B7483",
"T  c #227A86",
"R  c #2B7886",
"E  c #277688",
"W  c #2E7388",
"Q  c #247C8A",
"!  c #2C7B8D",
"~  c #347084",
"^  c #327789",
"/  c #257F91",
"(  c #2D7E92",
")  c #178B9A",
"_  c #1E8999",
"`  c #16929D",
"'  c #24838F",
"]  c #29808F",
"[  c #248493",
"{  c #2B8394",
"}  c #2A8897",
"|  c #2C8898",
" . c #318495",
".. c #23919E",
"X. c #2C949F",
"o. c #1A97A4",
"O. c #1A99A6",
"+. c #1B9DA8",
"@. c #2993A0",
"#. c #249AA6",
"$. c #14A4AE",
"%. c #1CA4AE",
"&. c #14A7B0",
"*. c #13ACB4",
"=. c #23A8B0",
"-. c #2CB0B6",
";. c #2DBBC1",
":. c #34BEC2",
">. c #1BCACD",
",. c #1ADBDA",
"<. c #23C6CB",
"1. c #23CBCC",
"2. c #28CACA",
"3. c #25CED4",
"4. c #34CED2",
"5. c #27D4D5",
"6. c #26D8D8",
"7. c #2DDFDF",
"8. c #33DFDF",
"9. c #2EDFE0",
"0. c #1FF1F0",
"q. c #23E4E2",
"w. c #2CE5E4",
"e. c #26E8E7",
"r. c #34E4E3",
"t. c #3BE6E6",
"y. c #33E8E7",
"u. c #35EAE9",
"i. c #3BECEB",
"p. c #47F3F2",
"a. c #4CF5F2",
"s. c #4FF8F5",
"d. c #52F5F2",
"f. c #58F6F4",
"g. c #52FBF7",
"h. c #51FDF8",
"j. c #53FDF9",
"k. c #60F9F7",
"l. c #67FDFA",
"z. c #67FFFF",
"x. c #60FFFE",
"c. c #6BFFFF",
"v. c #6FFFFD",
"b. c #6DFFFF",
"n. c #6FFFFF",
"m. c #73FCF9",
"M. c #71FDFA",
"N. c #73FDFA",
"B. c #73FFFB",
"V. c #70FFFD",
"C. c #70FFFE",
"Z. c #71FFFF",
"A. c #73FEFE",
"S. c #74FFFD",
"D. c #74FFFF",
"F. c #75FFFF",
"G. c #77FFFE",
"H. c #77FEFE",
"J. c #75FFFE",
"K. c #79FFFE",
"L. c #7AFFFE",
"P. c #7CFEFF",
/* pixels */
"& Y R R R R Y Y Y R R S Y R F # ",
"N ( ! D D D v D { D b ] D v v ; ",
"C ! Q k a k s c E g k @.! p a ; ",
"S D k c { ( ( ( L B  .~ ! p k ; ",
"S D k [ W [ +.o.$.` +.Q x k k ; ",
"S D I A 7 4.s.a.a.g.p.#.t a a ; ",
"S D D Q :.z.N.N.D.N.v.d.=.P E - ",
"S D c *.j.N.s.q.5.,.a.D.y.K Y = ",
"C { ! &.d.D.6.n 2 G u.L.r.r g - ",
"S | { &.a.D.2.N A M t.P.8.M S = ",
"S D l *.s.C.1.6 7 N i.L.8.m Y = ",
"S D i $.j.N.w.*.#.*.y.D.8.m R = ",
"B Z c _ a.C.k.s.g.a.d.C.8.K Y = ",
"C } ] a ..p.v.C.v.c.l.C.r.J l - ",
"d Z g p 9 O.3.<.<.>.i.D.r.N q = ",
"X + + @ $ = # # + e u.L.r.6 . X ",
"  O O O o + + + . w u.D.r.5 X O ",
"4 U U / %.%.O.K / ) r.D.r.H A * ",
"S ( j U 0.e.e.9.7.w.f.C.y.h < : ",
"C I 8 1 -.x.D.D.D.D.C.a.' % < ; ",
"B W 6 < f ;.i.i.i.i.u...3 8 7 - ",
"j ! 6 B X.S U U U U A ^ C N S = ",
"B D ; Z U u Y Y Y R ! I C u c = ",
"B b : p ; % > 1 1 % T D u p k ; ",
"B b 7 > ; % < 9 t : T D 9 t k ; ",
"B D E x : # 1 9 9 , T I V 9 a ; ",
"B D N k > # 1 9 9 : T I E 8 p ; ",
"j z y t u ; % - ; @ Q D : 7 k - ",
"j 8 8 u g u 1 8 7 2 ' u 9 c k - ",
"h y d t Z [ y 1 2 2 8 9 c l k - ",
"f N S u Z ( v k k k k c k k t ; ",
"1 7 2 2 3 3 3 9 9 9 9 9 9 7 1 % "
};
