/* XPM */
static char *result[] = {
/* columns rows colors chars-per-pixel */
"64 64 234 2 ",
"   c #151B2C",
".  c #16192B",
"X  c #161E30",
"o  c #191E32",
"O  c #162334",
"+  c #192235",
"@  c #1B263A",
"#  c #1A2A3C",
"$  c #172B3B",
"%  c #19303F",
"&  c #222536",
"*  c #22263A",
"=  c #242A3C",
"-  c #2A2D3E",
";  c #292738",
":  c #1E2C43",
">  c #1B2E45",
",  c #1B3345",
"<  c #1E354A",
"1  c #1B3C4C",
"2  c #173847",
"3  c #1D3F52",
"4  c #222D44",
"5  c #2A2F41",
"6  c #252D47",
"7  c #243244",
"8  c #2C3243",
"9  c #23334B",
"0  c #223B4E",
"q  c #2A344A",
"w  c #323546",
"e  c #313748",
"r  c #343A4B",
"t  c #383C4E",
"y  c #233652",
"u  c #243B54",
"i  c #293C56",
"p  c #253D59",
"a  c #2B3E5A",
"s  c #293752",
"d  c #393F51",
"f  c #363E51",
"g  c #4A384B",
"h  c #493E50",
"j  c #1B404F",
"k  c #1C4353",
"l  c #1D4C5C",
"z  c #1A4857",
"x  c #1D505F",
"c  c #234155",
"v  c #24445C",
"b  c #2A425D",
"n  c #224A5E",
"m  c #3B4253",
"M  c #3B455B",
"N  c #1E4D61",
"B  c #1D5363",
"V  c #1E5A6B",
"C  c #1A5866",
"Z  c #1D5E71",
"A  c #264560",
"S  c #2C4562",
"D  c #244D63",
"F  c #2B4A65",
"G  c #2D4C69",
"H  c #274F69",
"J  c #304866",
"K  c #324C6C",
"L  c #324463",
"P  c #235366",
"I  c #24556A",
"U  c #2A536C",
"Y  c #235B6D",
"T  c #2A5A6E",
"R  c #285364",
"E  c #32506F",
"W  c #3D5D6B",
"Q  c #2C5571",
"!  c #255D72",
"~  c #2A5C73",
"^  c #2E5E79",
"/  c #335473",
"(  c #335976",
")  c #325D7A",
"_  c #324F71",
"`  c #1D6372",
"'  c #1D6B7B",
"]  c #1A6875",
"[  c #1B737E",
"{  c #17606C",
"}  c #21606E",
"|  c #246374",
" . c #296276",
".. c #226876",
"X. c #25657A",
"o. c #2C647C",
"O. c #246A7C",
"+. c #2B6A7E",
"@. c #31627D",
"#. c #336478",
"$. c #24707F",
"%. c #3B6976",
"&. c #424556",
"*. c #494254",
"=. c #414759",
"-. c #444B5C",
";. c #484B5E",
":. c #52495D",
">. c #454E61",
",. c #4A4E61",
"<. c #524E62",
"1. c #475163",
"2. c #4B5365",
"3. c #4D5669",
"4. c #4D596C",
"5. c #475C6D",
"6. c #505B6D",
"7. c #505467",
"8. c #555E72",
"9. c #446877",
"0. c #596375",
"q. c #1D7583",
"w. c #1D7A86",
"e. c #1D7C8A",
"r. c #256D82",
"t. c #2B6C83",
"y. c #2A6C86",
"u. c #326581",
"i. c #316A83",
"p. c #336F89",
"a. c #247384",
"s. c #297286",
"d. c #237A87",
"f. c #25758A",
"g. c #2B738B",
"h. c #247B8C",
"j. c #2A7A8E",
"k. c #367887",
"l. c #2C7691",
"z. c #267E91",
"x. c #2C7C93",
"c. c #2D7F99",
"v. c #327693",
"b. c #327E9A",
"n. c #337B93",
"m. c #417584",
"M. c #1D818E",
"N. c #1D8895",
"B. c #17939B",
"V. c #24818E",
"C. c #37818D",
"Z. c #248393",
"A. c #2A8295",
"S. c #268699",
"D. c #2D839A",
"F. c #238C9C",
"G. c #2A8A9C",
"H. c #248995",
"J. c #32839D",
"K. c #378A96",
"L. c #27929B",
"P. c #1E97A5",
"I. c #2B8CA2",
"U. c #3484A1",
"Y. c #348CA3",
"T. c #348DA9",
"R. c #3989A3",
"E. c #2393A3",
"W. c #269AA3",
"Q. c #3391A6",
"!. c #3594AC",
"~. c #3A93AB",
"^. c #3A9AAD",
"/. c #3896AA",
"(. c #369CB3",
"). c #3B9CB4",
"_. c #3D97B3",
"`. c #18A6AD",
"'. c #1DB5B8",
"]. c #15B0B4",
"[. c #23AAAD",
"{. c #24A3A8",
"}. c #3CA5BA",
"|. c #3CA9BE",
" X c #3DA2B7",
".X c #23B2B6",
"XX c #458E9A",
"oX c #419AAA",
"OX c #43ABBD",
"+X c #43A6B7",
"@X c #48B2BE",
"#X c #3DACC2",
"$X c #3EB5C4",
"%X c #16BCC5",
"&X c #43AEC1",
"*X c #44B2C3",
"=X c #48B9C9",
"-X c #45BED2",
";X c #53BECB",
":X c #15C6C7",
">X c #12CED2",
",X c #0DDBD8",
"<X c #12D8D7",
"1X c #0ED0D0",
"2X c #0FE4DD",
"3X c #09EBE7",
"4X c #05F4ED",
"5X c #04FBF7",
"6X c #1AF0EF",
"7X c #24EAEC",
"8X c #38E6EA",
"9X c #4BC4D4",
"0X c #4CCCDB",
"qX c #47C6D7",
"wX c #52CAD7",
"eX c #4ED1DD",
"rX c #55D4DE",
"tX c #50C1CF",
"yX c #4DD8E5",
"uX c #53D6E2",
"iX c #53DAE5",
"pX c #58DDE8",
"aX c #49CEE1",
"sX c #56E4EC",
"dX c #5AE4EC",
"fX c #59E8EF",
"gX c #5BEBF2",
"hX c #57E7F1",
"jX c #5DF3F9",
"kX c #5EF1F7",
"lX c #62EDF4",
"zX c #61FAFE",
"xX c #62E4EE",
"cX c #60DEE9",
/* pixels */
"@ l N l l l l l I j . 2 l l B l l l l B , X l l l x l l l C C . $ x l x l l l l B 1   k l B x l l n x x X # x l x l l l N B 3 . ",
"V L.f.z.i.u.t.O.U U + f.O.! r. .r.! I H 9 1 E.g.j.i.i.i. .' 5XB.X.a.T s.| | ! I I u , G.j.h.p.u.u.s.U ~ # Y s.T O.X...! Y H v @ ",
"Y Z.X.V.j.j.g.Y I F @ g.n u D q.w.A u u : k z.! h.j.j.s.! H ].5X`.c c c ` w.B A u : 0 G. .a.h.j.j...P T #  .I 0 D Y w.C z u < # ",
"Y h.Z.j.x.z.x.g.Z.Y + s.Y Z.A.A.A.Z.O.O.3 3 A.M.x.j.A.F.g.f.^ %X4X` ..>XW.S.Z.r.| n , V.e.j.j.z.z.g.g.s.+  . .f.H.x.S.D.f.| P @ ",
"P D.z.O.I I O.^ K A # ~ u D u P B f.H G q j D.Z.+.Y U >XF.J b l 5XB.< B.,XA Z 3 z l , k S.s.Y U Y t.J K @ T b H < H D O.Q S A @ ",
"I x.P.' S K Y u.J A # ^ Y 9 : b y O.H K q k v.L.H.S L >X%Xb p ] 5X`.9 ].%X1 N B A u , v O.F.S K F t.K K @ U ! u : A y ! ! A b # ",
"I A.F.O.b S I Q b a @  .r.p < A 3 | r.H 9 k A.E.d.a K >XZ.S q `.5XN.D ,Xq.1 ' f.R s j | C H.A J n  .b A @ U a.H : A p Y f.R a # ",
"I h.Z.O.D i p S S p > I A J y < < r.F G 9 k j.H.f.X.6 X 4 ; z.4X].< @ 2 > : r.U b i 1 ! V f.Y u i b F b # R A F p < : ! Y F b @ ",
"! g.h.t.z.F G A S p @ ~ Y ^ r.v n U K / 9 l j.} c n  .k.k.H.4X6XC.k.k.+.k.7 $ 1 E b j ..` r.h.Q S S v b # I T U f.A b H G / b @ ",
"R O.! e.Y p u p p y + ! U H ! G G J F G 7 % } R XX@XrXlXgX6X3X$X9X9XrXlXxX;X+X%.F @ # } j a.X.v u u p c + n ~ F ! G G F F K u O ",
"  X + % o @ O O @ O . X + o o O + O O .   #.tXlXsX@X~.y.x.4X,Xu.f.>XD.C.x.*XiXgXdX+Xc O , @ @ O O @ + +     o + O o O O O O O . ",
"z d.O.~ a.r.t.O.a.I   ..f.+.+.O.$.$...0 OXzXrX^.s.! y.b.x.<X3XR.R.2X>Xn.x.g.l.R.@XgXfXC.z O.O.O.O.y.$.$.O n d.+.O.+.r.X.+.+.R   ",
"! x.V.@.t.I ~ A.V.U @ A.t./ / i.s.U  .dXjX(.y.g.I.).*X9XwX8X4X7XpXyX8XwX9X&X!.c.g.J.iXzX@X0 i.| A A.Z.t.+ +.j./ / ) g.^ H.) b # ",
"Y /  .j.E R } H.@.b $ i./ z.s.s.$.2 =XzX&Xr.r.D.9XxXlXdXdXfX6X4X8XfXdXfXdXsXpX$X!.x.Q.sXjX+.q U ` d.j._ *  .( s.f.s.d.d.Z.^ b # ",
"Y ( F x.a.n [ s.( b # #.s.n P P , k.gXpXD.s.y.D.J.+X;XdXgXdXsX7X6XdXsXsXfXsXfXfXiX(.y.*XkXtXv v $.a.( E @ } s.| c I ~ q.t.U b % ",
"Y ( F s.d.I ` t./ L % +.t.k ..$./.).gXiXg.f.x.Y.T.I.c.Y.;XxXgXfXfXdXsXdXsXfXsXsXfXyXj.OXkXrXG. .j d./ _ * } p.D C '.+.]  .I Y @ ",
"Y ~ v g.z.X.' r.@.S @ A.V.n 1 @X XK.dXgXOXy.g.b.J.Y.!.T.D.Y.OXrXlXgXdXdXfXdXsXsXgXuX~.uXkX=Xr.|.| Y +.( + +.L.P P .. .w.~ c P # ",
"Y U v r.H.` q.N.F.H @ j.h.B o.dXy.l.&XgXgXwXb.y.p.n.D.T.!.Q.U.D.oXtXgXhXsXdXhXfXaX+XuXkXuXc.r.^.OXl F.s.&  .j.' X.Y ` ! +.x Y @ ",
"Y Q ! r.e.h.z.h.+.S #  .@.c K.dXl.b.b.=XgXgXpX&X~.J.g.v.J.T.^.^.Y.D.oXuXhXiXeX*X-XdXgXuXJ.l.p.T.eXn +.^ @ } ( s.+.H.N.a.a.' B @ ",
"| A.U a A c.x.y.j.T + h.v.q oXgXg.b.U.b.&XsXgXgXXX#.~.K.g.y.g.x.J.c.g.s.~.-X-X0XgXgXeXJ.l.b.y.!.eXc o.g.+ ..x./ / @.g.~ Y Z.P @ ",
"2 u 9 9 9 6 9 9 1 9 X u y + n.sX#Xl.U.U.U.*XeXpXp.5 ; XXgX=X&X*X&X*X@X9XyXgXjXfXeXOXJ.l.c.l.U.qXOX, < u X < u 9 9 : 6 6 4 4 = O ",
"O 1 2 1 1 1 1 2 2 ,   $ j $ ^ uXiX Xc.U.).|.}.&XaX*XoXwXgXlXlXlXjXkXkXgXiX&X=X_.l.g.b.x.l.l.#XyX(., 2 1   O 1 2 1 1 1 1 1 k % . ",
"I G.j.z.i.i.t.O.~ U + j.h.< y._.pXuX^.l.).#X|.}.).#X#X+X~.+X&X+XOX).Y.~.Y.g.p.l.l.x.x.g.l.#XaX#XD.n H u.@ | z. .a.o.X.X.~ ! v $ ",
"Y Z. .h.g.g.s.P F F @ t.n @ l.T.T.rXyX X!.).|.#X#X#XR.v.b.v.v.v.v.v.g.g.l.l.l.x.v.l.g.b.$XaX#Xz.J.z v U # Y U 9 p V q.l u 9 9 # ",
"T j.M.z.c.Z.x.g.S.! + t.I e.X.!.U.U.9XpXqXT.J.(.(.|.R.U.U.U.b.U.b.b.l.v.x.l.l.g.f.x.(.qX-X(.l.T.X.! S.f.@ ! Z r.F.S.F.z.a.Z D @ ",
"I G.h.+.! ! a.) / b @ ~ p ! > D (.T.b.+X0XyX9XOXY.x.g.v.p.v.v.v.v.v.y.y.y.g.l.!.#XqXaX#Xc.l.T.u.k t.K / @ ~ a I v Y Y a.~ H A > ",
"Y x.P.q.L J ! i.K b @ @.H 9 < : v (.(.b.U.).;X0X0XwX=X}.}.Y.J.J.J.J.^.OX).=X-XqX$X).J.l.c.I.r.: U t.K G @ ~ Q y > p y Y ~ b b # ",
"I x.B.O.S G ! ^ b b @ +.r.y < p + 6 c.#X).U.b.R.).*X-X9X0XpXpXiXiXiXiX-X-X).!.U.l.g.c.T.I.A * 4 U O.b S @ U h.I : p p ! j.I a # ",
"I c.Z.O.v u p S F u @ Y v A y : 5 r 8 H K. X}.~.R.U.U.U.R.R.J.J.J.b.b.x.l.l.l.l.J.!.D.I 0 8 q @ i S F S @ I D S y < 6 | ! A a # ",
"Y s.j.O.j.S G A b u # I A ^ Z : 8 =.d 8 = u P /.#X+X)._._.oXR.b.b.b.b.b.c.b.b.c.! n q - w r w = A S A a @ D H Q r.p y I H / b # ",
"Y g.X.h.r.A p p b p @ ! ~ ~ r.q d d =.=.d 8 ; * 6 0 Q.^._.).Y.v.v.v.v.g.g.I 7 : & - r r r e e q : p p p @ D ! G ' G F S G / a @ ",
"X + X , o @ o : @ O X @ o o o * m e >.=.1.2.>.m w 5 ; = * * & * & ; = = + - e w r r r r r w 7 e < 3 < 3 k 3 1 1 1 3 k k : @ O   ",
"1 ..Y Y | Y | ! ..l . I X.! } 1 m m m -.1.6.4.4.4.1.2.m t m m m m m m m m m r r r r r r r = r - I O.....# n a...+...a.` 1 I z X ",
"Y A.G.u.s.I @.S.J.Y X A.n./ %.4 m 6.m - 2.6.3.4.4.4.4.2.-.-.-.-.-.-.-.-.=.m e r r r r e - M =.& n A.S.s.+ ..A.( ( ) j.^ B U J # ",
"Y / s.j.E P Y V.t.b $ +./ g.s.Y m -.2.m r -.6.6.4.2.4.1.-.-.-.-.M -.-.-.-.m r r r r 7 = M m e % B a.A.E #  .( s.h.j.d.$.I n b # ",
"Y ( F g.s.I w.a./ b # o.t.V P n - -.-.0.-.m r -.1.4.6.2.-.-.-.-.-.-.-.-.1.m r 8 5 = r ;.m e - , q.d.) K @ T t.O.D D  .[ C b b % ",
"Y ( n g.j.R ] t./ L # i.t.u [ '.7 -.>.4.8.0.4.m 8 - r m m m m m m m m m m = = 8 m -.m r r r - 0 | e./ K @ | i.N B [...[ C D Y # ",
"Y ) F s.x.t.' r.( L @ j.Z.R ..q.% 2.-.4.4.6.0.0.8.6.2.-.8 8 8 7 - - - e m =.-.1.-.r r r r r - 2  .w.@./ #  .L.I n V.+.[ Y j P # ",
"Y Q v s.H.' q.H.F.R O j.H.] ..I % &.-.4.6.2.4.2.6.6.8.6.2.2.2.2.2.2.2.2.4.-.r 8 e e r r e r - C ' e.F.s.& ..S.` O.` $.' C z } @ ",
"Y U Y a.N.e.d.z.j.F # o.) d.O.B.z r ,.2.4.4.6.6.2.4.5.-.-.-.-.-.-.-.-.-.=.m 8 m r r r r e e = V.h.h.h.@.@ ~ ( s.s.N.V.d.} C Y @ ",
"! z.U b F G.A.g.g.U @ j.i./ ( D.l e ;.5..X9.6.6.5.5.2.*.*.*.*.*.-.-.-.-.-.-.r r r w r r e r & $.I.g.y.t.# ..v.( / i.D.+.X.Z.I @ ",
"z ~ b b a A F F I p + ! U b b L * m ;.5.2X9.<.5.2Xm.4.:X1X:X1X[.-.>.-.-.-.&.r r r r r r r r & i F F F R + D ~ S S S a b a H s + ",
". o X O O O X O X X     + O O O O m =.5.2X9.<.9.4XC.4.L.L.L.K.:X{.*.-.-.-.m r r r r r w w r = O + O O   . .   O + O O O O O O   ",
"k f.a.s.o.o.X.X.O.T   V f.O.$.T I 7 -.5.3XK.7.5.4XC.:.*.*.*.g L.'.*.1.-.-.-.r r r r r r m - j +.o.O.+.o.+ l a.| a.| ~ .... .n O ",
"Y F.X.Z.s.i.s.I a S > +.n b F Y V 7 ;.1.[.5X2X[.4XC.:.&.*.*.g W.:X*.-.-.-.-.r r r r r w r - c k.t.| c K 4 ~ ! u N H ` l p 9 9 > ",
"Y z.w.z.A.A.j.t.z.T + g.n Z a.G.V.7 -.;.6.9.:X,X4XC.:.C.[.{.{.1X{.*.-.-.-.&.r r r r r r r - R L.j.+.s.s.@  .Y I a.f.F.a.X.I z @ ",
"I G.h.t.s.a.j.@.@.H @ o.D a.X.j.r.4 &.;.6.7.:.5.4XC.9.2X'.'.'.L.-.-.-.-.-.m r r w r r r r - z k.j.g.( ^ * ~ H r.r.t.s.A.s.I F @ ",
"I l.E.d.b b  .t.K b # ^ u q : p < & -.-.6.8.7.9.4XC.%.,X*.*.*.*.-.-.-.-.-.&.r r r r r r r 8 % R n g.K G @ U A s : 3 y } ! S b # ",
"I j.E.r.K _  .@.b b @ +.y.p < A p < m ;.3.4.7.9.5Xk.9.2X*.*.*.*.&.*.&.-.-.&.e r r r r r r & p / U s.S F @ U f.D : A p I y.P a # ",
"I H.H.' u a v H F i # ^ Y p : y < q.7 M 2.4.4.4.'.m.9.3X'..X'.[.5.{.W &.-.m r r r r w t 5 B A p u H S S @ I ! F < y < Z r.A a > ",
"I f.d.O.r.b S A b u # I p U v y u O.# * >.8.4.2.2.2.5.K.'.`.'.{.W `.W &.-.r r r e r r q X Y w.S S S b A @ H v G H y q ! F K b $ ",
"Y g.z.A.f.A A b b p @ X.! ! h.G F G 4 & = M 3.4.6.3.3.*.g *.g *.*.*.&.-.-.r e r r w = = @ ! S.U A A a A @ I X.T e.H G G U ( v @ ",
", < 9 V 6 : 4 : 4 4 O , 9 6 9 9 9 9 & d e = 7 r =.2.3.-.>.>.-.-.-.-.-.-.-.r r e 8 * 8 r & z 3 9 6 : : 9 X : 9 6 9 9 q 9 9 9 * + ",
"+ k 1 1 j k j c k 2 . , 3 k k 3 1 z : m =.m w = - 8 - r r m m m m m m e w 8 7 - 8 r r r ; 2 k 1 z 3 k k O O k k k k k k j z ,   ",
"I F.D.i.z.+.s.A.A. .+ A.c.) ) y.j.v.k t ;.2.;.m m q - = = & = & & & & & = r w r r r r r & ~ n.d.~ G.D.j.@ ..G.u.@.@.V.i.G.p.G # ",
"Y ^ h.f./ H I h.i.S @ s.Q  .+.g.a.y.k f =.1.6.6.3.>.-.m m r m r m m - m r r r r r r r r 7 a.( U D O.z./ @  .@.^ t.g.j.o.V.) b > ",
"Y / H j.X.V q.d.( b # +.@.f.| Y a.w.t.- m 1.3.3.3.4.6.-.=.-.-.-.m M =.=.m w r r r r r 7 s h.t.I q.w.@._ @ Y @.w.Y | d.w.f./ b # ",
"Y ) A j.h.D ] y./ S # +.s.c | Z.! [ ( k 7 -.6.3.3.3.4.>.=.-.-.=.-.-.-.-.r r m w r r 8 9 F s.Z.Y V d./ E @ ~ p.I n H.! [  .U I # ",
"V ) F s.g. .` s./ b # s.V.k ' W...q.G V k + m 6.6.6.4.>.;.-.-.-.-.-.-.-.r r e c r ; , o.L +.s.j.P d./ _ @  .S.V V W.X.[ o.n P # ",
"Y ^ b a.Z.' e.d.x.G @ V.N.Y | I ..[ U I u 1 D 5 m 1.2.>.;.>.;.;.-.-.-.-.r r w ; = 9 1 p.b +.Z.q.' w.S.+.& O.P.` Y Y O.'  .n Y * ",
"I ~ Z y.B.e.a.z.V.H @ o.o.d.a.e.' f.a.` u k u.N 0 = 7 w w w w r e w w w - = - x C V < @.Y O.V.M.] f.V.t.& ~ @.d.a.e.w...h.} Y @ ",
"V s.I D ! F.z.g.i.H @ g.o.) ^ F.F.s.] h.u k g.~ F u ' x R z < X 1 k 7 7 n V.$.[ M.D 2 x.U H D  .j.j.s.@.@ ..i.) ) x.E.j.O.N.Y @ ",
"n t.F b a G ( U  .D + r.^ S S K K S F ~ 7 2 s.K b b G o.)  .T o } s.K E K E G n  .i # s.U a a b E ~ T ~ @ Y t.F F J K J F T u @ ",
"X o + @ @ + X X X +   X o O @ O + + + + + X o + @ + + X o o + O . o + O + + + & X O   X + @ @ + X o X +     + @ + + + + + O O   "
};
