/* XPM */
static char *_261b9b574ff434c99b663f33fa49456EiEDsZh2GWIf64OW[] = {
/* columns rows colors chars-per-pixel */
"64 64 237 2 ",
"   c #151B2C",
".  c #161729",
"X  c #171E31",
"o  c #1B1E35",
"O  c #201F36",
"+  c #162334",
"@  c #1A2235",
"#  c #162837",
"$  c #1B2639",
"%  c #162A39",
"&  c #1B2A3C",
"*  c #172739",
"=  c #252B3D",
"-  c #2A2B3D",
";  c #242536",
":  c #1E2D43",
">  c #1B3445",
",  c #1E344A",
"<  c #1A3C4C",
"1  c #173C4C",
"2  c #1D3E50",
"3  c #222D44",
"4  c #2B2E41",
"5  c #212F49",
"6  c #223145",
"7  c #2D3344",
"8  c #23334C",
"9  c #23394C",
"0  c #2B374D",
"q  c #313445",
"w  c #323749",
"e  c #343A4B",
"r  c #393E4F",
"t  c #253651",
"y  c #243B54",
"u  c #293A54",
"i  c #263D5A",
"p  c #2A3D59",
"a  c #283751",
"s  c #3A3F51",
"d  c #353D57",
"f  c #4A3C4E",
"g  c #1A414F",
"h  c #1C4353",
"j  c #1E4C5C",
"k  c #194556",
"l  c #1A505D",
"z  c #224255",
"x  c #24445B",
"c  c #2A425D",
"v  c #224B5D",
"b  c #28495B",
"n  c #3C4355",
"m  c #3D4558",
"M  c #24515F",
"N  c #1E4E61",
"B  c #1E5263",
"V  c #1C5966",
"C  c #1C5C6B",
"Z  c #1D5568",
"A  c #1E5E71",
"S  c #2B4562",
"D  c #234D62",
"F  c #2C4965",
"G  c #2D4D6A",
"H  c #264562",
"J  c #324C6B",
"K  c #324666",
"L  c #235265",
"P  c #24556A",
"I  c #2B536D",
"U  c #235B6C",
"Y  c #295B6D",
"T  c #2C5463",
"R  c #31516E",
"E  c #3E5A68",
"W  c #354F71",
"Q  c #2C5672",
"!  c #255D73",
"~  c #2A5B73",
"^  c #2A5C76",
"/  c #335473",
"(  c #335977",
")  c #325C79",
"_  c #385778",
"`  c #1D6574",
"'  c #1D6C7B",
"]  c #1B6C78",
"[  c #1C727E",
"{  c #1E606F",
"}  c #23606F",
"|  c #236274",
" . c #2A6276",
".. c #25657A",
"X. c #2C647B",
"o. c #246B7D",
"O. c #2B697D",
"+. c #236A77",
"@. c #31627E",
"#. c #386976",
"$. c #23717D",
"%. c #31707E",
"&. c #444456",
"*. c #484354",
"=. c #414758",
"-. c #444B5C",
";. c #49475A",
":. c #52485C",
">. c #464E60",
",. c #4B4E62",
"<. c #524D61",
"1. c #435262",
"2. c #4B5365",
"3. c #4C5669",
"4. c #4D596B",
"5. c #515B6D",
"6. c #515265",
"7. c #535E71",
"8. c #495F70",
"9. c #466575",
"0. c #596376",
"q. c #1F6F80",
"w. c #1D7482",
"e. c #1D7985",
"r. c #1E7C8B",
"t. c #167B83",
"y. c #2E6781",
"u. c #256E82",
"i. c #2B6C83",
"p. c #2B6E89",
"a. c #266A85",
"s. c #326681",
"d. c #326B84",
"f. c #366D88",
"g. c #247384",
"h. c #2A7286",
"j. c #227986",
"k. c #257689",
"l. c #2B748B",
"z. c #257B8C",
"x. c #2A7A8E",
"c. c #347889",
"v. c #2D7691",
"b. c #267E91",
"n. c #2C7C93",
"m. c #2D7D99",
"M. c #327795",
"N. c #317A95",
"B. c #337D9B",
"V. c #397E91",
"C. c #1B8B97",
"Z. c #1D8793",
"A. c #26828E",
"S. c #32818A",
"D. c #258394",
"F. c #2A8295",
"G. c #2D849B",
"H. c #248B9C",
"J. c #2B8A9C",
"K. c #268997",
"L. c #32839D",
"P. c #378697",
"I. c #2E949C",
"U. c #25949E",
"Y. c #3C919D",
"T. c #1D94A2",
"R. c #2E8BA2",
"E. c #3484A1",
"W. c #338BA4",
"Q. c #398BA5",
"!. c #378AA7",
"~. c #2395A3",
"^. c #2499A6",
"/. c #3492AA",
"(. c #3A95AA",
"). c #3C9AAD",
"_. c #3B94A7",
"`. c #3B9CB3",
"'. c #3798B2",
"]. c #17A6AB",
"[. c #19ADB5",
"{. c #1AB9BC",
"}. c #3CA2B6",
"|. c #3DA5BB",
" X c #3CA9BE",
".X c #37A2B7",
"XX c #24AEB2",
"oX c #408C98",
"OX c #4198A9",
"+X c #43ABBD",
"@X c #43A4B7",
"#X c #4BACB7",
"$X c #17BDC2",
"%X c #3DACC2",
"&X c #3AA7C0",
"*X c #44ADC2",
"=X c #44B4C5",
"-X c #4ABCCC",
";X c #47B6C8",
":X c #42BDD2",
">X c #50BDC4",
",X c #16C6C7",
"<X c #13D1CE",
"1X c #0DDBD9",
"2X c #11D8D6",
"3X c #10CCCE",
"4X c #33D3DA",
"5X c #0EE1DE",
"6X c #10E2DC",
"7X c #0AE9E5",
"8X c #06F3EC",
"9X c #05FAF6",
"0X c #1CEDED",
"qX c #30EBED",
"wX c #4CC2D2",
"eX c #4CCCDC",
"rX c #48C5D7",
"tX c #54CCD9",
"yX c #4CD2DE",
"uX c #53D1DD",
"iX c #5CD3DD",
"pX c #54D6E2",
"aX c #54DBE5",
"sX c #55DEE9",
"dX c #59DCE7",
"fX c #4ED5E1",
"gX c #56E5ED",
"hX c #5AE5ED",
"jX c #5FE8EF",
"kX c #5BEBF3",
"lX c #59E7F0",
"zX c #5CF0F6",
"xX c #5DF5FC",
"cX c #45E5EB",
"vX c #62EEF4",
"bX c #62F7FC",
"nX c #61E2EC",
/* pixels */
"+ < < < < < < < h < . % < < < < < < < h & . > < < < < < < h g . + < 1 1 < < < < h < . & < < < < < < < h + . < < < < < < < h <   ",
"B H.z.b.s.s.i.o.^ ~ @ o.g...k.......! ~ y > K.x.z.i.s.s.o.| 7XC.L z.| k.o...o.| U L $ k.F.b.l.@.s.h... ., 2 b. .h.u.....| ~ P $ ",
"U D.| z.l.l.h.P b F $ h.D t x | w.j t 8 3 < D.! k.x.l.l.| x ].9X[.x t y P e.B y t 8 & b.u.| z.l.x.o.v G 6 v O.9 z D q.C y t 8 & ",
"U z.Z.b.b.F.b.l.D.! @ h.U z.D.F.K.b.u...x > b.r.D.x.F.F.l.x.O.,X9X[ P {.^.H.b.k.! P $ x.w.D.b.F.F.l.l.D.> x h.! H.x.H.F.b.! | $ ",
"P K.x.O.| ! o.X./ F $ ^ i ! v ! U z.~ I p > F.D.O...Y ,X^.K J h 9X].u C.1X~ ..l k j 1 h D.h...! ! h.J ( 3 v I P D L ! +.i.D I $ ",
"P n.T.w.c K P i.J S $ ^ D 8 : c t +.G S u < l.H.H.S d [.2XK S k 8X3X4 t.7Xx h D x x & < A ~.D J c o./ J : x ^ y 3 t u v o.y J $ ",
"P b.H.o.F J U ^ c c $  .k.x : S i | g.L a < n.H.D.S K <X[.c 0 e.9X[.c 3X].< C l.U c > o.j K.I J F ..F S : z l...6 i H D g.! S & ",
"P F.D.o.x y y F F i & U D S 8 9 , o.I F t < x.H.b.U t > t 8 L 1X7XZ 3 l k : | O.x S : | l b.U t y x S F : z P F p 8 8 j u.S F $ ",
"U l.z.O.z.S F S c i & U D ~ ..i i ~ F / t < l.u.P Z x b b M 3X9XA.T T b F 8 > y J J : ..C i.k.^ S F c H : z U F o.D y D P J R $ ",
"U l.u.D.o.H c c c i $  . .~ g.I I G R R t > ' h  .oX>XbXvXqX9X4XtXtXiXvXbX#Xc.Y y 8 & +.h j.z.U i c i H : z u.I u.^ G G J / F $ ",
"+ @ @ > @ @ @ @ @ @   @ @ @ o @ $ $ $ & . 9 OXiXkXuX=XL.Q.7X7Xl.l.$XJ._.W.-XlXvXuXoX> + < & : o @ @ @ @ X   @ @ o @ @ @ @ @ @   ",
"> | U P U } U U | j . j | U U U U | ` + d.lXvX-XL.! y.l.i.<X8XJ.c.2X2Xl.l.l.n.).wXxXsX%.< U U C U U U | & % } U U U U U U U P @ ",
"! G.F.@.x...X.F.F.^ @ F.n._ _ @.x.X.Y =XxXwXn.a.k.L.).=X;X4X9XqXtXyXqX;X=X}.L.n.l.W.sXbX#Xx @.k.G n.K.G.9 v J.@._ _ x.@.x.l./ & ",
"U ( o.x.R D U D.i.S & O./ l.h.h.j.> _.bXtXa.a.F.wXdXhXgXhXlX0X8XqXhXhXhXhXsXpX=XW.v.W.dXxXV.9 I L o.D.( 3 j @.) x.h.k.u.D.u.J & ",
"U ( F x.u.v w.k.( S % X.i.! D U h U aXlX(.p.a.n.W.;XiXjXlXgXgX0X8XgXhXgXgXhXhXgXfX`.p.+XkXuXx z o.e.i./ 3 j s.k.D L I w.j.( F & ",
"U ) F k.k.D ` h./ F & X.i.z ` $.d.(.lXhXn.p.n.W.W.J.F.).iXvXvXgXcXgXhXhXgXgXgXgXhXpXF.W.kXhXW.! < j.( / 3 j f.! 2 ^.D.A o.I +.& ",
"U ) F i.x...` h._ F $ l.x.v 1 Y.wXL.hXlX}...n.L.L.W./.R.L.@X-XhXvXlXgXhXhXgXgXgXgXkX).=XkXaXn..X .V y._ 3 j J.| x k.O.o.o.z U & ",
"U Q x u.D.` ' D.H.I $ x.D.V D sXN.v.;XkXhX=Xn.p.v.B.E././.R.J.W.*XpXlXhXgXgXgXlXlX=X=XlXkX|.y.F.;Xj H.b.3 v K.' U U U ` u.x | $ ",
"U I A a.D.j.j.D.l.G & X.s.N h.lXN.B.B.wXkXkXpX(.N.N.l.N.W./.'./.J.F.+XhXkXgXgXwX=XwXlXlX*Xv.v.n.eX~ ! l.3 j ) u.u.z.Z.o.z.` ..$ ",
"} x.I b D H.F.l.l.I $ h.c.8 Y.vXl.B.L.E.wXhXlXkX#XV.(.L.i.l.N.F.W.W.n.n.OX-X=X=XaXkXlX+Xv.B.l.v.sXO.L N.6 j F.( _ s.K.i.! r.u.@ ",
"x ! c y u c F F P x X P I 3 c.hX.Xv.E.L.L.=XaXjX#.; 0 P.wX).Q._.(.(.(.}.=XpXkXkXgXeX`.v.N.N.l.|.rXD 9 ~ : < ! S c p p p u x c @ ",
". @ + % % % + + # + .   $ + ~ pXfX'.B.E./.|. X-XeX@X#.@XbXkXzXzXzXzXzXxXzXyXuX-XW.n.v.N.n.l./.eXwXh + %   . + # # # % % % & #   ",
"j D.k.l.X.O.O.o...~   ..D.2 ~ +XnXeX/.v.'.%X|.|.|.%X:X-X*X-XwXwXwXwX*X+X|.n.v.v.l.n.n.n.l.W.:XeX/.P j l., < D...h.u. .o.o...~ $ ",
"! K.! z.h.i.i.L p S $ h.P O i.W.@XdXeX/.!. X%X%X X X(.M.B.N.N.M.N.M.p.p.l.v.v.n.n.n.v.l.(.rXrXR.R.U 8 F 8 v O.t z v ' Z y 8 8 & ",
"U x.r.D.F.F.n.i.D.^ @ u.L ..o.'.m./.uXdX=XJ.L..X|.%X'.L.E.L.B.B.B.B.v.n.n.n.v.l.l.p.m.&XrX:XJ.m.L.D b.D.8 z o.D z.k.H.j.u.P P $ ",
"P K.k.u.h.o.z.y.) I $  .D z.h ! `.L.E.;XaXyX+X'.L.L.N.M.M.B.B.B.B.B.l.p.p.p.p.n.W.%XeXrX'.n.G.W.j | ( @.6 v Q U o...o.k.k.P Q $ ",
"P n.~.w.c S U s.J S $ ) i 8 : : ! %X/.B.(.=XuXpXwX+X}.W.W.n.l.l.l.p.n.W.L.`. XwXrX:X.XG.k.J./.v t h.R R 3 b I t : 9 y j O.p J $ ",
"U n.T.' J / | X.c c $ X.g.y , i @ b W.&X!.L.E.).=XeXeXeXeXpXuXuXuXeXpXuXeX=X*X|.W.v.l.F.'.i.9 @ G h.F F 3 z k.! : y H D k.U F & ",
"P D.H.o.y y x G S i $ ~ P c 8 , = 4 9 h.`.%X'.E.B.L.!.'.`.+X@X@X}.`.`.W.!.n.l.l.n.W./.n.~ 6 q & t D F S : x | G t , 8 v k.D F & ",
"P l.k...o.S F S S i & D x I L : = =.e - 8 Y n.|.*X|.!.E.E.B.v.v.l.l.p.l.l.v.E.W.m.u.I = - e w @ p S H S : z D F ~ y 8 D ~ S J $ ",
"| n.k.z.z.F S H H i $ | ! ^ z.8 e n =.m e - ; 9 Y Y }.=X=X=X|.!.!.!.E.!.E.l.D v & ; 7 e e w 7 q 8 c i H : 2 o.G j.! S F G ( J $ ",
"> t : j 5 : : : 3 3 @ , 8 3 3 3 s w -.=.-.-.n q ; ; 9 z z z y 9 9 9 9 9 > 6 - - 7 r e w w e 7 e : t < < < 2 x t y y z y t 8 3 @ ",
"+ g < h h h h < h > . > h g h > =.7 =.=.>.5.4.3.2.-.n e q q q q q q q q q e e r e w w w e 7 = q h U B V h < U V C C C C 1 > g   ",
"U J.F.f.n.o.c.J.J. .  z.J.s.f.9 r 5.w s 2.4.3.4.4.4.4.3.-.-.-.-.-.-.=.=.=.=.w w w w w r 7 7 -.= y F.b.F.> h R.i.) ) x.i.L P @.& ",
"U @.z.l.R D P D.l.F $ u.( @.i.v r 3.2.7 n 5.5.4.3.3.3.2.-.-.-.-.-.-.-.=.=.=.w w w r w = 7 -.n = < o.H.s.3 v d./ i.i.x.O.| z J & ",
"U ( I k.X.! w.k.) S & X.X.g.| U 7 =.-.0.n 7 n 3.5.5.5.2.=.-.-.-.=.=.=.=.-.=.r e w = = n -.w q $ ] w.h./ 8 j @.k.o.| ..e.` x J & ",
"U ) c x.z.b ' u./ S & X.i.z U Z.6 -.-.3.0.5.=.w 7 w n >.-.-.-.-.-.-.-.-.=.w = = 3 n =.=.w e q & U r.) / 3 v f.| t j...' ` h ~ & ",
"U ) F i.x.X.{ h./ F & i.x.D ' ].6 -.-.3.3.5.0.0.2.n n r 7 = = = = = = 7 w w r =.2.=.w w w w 7 : G e.@./ 6 v F.| g ~.A.+.] < | & ",
"U Q c h.D.u.w.z.D.G @ x.U.| | L 6 =.-.4.4.4.3.4.7.0.0.0.-.-.-.-.-.-.-.-.5.2.n r w q w w w w 7 > ..e.D.k.3 v ^.' P | o.j.` < | & ",
"U Q Z g.H.' w.H.D.I $ X.i.e.+.r.k w >.3.6.4.4.4.4.3.3.1.1.1.1.1.1.>.>.-.=.=.w w w e w w w r - ` u.j.K.b.3 v s.g.j.j.w.+.+.g o.& ",
"U y.P P | U.F.l.i.G $ u.) ) ) ^.V q >.3.P.4.4.4.6.3.4.;.f *.f *.-.-.-.-.-.=.r w e w w w w e = ` ^.k.u.@.8 j d.) @.i.~.b.o.] g.$ ",
"P b./ c S X.i.X.h.I @ l.i.J J _ t w >.2.1Xc.6.3.XXc.,.S.I.K.I.c.;.-.-.-.-.=.e w e w w w w r = y d.i.X.l.6 h G.( J / ( / F i.^ $ ",
"@ @ @ $ $ @ o o o X   @ o @ @ $   e >.>.1XP.<.8.8X^.2.,X<X<X<X1XK.;.-.-.-.=.e w e e e w w r =   o o o o X X @ @ @ @ @ @ $ o @ X ",
"& B B B v L D v Z h . < C B B j j 7 -.2.6Xc.:.4.7XI.:.-.*.&.f S.1X&.-.-.-.=.r w w e e w w q 6 v j D B L & @ l j B B v j j B j + ",
"U R.l.F.s.s.d.| G I $ o.o.~ ..I ~ 3 -.,.,X7XXX9.7XI.<.1.&.=.f S.<X&.-.-.-.=.r w e w e w w q 6 f.f.u.U ) 9 z x.P | ! ! ! P D b & ",
"U D.+.D.n.z.l.! | I $ i.x z L g.e.3 -.-.9.XX7X7X8XI.:.1.#.#.E ^.<X&.-.-.-.=.r e e e e w w q 9 G.b...P  .8 x ..9 D P r.` D x y $ ",
"U D.r.h.n.n.n.p.b.~ @ i.P z.z.J.F.6 =.>.3.<.9.c.8XI.:.{.7X1X5X<Xc.-.-.-.-.=.e w e e e w e q 9 G.n.x.i.x.8 b O.| ~.x.F.G.F.! | $ ",
"P n.D.g.L L o.@.J S & ^ u b 9 L D = =.-.4.4.6.3.7XI.4.7X#.1.E 1.&.-.-.-.-.=.e e e e e w w q : P P k.W W 3 b G b y x D | u.b J & ",
"P l.^.j.S J ! i.F S $ X.! t : i y $ =.-.3.4.3.4.8XI.3.5X1.f *.*.-.-.-.-.-.=.e w e e e w e 7 = / S g.( G 3 z i.D 3 t i x u.D J & ",
"P F.H.' c F L ~ S c $  .u.c : i t C 0 -.3.4.3.4.1XI.3.7Xc.#.#.#.>.E E -.-.n e w e e w w e > y F c | F S : z h.^ 8 t i j z.U S & ",
"P b.z.o.P y y S F y & P x F 9 9 8 w., 7 3.4.3.3.9.9.3.{.7X1X5X5X#.{.S.*.-.r w e w w w r ; N o.i i c S S : z D H c 8 5 D o.u G $ ",
"U h.z.l.b.S F c c y & U D ~ q.S c D : @ 7 3.5.4.3.2.3.;.1.1.1.1.-.1.-.=.=.r w w w e 7 = @ z K...S F i H : z ! F g.P p F G R I $ ",
"j ! ~ A.P y y y i y @ L L F ~ S S S 3 7 4 = r >.3.4.4.>.=.-.-.-.=.-.-.=.-.n w r w = ; 7 - l u.H y y i i : < ! S P G S S F F c $ ",
"  @ @ & @ $ $ $ $ @     @ $ @ $ $ & @ n n w = = 7 n n n =.=.-.-.-.-.=.n n w 7 7 = 7 w r - * & @ & $ $ $ + . X $ $ $ $ $ $ $ $   ",
"h z.u. .h.o.u.h.k.U   | g...X.O.o.h.j w -.>.n e q 4 = = = = - = = = = = = 4 7 7 w e w e - z h.$...x.h.j., , k.u.O...h.o.k.u. .$ ",
"U l.D.i.y.U Q b.x.I $ x.i./ ( X.h.s.h w -.2.4.3.>.n s q 7 7 7 7 7 7 7 7 7 e e r e w w e - Z s.u.x i.F.l.8 M G.( ( ) l.@.x.l.J & ",
"U ( ^ z./ U ` A.@.S & X.( b.j.k.z.e...7 =.>.4.4.4.4.4.=.n n n n n n n n r w w w w w w w 3 z.i.G ` ' k._ 8 j ) i.z.j.D.e.z.i.J & ",
"U ) S x.j.v [ h._ S & X.h.P D P | w.s.6 7 2.4.3.3.4.4.2.-.-.-.-.-.-.-.-.r w w w w w e - u ..F.| U r.X./ 3 j f.g.y U I w.o./ I & ",
"U ) F l.l.~ C k.W S & O.l.h ] {.| [ ~ P 2 4 >.5.4.3.3.>.=.-.-.-.-.=.=.-.r w w w r w = b J | l.k.D w.) / 3 j c.| x XXA.A h.G ..& ",
"U ) c l.k.o.w.k.s.F $ z.U.D U ..o.w.I v D * 9 s 2.5.7.>.-.-.-.-.-.-.-.-.r e r w 7 ; & h.K ..k.z.! e.h.@.3 v ^.' b +.| w.o.u U & ",
"U X.L u.C.w.w.z.H.I $ i.z.' o.` ` ..h.Z v < i.< 6 w r =.=.=.=.=.=.=.=.n e - - 3 > C : O.I | z.Z.` e.K.H.3 v n.e.+.' ' C g.L o.& ",
"U Q A ..r.C.z.l.i.F + X.( h.u.C.C.b.g.' b > s.Y L : N 6 3 = ; ; ; ; ; ; 3 C j ' [ ` & i.G ....r.g.k.h.y.3 j @.y.h.b.T.D.b.w.q.$ ",
"U D.J p c i.l.i.h.~ @ x.h.J J @.p.Q P k.c > D.) S c  .h.i...| @ l j.G K G l.s.~ z.~ $ D.s.c u S X.k.i.l.8 v K.( / _ i.s.I j.O.@ ",
"> z t t t 8 8 8 y 9   z y t t t 8 t 8 8 3 + x t t t 8 a a y z @ > b y y y 8 8 8 8 8 + z y t t t t 8 8 z $ & x t t t 8 t t 8 8 @ "
};
