/* XPM */
static char *_9e927026a084725de7528684c7ed8faax5xeGhgP2epYsYV[] = {
/* columns rows colors chars-per-pixel */
"64 64 252 2 ",
"   c #080806",
".  c #170B08",
"X  c #18130C",
"o  c #191914",
"O  c #0C1615",
"+  c #280A07",
"@  c #380D07",
"#  c #26130D",
"$  c #39120D",
"%  c #261A14",
"&  c #361B14",
"*  c #1B231C",
"=  c #28241B",
"-  c #33241B",
";  c #39271C",
":  c #37311E",
">  c #141B2C",
",  c #141827",
"<  c #171F31",
"1  c #1A242A",
"2  c #162334",
"3  c #192435",
"4  c #162C3C",
"5  c #1A2B3C",
"6  c #172738",
"7  c #17323D",
"8  c #0E3036",
"9  c #282A26",
"0  c #372C24",
"q  c #383628",
"w  c #272D36",
"e  c #273336",
"r  c #383836",
"t  c #2F312D",
"y  c #271E29",
"u  c #48130D",
"i  c #59160E",
"p  c #471B15",
"a  c #571A13",
"s  c #490B06",
"d  c #681B14",
"f  c #771C15",
"g  c #6C110A",
"h  c #46271B",
"j  c #57251A",
"k  c #4E321E",
"l  c #68261A",
"z  c #772419",
"x  c #6B2916",
"c  c #462A24",
"v  c #582A23",
"b  c #473626",
"n  c #573629",
"m  c #483937",
"M  c #573835",
"N  c #482E32",
"B  c #662D25",
"V  c #742C22",
"C  c #68362A",
"Z  c #753728",
"A  c #663B36",
"S  c #773C33",
"D  c #3D4535",
"F  c #47422B",
"G  c #58442C",
"H  c #4A4535",
"J  c #564637",
"K  c #57543B",
"L  c #4D523D",
"P  c #664539",
"I  c #774737",
"U  c #6D4931",
"Y  c #1C2D43",
"T  c #1A2E44",
"R  c #153542",
"E  c #1A3344",
"W  c #143A46",
"Q  c #1A384A",
"!  c #1D3C52",
"~  c #0F3A44",
"^  c #22344C",
"/  c #273A48",
"(  c #353B46",
")  c #233B54",
"_  c #263D57",
"`  c #4C3B44",
"'  c #673E45",
"]  c #12424A",
"[  c #1B4B5C",
"{  c #1C4457",
"}  c #0F444C",
"|  c #36454A",
" . c #24425C",
".. c #274559",
"X. c #384757",
"o. c #39575A",
"O. c #2B4C55",
"+. c #1E4E62",
"@. c #1D5C6C",
"#. c #1C5567",
"$. c #1C5E71",
"%. c #234B63",
"&. c #2A4965",
"*. c #23556A",
"=. c #225A6D",
"-. c #285568",
";. c #385966",
":. c #285B73",
">. c #33516B",
",. c #1C6374",
"<. c #1C6A7A",
"1. c #18727C",
"2. c #1A626E",
"3. c #39636B",
"4. c #246375",
"5. c #24657A",
"6. c #2A647B",
"7. c #246B7D",
"8. c #2A6879",
"9. c #366875",
"0. c #2A6A76",
"q. c #494648",
"w. c #564748",
"e. c #585545",
"r. c #484B53",
"t. c #574B54",
"y. c #485759",
"u. c #585657",
"i. c #4A534D",
"p. c #684846",
"a. c #774A45",
"s. c #685548",
"d. c #775848",
"f. c #665957",
"g. c #745955",
"h. c #664E55",
"j. c #55625B",
"k. c #7A6756",
"l. c #706752",
"z. c #465B66",
"x. c #515C66",
"c. c #655A63",
"v. c #46646A",
"b. c #576667",
"n. c #476A73",
"m. c #517276",
"M. c #696965",
"N. c #6F6D6A",
"B. c #861C15",
"V. c #951B14",
"C. c #8F0F08",
"Z. c #AC1911",
"A. c #86281B",
"S. c #98251A",
"D. c #9B301F",
"F. c #A4271B",
"G. c #B6271A",
"H. c #AD321E",
"J. c #883829",
"K. c #96382A",
"L. c #8E362C",
"P. c #A73B2C",
"I. c #B2372A",
"U. c #CA160B",
"Y. c #EC1004",
"T. c #C8291A",
"R. c #D7291A",
"E. c #D32E1A",
"W. c #E62819",
"Q. c #EB2F19",
"!. c #C63727",
"~. c #D83627",
"^. c #C8372B",
"/. c #EA3A2A",
"(. c #F03526",
"). c #87463A",
"_. c #984739",
"`. c #914E39",
"'. c #A94837",
"]. c #B84938",
"[. c #B34F37",
"{. c #C64839",
"}. c #D44837",
"|. c #E94835",
" X c #F24934",
".X c #884A44",
"XX c #954D45",
"oX c #865748",
"OX c #965948",
"+X c #845B53",
"@X c #965C53",
"#X c #A65848",
"$X c #B75947",
"%X c #AD594D",
"&X c #88654A",
"*X c #97634E",
"=X c #886456",
"-X c #996657",
";X c #917457",
":X c #A9654C",
">X c #A96858",
",X c #B66857",
"<X c #B06E56",
"1X c #91716A",
"2X c #B97867",
"3X c #AA7569",
"4X c #CD5645",
"5X c #F05947",
"6X c #C56958",
"7X c #D26B56",
"8X c #EF6957",
"9X c #C67967",
"0X c #D67765",
"qX c #D07F72",
"wX c #ED7867",
"eX c #968370",
"rX c #B98477",
"tX c #AD866F",
"yX c #D78979",
"uX c #CB8873",
"iX c #E98777",
"pX c #EB8975",
"aX c #1C7483",
"sX c #1C7C8B",
"dX c #187885",
"fX c #1E6E81",
"gX c #256E81",
"hX c #296D81",
"jX c #237384",
"kX c #237B8C",
"lX c #287788",
"zX c #2F7A89",
"xX c #577D81",
"cX c #1C8694",
"vX c #1E818E",
"bX c #25828D",
"nX c #248493",
"mX c #2A8897",
"MX c #1E9CA7",
"NX c #418283",
"BX c #B89789",
"VX c #969288",
"CX c #C99688",
"ZX c #D49788",
"AX c #EA9586",
"SX c #F29A8C",
"DX c #D1A59A",
"FX c #E9A293",
"GX c #F1B6AC",
"HX c #CCB3A4",
"JX c #F5C4BD",
"KX c #F7CCC6",
/* pixels */
"2 7 7 R R R R R W 2 , 6 R R R R R R R W 6 , 6 7 7 7 7 7 7 7 7 6 , 2 5 5 5 5 5 5 4 7 6 , 4 R R W W W R W R , 2 R R W R R R W W 4 ",
"<.vXaXjX6.6.8.5.4.{ 2 jX<.7.jX4.5.4.=.:.Q 2 jXjXjX8.9.9.3.3.n.z.9 o.v.z.n.z.z.;.z.z.( 7 lXjXsX8.6.6.7.=.:.< @.sX,.kX5.,.,.$.=. .",
"kXsX,.kXhXhX5.[  .^ R hX! ! { ,.<.! E T 5 7 zX-.:.9.3.v.v.r.q.t.N M.i.m q.w.e.q.q.q.` | zX=.7.hXhXhX@.{ %.6 5.+.Q { @.dX[ Q T E ",
"jXdXcXkXnXnXlXgXvX) 5 jX[ sXkXcXnXkX@.@.T 7 zXO.9.9.n.n.m.y.o n c 1Xg.h.eXDXBXf.u.h.m r xX9.zXzXnXnXhXkX4.2 7.*.<.vXkXcXcXfX#.[ ",
"7.vXgX<.@.@.jX-.-.^ E *.! @.+.@.,.jX+.-.^ e n.n.m.u.h.t.k.p.0 -X@XP L.2XuX_.DX1XZ ).c n i.m.m.v.;.9.9.&.&.6 =.) #.{ *.#.aX*.%. .",
"7.kXMX@. ._ 4.-.&.^ T *.! Y T _ ! 4._ X.( t b.u.y.N M XXOX>Xc 9 d.*XA XXP.K.$XyXyXqXh OXB N.eXh.h.y.3.X...6 *.[ E Y ) ^ ,.%._  .",
"jXsXcX*.&.&.4.%. .E 5 5.,.T Q  .) :.;.r.N c M.o b a.P v XX8XC 1 q J 3XP A.K.a V rX,Xp d.4XM 3Xp.r u.v.( X.5 *.7. .T  .) $.<.[ _ ",
"7.sXsX$.) ) !  . .E 4 #.{ ) T ^ / v.q.g.>XrX-XC G P -X=X= @ p o 0 0 0 H . # &X:X2Xc o k.,Xn 6Xn A N h.r.X.w -. ._ E ^ T 4.*. ._ ",
"7.gXfXfX5._ &.) ) E 4 #. .=...( | r.1XDX<X#XZX9XC - = o q w.H tXeX;XeXtXp `.yX9XuXI = q J - + oX).A +Xw.q.e O...-.=.Q w.@X..&...",
"jX5.sXsX@.) ) ) ) E 4 5.*.:.;.r.u.p.CX-XC z 2XwXl . o s.tX;Xk.1Xs.L s.c XXI n I 2XrXG = q F O *XI B #Xp.w.r y.;.-.6.&.u.u.&.&._ ",
"2 < 2 4 > < < 2 < < > < 1 9 0 M M V #X>XA.H.H.d + H k.tXs.w.s.1 t K 0 n I b b = G 2X:X&X;Xs.9 H m 0 L.K.M N XXM 1 1 3 3 2 3 3 1 ",
"[ @.+.#.@.@.@.#.2.R > #.-.y.q.% c p @X3X_.d h eXq b k.m t r D H J H b c a.= 0 q 0 G >X;Xd.3X=X0 s.tX% `.OXn s.j.o.y.y.o.o.o.o.M ",
"kXlXlX:.jX%.jXkXnX) R nX9.c.w.b >X2XZXP   % s.;XH * e.t 9 b Z J.D.A.- o P h b q X o - % * e.tXuX&X;XJ b >XZ M.b.c.g.g.v.z.zX;.q.",
"7.&.sX5.&.{ 2.cX:.^ W 9.>.m.N.J =X2XP H m k.d.d.J o m C J.P.}.7XyX~.$   0 h ; q H K s C.C.+ q k.l.l.G + >X#Xd.h..XK.).s.r.n.t.X.",
"hX&.=.lX=.+.dX7.>.^ W 9.9.y.=X1XoXG X q l.K ;XK H O d ^.5XwXI.A.*X).%   X c h q F K n U.(.R.C.n e.J F.U.i uX>X=XK.G.).I y.z.w.r.",
"hX&.*.lX<.[ 1.:.>.^ R 9.n.w.1XVX& 0   q eX;XL b Z = u !.P.x h : n *X; . & # o t q b K Z U.Y.Y.g t & U.U.d 0X4XXXG.^.XXD.f.x.r.y.",
"hX .=.hXsX#.1.4.>.^ R zXn.N.k.3X%   9 o ;XK ; D. Xl   ; - o * X + 3XB a # X + X 9 q b G U B.A.c q b J.d d }.!.U.U.~.T.K.k.c.w.a.",
"7.) *.aXsX$.dXcXkX^ W zXn.f.oX>X% H F X % b K. XF.k o O O   X @ L.6Xd ; X o & $ . = q b G K K s.q L &XC f /.|. XR.E.P.K.XXXXD.P.",
"5. .$.7.cX,.aXlX6.^ Q n.f.g.ZXa.- K q :   f  XS.h 9 0 % u d & + {.0Xd % X 0 - u i X - b n c b F h k C x ^./.5X/.U.{.$X$XT.!.I..X",
"kX8. .! =.nXlXhX8._ E n.s.2X,X- H t 9 b v $ u h 0 b a . a F.f @ P.wXg o = h c $ f i V.d h h b v I J.'.K.T.wX5XW.(. X|.W.Q.4X-X+X",
"#. .^ ^ ^ ) {  ...5 r M.=X6X,Xq q % q A.~.b O O = I p # . B.W.F.s 2X>X@ c b c p @ T.5XI.i &XOXz '.0XwXwX5X8XAXAX5X5X5XQ.~.].).).",
", 2 6 6 6 2 w w 6 t d.-X`.'.).@XI a z  XP.c - = . Z d f u # f B.$ j DX@XZ G H j g ~.JXGXD.<X4X,X[.AXAXGXFXFXGXwX|.|.R.^.I.P.!.}.",
"<.sXsXjX6.6.v.;.-.g.=XOXuX9Xh t I L.!.4XN h `.>X-XB a B.U.i   p A.4X{.uX2XOXP v l ].SXKX[.[.$XJXyXJXGXAXGXFXiX8X8XW.Y.|. X X X X",
"bXjX,.jX8.8.=./ ( d.,XZXZXV o 9 G ].}.M h :X).I C u # d B.u Z '.K.*X[.I.z 3XI n C K.|.SX0X'.CXKXKXKXKXJXKXGXFXiX|././.5X4X}.^.H.",
"zXdXdXkXkXkXhX9.n.P uXBX[.B . % 9 }.}.n _.I 9   u Z.V.& . v >Xa.B k.a.#XFXXXh n n V.E.wX0X9XJXJXGXJXKXKXwXiXFXiXSXFXpX8X4X$XXXa.",
"jXcXgX7.4.4.hX;.y.a.CX>XK.0 B d o l x l v - 9 X a B.G.a 0 $XS A N u.M 3XDXI.j ; U B &X$XwXSXAXAXiXGXKXGXSX8X8XW.Y.5X8X XQ.W.^.!.",
"hXkXMX*... .3.u.X.A ZXyXl q b a f $ . X q r X u g V.~.i m XXA m 0 y.m S rX_.].$ h U U C.!.6XGX8X8X8XAXAXGXAX5X8X(.Y.Y.!.#X!.T.P.",
"jXbXnX*.>.&.0.| | w.OXyX- P & h I.|.p   o o # # p S.T.a .XI N m 9 y.q.n 3X>X$XOXI #Xa j :X$X6X~.^.~.5XiXwX8XwX8X/.Q.Y.Y.T._..Xa.",
"jXcXbX#.) _ ....q.w.I yX0 n = q ~.~.l L X . d i # + A.V '.A m r 9 y.r m p.-XrXZX).k U &XuXV _.'.[.{./. X/./.iXqXW.~.G.U.Y.T.L.a.",
"7.jX7.9.;._ ..| ( ` oX9X; t 8 D 4XS.n L . p g Z.G.S.$ K.).M r e 9 o.( ( m v .XrXz & n :XJ.Z <XC U J.E.(./.U.|.wXW.Y.!.L.F.G.H.P.",
"bX7.lXb.f./ _ ( | q.I >X- q t V yXS.n H . d f i G.^.d OX).M r e 1 v.| ( i.w.a.rX9XK.M +X- b k h j '.'.R.W.U.W.5XQ.Y.(.{..X.Xp.I ",
"5 6 ( e.w 5 w w r M Z P.- n 9 n 0XS.n H X d V.B.Z.E.f _.>Xn 0 1 , 1 1 1 9 t c S -X9X,XV u u u A.P.K.K.F.W.T.Z.Q./.G.T.R.D.C n A ",
"Q [ O.o.[ | | O.o.M V '.; b = N ~.S.b F X z U.Z.A.S.+ _.yXa.i.| O e O.| | | i.w.P =X).L.$X$X#X#X`.XX_.oXT.Z.L.[.^.|.'.`.F.Z._.).",
"nXmXlX6.lXy.m.mXNXt.S 2X0 b & j ~.z b F X l V.u o a & '.yXrXf.o.> 3.3.o.o.y.y.y.m.M.s.P k.k.-X+Xa.a.N.N.).Z.+X@X).G.{.+Xg.N.f.t.",
"hX:.vX:.%.q.j.zXv.w.oXCX- q h v z & o =   . X % u T.~.B %XrXrX` 9 o...O.-.-.O.O.3.y.q.q.f.p.oX' m q.y.U B G.P._.g.N.4XP.u.m.p.p.",
"hX&.4.lX@.i.N.9.x.` 1XuX_.0 = % % o = q r o & a A.G.T.B >XoXqXg.9 o.-.O.7 7 O.-.;.X.q.q.M.` t.u.w.i.v.u.h.V H.rXi.A S E.a.n.t.q.",
"hX&.*.kX<.X.N.3.z.t.Z CXiXB   0 G.J.9 9 l.e.g V.h f T.z a.OX2X1X9 o.;.e e 3.w o.z.r.t.h.1X' f.l.P s.N.c.f.M d.N.A w.m.p..Xn.>.o.",
"7. .=.hXnX-.M.v.z.t.`.9XZXp 9 9 K.^.j D l.i.s Z.g z a & 0 -XrX1X0 v.3./ e O.e o.x.w.g.N p.XX+X-X-XC J =Xg.N M.tX_.J zX;.9.3...-.",
"8._ *.kXaX@.b.m.9.w.`.7X>XX t 1 c 4X_.b L D X V.V.& u f # d.rX1XN j.m.| r r m f.k.@X>X$ n S ,XC XXS C p.+XC M.VXw.y.=.:.=.:...=.",
"6. .,.jXcX,.b.s.m.` #X#X% = 0 - = {.H.F H L   + # X S.R.g % yX:XB l.f.f.s.k.=XM M P n h :XC ).B Z v #X& S L.M.z.9.9.kXjX8.7.@.*.",
"lX:. .{ 4.nXm.k.M.w.J.n q q % & 1 S ~.Z q   n ; . f V.F.T.d n $XP.3X@X.XXX@XJ $ I.I.a b `.OX# B ,X. I OXv L.N.b.z.>.lXmX=.=.jX .",
"7.:...) r.;.;.f.=XoXj o n J X ; 6 ; F.l X c -Xl.% B.T.S.G.V.p l l M XX4XL.. + F.W.Z.& G U U p C <XC U :Xc J.f.b.X.&.&.&.h.t.%.^ ",
", , > > 1 , 1 H J I S ).#Xv o % 0 9 * $ T.$X- t s.& B.Z.V.& A.!.I.S.. p f u i S.z f o G P % h G I ).S ).p L.c y y , > > t w > > ",
"[ @.4.=.*.r -.4.b.*X).,XAX$X2X# 0 = O i 5X8Xf q r e.- d f % d Z.G.G.B.G.G.. @ B.f f p c - b p.b ; ).U K # J.w.;.-.4.*.*.#.@.=.{ ",
"nXkXjXkX6.n.0.{ X.d.d.*XFX[.].d     o c ,X7X|.x 9 H 9 $ d & A.S.z f F.G.B.S.u X d f d . q F I -X).I q o Z J.b.;...+.+.$.[ ! Q Q ",
"bX1.aXjXlXkX7.8.7.( +XOXyXFX6XiXS A d.+XP V 8X}.j * = r % u f f S.p u f f F.B.# u g $   - G b I oXF F   _.J.z...%.@.7.cX$.+.{ ! ",
"lXvX7.jXlXlXlX3.b.| m &XOX:XuXAXqX>X9X>X9 8 V 5XT.# k.;Xk.w.# u f u a d d B.V.i p ; o q = o b P b : b X ).S z...7.gXzXzXkX<.=.%.",
"hXkXmX@.%. .7...m d.t u.oX@X:XJ.{.A.Z :Xh 1 9 A.z ; ;XK e.1XH 0 r 0 # p a u $ v >X&Xq j A.j = q = 0 . OX#XM z.^ ^ T { ! ,.*.&._ ",
"hXkXcX*.>.&.7.&. .s.l.3.s.-X,XI '.K.I >X- ; = ; X L.!.Z p b d.e.e.L H m X 0 G @XU h x F.|.A.: % = = Z 0X-XN z.:.) T _ ^ ,.$.&. .",
"hXvXcX+._ ) *. . ./ s.u.o.m ,X0X7XB d.#X. q c 0 o l T.Q.~.I.A.h b F L = D b v n ; V.5X5XF.a ; ; % l {.,XBXc ;.:.) T ! Q ,.,. ._ ",
"7.aX7.1.%._ _  ...E J s.( g.*X0X6X- OXZ h X - n o ; v A.^././.{.L.C q o I H.{.g g /.4XV.& : : % V 7XZXDX1Xt o.)  .! Q T ,.%.&. .",
"kX7.vXsX,._  ._ ..q.e f.s.g.=X<Xh s.oXo 1 o - : o q : 0 j z K.5X8X~.f p ~.7XP.l @ A.a ; 9 9 : M 9XCX.Xa.` w -.*.*.aX . .&.&.-._ ",
"[ ) @.#.E E E E E 6 6 | P s.d.-XA XX2Xl p K.$Xd @ : q = 0 c c l z P.F.u l 2X0 = . % q - X $ V L.CX@XM ` ( 1 ! ! ! ! ) ) ) ) ) Y ",
"> 6 6 4 6 R 4 4 4 2 , 5 e J d.+X3X9XFX7XP.S.P.{.4XI - q q : b b b ; j & X OX=XoXI h + i V K.'.#XZXA r e 5 > 2 4 4 4 R 4 R 4 R 6 ",
"jXbXhX8.kX5.kXjXnXE E bX0.y.w.s.d.oXuXFX,X#XBXHXGXAX,Xj b : = b H b ; %   I rXj I >X%X6XZXDXCXBX1Xb.zXlX4.< 7.kX6.6.8.kXgXkXhX*.",
"hX4.vX:.:.{ ,.kX8.Y ] zX>.;.3.o.i.f.=X<X9XuX,X<X@X_.6X7XJ.# % o o = X n i @XoX. n $X6X>X3X1XN.t.r.O.7.jX&.6 7.:.-.:.5.fX:.sX-._ ",
"hX&.gXgX%.#.1.jX>.Y W 6.4.7.9.9.3.j.y.s.a.d.*XOX*XoX).XXC n n b t % J.yXAX>Xh n =Xa.A P c.t.n.v.-.,.dX:.&.6 :.:.dXdXaXaX1.jX-._ ",
"hX&.*.nX@.[ 1.:.-.Y W 6.7...0.3.3.9.;.y.q.e.e.P I d.k.n c n q o % $X$X$X9Xv b g.c.u.q.r.n.X.9.lX%.,.1.>.&.6 :.hX[ [ 1.@.1.:.%.[ ",
"hX&.=.hXsX+.1.:.>.T W lX4...bXbXO.@...O.( H ;.t e w.l.b . % o n _.'.J p.P j.s.y.z.y.| | >...8.lX7.@.aX&.&.6 8.lX[ 2.MX$.1.:.[ #.",
"hX&.*.kXsX<.1.jX6.Y Q mX1.-.4.{ W } 4 R 6 4 W 5 W Q m e 8 8 6 A M 7 W R 7 E E { ../ ^ Q { ^ { kX1.<.aXjX-.6 jXcX#.@.@.<.1.*.{ %.",
"7.#.,.dXcX,.sXvXkXY W hX<.[ [ } W W W W 5 4 R 4 W W W R W W W 2 4 Q R W W W W W ~ W 4 4 R ! { 2.aX<.aXvX:.6 4.5.1.<.dX<.2.aX#.*.",
"7.%.#.#.sXcXlXjX:.Y Q hX-.Q 4 } } ] } W 6 4 W 4 R R ] ] W W R 5 5 W E R R ] } ] ] ] 4 4 W R R ! ,.kXgX7.&.6 8.>.6.:.cXcXdX1.dX+.",
"jX5._ )  .:.6.4.7.T W lX>...5 4 R 4 R 7 6 4 ] R 6 6 7 R R R W 4 3 ] R 5 5 T R 4 R W 6 7 ] E 5 ) &.:.6.4.=.2 7.5.&.&.>.>.&.%.,.) ",
"6 5 5 Y 5 3 3 3 5 2 > 5 5 5 6 2 2 2 2 2 2 2 6 2 6 6 6 3 3 3 3 3 2 6 6 6 6 6 2 2 3 2 2 2 6 2 6 Y 5 3 3 3 3 > 6 6 5 5 5 6 6 6 2 2 "
};
