/* XPM */
static char *b25a84ac367946c8c7515463131dbf0b8MqGfrv1eNl58nXh[] = {
/* columns rows colors chars-per-pixel */
"64 64 250 2 ",
"   c #080A07",
".  c #190B07",
"X  c #19120D",
"o  c #191A15",
"O  c #0C1814",
"+  c #290A06",
"@  c #370D08",
"#  c #27130B",
"$  c #38140C",
"%  c #271A13",
"&  c #371B14",
"*  c #1C211C",
"=  c #29261B",
"-  c #3B2B1C",
";  c #362719",
":  c #33321E",
">  c #141D2D",
",  c #161A26",
"<  c #151F30",
"1  c #191F34",
"2  c #261E25",
"3  c #16212C",
"4  c #152233",
"5  c #1A2B3C",
"6  c #162938",
"7  c #17343D",
"8  c #0F343D",
"9  c #292826",
"0  c #362826",
"q  c #293324",
"w  c #383627",
"e  c #242C36",
"r  c #28343A",
"t  c #3A3739",
"y  c #332D34",
"u  c #470B06",
"i  c #46150C",
"p  c #55150D",
"a  c #481A14",
"s  c #581B14",
"d  c #540B02",
"f  c #66150B",
"g  c #7B160D",
"h  c #681B13",
"j  c #781A13",
"k  c #6B0906",
"l  c #47271A",
"z  c #572619",
"x  c #45331D",
"c  c #562B14",
"v  c #66261A",
"b  c #792418",
"n  c #722E17",
"m  c #472B27",
"M  c #562C25",
"N  c #473726",
"B  c #573529",
"V  c #4A3735",
"C  c #573A35",
"Z  c #662D27",
"A  c #742D24",
"S  c #68352A",
"D  c #78372A",
"F  c #683B33",
"G  c #733D35",
"H  c #3C422D",
"J  c #47432B",
"K  c #56452A",
"L  c #494337",
"P  c #564936",
"I  c #5C5438",
"U  c #67442A",
"Y  c #6A4637",
"T  c #794638",
"R  c #67553B",
"E  c #775538",
"W  c #79462B",
"Q  c #70603F",
"!  c #1A2E42",
"~  c #133542",
"^  c #1B3345",
"/  c #123945",
"(  c #1B364A",
")  c #133C4A",
"_  c #1C3B4D",
"`  c #1A3A46",
"'  c #1B3D52",
"]  c #263A45",
"[  c #373C43",
"{  c #223E51",
"}  c #4C3E42",
"|  c #18424D",
" . c #144652",
".. c #1C4355",
"X. c #134A55",
"o. c #1D455A",
"O. c #154C5B",
"+. c #1B4A5C",
"@. c #1A4B57",
"#. c #15535D",
"$. c #284349",
"%. c #384849",
"&. c #264857",
"*. c #29555B",
"=. c #375658",
"-. c #3B4B55",
";. c #1D4E62",
":. c #1B5364",
">. c #155B64",
",. c #1A5C6C",
"<. c #185967",
"1. c #1C5E72",
"2. c #0F5D67",
"3. c #265965",
"4. c #345C63",
"5. c #215166",
"6. c #15626E",
"7. c #1A636E",
"8. c #1F656A",
"9. c #156573",
"0. c #1B6373",
"q. c #146A75",
"w. c #1A6A76",
"e. c #156D7A",
"r. c #1A6B7A",
"t. c #1D6679",
"y. c #13727C",
"u. c #1B717D",
"i. c #12757B",
"p. c #0E7077",
"a. c #27646B",
"s. c #366668",
"d. c #226673",
"f. c #287378",
"g. c #337174",
"h. c #36605D",
"j. c #454746",
"k. c #584946",
"l. c #475857",
"z. c #5A5A55",
"x. c #4E544F",
"c. c #684B44",
"v. c #7A4C44",
"b. c #685949",
"n. c #785847",
"m. c #6B5C53",
"M. c #7D5D57",
"N. c #4E645D",
"B. c #756653",
"V. c #445E62",
"C. c #436564",
"Z. c #50706A",
"A. c #6E7069",
"S. c #871B14",
"D. c #971B16",
"F. c #8C0E07",
"G. c #A51C16",
"H. c #AF110D",
"J. c #882618",
"K. c #95261A",
"L. c #8B2E17",
"P. c #A6271A",
"I. c #B5251A",
"U. c #AE321E",
"Y. c #87392A",
"T. c #973828",
"R. c #853D32",
"E. c #8A3027",
"W. c #A93726",
"Q. c #B93325",
"!. c #C41E18",
"~. c #CD2B1B",
"^. c #CE3426",
"/. c #EE3929",
"(. c #F11D12",
"). c #864637",
"_. c #974839",
"`. c #88563B",
"'. c #8F4730",
"]. c #A54838",
"[. c #B64C3A",
"{. c #B24A34",
"}. c #CF4B36",
"|. c #E54932",
" X c #894C42",
".X c #964E41",
"XX c #885647",
"oX c #965846",
"OX c #895C53",
"+X c #A75847",
"@X c #B75745",
"#X c #A85246",
"$X c #9A6348",
"%X c #896857",
"&X c #996757",
"*X c #8C6F52",
"=X c #A9644D",
"-X c #A86858",
";X c #B76755",
":X c #A8735A",
">X c #B7735C",
",X c #B9634C",
"<X c #947363",
"1X c #A76D62",
"2X c #A77665",
"3X c #B97767",
"4X c #B87A6E",
"5X c #CA5A45",
"6X c #D85945",
"7X c #EC5542",
"8X c #C56A56",
"9X c #D66953",
"0X c #D7725C",
"qX c #CB6751",
"wX c #E76F57",
"eX c #C87966",
"rX c #D87A65",
"tX c #E27A64",
"yX c #F17B63",
"uX c #BA8777",
"iX c #B58772",
"pX c #9F8974",
"aX c #DA826E",
"sX c #C58777",
"dX c #D88A76",
"fX c #CD8E73",
"gX c #E58A74",
"hX c #EA927C",
"jX c #E9836C",
"kX c #147582",
"lX c #1A7481",
"zX c #147B85",
"xX c #147E89",
"cX c #197B86",
"vX c #107883",
"bX c #257D85",
"nX c #14828C",
"mX c #19828B",
"MX c #138C93",
"NX c #268C91",
"BX c #BD9284",
"VX c #D89A87",
"CX c #C89484",
"ZX c #E89B88",
"AX c #F39C84",
"SX c #D8A692",
"DX c #EBA793",
"FX c #E9B9A7",
"GX c #F4C8B7",
"HX c #F4D5C6",
/* pixels */
"~ X.X. . . . . .X.6 >  .X.X.X.X.X.X.X.O.8 > ) X.X.X. .| | $.$.r 2 r ] ] ] ] ] r r ] 6 >  .X.X.X.X.X. .O. ., ~ X. .X.X.X.X.X.O.~ ",
"nXxXkXlX1.0.r.9.,.( ~ xX9.u.y.1.0.,.,.,.~ 7 mXcXlXt.3.3.4.=.x.c.G z.x.j.l.j.%.%.%.%.0 $.NXlXzXt.t.t.e.,.;.4 r.r.0.lX,.0.,.,.<...",
"nXq.q.zXkXzXq.#.:.^ ) r.( +.O.i.q..._ ' 5 7 bX3.a.a.4.l.k.Y  X_.rX&XS Z F Y Y F Z  X).k.Z.3.u.lXcXu.<.:.o.6 w.....O.9.kXO.' _ ( ",
"xXi.zXzXnXnXkXe.u.^ / u.O.xXxXMXnXzX,.7.^ 5 g.*.s.N.x.c.1XZXY ; S _.].#XeXSXGXVXeXZX].m A.C.g.bXmXmXu.u.:.4 w.+.e.xXnXnXnX9.6...",
"lXzXkX9.:.<.e.&.;.5 ) :._ ..+.:.<.w...*.e r N.z.b.T .X[.rXjXM I &XS [.ZXrXaXdXZXtXtX#X& k.m.m.x.%.*.4.&.{ 6 3._ ....:.#.q.+.;._ ",
"r.zXMX;.o...q.;.o.5 ~ ,.+.^ ( ' _ 8.{ %.y y %XsX2XT.;X0XjXjX].o L &XG OX6X9X}.GXZXjX;XF .Xl sX-XF k.z.[ ] 4 3.+.( ^ .._ 9.+.o._ ",
"lXxXnX;.o.o.7.o...5 ~ 0.,.( ( .._ a.-.j.m l &XM ; F S A -XAXqXo y N &X<XD tX@X-X>XVX,X; ;XA eX@Xm G XXt r 6 3.7.' ^ ..' 0.9.+._ ",
"u.kXe.,.' ' ' ....5 ~ :...' ^ ^ ] l.V Y  X2X3XR.l R OXoXT Z K.# 3 9 = V & @ m U -X-X$ w =XR.;X#XB M F C t e *.o...^ ^ ^ w.o.+._ ",
"cXr.e.y.6.' o.' ' 5 / ,.o.,.+.] j.k. XsXCX;XVX0X+X& E uXiX XM c.<X*X%X2XY & :XfXsX-X= q I N i l $XM T.S M y =.&.,.9.' ' +.+.:._ ",
"u.:.q.q.o.( ( ( _ 6 ~ 7.o.*.*.j.k.D 3XCXJ.D.;XZXqXd iX2X=X2XR <XpXP b.P S oXU E :XuXE = o H o = :Xz }.8X=XM -.&.o.:.o.o...o.o.^ ",
"> > 4 6 > 4 > 3 < > , > > 9 0 Z _.[.}.3XU.6X|.{.].'.CX$X:Xb.B.k.9 L P ; OXU N w - :X>XE n.n.% N I = ).6XrXR.& 9 3 > > > 3 > 4 > ",
"9.i.9.9.i.9.i.q.i.~ 6 u.d.C.A.B c.XX).eXtXtXJ.).&XCX$Xn.L w w w N K N ; OXN q q q N =X>XXX`.&XN = 2XC A 9Xj Y N.4.a.9.i.q.e.q. .",
"cXy.zX,.w.+.r.nXlX^ | bX4.x.M.9 n.oXuX&Xl + N iXFXS Y L * q K D Y.n ).T 1XY ; N = X - w = w &XsX:X$X*X0 @X{.-Xn.j.=.d.u.t.nX5._ ",
"r.;.zX0.+.#.9.zX:.! | a.-.N.%Xc.C 4X2XU w P E 2XSXf x K U D T.5XaX9XW.l Y E l w J P - k k d = B.*XR B.@  XGXdX8XM.s.d.e.i.cX:._ ",
"r.o.,.kX9.<.zX0.;.! | a.l.P _.-X<XoXN o B.R n.-XVXoX).W.^.wX9XU.oX:Xl     = : = J P J F.(./.F.z R I D I.F.4XfXeXOX%.*.,.e.0.;._ ",
"u.o.,.lXy.+.i.,.;.^ | s.x.T ;XVXF x o   *X*Xn.P ,XVX,X|./.qXT.l - XXU . X X o 9 w w K U H.(.(.H.& w F.(.F.@XGX3XV *.MX,.i.,.:.O.",
"r.' 7.r.kX:.i.w.,.^ ] Z.z.`.ZXDXoX  % o n.*XJ z 5X9Xf +X-XF = = . Y 1Xu & X # X * w N K U g F.f = H z S.u 3XdX*XL &.:.8.i.:.O...",
"w.' <.e.i.>.vXnXcXr t Z.b._.dXyXY.  L % % N z ~.|.,Xz a m X   # s 3XT.s % o & $ . o w w N P R R P H b.n.$ W.qX%X%.3.:.<.>.,.>.+.",
"w...,.0.zXe.y.r.d.r t B.-XqXgXdX$ R J ;   @ ^.^.F.3X4Xl $ p a # g rXT.i # % ; $ p # * q w w w J w = = = F 0X;Xc.l.a.cXu.w.y.q...",
"nX,..._ :.cXu.r.d.[ V <X+X[.ZXoXN N q : l $ g v - S fXs @ G.S.i g yXU.i X ; l o f i   o q = = = 9 w q w z {.XXk.-.*.a.r.:.,.y._ ",
" .( 5 5 5 ! ^ ^ ] y B T W.aXDXZ w = 9 K I.J.O   o S Y.@ # f !.I.d ].3Xu = x l $ # + f u X q R = q `.; E & n C y e 5 5 5 5 6 6 4 ",
"4 8 8 8 8 8 8 7 r 0 M E.5XtX,X&XT s p I./.Z : % . z D f s + h I.f + iX1Xh M J c $ @ S.S.+ q +Xa B ).M N z z w r 7 ~ / / / / / 6 ",
"zXzXzXu.0.t.w.3.l.V F =XrXhX).; Y E.J.|.).& z ). X).v j H.D.+ $ G 3X[.VXCX=XB w & & h J.i w `.@X_.)._.& T m C.f.d.cX0.0.0.0.0...",
"nX9.9.kXe.e.7.] j.C E.eXHXsX@ q x _.^.].& G +X+X-XD + a D.g M ].rXeX{.}.[.&X&Xl - Y i S.S.l S 0X5X]._.).F m s.&.{ o.6.9.' _ ( ^ ",
"nXi.zXkXxXcXu.g.N.A >XSX9XeX+ # = './.D z +XB o + g G.p @ # -X].J.OX).].eX1Xz x x l u s K.f s #XrX8XsXsXXXm s.*.r.cXmXnXzX9.>._ ",
"lXcXy.q.6.9.r.-.c.T.FX8X6XXXa S.& a P.v D l = o i S.G.K.X +X].S B b.C _.FXhXY.& N - l %Xv S.v $ 5X0XgXhX,XM V._ +.+.,.,.u.+.:._ ",
"u.zXMX:.+.o.8.-.c.@XDXhXqX$ J s j @ X % ; w * # f F.I.K.& rX).B w x.V D 4XdXwXj = x E B u a J.b A A A 5XrXT =...( ( o._ 9.o.o._ ",
"cXzXnX:.;.+.d.%.F 8X}.gXY.B l & j |.b   X q o + s D.~.D.F rXY.m 9 =.%.B .XsXrX}.z `.M + - n.p j $ N Y 0XeXT =.8._ ( +...9.9.+._ ",
"lXzXzX<._ _ { [ V R.8XjX).x l 9 P./.K.w =   a p % # S.j @XtX.X0 e =.r V G -X4XVX8XS K w *XB.+ G B `.S +XF m =..._ ^ ( ( e.;.+._ ",
"u.e.0.y.<...&.] [ B '.DX4X$ % e {.~.v I = # h G.G.J.i E.}.rXXX9 e =.r t V Z E.CX9Xp : U `.N R Y ; J v S t e *...+.+.( _ :.o.;._ ",
"mX,.cXkX;._ _ ] [ V ).@X4XoXN l 3X5Xc P o i S.f H.^.S._.jX.Xm e 6 =.$.%.j.k.F 2XDXrXz %XN = J = X S rXT y e a.+.:.,.o.+.o.;.+.( ",
"4 > 8 6 > > > 3 9 m D P.d n.$Xi 1X6Xs K o i D.f G.!.G.'.9XA 0 2 , 3 3 3 2 9 0 Z &XVXrX_.z m & G @XP.'.`.0 3 > > > > > > > > > > ",
"#.>.#.>.>.>.>.#.=.B b }.A - ).P W.I.c K o i D.H.D.!.j b dX1Xk.t o %.=.=.=.=.l.z.Y <X.XL.gX8X5X5XaXoXP x.%., @.>.>.>.>.>.>.>.6.) ",
"mXnXlXt.kX<.xXbXZ.Z #XAX X; W =X~.P.l K * a D.S.% a + ).hXCXn.L 9 Z.s.=.=.4.s.l.Z.b.F T %Xn.`.+XeXn.C.g.*.4 mXlX3.3.r.lXr.MXd...",
"t.<.nX,.+.O.q.f.x.#X5XZXv.= U eX^.Y.o = X # $ # # g ~.Y.eXdXsXC y s.&.d.8.d.8.=.z.Y M C c.C %XeXS t s.s.[ 6 d.5.r.r.lXi.i.zX:._ ",
"r.o.r.kX<.6.i.a.x..XaXDX{.M <XT n.% X x L X # i h G.~.j sX@XeX-X0 V.3.:.@.| *.l.-XeX@XXXv.F m.M.C j.h.l.[ e a.r.,.:.:.e.p.0.;._ ",
"r...9.zX6.O.i.3.l.Z =XdXdXdXC . ].=Xn.`.).B.i D.h h I.D._.rX=XCXm C.a.] *.NX%.x.n.].@X8XVX_.XXM.Y c.z.c.} y s.d. .u.MX,.i.,.,.O.",
"r.' 9.r.kX:.i.3.-.V D [.DXeXa e b gXeX>XVX*X$ G.j s b h M qX;XuXB Z.s.] &.s.L m.).].eXqXeX5XrXsX;X'.v.XXv.m Z.f.@.6.zX9.i.:.+.+.",
"0.' ,.zXi.6.zXcXs.m T {.tXS - = n.aXQ.n SX2Xi F.H.S.@ a @ Y.8X3XA A.N.%.j.C &X+X[.gXyX5Xa R.ZXVX+XrXZ T oXS A.g.>.6.>.9.9.,.#.O.",
"0.O.9.y.zX9.u.u.4.M Y.gX).; & $XBX[.^.c `.iX$X{.0X-XY.!.K.# fXrXT.%Xc.m.b.XX;XaXuX;X,Xv W D Y._.p  X_.D & [.M.l.f.w.nXy.y.e.6.+.",
"cX:...' 9.nXu.d.V.M [.sXi z XX-XM M ^.n K B z '. X3XW.P.Q.f ).AX}.>X#XT.].@X9XZ s T.A # E ].Z a +Xz $ `.0 {.+XOXl.3.u.cX7.q.kX' ",
"7.+.' _ ..o.&.&.j.Z 8Xz Z uX1Xp 2 3 K.P.=   T >X$ k !.I.K.~.i Z #X;X@XtX7X#X$ p ~./.S.l U `.B @ +X+X$ $XY .XjX&X} $.{ { ' ' ..! ",
", > > > > > > , 0 s @XXX_.-Xu & ; * ; # k ].n.w b.l S.I.P.S.h I.K.E.i v.oXs . J.b G.u N D B $ B E _.D '.C W.U.z 0 , 3 3 3 3 < > ",
"9.e.e.6.,.,.<.:.4.M eXtXgX8X3X0 ; = O X ~.wXL.= L b.; h S.& l G.~.^.S.u D.j . S.b j a - x - P l - B  X`.0 -X8Xn.l.a.,.,.,.,.7.| ",
"MXe.e.kXr.r.6. .&.V +X[.VXZXyX].. % O % Y.rX|.b q N I X b $ z P.J.b I.~.I.f a # s h f u B l OX3XF T B w & eXhX Xt &.:.,...' ( ^ ",
"nXe.kXkXzXkXr.r.d.y C OX-XDXrXjXZ . l B %XA |.^.h = = X % i v S.j j s j b K.P.$ + E.@X3X1X:X2XW iXU J . M wX;Xc.-.3.u.mXr.:.:.( ",
"cXzXe.y.e.kXu.,.:.e t z.Z eXZXhXDX1X4XsXB o v 7X/.u w *XB.l i '.dX3Xi h S.h K.h u 1XoX_.c l B K U N N o a }.XX} =.a.f.u.lX,.,...",
"u.nXMXO.+.O.q.&.o.4 $.-.m ).rX9XAX+Xb 3Xz , * K.^.u Y $XW fX3X4X_.1X-Xf h s h p v :Xc N v z % N N ; ; & @XT.m.t r ^ o...9.+.o._ ",
"lXnXnX+.:.+.q.' o.4 7 4.[ V ).@X}.rXa 2Xz ; = ; $ a {._.oXBX>XoXT ).SX).@ & % F :XE : z I.~.B = X = + -XtXb z.=.] ( +.o.w.,.+._ ",
"kXxXnX .' _ O.' ..4 7 3.$.t B D {.[.z sXa ; - ; o a ~.|.0XK.Y.U K Y -X-Xl J K Y x s P.^.|.K.a ; ; % .XhX8Xn l.&.] ^ _ ( r.,.+._ ",
"w.i.9.e.O.....' ' 4 7 *.] [ V F ].s S =Xl X ; x = & b qX|./.~.W.Y.U U XXU D L.J.l G.7X}.h & ; ; # T.FXrXK.M l.] &._ ( ( ,...+.( ",
"nXr.nXvX<.' ..' ' 4 ` 8...-.x.v.G M 2XM 9 o . - = = c :XgX5X^.|.wXW.v W Q.~.6XI.u S.W.p = = x & _.DXSXaX).m s.&.:.0.o.+.+.:.:._ ",
"..! X._ 5 5 5 5 5 < 6 ` 5 r t C l i 2Xz . a ;XS % ; N M oX$XCX{.W.Q.~.v g 8X).& # + ; = = X m #X6XDXdX@XF 0 [ e 5 ! ! ! ! ! ! 4 ",
"~ / / ) ) ) / ) ) > > / ) _ ] j.c.D >X@XU.9X|.6X}.A x x l c :XBXu l v l .  XOX0 M # ; % s b }.rXFXVX=XF V 2 5 / / ) ) ) ) / ) 8 ",
"nXnXlXlXzX9.nXxXnX6 X.MXu.a.4.C.N.m.2XdX@XrXgXDXDXDX.Xv - U uX=XD B ; - X @ uX&X)..XG #XAXFXZXdXVX-XB.Z.=.e cXmXd.0.r.xXlXMXr.+.",
"r.9.xX:.O. .q.zX,.6 #.lX;.,.7.d.3.C.m.&X;X8X-X3XeX5XjX5X_.h 4XoXi x N & @ p 2Xc @ +XhXVXsXBXiX.XG k.C.s.$.5 d.5.1.t.e.e.9.nX:._ ",
"r.o.e.r.<.2.i.q.;.6 #.0.0.q.6.0.y.f.s.j.C P m.F  XeXrXAXrXh '.eXn & @ oXaX;X$X@ +XqXJ.T n.C z.l.%.=.f.3.&.6 d.0.i.q.r.i.p.y.:._ ",
"r...>.xX,.,.i.:.;.6 #.t.q.` e.lX9.y.5.3.r r C.j.k.3XtXrX_.Z S '.W v #X[.ZX;Xp =XrX`.B j.V.[ s.f.*.,.w.5...8 d.r. .6.xX0.p.,.<.X.",
"r.' <.r.e.O.i.<.;.5 #.lXq.| y.mX2.zX;.:.` 7 a.$.l.c.4XaX& ; ; i b @XR.v ].,X8X>X).k.V $.3.] d.r.7.#.u.:.o.7 r.e.X.e.MX9.i.:.;.O.",
"0.' <.zXq.6.i.kX0.4 #.MXzX<.2.>.e.kX+.#.` 7 d.&.*.C.z.v. X).B ].aXoXc.Y  XsX-Xc.j.%.] | d._ r.zX6.q.zXzX:.6 cXnX<.9.2.q.p.:.+.+.",
"1.O.q.vXvX6.kXzXr.1 #.r.e.e.e.zXq.e.2.6.` ~ d.+.<.a.s.l.<X<XB.v.S z.x.l.x.j.%.s.a.*.`  .1.<.9.zXi.q.zXnX:.6 t.t.i.i.zXq.q.i.2.O.",
"lX;.O.O.kXnXlXr.,.6 #.lX:.1.1.nXnXe.i.zX~ ~ u.+.+.+.d.f.s.=.=.[ 9 s.=.4.4.f.f.d.w.u.^ X.lXo.+.:.nXxXlXe.;.6 u.,.1.1.nXnXi.p.i...",
"y.:.' _ o.:.:.:.7.4 X.cX;.o.o.+.+.o.;.,.5 7 u.;.' _ ..:.5.*.3.] 3 a.3.&.&.o.+...o.:.5  .u.o._ _ +.:.:.,.:.4 u.,.o.+.+.;.o.+.:.( ",
"< 4 4 4 4 < < < 4 > > 4 4 4 4 4 4 4 > > > > < < 4 4 4 > > > < > > 4 4 4 4 4 < 4 > > > > > 4 4 4 4 > > > > > 4 < 4 4 4 4 4 4 > < "
};
