/* XPM */
static char *_d7288cec1fc47c387cab596e6b777c46t52E3ClSuqelhmZ[] = {
/* columns rows colors chars-per-pixel */
"64 64 254 2 ",
"   c #0C0D0A",
".  c #040504",
"X  c #180B08",
"o  c #0C110D",
"O  c #13120D",
"+  c #1C130E",
"@  c #0B1412",
"#  c #141412",
"$  c #1C1B14",
"%  c #191A16",
"&  c #150F10",
"*  c #260C0A",
"=  c #27120C",
"-  c #37140E",
";  c #271A15",
":  c #341B15",
">  c #3A1B14",
",  c #391814",
"<  c #370E0A",
"1  c #1C231B",
"2  c #24231B",
"3  c #2B241C",
"4  c #27281B",
"5  c #3C241C",
"6  c #36271D",
"7  c #151C2D",
"8  c #141B25",
"9  c #191E31",
"0  c #161F31",
"q  c #192827",
"w  c #152233",
"e  c #1B2334",
"r  c #1A2639",
"t  c #1C2A3D",
"y  c #152B38",
"u  c #16333D",
"i  c #1D302A",
"p  c #2B2C23",
"a  c #262826",
"s  c #342C23",
"d  c #392A25",
"f  c #2A3329",
"g  c #3C3B2C",
"h  c #383528",
"j  c #272938",
"k  c #393937",
"l  c #2E3337",
"z  c #2C1D29",
"x  c #481A14",
"c  c #571C16",
"v  c #4F100B",
"b  c #671B15",
"n  c #791C16",
"m  c #6C0F09",
"M  c #47241C",
"N  c #57271B",
"B  c #67251B",
"V  c #77251B",
"C  c #68210D",
"Z  c #462B25",
"A  c #582B23",
"S  c #433B2C",
"D  c #483628",
"F  c #56352A",
"G  c #483838",
"H  c #583736",
"J  c #4D2D31",
"K  c #662D23",
"L  c #772D23",
"P  c #67352A",
"I  c #783528",
"U  c #683A35",
"Y  c #763A33",
"T  c #3A4233",
"R  c #47432D",
"E  c #494636",
"W  c #564739",
"Q  c #59533B",
"!  c #56442C",
"~  c #67473B",
"^  c #77473B",
"/  c #67573D",
"(  c #704935",
")  c #1C2D41",
"_  c #172F40",
"`  c #153543",
"'  c #1C3245",
"]  c #1D344A",
"[  c #1B3C4C",
"{  c #163A47",
"}  c #1D3C53",
"|  c #23354C",
" . c #283647",
".. c #383A45",
"X. c #233B54",
"o. c #263C55",
"O. c #2F394E",
"+. c #453B44",
"@. c #5B3B41",
"#. c #1B414E",
"$. c #1B4253",
"%. c #1D475A",
"&. c #1C515E",
"*. c #37454A",
"=. c #24435B",
"-. c #29425C",
";. c #274857",
":. c #364756",
">. c #395559",
",. c #274850",
"<. c #1E4E61",
"1. c #1D5364",
"2. c #1D5B6B",
"3. c #1C5968",
"4. c #1E5F71",
"5. c #244C63",
"6. c #2B4A64",
"7. c #2D4D6A",
"8. c #284662",
"9. c #324B67",
"0. c #225465",
"q. c #24556B",
"w. c #2B536D",
"e. c #225B6C",
"r. c #295966",
"t. c #36566A",
"y. c #235D72",
"u. c #2A5C74",
"i. c #2C5A75",
"p. c #345A74",
"a. c #1B616E",
"s. c #1C6473",
"d. c #1D6B7B",
"f. c #196A78",
"g. c #1B727E",
"h. c #15717E",
"j. c #2A616B",
"k. c #36636C",
"l. c #236374",
"z. c #246579",
"x. c #2C647B",
"c. c #246B7D",
"v. c #2A6B7D",
"b. c #296575",
"n. c #366777",
"m. c #2A727E",
"M. c #38737C",
"N. c #3B706F",
"B. c #474648",
"V. c #564946",
"C. c #595749",
"Z. c #484B55",
"A. c #495559",
"S. c #585759",
"D. c #554D54",
"F. c #664A46",
"G. c #774944",
"H. c #685645",
"J. c #785849",
"K. c #665756",
"L. c #755352",
"P. c #77644B",
"I. c #786754",
"U. c #6B6651",
"Y. c #455867",
"T. c #555A65",
"R. c #465369",
"E. c #4A666A",
"W. c #566569",
"Q. c #476974",
"!. c #546B74",
"~. c #47757A",
"^. c #577A78",
"/. c #53706E",
"(. c #786B67",
"). c #6C736D",
"_. c #675E5B",
"`. c #861C17",
"'. c #991B15",
"]. c #8C0F0A",
"[. c #AB1612",
"{. c #87251C",
"}. c #97231B",
"|. c #8D321E",
" X c #A9251C",
".X c #B5291D",
"XX c #992C22",
"oX c #883629",
"OX c #973526",
"+X c #88362D",
"@X c #A93728",
"#X c #B53729",
"$X c #AE2B22",
"%X c #EF1A11",
"&X c #C82D24",
"*X c #D1362A",
"=X c #E73527",
"-X c #CF1F14",
";X c #87463B",
":X c #96463A",
">X c #894B35",
",X c #A54538",
"<X c #B24636",
"1X c #CF493A",
"2X c #EB4A37",
"3X c #884A45",
"4X c #964B43",
"5X c #875748",
"6X c #965748",
"7X c #8D5D52",
"8X c #A85A46",
"9X c #AE5548",
"0X c #8A6854",
"qX c #976756",
"wX c #96745B",
"eX c #8B6D54",
"rX c #A66957",
"tX c #B5745C",
"yX c #B56955",
"uX c #8C7164",
"iX c #AD7562",
"pX c #CF5546",
"aX c #EF5442",
"sX c #EB6755",
"dX c #DB6A5A",
"fX c #AA856D",
"gX c #94846D",
"hX c #E28772",
"jX c #1E6E81",
"kX c #1D7584",
"lX c #1D7C8B",
"zX c #1A7884",
"xX c #1F7F91",
"cX c #246E83",
"vX c #2A6D82",
"bX c #2D6780",
"nX c #247384",
"mX c #2B7384",
"MX c #257589",
"NX c #237B8C",
"BX c #297988",
"VX c #367785",
"CX c #2F7287",
"ZX c #537D81",
"AX c #1D8795",
"SX c #1B838E",
"DX c #35858D",
"FX c #248392",
"GX c #278896",
"HX c #2B8692",
"JX c #229DA7",
"KX c #57898C",
"LX c #F3E1D4",
"PX c #DE988C",
/* pixels */
"y ` ` ` ` ` ` ` ` 7 7 ` ` ` ` ` ` ` ` ` 7 7 u u u u u u u u ` w 8 u ` ` ` ` ` ` ` { 7 7 ` ` ` ` ` ` ` { y 8 u ` ` ` ` ` ` { { w ",
"lXMXNXvXx.x.c.l.l.r $.NXl.nXc.l.z.l.y.y.w $.FXmXm.b.n.n.n.k.Q.O.t mXvXBXmXl.l.l.y.u.t 3.GXMXNXx.x.v.c.u.=.r nXc.c.cXy.s.s.y.e.{ ",
"GXd.d.nXvXmX2.$.8.r 1.y.] =.&.kX1.} ] | e &.BXr.k.n.N.Q.E.S.K.@.B.~.:.-.6.c.l.=.o.O.j j.NXz.NXvXmXc.1.=.X.` c.[ } $.f.f.$.] ) ) ",
"NXzXSXNXFXFXcXMXnXr %.y.1.SXMXFXNXnX1.3.7 &.m.j.M.M.M.Q.^.*.f > W ).D.ZXVXDXBXm.Y.Y.d k.BXNXNXFXGXNXcXNX=.` nX%.lXNXAXAXxX4.2.' ",
"MXlXc.s.e.s.c.7.w.r %.=.<.1.q.e.d.z.;.w.e ;.~.Q.E.D.D.D.(.; H.qXW G.3XL.S.A.E.!.K.V.; B.~.m.n.k.k.m.t.w.X.' w.o.1.%.q.2.cX5.w.' ",
"vXAXAX=.8.=.c.8.6.r $.5.] t X.X.%.y.| 9.j ,.!.).W.H 3X:X7XY p H.qXU K :XY ;X5X0X4XP W :X..KXW.F.D.n.p.9.| ` w.} ) ) X.} d.X.6.' ",
"nXAXzX=.7.5.z.o.=.r $.c.0.) o.o.=.z.0.:.a A.k ; D F A I yX<X; k W iXwXA <X+XP U I +Xh yXP (.0XJ @.W.Y.:.| ` z.l.] ] =.=.jX2.=.' ",
"nXlXkX<.X.X.=.=.=.r $.1.-.| ] | ;.b.,.Z.s V.F.h J.qXqXW N oX# % % 2 g ; - 3 S E E ; h tX+X6X6XF A G.V.*. .] e.=.X.) ] } jX%.6.' ",
"c.kXz.lX5.-.-.o.o.r $.5.8.e.;.O.:.:.B.D.Z ~ qX~ O g G 3 ; s W wXeX0XfXV.. / eXH.Q 4 s P.! > A rXK ;X~ +... .q.=.y.1.] $.1.8.7.' ",
"NXl.SXjX5.X.o.o.-.r $.l.6.k.>.Z.V.V.V.F.A ^ tX:X    ; J.fXJ.wXfXH.U.P.; ; F J.iXeXW a 1 g % 4 tXN :X^ V.G  .b.5.y.y.6.6.8.7.6.) ",
"e 9 u e 9 9 9 9 9 7 7 e q a J H P P Y P L @XOXc # V.eXfXH.I.V.f E C.a . S ! g S H.P.P.P.0X3 W J.3 A ,XP J a e e 9 7 9 9 w w 9 7 ",
"3.3.0.3.3.3.3.3.3.7 u j.>.S.J > Z M M 4X@Xm ~ E h I.I.V.k T T T W R a . p p p f E Q H.P.qXwXg 2 wX~ N qXH d r.l.e.2.2.a.2.3.e.t ",
"NXNXCXx.c.q.NXFXMXw 1.DXW.L.s J.qXwXF.d * a wXeX1 W V.q k W ( I L F %   d h S 3 O a f a E fXfXwXwXwX3 I.3XB.DXx.p.p.mXnXcXNXw.] ",
"i.w.FXw.=.$.d.MX7.e 1.p.Y.!.V.W Q W P.g g P./ H.p h W ~ L @X1XdXaX`.. ; A M D E E 6 v m v f I.wXI.I.= 5 9XV.k.w.MXMXNXs.MXMX7.' ",
"u.-.c.MX1.a.zXu.7.e 0.n.N.K.G.3 E f % H.I.I.eXQ p $ oX&XdXdX*X;X^ Z o . s M 5 g Q ! ].%X=Xm N H.U.U [.m +XF.Q.v.1.0.5.s.h.u.6.' ",
"x.-.c.NX4.&.kXw.7.e 0.n.E.U ).B.s % . I.eXeXQ E D +  X1X<XV N s q i @   o 2 s g S ! ( [.%X%X[.M f m %Xm I G.!.b.[ FXJX3.d.5.s.[ ",
"u.o.c.cXkX1.g.i.w.e 0.DX/.5XwXJ.. % # / wXE Z #X@XO > A 5 a 1 O # o # 1 O X + a S D ! ( ].[.].6 T N '.X I ;X^.v.$.z.c.c.g.=.1.[ ",
"q.X.l.kXkXs.SXFXv.e 0.DX/.^ 6X;X  W 4 + ! D #X2XOXs @ q @   = x > > : ; $ ; , X ; S D ! / / P.Q g U.eXo L ;X/.m.e.l.e.a.d.1.y.] ",
"w.%.z.kXSXs.MXcXu.e 0.Y.K.7XrX= E Q S # = 1X2Xn Z p q * - x ; b {.B : + % 3 , c = 2 h F D R E g s d F   L 6XK.E.CXvXlXd.kXs.z.] ",
"NXq.=.o.cXGXmXv.b.r r.T.G.qX^ g S h g D > n L D p q @ < {.n , v *XXX, O 3 Z 5 b b c B A x 5 D F H D ~ O L rX(.D.R.t.MXvXq.s.nX' ",
"0.=.| | | o.=.=.;.e Z.I.5X4XZ T s p E #XOX@ o 2 q @ + + c &X&X- c B = $ D D M x m =X1Xm F eXP ( qXD 0X3 B ;XK.L.O.X. .| | | X.r ",
"w y w y y w a y e G 5X7X6XK p g M x OX2XI g 3 1 o + b c = B $XB . . . 6 S E F x '.hXLXpX>XhXoXA tXZ rX3 c oXZ G U l y y y y u 7 ",
"MXNXkXx.v.n.W.j.A.5X0X5XrX^ 1 g d V 2X:Xd M Z 1 . M `. X'.X : x I 8XP ; S g F B XXsXLXPX,XtX{.V >X+X7XF I 4X(.E.uX!.l.l.l.y.l.' ",
"FXs.cXMXvXvXl.=.B.5X0XJ.oX; f g D @XpXd : Z s   , = c XX`., Y ,X:XrX<XB 1 D F F >X#XhXPX8X:X[.`.1XpXM Y +X~ W.B.F.:.d.2.[ | | ) ",
"NXh.lXNXNXNXvXBXE.H C.qX:XO + p A =X3X; 5 T 1 - b  Xc > X 5XwXI ~ (.^ qX; ; D D K .X2X2X@X.X[.c pXsX9XqX^ W /.:.(.VXAXNXkX2.2.' ",
"NXSXc.c.z.c.bXt.Y.J C.6XY 6 V = M XXM 5 5 h # - n  X@X  Y 9X^ H B.S.V.F.6XY % S ! K rX.X%X%X[.>X6X:X9X;XU B.(.A.r.w.e.c.MX<.w.] ",
"vXGXAX=.6.=.A.Z.:.J K.4X: E M n , o $ 6 S a * x n XX#X= 6X;XW J *.Y...H U :XK $ ! / ( ].n XX[.V > >X,X^ U B.p.o.| ] o.} c.X.6.' ",
"MXAXlX6.w.w.k.:.:.J I.H g D 5 V 1XoX. O p % * x '.*X$XM 5XH E l ,.k.>.+.J ^ :X3 D D - N wXc m m = 5 K ^ rXZ.m.l.| | 8.=.d.4.8.' ",
"MXAXMX%.X.o.=.:.B.J J.H g Z f |.2X$XS h . , c ; + V {.oX:XH k j | j.,.O.k H 3X5X; ! D wXiX< ( A iX~ Z F.G *.b.8.o.] | } d.5.6.' ",
"v.NXe.k.-.o.-.O.+.H 5XK p f u :X2XB / p = c '. X{.v A ,X^ G l j [ w.O.;.*.G H 3Xx 4 / qXD J.5Xh H.Z U G k ,.u.-.y.%.] } 3.-.7.' ",
"FXnXn.H.B.| O.O.B.H qXH 2 l G yXpXC / 4 , n b  X*X$XN :XU G l e [ mX6.r.t.*.V.F.3X5 3 4 s S 6 ; : Y H ..l [ mX7.z.y.6.6.6.7.7.' ",
") ) V.E e r j l J F :XK s S 5 yXdXC Q 4 - '.n '.&X#Xc OXF d a 7 w t e e j j l J F K A ; ; = 3 J H G l  .] [ [ { { [ [ [ ] ) r w ",
"$.%.k.>.,.T ,.,.>.A OXP s Z i ,X*XB Q 4 - }.-X'.&X`.M 8XF.B.,.y 7 $.%.%.;.;.,.:.B.D.U Y L.K.S.W.k.j.0.2.$.` 2.2.3.3.2.2.{ { &.y ",
"HXHXv.v.DXU.DXHXKXH 5XW p Z 5 $X&XN Q 4 ,  X'.: 5 * F 9X).ZXM.| { GXCXn.n.BXmXVXDXQ.G S.KXZXQ.VXp.CXHXHX=.` GXvXp.p.mXc.<.1.x.] ",
"u.z.NXw.t.F.k.BXW.H 5XF f D Z oXL % 4 # X > = = m 2XL ;XK.M.t. .{ v.w.mXmXNXd.NXMXt. .r.p.BXCXt.8.y.FXn.O.{ v.w.MXvXnXd.d.$.6.' ",
"u.-.MXvXr.~ ^.M.K.H J.6XZ h 6 ; O # a E # ; > b  X=X{.3XuXE.A. .[ x.c.z.e.u.lXzXu.t. .t.R.t.BXx.p.m.M.R.O.#.x.c.s.3.q.zXf.%.6.' ",
"u.=.vXNXe.S.^.k.T.J J.rX9X. o L |.G p E U.> `.B b $X$XP qXK.Z. .[ CXz.X.FXFXl.MXw.k.+.T.T.Z.~./.S.^.Q.R...#.bXl.] lXFXs.a.$.4.] ",
"u.=.c.v.NXZ.^.t.R.F.qXqX4X+ f A 1XoXS Q ).; '.`.b {.L 6 5XJ.V...,.BXm.=.NXHXb.BXA.T.H G L.L.(.uXL.C.K.K.+.,.BXz.#.zXFXf.s.[ 3.] ",
"u.X.l.NXlX>.).BXQ.Y rXiXZ % l q 8X1X! R U.q b [.`.= x - D uXS.H *.DXmXk.k.t.~.^.K.uXU ; H 3XqX^ rX: D I.@...HXg.3.z.e.g.s.{ 2.] ",
"w.%.d.FXlXk.K.~.~.Y yXU a 2 S $ >XpXP R C.f < x = M &X XX 0XwXU V.W.Q././.^._.A.D.J.d / G.P ^ M H W W % +X+.p.v.nXnXkXd.d.%.s.] ",
"mXq.=.=.nXDXU.J.S.Y 6X; h 2 M : S <XOXR f #   O : V XX&X`.N 8X,X3XuXL.L.7X(.h c :XL = E eXP ; 5XZ % eXd L V.M.p.p.i.GXMXs.f.d.) ",
"v.w.-.O.Z.p.S.J.J.;X: f S p , a w I @X6 o g (.s v  X.XXX*Xx 5 K Y 0X9X9XP X v *X=Xb h E H.F ; 5X~ 1 eXW B ~ Q.t.9.9.6.6.-.8.5.) ",
"7 7 9 e j e k F.~ ^ A Z 5 % + s a h ; b OXD h H.d b .X XV x #X{.OX< M K v * }.V XX< f W g + ! H.W   ( W B L z 9 9 7 w 9 w 7 7 7 ",
"3.2.a.e.;.:.k.k.J.J.^ 6X;XqXd 3 d % o #XaX{.p E H.h c `.x 5 }.&X*X{.v @XV X `.V V c 3 S 3 E 2 p h   H.h B I t.e.e.l.0.0.e.3.e.t ",
"GXnXMXmXn.Q.l.6.K.J.J.5X5X6X+XX ; O a N pXaX|.h g C.+ V x N }.{.b }.&X.Xb b * c n V - % g W W p W E 4 $ L U ~.w.5.1.3.3.$.} | ) ",
"MXd.NXMXMXMXx.v.j.F.0X0X5X^ 8XY . ; q i M dXsXV 4 2 ; 3 x B V V B = V {.}. X: = B c X % E S S W R Q # 3 ,XH M.=.e.3.lXkX2.%.%.) ",
"MXlXcXmXmXBXCXE.E.Z.J.0X( 7XtXtX; 3 p i i Z pX2Xv h gXuXW : c n V > B B B }.b , X   2 1 % f E R g h ; ; :XG k.5.NXvXCXBXNX4.u.] ",
"mXGXNX5.5.1.v.Z.L.B.>.J.5XqX6X,X,X2 h 6 a q B 1Xx V.wXQ gXH.; 6 6 , x c c c x ; E E g N N 3 h h p a   P Y B.9.o.| ] =.%.c.8.7.' ",
"vXAXlX8.7.q.v.o.Z.J.N.E.J.rX6XK pX; % 3 5 3 s > > ,X>XZ D P.U.C.C.g g : ; p 2 k E D N @X*XP ; O % a Y ;XH ..x.e.] ] o.o.jX1.6.] ",
"MXAXlX=.=.=.0.-.-.V.K.N.>.J.fXyX9X3 p o 4 d s 1 > $X*X*XOXI F h g Q E p g g R s x #XsX1X{.5 5 6 + P ;XH G  .x.q.| ) X.} jX3.8.] ",
"z.zXz.d.o.o.-.-.o. .J.A.>.I.rXhXU a D 6 # 2 D 6 ; A oX*X2X2X#XI P R 1 h oXOXL , }.sXpXV : 6 6 ; Y :XU V... .5.o.8.] ] } d.o.7.' ",
"nXnXNXlX5.-.o.} :...V.V.V.I.qX7Xs a q q 8   p 4 4 h d A V @X1XsXpX}.: oX%X*X@X< n OXx 6 q p 2 ^ 6X~ G *. .| e.8.d.s.o.=.8.w.7.) ",
"0.o.s.%.| | | | | r  .W H.H.0XG.s d ; ; , :XP * 1 T a d Z Z K oX<X*Xb c V D g ; * d 4 1 O - U G.H G k ..j t %.[ } o.o.X.o.o.| r ",
"y y y y y ` t ` y 7 9 u T H.J.qXiXiX8X,XOXOX@X#XA a p g s h Z 5 5 A A O 3 p a 3 # a + , A +XU G k  . .] y 7 y ` _ ` ` ` ` _ ` 9 ",
"NXNXvXcXMXc.NXNXkX7 0.HXk.V.F.J.J.0XrXiX;X( eXqXyX:XF 2 g p h E E 5 d   @ q $ #   > L 7X).!.!.VXn.v.MXNX%.y FXnXx.u.nXNXMXMXx.] ",
"v.nXNXw.1.$.kXMXu.w e.vXt.n.n.A.V.H.0XqXrXqXrX0XG.9X9XL = # O % 2 4   ; O @ % # J.4XY S.Q.VXn.p.5.q.lXvXo.[ mXw.u.b.nXz.cXNX9.] ",
"u.6.MXx.0.a.kXv.7.w 0.p.MXMXnXmXM.~.K.H.J.0XqX7X5XG.;X^ 3 S 6 p % - Y yXZ 4 3 B.(.L.+.t.t.n.BXw.3.h.lXw.X.{ u.z.zXkXkXg.kXc.7.' ",
"x.=.z.FX1.a.g.w.7.w 0.bXa.=.c.e.m.v.A.A.E W W J.( ).J.d g g p @ M yX8X8XZ # H.^.R.t. .r.w.5.NXd.;.g.z.7.X.[ x.d.[ s.l.s.g.w.q.{ ",
"x.=.c.cXd.&.g.7.7.w 1.BX3.1.JXnXz.x.;.j.G Y.Z.l k _._.+ ; % 3 A ,X3XF.^ K.W.W.VXt.l.' e.7.q.vXNXq.s.z.7.X.{ MXd.$.AXJX3.zX8.3.[ ",
"x.o.c.NXd.f.zXnXw.9 3.JXa.1.2.z.g.c.X.e.9 r.k.:.M.T.D.D.C.B.W 9X^ W.~.T.Q.Q.M.mX=.e.) e.w.8.NXlXs.kXMXMXX.{ GXzX<.2.3.g.g.$.1.] ",
"u.3.d.SXzXf.lXAXz.9 0.bXg.d.zXzXs.kX1.l.e 0.t.0.n.BXk.!.ZX^.E.@.D.!.M.m.mXm.z.MX2.z.) q.q.4.d.AXf.g.kXAXX.{ bXjXf.h.zX2.jXs.s.] ",
"x.5.3.2.AXFXnXc.w.w e.p.u.u.nXAXNXg.f.z.9 1.p.0.0.y.HXmXn.n.n.+.:.n.p.b.x.GXNXg.d.nXr e.u.1.<.s.jXnXcXv.X.[ bXw.x.v.AXAXlXh.g.' ",
"MXw.X.X.w.b.b.l.l.9 3.BX6.9.6.w.7.8.l.0.9 &.mX;.X.o.w.b.b.u.m.O.#.BXw.9.9.w.w.-.q.e.e 3.v.-.o.o.6.l.y.c.=.{ MXw.6.9.w.w.8.e.y.) ",
"t t t ) t r e r r 7 r ) t ) ) t ) ) t t 7 y ) t ) ' t t t t ) e w ' ) ) ) t t ) r r 9 r r t t t t e e r w w t t t t t t t r e w "
};
