/* XPM */
static char *_072f642048f4e8ba4a66c6fcb7fb09bMYVRNlmVGkbLozP2[] = {
/* columns rows colors chars-per-pixel */
"64 64 255 2 ",
"   c #020302",
".  c #0C0D0B",
"X  c #090806",
"o  c #160C09",
"O  c #0D110C",
"+  c #13120D",
"@  c #1C110D",
"#  c #0B1212",
"$  c #141412",
"%  c #1C1412",
"&  c #1B1A15",
"*  c #1C1D1A",
"=  c #161B16",
"-  c #0E0F10",
";  c #240C0A",
":  c #370A07",
">  c #2B120E",
",  c #23110D",
"<  c #241C19",
"1  c #281815",
"2  c #381A15",
"3  c #39140E",
"4  c #1B211B",
"5  c #24241C",
"6  c #2B241D",
"7  c #29271C",
"8  c #33221C",
"9  c #39251D",
"0  c #151C2D",
"q  c #181B2A",
"w  c #171F31",
"e  c #0A1E20",
"r  c #1B2728",
"t  c #172233",
"y  c #192335",
"u  c #152A36",
"i  c #1B263A",
"p  c #162C3B",
"a  c #1C2B3D",
"s  c #1A2D32",
"d  c #1B313E",
"f  c #17323B",
"g  c #2C2B23",
"h  c #272825",
"j  c #332B23",
"k  c #3B2B22",
"l  c #362928",
"z  c #2A332A",
"x  c #33342A",
"c  c #3C342B",
"v  c #3C3B2C",
"b  c #373427",
"n  c #282A36",
"m  c #362C33",
"M  c #2A363B",
"N  c #3A3836",
"B  c #3A1F20",
"V  c #461B16",
"C  c #571A17",
"Z  c #460F0B",
"A  c #671B17",
"S  c #761D18",
"D  c #6B0C08",
"F  c #48231D",
"G  c #57251A",
"H  c #51321F",
"J  c #68241D",
"K  c #7A241C",
"L  c #73301E",
"P  c #472B26",
"I  c #572A26",
"U  c #45362A",
"Y  c #57342C",
"T  c #463936",
"R  c #563836",
"E  c #452D33",
"W  c #682722",
"Q  c #752A23",
"!  c #68362A",
"~  c #773427",
"^  c #683B37",
"/  c #723B36",
"(  c #3B4338",
")  c #3B402E",
"_  c #46422D",
"`  c #444334",
"'  c #484639",
"]  c #56483A",
"[  c #59543D",
"{  c #4F4934",
"}  c #66463B",
"|  c #78473B",
" . c #65553C",
".. c #67412D",
"X. c #1D2E43",
"o. c #162F40",
"O. c #163542",
"+. c #1C3244",
"@. c #1D344A",
"#. c #1C3C4C",
"$. c #193945",
"%. c #1E3C52",
"&. c #242D43",
"*. c #213345",
"=. c #22354B",
"-. c #233B4D",
";. c #293A49",
":. c #353945",
">. c #233C54",
",. c #253E59",
"<. c #283B55",
"1. c #3B2E45",
"2. c #453C43",
"3. c #533B42",
"4. c #1D4353",
"5. c #1E4B5C",
"6. c #1D4759",
"7. c #1B4653",
"8. c #2B434C",
"9. c #34434C",
"0. c #3A4549",
"q. c #244255",
"w. c #24435B",
"e. c #29445D",
"r. c #224A5D",
"t. c #294956",
"y. c #334B54",
"u. c #374857",
"i. c #27545B",
"p. c #3A5458",
"a. c #1E4E62",
"s. c #1E5465",
"d. c #1E5C6B",
"f. c #1C5868",
"g. c #1E5E71",
"h. c #2B4663",
"j. c #244C62",
"k. c #2C4A64",
"l. c #2D4D6A",
"z. c #274A64",
"x. c #344D67",
"c. c #225365",
"v. c #24556A",
"b. c #2B536C",
"n. c #235B6C",
"m. c #2A5968",
"M. c #375768",
"N. c #245E72",
"B. c #2B5C74",
"V. c #2E5A75",
"C. c #335A75",
"Z. c #1E6373",
"A. c #1D6C7B",
"S. c #1A6977",
"D. c #1D727D",
"F. c #14707D",
"G. c #1C626F",
"H. c #25616E",
"J. c #3B646C",
"K. c #246274",
"L. c #2B6274",
"P. c #246579",
"I. c #2B647B",
"U. c #236A7C",
"Y. c #2A6A7C",
"T. c #2A6977",
"R. c #386576",
"E. c #25727D",
"W. c #3A7279",
"Q. c #484748",
"!. c #564847",
"~. c #595547",
"^. c #464C56",
"/. c #475558",
"(. c #595958",
"). c #544D53",
"_. c #684945",
"`. c #774944",
"'. c #665649",
"]. c #76594B",
"[. c #685954",
"{. c #6F5753",
"}. c #77624C",
"|. c #696358",
" X c #776757",
".X c #726B54",
"XX c #475A64",
"oX c #495667",
"OX c #46686B",
"+X c #556666",
"@X c #466A77",
"#X c #577475",
"$X c #516E74",
"%X c #706F67",
"&X c #605F59",
"*X c #981E1B",
"=X c #891814",
"-X c #AE1110",
";X c #86241E",
":X c #96231D",
">X c #A9261D",
",X c #882722",
"<X c #992A23",
"1X c #883629",
"2X c #973628",
"3X c #8C3934",
"4X c #A72822",
"5X c #B32925",
"6X c #B4342A",
"7X c #AE382B",
"8X c #881E20",
"9X c #CC352C",
"0X c #E7382E",
"qX c #DF1613",
"wX c #87463D",
"eX c #B24539",
"rX c #D84838",
"tX c #CA4639",
"yX c #E84A3A",
"uX c #885749",
"iX c #8C554A",
"pX c #B25144",
"aX c #876757",
"sX c #89735D",
"dX c #926A55",
"fX c #B16A59",
"gX c #967463",
"hX c #A67A64",
"jX c #D3544A",
"kX c #E75444",
"lX c #D16853",
"zX c #E26A57",
"xX c #E07366",
"cX c #AA8A74",
"vX c #94866C",
"bX c #1D7482",
"nX c #1E7C8A",
"mX c #1B7884",
"MX c #1F6D80",
"NX c #256E81",
"BX c #2B6D82",
"VX c #316A82",
"CX c #237384",
"ZX c #2A7284",
"AX c #237B8B",
"SX c #287889",
"DX c #367987",
"FX c #287E90",
"GX c #447D85",
"HX c #1C8693",
"JX c #1E808E",
"KX c #238492",
"LX c #278695",
"PX c #2E8A96",
"IX c #299EA8",
/* pixels */
"u O.O.$.$.O.O.O.O.0 q f O.O.O.O.O.O.O.O.0 q f f f d a a d M M y w d @.*.+.$.$.$.+.$.t 0 O.O.O.$.$.O.O.$.u q p O.O.O.O.O.O.$.$.t ",
"AXAXAXBXI.I.U.K.K.y #.AXK.CXU.K.K.K.n.N.y 4.SXY.T.M.M.M.M./.(.M n OXXXXXOXp.p.p.p.p.i f.AXCXCXI.I.Y.P.L.q.u U.K.U.CXN.Z.Z.n.n.+.",
"KXS.U.CXNXZXN.6.j.y 5.N.@.w.5.bXa.%.@.=.t r.Y.i.m.J.J.M.0.N !.T N p.m M :.^.0.M :.:.n T.AXd.CXBXZXP.c.r.-.O.Y.%.#.4.S.S.4.@.@.X.",
"AXmXnXAXKXKXCXCXCXy 5.K.s.KXSXKXSXCXs.v.0 c.m.i.J.J.J.OX/.M z 8 T +XT XXM.J.J.J.p./.m L.CXnXAXKXKXAXNXAXq.a BX5.nXCXKXKXFXd.d.X.",
"CXnXNXK.n.Z.U.k.b.y w.w.j.s.v.n.U.P.r.b.0 t.OXp.p.Q.Q.Q.).& ].dX] _.^ Q.Q.Q.^./.Q.T h OXZXI.P.N.n.ZXb.l.-.O.v.%.s.r.v.d.U.w.b.+.",
"Y.HXHXw.h.w.U.h.h.y 4.j.@.a >.=.a.K.=.k.t 8.+X+X/.E _.} {.E h '.fXP 2 / Y R 3.)._.< c ^.J.DXR.u.u.K.V.k.=.+.v.%.X.@.,.%.S.>.k.X.",
"CXHXnXw.l.z.K.>.w.i 4.P.j.o.>.,.j.U.c.e.q /.N 5 T E k Y dX/ * ` ] hXgXI wXwX| ].uX2 aXY ^.#X/.^.^.R.z.q.=.O.K.g.@.@.z.w.A.d.w.X.",
"CXnXD.a.>.>.>.w.w.i 4.a.w.@.+.X.5.P.w.u.r Q.' U aXgXgX] 2 G $ * & 5 ' < 2 V F k ! 9 '.fXT |.'.l !.0.e.e.=.O.v.w.>.X.@.%.MX6.k.X.",
"U.bXZ.CXl.e.e.>.,.i 4.j.w.m.>.=.t.t.:.^.h ' {.E = ` ] 7 * j ] sXsXaXhXU   ] '.] g + '.xXP uXU ] E ).:.<.*.O.c.w.N.s.@.%.c.e.l.X.",
"AXP.HXU.j.>.,.>.w.i 6.P.k.J.p.0.Q.Q.Q.).9 ' aXY X O 5 {.cX].hXcX'..X X% k }.}. .T 5 ] ].8 U } iX9 !.:.8.=.O.P.c.N.N.h.z.h.l.k.a ",
"y w f i q w t t y 0 0 t t r m m E E E P G W I 2 + !.gXcX'. X~.z ' Q.h . U U aXhX}.` * g U   ].dXV ! k m n t t t 0 w w t t t w 0 ",
"f.d.c.f.d.n.d.d.f.0 u y.y.^.h 1 < 1 1 ] Q : R c b }. X~.N ( ( ( { v * 7 { v h { ].].}. X{ 7 sX} ; `._.).:.y s.n.v.n.n.d.d.v.n.a ",
"SXSXBXI.CXv.AXAXCXy i.J.^.).5 ].dXgX] h X g vX.X* ~.Q.e N { ..~ ! U & < j h x b ' [ [.aXgX!.4 ] aXx %X+X:.;.DXB.b.C.ZXZXBXSXb.+.",
"B.v.nXb.r.6.A.CXl.y i.u.Q.+X' [ ~.]  Xc U }.'.'.7 v ] } J 2XtXjXkXA   9 P T v X = z h N sXcXgXaXcX8 ~.{.E 9.OXk.ZXNXAXS.CXZXk.+.",
"B.,.U.CXs.d.mXB.l.y i.p./.Q.!.j { g * [..XaXaX[ 7 & 1X9XzXzX9XiX| 3 X k F 9 v ` ` : D : 7 .XcX.XsX'.. ].R 0.XXK.a.5.j.S.D.B.z.X.",
"B.w.P.CXZ.5.D.b.l.y i.M.u.E #X( c & X  XsXsX' { U @ 5XkXpXQ P g r r   % U 2 c _ [ C qX0XD > ~. X.XG : T ^ N OXn.#.KXPXs.D.j.Z.$.",
"B.,.U.NXCXs.D.V.b.y i.OXp.m &XQ.  & $ '.gX' P 7X2XO 2 I k z 4 . + . < o . 4 c c U  .=XqXqXqXA ( G qX-X1 ^ T #XH.4.U.P.K.E.q.s.@.",
"v.>.N.bXbXZ.nXKXY.w i.OXp.Q._.Y X ` 4 < { P 6XyX1X6 # r # . > 3 2 2 F V , o * c U _  .S =X-X: z 1 -XD 5 / T #XK.v.K.n.d.A.5.n.@.",
"b.6.P.CXJXS.CXNXB.y i.^.(.[.{.o ] ] U $ 2 eXyXK P z r ; 3 V > C K C 2 A V V o . k c U [  . .~.v ~.aX8 & | T XXB.BXU.nXA.bXd.K.@.",
"SXv.>.>.CXLXZXBXI.y i.XX!.].R c T v v k 1 S Q U x r # 3 ,XS > C 9X:X> A A C V o + x b v ' ' ` g c ~.7 < wXT #Xx.b.C.ZXBXv.Z.U.X.",
"v.q.=.=.>.w.w.w.r.0 8./.R } 6 ) 7 x { 7X~ # . h r # @ , J 9X5X: A A > > :X;X2 V > $ x 7 O g x 7 g b % 1 / m XXq.>.>.=.=.=.=.-.i ",
"t u u p p u u u u 0 q l Y 2 x v 9 V 2XrX! b < * . , A V > Q 6XJ   X >   V 6XC V J > + $ ' v x ~.( ~.U o Y l n p p u p u u u p 0 ",
"CXCXCXY.I.Y.U.K.I.X.:.&XaXU 7 N P Q rXwXk 2 P 4   C 8X>X,X@ > > P _.| | ^ 3 W V ,XC X ` sX} g  X] ~.R < `.:.E.P.U.ZXK.P.P.K.N.O.",
"KXZ.U.SXBXBXf.%.k.&./.!.F % z v U eXpXh 1 U j o 2 o C 4X8X, R / } aX! / / } P > Z V 1 ] hX} . uX} ~.R % `.9.L.>.>.w.U.s.@.@.&.X.",
"SXF.nXAXFXAXNXAXT.n /.|.Y . + g ! 0X`.1 k ( 4 > A *XC 2 o '.%XY ' %X2.(.(.|.%X'.Y V , } hX^   { 1 {.R h _.;.T.6.CXCXLXAXCXs.s.X.",
"SXnXU.U.P.CXBXb.M.m ).} P k J , H 2XF 2 8 c $ 3 K 5X2XX Y `.!.E Q./.9.p.u.^.^.(.uXwX1 '...I Y P j j l ] R 8.m.w.N.n.K.U.CXr.b.+.",
"BXLXKXw.k.j.Y.k.u.m ~.R % { F A > O & k T 4 ; C S <X7X% ].^ Q.m 0.y.&.;.;.9.^.(.!.`.8 ].8 |.}.wXk 4 T !.:.8.l.,.=.=.,.w.U.>.k.+.",
"ZXKXAXl.b.b.Y.w.p.m '.c v U 2 J tXQ   + z = > C ,X9X2X8 '.E :.n 9.J.t.;.;.8.u.OX).!.6 b ~.%X~.} _.~.Q.0.:.8.L.n.=.>.h.w.U.g.e.+.",
"CXKXAXw.>.>.w.w.u.m '.c U P z <XkX2Xv g   2 V % , ;XJ I ^ N M n 9.M.;.;.*.*.t.J.u.).j Q.+XOX/.m T 2.9.9.=.q.m.z.,.=.=.>.ZXj.k.X.",
"I.SXN.U.j.e.e.,.u.m '.k x h f iXrXJ  .g > C *X*X,XZ P / T N ;.a 9.M.=.8.*.&.<.t.;.^.N /././.p.p.:.9.8.;.*.q.b.e.v.w.=.q.v.,.l.X.",
"AXP.AXCXv.,.w.,.u.m {.U 7 M E fXjXG [ 5 2 S A 4XtX<XF } T :.;.a 8.J.t.i.M.e.t.9.y.p.M J.XXJ.W.p.;.;.;.>.*.-.Y.b.P.N.k.k.k.l.l.+.",
"X.y 4.+.i i i i n l R 9 b m F lXjXG [ 5 3 :XA *X5X7X2 Y c z s y y d u u a a a a a i i a a a ;.f f d f a a a *.X.a X.X.X.X.a i t ",
"4.6.4.6.6.5.q.r.t.h Y P b k s eX9XG [ 5 2 :X5X*X9XS j _.' ( 9.t t 8.y.y.y.y.y.y.y.y.t d y.y.y.y.i.t.t.i.+.y q.q.t.q.q.q.6.6.5.u ",
"LXLXBXBXCXB.LXFXGXl '.c b P 2 4X5XH  .5 V 4X=X> F o U `.+XOXW.+.;.GXJ.M.XX@XW.DXDXJ.*.M.@XW.R.W.M.W.PXPXq.#.PXVXC.C.ZXY.ZXZXI.=.",
"V.K.AXl.r.5.bXSXM.l [.j x U P 2XL + g + @ 2 > , A rXG Y ^.J.y.&.;.M.j.K.N.T.i.J.W.u.:.M.p.J.I.e.q.v.SXI.=.4.I.b.BXY.CXU.CXP.x.*.",
"V.e.ZXBXc.G.bXB.x.m '.} j l 8 % + # h ' . % 2 J >X0XQ } (./.u.&.8.M.L.s.5.k.J.OXM.^.m XX).^.@XM.M.W.R.M.<.4.C.P.K.v.n.mXA.B.k.X.",
"B.e.P.AXd.s.D.b.x.n ~.uX|   # Q Q N g { &X2 8XJ A 6X4XY [.).u.&.9.J.m.*.m.k.p.@X^.(.z N !.!.#X+XT 0.+XoX;.4.R.K.#.AXSXK.S.b.n.O.",
"B.e.P.U.AXv.A.l.x.n ~.aX^ + z I tX~ v [ %X, *XS C ,XQ 2 [.(.u.:.0.J.L.*.H.L.u.$X!._.U uX8 _. X Xk U T [.:.#.DXU.4.AXFXK.A.r.f.+.",
"b.-.P.KXD.S.nXAXB.l '.gXl & z h pXeX_ { |.4 A >XK > 3 : N %X/.1.0.OXJ.;.9.0./.|.`.aX8 iX| k aX} j ].U (.2.q.LXS.s.H.n.U.A.5.d.@.",
"b.6.U.AXmXZ.KXAXm.l {.U h 7 c & wXrXY _ ~.h : C ; V 9X<X. |.|.E Q.XXXX/./.(.'.Q.R _.5  .fX1 < R   '.] # R t.C.P.U.CXmXS.D.f.G.+.",
"ZXv.w.w.CXLXZXP.C.m !.* x 4 F < T eX1X{ x $ X + 2 K 2X6XA F ]./ !.|.!.'.{.%Xh C 3XW @ [ lX/   dXk v uX6 E y.Y.b.C.V.LXCXZ.S.S.a ",
"P.b.,.,.k.b.V.V.m.m < x T 7 2 h s 1X7X7 . T %X7 C 5X4X,X9X3 j P E [.`.`.U X Z rX0XC x { iXG 6 uX^ r dXR l 9.T.b.k.k.h.k.e.z.j.a ",
"q 0 w t 0 0 0 q q l 1 , 6 $ % l n b 1 A 1XU N ~.2 A 5X>XS C 6X;X,X> 1 V 3 ; :XQ <X; x ] | < { }.] = `.Y 2 m w w t w t t t 0 w 0 ",
"d.d.d.v.n.n.v.n.N.n T '.} ].5 9 l # + eXyXL g ` ~.k C 8X2 2 :X9X9XS Z 7XS o 8XQ S V j c b ' & x x + }.l 2 E n.d.v.H.c.c.v.d.v.a ",
"LXU.CXZXVXBXK.w.l.&.y./.R } P o 1 - h G lXkX~ z ` ] @ K V F <X;XA 4X9X4XA C @ G J W > = b ] ] g ] T 5 & Y :.Y.a.j.s.f.f.6.%.>.X.",
"SXS.nXCXSXCXP.P.K.i m.XX2.!.].U   < r r F zXkXL 5 5 & < 3 J K K W 2 ;XK :X4X3 2 J C o & { U T ] v ' O j `.:.Y.%.v.f.AXCXN.j.6.a ",
"SXnXU.ZXSXSXBXI.K.i m.x.y.+X X X% 8 h r r R zX0XZ v vX Xv 2 C ;XJ 2 W J J <XJ 3 o X 5 = = x ` _ v v & < _.:.L.a.CXBXDXSXSXd.N.+.",
"BXKXAXr.z.s.U.h.k.i c.,.;.:.T _.^ 5 b 8 h s ~ 7X3 [.sX~.vX~., 1 1 2 V C C C V , v ` ` I F * b b 7 7 . Y R 9.k.=.@.@.w.6.NXw.k.X.",
"BXLXnXh.l.c.U.e.k.i r.N.e.&.T ^ wX% & j 9 < j 2 9 pX .8 T .X~.~.(.v c 1 % 5 & ' ' j G eX6XY & $ * r Y } N 8.L.v.+.@.,.>.NXa.k.+.",
"CXHXnXq.,.w.j.,.e.i r.P.e.:.N R ^ 7 7 - 6 9 j = 2 6X9X9X2X! P v v [ ` h v b _ j V 6XjXjXK 2 9 k @ Y `.T :.;.K.v.=.@.>.%.NXs.w.+.",
"P.nXK.S.,.,.,.w.w.i r.j.w.u.N R < x U 6 $ 7 U 7 1 Y 1XtXyX0XeX~ Y _ 4 x 1X3XW 3 4XzXjXA 2 k 8 % Y / T Q.:.-.z.>.j.#.@.%.P.>.k.X.",
"CXCXnXnXj.w.w.>.,.y r.n.k.m.^.N g h q h * X 7 5 5 c l P K 7XkXxXjXK 1 1XqXtX2X: S 3XV 8 h x 5 ] _.!.0.u.=.-.N.z.A.g.,.w.z.l.l.X.",
"j.>.Z.6.@.@.=.=.=.t @.w.,.q.u.N 1 , % % , ..F o 5 v 5 j P P J 1XeX9XC A K U v 1 o 6 7 4 . , R !.T N :.;.*.a w.>.%.>.>.>.>.>.=.y ",
"y p p p p O.p O.p 0 w +.@.@.;.1.T E R R I W ! Q 9 h g c 7 k k 8 8 P F @ 6 h g 8 & r . > P P E m :.*.=.@.p 0 p o.p f p p p p O.0 ",
"AXAXI.NXAXP.AXCXCX0 c.LXVXR.R.W.@X@X$X$Xm ^.#X%X].R l 7 b 7 x ' T j k X # r $ + . k F ].%X@XM.DXL.ZXCXAX6.O.AXCXI.I.ZXCXCXCXY.@.",
"I.NXAXb.v.4.A.CXB.t H.BXC.VXVXY.I.DXVXM.n M.$XXX(.iXwXG $ + + $ 5 7 . 5 # # 5 + ] uX^ XXoXDXI.b.5.d.nXY.>.#.ZXl.B.B.CXP.U.CXh.+.",
"B.h.AXI.r.d.mXI.k.y v.C.CXZXBXFXSXFXC.M.X.M.@Xx.#X).} } 5 c 6 h $ @ R dX8 h 6 ~.[._.T J.x.L.SXl.f.S.AXb.=.#.V.N.mXA.CXD.mXP.l.O.",
"I.w.P.AX5.f.D.b.z.t c.VXK.j.SXBXZXBXC.B.X.m.R.x.R.$X'.l c x g $ j uX XI ' z T %X^.^.:.L.b.b.SXS.r.D.P.l.=.#.VXU.#.Z.n.Z.D.b.v.+.",
"I.w.P.NXMXa.D.l.l.t c.FXK.K.IXSXZXDXb.K.X.n.C.k.C.C.+X$ h * * 1 ] %X+X^.$XOX/.@XM.R.=.L.l.b.BXCXv.S.Y.x.=.#.SXU.#.LXIXd.D.w.f.@.",
"I.,.P.AXbXS.D.CXb.w n.IXK.K.T.BXSXZXr.c.a 5.j.w.N.n.y.u.0.0.).3.2.#X$XoXu.x.@XW.h.B.=.N.l.z.SXnXZ.mXZXNX=.$.LXmX5.G.H.E.D.%.s.+.",
"B.f.S.HXmXZ.mXHXI.0 v.BXE.ZXSXCXP.U.5.5.a 5.r.6.5.c.k.M.@X@X$X1.u.$XR.C.R.R.B.FXd.I.*.n.v.g.MXHXS.D.A.HX-.#.Y.A.A.bXmXd.bXd.Z.+.",
"I.j.f.d.HXAXCXP.b.t n.C.B.I.P.Z.d.s.5.6.i 6.r.4.4.4.c.a.c.l.M.:.y.J.M.C.R.E.Y.P.A.ZXa N.b.s.c.K.A.CXU.L.=.#.Y.b.I.I.HXHXbXS.S.X.",
"CXb.>.>.z.I.L.K.K.w n.ZXb.w.@.>.%.#.4.#.i 4.5.#.@.#.4.w.w.q.r.*.-.m.k.k.k.k.k.e.v.B.i n.Y.e.>.<.z.L.N.I.-.$.CXb.h.k.b.b.e.v.v.a ",
"a a X.X.a i y i a 0 y X.X.+.a i a a i i y a a a X.+.X.X.X.X.+.X.X.X.+.=.=.+.*.*.a a y p a a a a a i i i t 0 a a a a i i a y y w "
};
