/* XPM */
static char *_db34c1114ef41e5f4309c80c1c35903f09lL1DBx3KzDg5g[] = {
/* columns rows colors chars-per-pixel */
"64 64 252 2 ",
"   c #030403",
".  c #0D0C0A",
"X  c #070706",
"o  c #130E0C",
"O  c #190B0A",
"+  c #0E110D",
"@  c #17120F",
"#  c #151513",
"$  c #1C1412",
"%  c #1B1B17",
"&  c #0D1616",
"*  c #290D0B",
"=  c #27120E",
"-  c #241413",
";  c #2B1514",
":  c #231D1A",
">  c #291A18",
",  c #341D1B",
"<  c #3C1D1A",
"1  c #361715",
"2  c #300E0E",
"3  c #1C201A",
"4  c #24241D",
"5  c #2B241E",
"6  c #21281F",
"7  c #3C211E",
"8  c #34231E",
"9  c #141C2D",
"0  c #171B25",
"q  c #161E31",
"w  c #191F33",
"e  c #2D1D25",
"r  c #1B2727",
"t  c #162233",
"y  c #192235",
"u  c #19263A",
"i  c #162B3C",
"p  c #1B2A3D",
"a  c #172B34",
"s  c #143039",
"d  c #2B2522",
"f  c #2C2A23",
"g  c #272A28",
"h  c #332B25",
"j  c #3A2C25",
"k  c #342D2A",
"l  c #382725",
"z  c #2D322C",
"x  c #34332B",
"c  c #3C342C",
"v  c #3B3A2E",
"b  c #36362A",
"n  c #262A3A",
"m  c #362A38",
"M  c #2B3536",
"N  c #3D3C31",
"B  c #363838",
"V  c #441D1B",
"C  c #4A1C1A",
"Z  c #551D1A",
"A  c #4C0E0A",
"S  c #6F110F",
"D  c #46231E",
"F  c #55221E",
"G  c #69221E",
"H  c #472B27",
"J  c #582724",
"K  c #43332D",
"L  c #47362C",
"P  c #57342C",
"I  c #433D32",
"U  c #4A3733",
"Y  c #563636",
"T  c #4C2D36",
"R  c #672825",
"E  c #792A27",
"W  c #6B362A",
"Q  c #6A3835",
"!  c #763631",
"~  c #3C4238",
"^  c #444336",
"/  c #4C4B3C",
"(  c #49453A",
")  c #55483B",
"_  c #57523D",
"`  c #68453D",
"'  c #1C2D43",
"]  c #192F45",
"[  c #163543",
"{  c #1B3246",
"}  c #1D334B",
"|  c #163B4B",
" . c #1A3B4C",
".. c #173846",
"X. c #1C3C52",
"o. c #1D3B53",
"O. c #222C43",
"+. c #22334B",
"@. c #263749",
"#. c #373647",
"$. c #233B55",
"%. c #243E5A",
"&. c #273A55",
"*. c #36384D",
"=. c #493944",
"-. c #573B44",
";. c #4B3E51",
":. c #6C3E43",
">. c #1A404E",
",. c #164553",
"<. c #1A4353",
"1. c #1D455A",
"2. c #1B4B5C",
"3. c #184958",
"4. c #1E525E",
"5. c #36454A",
"6. c #24425C",
"7. c #2A425C",
"8. c #264658",
"9. c #3A4659",
"0. c #2A4F57",
"q. c #1E4D62",
"w. c #1F4F68",
"e. c #1C5464",
"r. c #1D5B6C",
"t. c #1C5769",
"y. c #1C5D71",
"u. c #254561",
"i. c #2B4663",
"p. c #244B63",
"a. c #2B4A64",
"s. c #2C4D6B",
"d. c #244F69",
"f. c #354B65",
"g. c #24546B",
"h. c #2B526D",
"j. c #215A6C",
"k. c #255666",
"l. c #37556A",
"z. c #235C72",
"x. c #2B5B74",
"c. c #2C5975",
"v. c #3C5D73",
"b. c #345974",
"n. c #2F4E70",
"m. c #1C6373",
"M. c #1C6C7B",
"N. c #1B6877",
"B. c #19727E",
"V. c #16606E",
"C. c #226374",
"Z. c #23657A",
"A. c #2B637C",
"S. c #236B7D",
"D. c #2C6B7E",
"F. c #296476",
"G. c #35667A",
"H. c #276874",
"J. c #484745",
"K. c #564A48",
"L. c #5A5547",
"P. c #484757",
"I. c #574955",
"U. c #455457",
"Y. c #595656",
"T. c #664747",
"R. c #665849",
"E. c #74554A",
"W. c #684C56",
"Q. c #675856",
"!. c #765956",
"~. c #794A47",
"^. c #6B6556",
"/. c #796655",
"(. c #786C56",
"). c #465569",
"_. c #595667",
"`. c #475D74",
"'. c #535269",
"]. c #6A5967",
"[. c #58666B",
"{. c #486776",
"}. c #556774",
"|. c #506F77",
" X c #766766",
".X c #686975",
"XX c #71706F",
"oX c #8D0909",
"OX c #882C28",
"+X c #952C29",
"@X c #88332D",
"#X c #96332C",
"$X c #9A3831",
"%X c #8E3932",
"&X c #A5342E",
"*X c #A53A33",
"=X c #B63832",
"-X c #AA2E2C",
";X c #B91412",
":X c #C83932",
">X c #F02724",
",X c #B2453B",
"<X c #C8423A",
"1X c #DE443A",
"2X c #835859",
"3X c #8D534A",
"4X c #AE4E43",
"5X c #876758",
"6X c #8E705B",
"7X c #8E5E62",
"8X c #887569",
"9X c #967967",
"0X c #8A6C6D",
"qX c #A77867",
"wX c #AC6757",
"eX c #D24F43",
"rX c #CD6856",
"tX c #8E826E",
"yX c #AC8875",
"uX c #C7816E",
"iX c #1C7383",
"pX c #1D7B8A",
"aX c #1A7785",
"sX c #1D7587",
"dX c #256D82",
"fX c #2B6C83",
"gX c #2D6680",
"hX c #346C82",
"jX c #237285",
"kX c #2A7285",
"lX c #257489",
"zX c #237B8C",
"xX c #2C7C8D",
"cX c #297589",
"vX c #367889",
"bX c #257E91",
"nX c #357E92",
"mX c #477886",
"MX c #4B7587",
"NX c #667B84",
"BX c #737D83",
"VX c #817A81",
"CX c #1B818E",
"ZX c #1C8393",
"AX c #1C8A98",
"SX c #238393",
"DX c #268797",
"FX c #308593",
"GX c #219BA6",
"HX c #4B8894",
"JX c #6C8C91",
"KX c #5695A0",
/* pixels */
"| ,.,.,.,.,.<.,.,.t 9 ,.,.,.,.,.,.,.,.,.t 9 >.,.,.,.,.,.<.<.3.i 0 | 3.3.3.,.,.,.,.3.t t ,.,.,.,.,.,.<.3.[ 0 ..,.,.3.,.,.,.,.3.u ",
"ZXpXpXdXA.A.S.j.g.p <.zXy.jXS.C.C.j.g.g.y 2.SXjXzXD.A.A.Z.z.G.&.[ xXdXjXjXz.Z.z.j.g.p r.SXjXzXA.A.A.C.g.6.i jXN.Z.dXy.m.y.t.d.{ ",
"SXN.iXzXjXlXC.2.d.p 2.z.{ 1.e.aXr.X.{ +.t t.zXj.jXkXkXcXA.h.l.*.7.vX7.a.h.jXM.1.o.$.p H.zXy.sXjXlXjXt.g.$.[ dXX.1.2.iXiX3.X.} ' ",
"zXaXpXzXSXSXlXjXjXu 2.Z.t.ZXzXSXzXpXr.y.9 e.cXB.zXxXxXxXnX0.g l #.MX).nXnXFXFXxXA.v.#.G.FXpXzXSXSXzXdXzX6.i dXq.ZXbXSXZXZXm.m.{ ",
"lXpXjXr.d.r.S.i.s.u 1.6.1.1.2.p.m.Z.6.h.q 4.nXxXvXv.`.v.MXn ) 9XT.=._._.).).{.{.).P.% `.HXvXfXx.h.S.h.a.$.[ h.} 1.o.e.t.dX6.d.{ ",
"fXZXAXu.i.6.S.i.i.u <.j.X.u $.$.2.C.$.s.t 4.hXvXF.#.I.]..XW.d I 5X` H :.W.W._.}.].B K J.|.KXG.).f.A.c.i.$.[ z.1.] { %.o.M.$.i.{ ",
"lXZXCX6.i.u.z.%.6.u X.S.g.' $.%.2.S.t.i.y l.9.@ U Y Y T 0X7Xe z I 5XqXL ~.3X2X X7XT R.3X5.JX}.'.'.b.h.7.@.] Z.C.} { 6.1.M.y.6.{ ",
"jXpXM.r.$.$.$.6.6.u  .q.6.$.{ ' 2.Z.7.f.y l.{.B R.5XqXE.> J - 4 d d v f O < 7 j H H I uX` ]. Xc P.P.9.7.+.i t.6.%.{ {  .M.%.a.{ ",
"jXiXdXpXj.6.6.$.%.u <.g.p.Z.p.&.a.s.f.).n U..X_.% v ^ 4 h K ) yX9X9XyX!.  K.^.R.^ . L.yXQ 5X) T.m '.9.7.+.[ j.u.Z.r.$.6.d.a.s.{ ",
"jXj.pXN.1.$.$.$.$.u  .z.6.z.h.f.f.P.P.P.m I. X2Xo . 4 Q.yX6X9XyX^.^.^.: 8 /.5X/.R.k I R.j > ( qXl I.9.&.+.p j.p.g.g.u.u.u.i.6.' ",
"9 9 a t 9 t q t q 9 9 9 t y n m m T T Y J Q R < o ) 5XyXQ. XQ.M J.L.x . U ( E.wX9XR.h 5 ( . ) qX, Y m n y 9 0 9 9 9 9 9 t 9 t 9 ",
"N.C.z.C.M.C.M.N.M.t ..S.F.{.5.: l l 5 U ! 1 L R.f R.(.K.J.~ ~ ( J.( f % ( ^ h I R./.6X6XE.5 R.R.O I..X|.7.t N.Z.C.C.C.M.M.Z.Z.{ ",
"lXlXlXc.Z.u.lXzXdXu t.xXv..Xm ) qXqX5Xh   d (.tXx ^ Q.r B ( ^ K c k % $ c z b f I K.R./.9X5X4 c qXk }.NX9.@.xXz.s.h.dXdXdXzXn.} ",
"x.d.CXx.6.2.B.zXs.u e.v.v.|.Y.I L.( R.K.I ^.(.(.N f / ( M c J R E D X 8 J I ( % + 5 : 6 L.yXyX6XyXT.M .X;.@.G.h.jXiXjXN.pXjXs.{ ",
"A.7.Z.zXt.r.aXx.s.u e.G.G.K.^.f ) v # ( 8X^.8XR.N + L D R E J P L 4   h H V I ( L.A S S 2 / 9X(.(.(.  K.W.@.F.dX1.e.d.N.B.x.a.} ",
"A.6.Z.lXM.q.B.h.s.u 4.G.l.=.JXY.f z   / tX9X/ ~ I # V @XW K x g r r & X h l K ^ _ P oX>X:XA I ^.^.W S l T.*.G.C. .ZXGXr.B.p.V.X.",
"A.%.S.lXsXj.iXA.h.u e.FXl.J. X!.  . 4 v 9XL.b V H % o K g r r # @ o , - X # z N L _ W ;X>X>XS b h ;X>X2 -.#.FXB.<.r.C.H.B.6.e. .",
"z.$.z.pXaXy.CXAXdXy 4.vX`.Y.!.~.. I v # K v H E J c % r & o - C C V F J 1 - # z N L _ W S oXA z x oXS @ :.#.hXiXr.C.r.r.N.t.y. .",
"z.1.C.dXZXiXjXS.x.u 4.).[. X8X5 I R.^ 4 @ P E H K x r ; V J < V +XE < R R J ; X 4 K L ) _ L.R.^ J.5X( X :.#.l.c.jXdXZXsXiXN.N.} ",
"SXz.%.$.Z.SXcXdXfXu k.|.Y.2XT.I ( N b N d ; H K x g & = E #XZ ; =X=XV Z +XJ F ; @ h K v I ( ( h f I v . :.#.vXc.n.l.fXA.p.m.S.{ ",
"1.} ' ' O.+.+.+.@.t @.9.=.T.H ~ b h J.^ I d + % g & - > V =X:XG 1 F 1 $ R &XJ < C $ f 5 @ 6 c 5 4 b f X Y m 7.+.O.O.O.O.' p ' y ",
"i [ [ [ [ s s [ [ 9 w B -.P 5 ^ j < K I I I l f . = R E < F $XE o   , . o #XE D R C o # ^ / 8 L.) ^ _ X T m n [ [ [ s [ [ [ ..9 ",
"CXzXzXfXA.D.S.j.A.p 5.[.!.` 4 N K L c B M 7 H z . V OX-X:X1 - 1 Q !.3X~.E.7 Z V R R O x /.3X1 3X3XU *Xo T.#.vXZ.S.jXz.C.F.z.g.{ ",
"SXm.M.lXfXkXr.1.a.p 9.Y.Q > r N I I 5.B 8 K N # < , , @X+X, Y :.T.XXT.W.!. XT.> $ 1 2 v 3XeX  %X4XU =XO -.*.A.X.o.1.M.y.o.} +.' ",
"zXaXpXzXbXzXdXzXkXn 9.Q.E.: O 5 v I 5.k 7 ^ z ; R -XE < * ( XX-.J.|.).mX|.NXXXXXE.H O K wX,X  F > P &X% K.#.D.q.pXzXDXSXzXr.r.{ ",
"lXpXdXN.z.M.dXa.l.n U.W.Y h W C % M j l l c r 1 R $X,X; U 2XY.=.5.v.f.l.l.`.{..X!.7Xl Y @XH E.P U A J I.;.@.s.$.g.p.j.m.jX6.h.{ ",
"fXAXAX6.i.u.S.a.f.n U.W., N L R C $ # 5 ( z @ F E $XeX1 Q.Q.U.#.8.F.6.$.&.9.f.{.I. Xd W J [.8X7X-.% I._.*.+.h.<.' { $.o.M.%.a.{ ",
"lXAXpXu.s.p.Z.6.i.n Y.K.f ( l H *X*X# . f r - < E =X,Xl Q.I.9.O. .fXF.$.$.i.a.hX{.].d > |.JX}._._.{.).9.&.{ Z.m.{ } %.o.iXm.u.{ ",
"lXZXiX2.$.$.6.7.7.O.Y.K.h U z B E $X( /   ; R < > J OXY W.P.9.O. .j.6.%.} +.1.kXf.'.m l.HXHX{.9.9.9.7.i.+.{ j.6.%.} } X.sXu.p.' ",
"dXiXC.iXd.7.7.&.7.m R.Y 4 B @.5.R P R.^ $ J OX-X*XE , !.I.9.7.' | j.6.z.2.} 6.g.i.l.#.G.hXvXhXkXi.i.7.6.{ { g.u.z.q.} 6.t.u.s.' ",
"zXz.CXiXd.$.%.&.7.#.Q.T.4 B @.W +XD _ N - E E +XeX,XV T.P.*.7.' { kXg.C.z.a.a.a.s.a.u S.hXD.zXz.$.$.$.%.' s Z.d.z.z.i.i.u.d.a.{ ",
"y 9 s u w y y u n m Y J 5 L n P +XD R.N - E +X+X=X<XC Y T n u t q y y w y y y y y y 9 i <.X.>.| | ......| | ..[ [ ..| | { u t 9 ",
"t.j.k.t.r.j.j.j.j.m Y ` d K a K E D _ N - OX:X+X$XOX> !.Y.9.k.p q t.k.k.k.t.j.k.k.j.t ..S.C.C.C.C.C.j.H.,.i m.m.C.C.C.m.,.| j.i ",
"FXSXdXgXM.g.FXSXvX#.Q.R.4 L 8 J OXH R.N ; +X+X7 8 V > 3X[.mXvX+.| DXfXb.b.kXdXlXbXb.' C.xXxXA.cXg.fXSXSX8.{ DXA.c.c.S.S.t.e.c.} ",
"x.g.CXs.u.t.iXzXl.#.Q.` % I H K H $ : % X 1 > , F eX$XP ^.mXv.+.>.gXh.cXkXzXM.zXlXl.O.G.b.kXxXs.q.y.SXG.$. .A.h.lXdXjXN.M.3.d.{ ",
"x.%.S.lXr.N.iXx.l.#.R.5XU h 8 % @ # f J.d $ 7 R #X<X*X) 8X}.).+.>.hXS.j.j.g.zXjXx.l.#.0.`.v.nXD.x.FXvXv.&. .G.S.q.e.k.iXN.3.a.{ ",
"A.6.Z.bXZ.t.B.l.l.#.R.5X3X* X U Q J.z I  Xc E E J OX<XJ !.].).@. .hXZ.X.SXDXF.kXv.{.m ; P.}.mXmX`.5.{.}.*.>.hXC.| SXDXm.m.X.y.| ",
"x.%.S.dXzXj.B.b.v.#.R.8X~.O M n g a B / tXb S +XJ E E 2 (  X'.#. .FXS.p.lXxXD.vX).}.k *XZ 5.NXJXU.G Y _.P.@.FXM.<.S.lXM.m.| e. .",
"z.$.C.SXiXm.CXDXG.#.R.9XL.# B 9 ~ v ( / ^.~ 1 -XOX< C Z 5 XX[.#.8.FXjXD.D.G.mXHX.XVXk P eX, XXI.B P #X5.I.*.nXiXr.N.m.M.y.| m. .",
"c.q.M.zXpXN.zXlXv.#.!.P 4 4 I : ~ I ^ / L.^ $ D > > ,X<X* I 0XY 5.{.MXmXmXHXNXU.J.K.: v rX#X  OX* K :XO l P.v.A.jXjXCXM.iXt.N.} ",
"zXj.$.o.dXFXkXS.G.#.T.5 b f , l p @.z / N # # @ 7 ! *X,X&XV T.Q T.BX.X]..XBX#.A =X#X2 v wXeX  =X$X8 eX+X> P.vXb.n.b.bXjXC.N.S.{ ",
"z.u.&.$.%.a.a.s.f.=.> 4 I b - j [ g x x # b  XK., &X=X@X<XG < 1 H Y.!.2X-.. 2 =X1XE f ( 3XR 7 3X4X7 7X=X1 =.l.i.7.7.%.%.&.&.6.p ",
"0 9 9 t t 9 q y y m l , l : o l n z 3 ; J Y z L.) < #X&XOXH $X&X&XZ @ D G 2 OX@X@XC 6 / E.8 I R.3X> ` =X; T e y t t t t t t t 9 ",
"M.M.S.C.F.F.C.C.A.n P..XQ.5XL - c 0 # J E R U ~ L.( 7 E J l @X:X<X#XG &X@X$ G OXE R , x h L.h 3 b # ) ! - T G.C.C.S.j.j.j.j.z.{ ",
"DXdXjXlXfXfXr.6.s.O.9.[.I.E.3X> @ # g f P W J I z L.: F J H #X#XW OX=X=XE E > 7 E E V @ ~ _ R.I ) R.4 # T =.G.p.8.<.r.r.X. .{ ] ",
"zXB.pXlXzXzXfXzXS.u f.G.U.[. X!.  - n s r U R J h 4 d k 1 J ! ! @Xl R OX@X&XR : J F ; . v ( I ) ( ) 5 o T.#.G.6.Z.C.zXbXZ.q.q.] ",
"lXpXS.jXkXcXkXx.x.p a.s.l.{..X8Xk : x g s a L J ; d tXtX^.c V R E D R E R #XOXC o . 4 f % 4 ( ( I K f . -.*.h.p.dXZ.fXkXxXr.z.{ ",
"dXAXZX6.u.q.S.i.a.u 7.7.&.*.P.W.2Xh f j d a z U - N tXR.8X8Xk h k 7 < J J C V ; ^ / N c h 4 f c f h . Y ;.@.s.} ' { o.X.dXu.i.{ ",
"jXAXpXu.n.g.S.%.i.u 8.S.p.@.P.I.2Xl # d j l f f $ U / g g L.^.Q.Y.J.^ h $ x f v / j H D G L f @ : % T W.*.O.x.m.{ } %.o.dXt.u.{ ",
"lXZXpX1.$.o.6.6.6.t 8.z.a.@.9.I.T.f j % % c j f $ L d d d f x x v ^ / 4 ~ ~ ~ v 8 J R OXR 7 l K > T W.P.*.{ z.d.$.] } o.dXw.u.{ ",
"Z.iXC.iX6.6.%.%.%.t 8.6.7.s.*.I.m f L c % # b c $ H L K H H H H b b f 4 ` R H : , G OXJ 5 j j - T W.P.9.@.{ p.$.d.o.{ o.y.%.s.{ ",
"zXdXSXpXd.%.%.$.%.t 8.z.p.S.f.P.4 f 0 0 0 # 5 6 % I h j L L L R R l : ; G G J :   J D j g g 5 =.W.P.9.7.+.{ Z.p.N.N.u.u.p.h.s.{ ",
"X.' 2. .' ' ' ' ' q '  .{ +.@.#.$ - - - ; ` W 2 $ ~ z h H K H l H J 7 = J c >.l X f f 4 o - T I.#.#.+.+.p t  .' ' { +.+.+.+.' t ",
"..| ..| | | | | | 9 t  . . .>.$.5.9.P.I.Y Q ~.3XQ 5 4 N k x K j h l H - : z g h : % @ , U T.P.5.8.8. .X.i 9 [ | | | | | | | >.t ",
"SXSXfXdXpXA.bXzXzXq r.DXD.G.G.xXD.xXhX{.m U.JXXX0X!.) 4 b 4 f ^ ^ c j $ X a r o X e P  XJXMX{.nXA.kXbXSXp.[ SXjXx.c.dXlXlXzXA. .",
"A.Z.ZXh.d.3.M.zXh.t j.A.h.S.fXjXZ.SXA.f.n l.{.|.|. X2X2X: # $ # # 4 o x d . 4 % J.].-.[.`.xXcXn.2.t.pXA.$. .fXd.A.dXzXN.M.iXi.{ ",
"x.i.jXdXe.V.aXA.a.t j.c.iXN.C.dXaXpXc.a.t k.v.l.mX{._..Xd v h k 0 - Y.9XW.$ 5 U..X'.#.G.l.x.zXz.r.B.zXh.$. .A.Z.M.N.N.B.aXA.a.{ ",
"A.6.S.SXe.r.iXh.d.t k.fXr.1.CXZ.M.Z.a.z.q j.b.i.vXvX`.M b b d % f XXBX_.|.5.U.MX).G.O.z.h.p.zXM.p.B.Z.s.$. .gXM. .M.S.m.B.h.j.} ",
"A.6.S.dXiXe.iXh.s.t g.bXr.e.GXS.N.Z.6.C.q j.x.u.hXG.MXg $ : % e K.JXmXl.HXKXMXkXs.z.[ j.s.g.fXsXj.N.S.s.$...xXM.<.pXDXr.iX6.e. .",
"A.6.Z.bXiXM.aXzXx.w j.GXm.r.r.N.M.S.o.z.9 j.x.6.kXzXD.G.v.`.}.I.9.HXxXG.D.F.cXzX1.j.' j.c.u.zXZXN.aXiXzX$...DXpXe.m.m.M.M.1.r.} ",
"x.t.M.ZXZXN.pXCXA.w j.A.iXN.pXaXN.iXe.C.9 j.c.y.S.zXjXD.vXmXmX*.8.hXdXjXjXpXiXpXr.C.i j.g.m.iXAXB.iXiXZX$.| A.Z.iXaXCXN.iXN.m. .",
"fXg.q.q.ZXSXjXS.z.t j.A.c.c.dXAXzXN.M.F.9 j.A.d.q.g.SXzXkXD.G.+.8.vXh.x.x.DXzXN.M.jXu C.A.6.1.t.dXzXdXZ.$. .cXh.c.x.AXAXiXB.iX{ ",
"S.g.&.$.7.h.g.j.z.q t.S.a.i.i.a.a.6.g.6.9 e.S.u.&.&.p.g.g.g.F.' | kXh.i.i.i.a.7.p.p.y e.C.7.$.$.i.g.g.C.X.[ jXg.i.a.a.a.7.p.d.' ",
"t y u u y w w y t 9 q y y t t y y u y t 9 t y u u u y y y y y 9 9 t y u y t t y q q 9 9 y t y y y 9 q q 9 9 q t t t t t t t q 9 "
};
