/* XPM */
static char *_0cefcba97c44c54c64712599dd36a98H5OLx3snHnGMTFU5[] = {
/* columns rows colors chars-per-pixel */
"64 64 243 2 ",
"   c #151B2D",
".  c #181A2D",
"X  c #151E31",
"o  c #1A1E32",
"O  c #101E3B",
"+  c #0B1A33",
"@  c #0E233E",
"#  c #1A2235",
"$  c #1C253A",
"%  c #162B3B",
"&  c #1A2A3D",
"*  c #142337",
"=  c #17313E",
"-  c #15202F",
";  c #35252A",
":  c #3C292B",
">  c #362528",
",  c #332D35",
"<  c #3A333E",
"1  c #33363C",
"2  c #2C2E34",
"3  c #221B36",
"4  c #4C2D2A",
"5  c #452B2A",
"6  c #542E29",
"7  c #5A2F29",
"8  c #552D26",
"9  c #4E312D",
"0  c #54322D",
"q  c #5B342D",
"w  c #4A3534",
"e  c #563531",
"r  c #5A3631",
"t  c #5B3933",
"y  c #563C37",
"u  c #412E31",
"i  c #63352B",
"p  c #6B362B",
"a  c #753B2D",
"s  c #773C2D",
"d  c #633B33",
"f  c #6C3D33",
"g  c #643F38",
"h  c #713F33",
"j  c #6C4136",
"k  c #644239",
"l  c #6D453A",
"z  c #6B453A",
"x  c #744335",
"c  c #7A4435",
"v  c #73463A",
"b  c #744A3C",
"n  c #7A4B3C",
"m  c #7B4738",
"M  c #7C513F",
"N  c #5F403A",
"B  c #0D2744",
"V  c #1C2D43",
"C  c #142D4A",
"Z  c #182B46",
"A  c #1B3344",
"S  c #1D334B",
"D  c #18374A",
"F  c #1C3952",
"G  c #222D45",
"H  c #222D49",
"J  c #223146",
"K  c #22334B",
"L  c #22394E",
"P  c #2E3A44",
"I  c #353944",
"U  c #223650",
"Y  c #233A53",
"T  c #243E5A",
"R  c #2A3E5A",
"E  c #293A54",
"W  c #443F46",
"Q  c #1C4354",
"!  c #1D455B",
"~  c #1B4C5D",
"^  c #184757",
"/  c #1D404E",
"(  c #23435B",
")  c #2A425D",
"_  c #23475B",
"`  c #2B4751",
"'  c #194D63",
"]  c #1C5264",
"[  c #1C5B6C",
"{  c #195669",
"}  c #1C5C72",
"|  c #2B4562",
" . c #234C63",
".. c #2B4A65",
"X. c #2C4D69",
"o. c #254965",
"O. c #324C6B",
"+. c #324768",
"@. c #225266",
"#. c #23546A",
"$. c #2A536D",
"%. c #225C6C",
"&. c #295462",
"*. c #32516E",
"=. c #245D72",
"-. c #2B5A74",
";. c #2E5E7A",
":. c #295773",
">. c #325775",
",. c #1D6374",
"<. c #1E6579",
"1. c #1D6B7B",
"2. c #17697A",
"3. c #1C717D",
"4. c #166471",
"5. c #236375",
"6. c #24657A",
"7. c #2C647C",
"8. c #236B7D",
"9. c #29697E",
"0. c #276976",
"q. c #30617C",
"w. c #23727F",
"e. c #26616D",
"r. c #52484A",
"t. c #654D4A",
"y. c #654A45",
"u. c #754F42",
"i. c #7B5344",
"p. c #795649",
"a. c #7F5D50",
"s. c #67514F",
"d. c #813F30",
"f. c #8A432F",
"g. c #8A4935",
"h. c #8B4E3A",
"j. c #854835",
"k. c #924D37",
"l. c #8C513D",
"z. c #84523E",
"x. c #93533C",
"c. c #9B553C",
"v. c #A55B3F",
"b. c #AB5C3F",
"n. c #855442",
"m. c #8D5A46",
"M. c #845B4A",
"N. c #8C5E4B",
"B. c #885744",
"V. c #9B5C43",
"C. c #925E4A",
"Z. c #965A44",
"A. c #A55D41",
"S. c #AA5E42",
"D. c #94624D",
"F. c #9C634B",
"G. c #9D654A",
"H. c #8B6352",
"J. c #956653",
"K. c #9B6751",
"L. c #9D6A53",
"P. c #996D59",
"I. c #976C58",
"U. c #956954",
"Y. c #AC6244",
"T. c #A2634A",
"R. c #AD6A4C",
"E. c #A76448",
"W. c #B26546",
"Q. c #B96746",
"!. c #B66847",
"~. c #BA6847",
"^. c #B36A4A",
"/. c #BB6C4B",
"(. c #B36748",
"). c #BB714F",
"_. c #A46D55",
"`. c #AB6D53",
"'. c #A26B54",
"]. c #B56E51",
"[. c #A57057",
"{. c #AD7055",
"}. c #A57259",
"|. c #AE765A",
" X c #AF785B",
".X c #B47354",
"XX c #BD7554",
"oX c #B2795D",
"OX c #BA7B5C",
"+X c #B5775A",
"@X c #B47D62",
"#X c #C3724E",
"$X c #CB744E",
"%X c #C27553",
"&X c #CC7C56",
"*X c #C47A59",
"=X c #CD7E59",
"-X c #C67854",
";X c #CA734E",
":X c #B68064",
">X c #CD815B",
",X c #D3835D",
"<X c #D9845A",
"1X c #DE926B",
"2X c #D68863",
"3X c #E2946C",
"4X c #E3946B",
"5X c #E49971",
"6X c #1D6D81",
"7X c #1D7483",
"8X c #1C7986",
"9X c #1C7C8B",
"0X c #167689",
"qX c #18798B",
"wX c #256D82",
"eX c #2B6C83",
"rX c #326A83",
"tX c #247485",
"yX c #297285",
"uX c #257689",
"iX c #2A758A",
"pX c #237B8C",
"aX c #287A8C",
"sX c #237986",
"dX c #257E90",
"fX c #297D91",
"gX c #317087",
"hX c #1C818D",
"jX c #1C8695",
"kX c #18919C",
"lX c #23818D",
"zX c #238293",
"xX c #238C9B",
"cX c #278695",
"vX c #26949E",
"bX c #1493A1",
"nX c #269CA4",
"mX c #2697A1",
"MX c #27A4AA",
"NX c #27B2B5",
"BX c #27ACB1",
"VX c #18A3AA",
"CX c #25BFC0",
/* pixels */
"7X7X7X8.6.6.8.<.8.% A 7X8.8.1.<.1.8.6.6.# Q 8X1.7X6.6.6.8.8.5.. ~ 9X8.1.1.<.1.1.6.%.  [ pX8XtX9.8.8.8.wXQ - 3.8X8.6X8.8.1.6.6.D ",
"xX7X8.eX7.7.,.F | & ~ tX( ! ~ ,.{ Q Y Y $ [ jX,.pXwXwXwX,._ ..- ,.6.! ' { 2.{ ' T E % tXpX6.tX7.7.6.' ) U A tX' ! ~ } [ ! ! U A ",
"pX2.jXdXzXzXwX6XtX$ ~ tX( 8.8.kX8X5. .] # Q e.%.0.0.0.0._ &.&.2 &._ L &.%.w.e.&.L S * 8.1.9XzXzXzXuX6.8X( A pX_ 6.8.jXjX8.@.] A ",
"pX9XwXtXtXtXiX7.9.$ _ -.%.9XeXtXpXcX{ / F.R.m M n n n n n n n M n n n i.u.n n b Z.R.w ,.xXuXyXtXtXaX;.eXT A 9. .8X8.tXuXdX%.=.F ",
"eXjX8X_ .._ 8.O.O.$ Q ! S % C C ^ } J V.;Xl.P.:X@X@X@X@X@X@X@X@X@X@X:X@X@X@X@X@Xi.W.%Xr.0XqX] F F { o.| K D :.K H S ) ( 8.R ..K ",
"eX9X9X..*...wX| ..% w D.m.m.C.C.C.B.R.#Xz., H.P.I.P.P.P.P.P.P.P.P.P.P.P.P.P.P.P.w g ~.XXM.H.D.N.m.N.D.y.* D wX=.V E X._ 8.] ..K ",
"uXjX9X( R Y  .| Y e j.v v v b v v b l t K.XXOXOXOXOXOXOXOXOXOXOXOXOXOXOXOXOXoX+XXX{.g j n v b b v v x m i A 6.#.U S R Y 8.[ ..K ",
"wX8X5.6.) ) | F w c m.D.F.'.L.L.'.`.i.w #X%Xr.I I < < I < < I < < < < < < < I I K.$Xv y `.L.L.F.L.F.D.C.c y ^ ) X.Y K Y 6.R O.K ",
"dXtXpXpX#.| | S l t h.N.C.W.~.W./.$Xl.y ;Xt.@ Z ^ kXVX1.] ^ Z { ' ' 7XhXjX7XZ B I %Xn k $X#X~.~.Q.V.N.l.k h ] ;.wX8.| ....*.*.K ",
" .Y [ ~ K V K Z l g d S.m.m.~.Y.Y.%XB.e $Xt.C H vXmX5. .w.MX8.nXuXMX( MXMX .Y F I %Xb k -X^.Y.!.A.n.~.g t v F Y Y Y U U U U K $ ",
"% % = = & A & % l k m q d A.W.W.W.~.z.y ;Xt.C K lXMXtX( K cXNX[ 6.xXG sXw.G Y S I #Xb k ~.W.W.W.W.x q x l v % = = = % = = = A - ",
"zXpX9.yXpXwXzX} l g Y.j.V.!.W.W.W./.l.e ;Xt.C K pXBXcX_ H zXNX .%.sXG w.8.H U S I #Xv k #XW.W.W.W.S.m Y.l f ,.zXq.7.iXiXyXiXrXY ",
"eXwXpX>.%.( uX2.j g W.W.W.W.W.W.Y.l.v y ;Xt.C H nXvX .T tXBXaXnX8.MX3 cXcXG Y U I %Xn t z.A.W.W.W.W.W.~.j f #.;.-.;.yX6.tXtX+.K ",
"q...pXq. .[ sX1.j k Z.M.m.W.Y.~.%XT.B.y #Xp.B C ' bXVX6X{ ^ C 2.' { O { { Z C B I #Xv k G.).#XY.W.Z.n.V.l j ) eXtX6.6.1.8X9.O.K ",
"7.) 6.dX] [ tXo.l k g Y.F.x.#X{.H.P.p.5 v.).a.t.t.y.t.s.t.t.t.t.t.t.t.t.t.s.s.t.T.Q.q r.}.J.'.#Xv.B.(.j g j | uXK %.5.,.1.>.#.L ",
"7.) 6.eXtX_ 3.o.l k x q d Y..Xw 5 5 0 d c c.Y.Y.Y.Y.Y.Y.Y.Y.Y.Y.Y.Y.Y.Y.Y.Y.Y.Y.c.c d r 5 5 5 C.#Xx q f j j ..wXD cXvX%.3...,.Q ",
"7.E 8.uX1.%.7X} l g Y.x h.*Xv x.Q.Q.S.V.f : : : : : : : : : : : : : : : : : : : : 9 x.A.~.~.v.f OXE.x S.l f 1.lX_ %.%.w.3.( #.Y ",
":.! 6.1.{ ,.jX2.l g (.~.&X[.h.~.~.n.; : 4 t 9 9 9 9 9 9 9 9 9 0 9 9 9 9 9 9 9 5 e 9 5 ; N ~.(.c.K.,X~.(.j j  .pX8.8.,.[ tX#.5.Y ",
"7.@.5.5.9X9XuX} l t S.W.=X+Xc./.m.; 6 8 q c 0 p s s s s s s s s s s s s s s s 0 i d 8 i ; k /.A.[.,X(.W.g j o.q.eXeXkXpXtX1.1.K ",
"zX;.R E -.uXiX} l e k.W.&XoXc.^.5 8 p x l.5 a s i i i i i i i i i i i i i i p j.4 m n i i > F.Y.[.,X(.c.e x ,.eXO.*.;.;...6.9.J ",
"V $ & & $ $ $ X l e x.W.=X|.Y.G.5 p f V.q i s l H.N.N.N.N.N.N.N.N.N.N.N.N.N.i.i a 4 V.l i 0 z./.[.,X(.c.0 v $ & $ $ $ $ $ # # X ",
"Q ^ Q Q Q Q Q D l r x.(.=X|.R.T.5 d V.t q s f .X,X*X*XXXXXXXXXXXXXXXOX*X*X=X=Xi.p p 9 V.v 4 n./._.,X(.c.e v D ~ ^ ^ ^ ^ ^ ^ ~ * ",
"xXpXpXgXrXrXtX^ v r x.(.=X|.R.G.5 T.j 0 a f .XXXm._.[._._._._._._._._._.[.m.`.=Xb p i e ^.e z./._.,X(.c.e x ,.9.$.:.5.5.=.#.X.S ",
"pX<.pXpXiXaX5.F v e x.(.=X|.^.Z.l n 4 a d R.*XF.R.F.F.F.F.F.F.F.F.F.F.F.V.E.F..X&Xj a i j z.n./._.,X(.c.e x ~ Y )  .7X1.! T Y V ",
"iX9XpXfXfXdXaX<.l e k.(.=X|.R.T.; 4 a f R.*XD.OXW O @ @ @ @ @ @ @ @ @ @ @ & P.C.`.*Xl a 0 > n./._.,X(.c.e x ] #.jXzXzXcXzX=.6.S ",
"iXzX9.%.%.=.yXT l e k.(.=X|.R.T.: p d R.*XD.+Xr.B Y Y Y Y Y Y Y Y Y Y Y Y S & L.C.XX*Xj p 4 n./._.,X(.c.0 v K ) ( ( #.#.8.( X.K ",
"eXxXzX) O...yXT l e k.(.=X X^.T.0 f G.%XD.OXr.B Y U U U U U U U U U U U K Y A J `.C.XXXXv i n./._.,X(.c.0 v _  .V U | ( 8.R ..J ",
"aXxXpX) O. .8.F l e x.(.=XoXR.T.6 n =Xm.T.r.B Y U U U U U U U U U U U U U K Y Z P F.B.>XB.7 n./.}.,X(.c.0 x ] 8.K Y | _ 8.[ _ K ",
"uXjXwX@.E Y | F l e h.).,XoXR.T.6 n *XD.F.@ Y K U U Y U U Y U U U U U Y U U U E B a.'.OXB.7 n./.}.2X/.c.r v F  .R H K F wXR ..J ",
"wX8XwXzX$.| | F v e x.&X1XoX^.T.6 b *XK.K.K K K U K H U U H K K U U U H K U H K C a.'.*Xn.7 B./.}.2X&XS.r x F X.6.@.U ( #...O.J ",
"uX=.pXwXo.E R S v r E.2X5X@X^.T.6 b *XK.K.S _ Y U @.tX .@.tX@. .T _ @.sX6.@.tX@.C a.'.*Xn.7 n./._.4X2XXXt x ] :.5.-.......X...V ",
"o . % # o # # X l t ^.3X4X X^.T.6 n *XJ.L.S nX@.Y MXBXnXnXMXMXnX5.mXmXnX8.mXBXMXC a.L.*XB.7 n./.[.4X5X%Xq b X o o o # o o X o   ",
"[ %.#.%.%.%.e.~ v e ].5X3X X^.T.6 n *XD.L.S nX#.Y nX=.nXmX .=.nXnXpXnX8._ mX5.mXF M.L.*XB.7 n./.}.1X1X*X0 m ] 5.%.%.5.5.5.%.%.A ",
"aXzXiXrX8.X.cX6Xv 0 ].5X4XoX^.T.6 n *XJ.L.S cX .( cX=.cXzX .U mXCX .mXBX8.cX6.lXF M.L.*XB.7 n./.}.1X1X*Xq x 1.iX*.>.eXeXiXaX*.L ",
";.:.zX>. .~ tX7Xv e ].5X4XoX^.T.6 b *XK.L.S BX5._ BXwXMXMX=.xXMXcXmXMX=.( MXtXMXC a.'.*XB.7 n./._.1X1X*Xr x  .;.aXtXuX,.tXtXO.K ",
"q.) 9.iX#.1.sX#.v e ].3X4XoX^.T.6 b *XK.L.V pXNXzXlXBXtXpXNXzXtXo.pXpXNXzXpXNXaXC a.L.*XB.7 n./.}.1X1X*Xr b | iX#. . .1.1.-...K ",
"q.) 6.pX=.@.sXo.v e ].3X1XoX^.T.6 n *XD.F.Z Y ( ( Y ( Y Y ( Y K U U Y _ ( Y ( E C a.L.*XB.7 n./.}.1X1X*Xq x ..8.S lXxX[ 3.X.,.Q ",
";.R 8.eXpX#.tX@.v e ].3X4X X^.F.6 n =XC._.t.C U K U K U U U U Y U Y U U U U U F P _.m.=XB.7 n./.[.1X1X*Xq x 5.pX/ 8.tX1.7X) #.Y ",
"-.E =.pX3.,.hX7Xb e ^.1X5XoXR.F.i f m.*XK.OXr.C Y K U U U U U U U U U U U Y F K `.T.XX.Xd i n./.}.5X1XXXr x ,.hX[ ,.,.1.1. .,.F ",
"-.Y 6.pX9X1.xX2.v t Y.=X4XoXR.T.5 a 4 _.*XC..Xr.C E U Y Y Y Y Y Y U Y Y Y F K T.Z..X*Xt i 6 n./.}.3X>X(.r b ) 9.tXtXhX1.pX,.,.Y ",
"uX$.o.( uXxXiX} v t S.XX,X XR.T.w 0 a q `.XXC.XXr.B C C C C C C C C C C C K `.T.`.XXg p i w B./.[.,XXXW.t x [ q.*.>.dXuX6.1.8XK ",
"6.X.) ) | X.$.o.v t S.(.&X X^.Z.z._.4 p q R.*XF..XJ.J.J.J.J.J.J.J.J.J.J.H._._..XXXj i 7 M.T.z./.[.,X(.Y.t x ' $.| | | | R ....G ",
".     X     . + l t S.W.=X|.^.F.f &XD.6 a q R.XXJ.}.}.}.}.}.}.}.}.}.}.}.}.K.R.XXl p q i.=Xh.n./.[.,XW.Y.t n     X X X X X X     ",
"5.8.6.=.=.=.5.] v t S.W.&X|.^.T.0 c.&XJ.q a q R.>X*X*X%X%X%X%X%X%X%X%X%X%X*XXXj i q i.&XS.d n./.[.,XW.Y.t x [ 6.%.=.%.%.%.%.%.A ",
"cXuXpXiXrXgX6.D l e S.W.=X X^.T.: r A.&XK.d a d i.i.i.i.i.i.i.i.i.i.i.i.i.i.k i i M.%XY.f 5 n./.[.,XW.Y.t x ] @.Y ! [ [ ! Q U A ",
"pX7XzXfXdXpXwX[ z 0 S.W.=X|.^.F.d c.f A.$XL.f d.q 6 0 0 0 0 0 0 0 6 6 6 6 8 a p M.&XY.x l.c n./.[.,XW.Y.t x ~ ( =.=.pXpX5. . .A ",
"dXhXeXaXiXpXiX#.k 0 S.W.&X X^.F.d /.V.x A.$X_.q n {.`.{.{.{.{.{.{.{.{.`.`.m.6 m.*XW.c l.~.m n./.[.,XW.Y.e f ~ @.pXwXiXaXcX1.=.L ",
"iXxXdX . .@.eXT k 0 S.W.&X X^.F.d W.(.c.f S.&XD.m Y.Y.W.W.W.!.W.W.W.W.W.S.h.u.*XW.c j.W.~.c n./.[.,XW.Y.e j K Y K S ( ! uX1.| K ",
"eXmX9X| *.$.yXY g 0 S.W.&X|.^.G.d Q.W.(.x.f A.=XD.j.~.!.!.!.!.!.!.!.W.~.A.i.>XY.c c W.Y.~.c n./._.,XW.Y.e j  .=.H U | ( tX1...K ",
"aXxX8XT | ( #.Y e 9 S.W.&X|.^.G.d Q.W.W.~.j.n -Xm.q x x.x.x.x.x.x.x.x.m q u.=XZ.x W.W.Y.~.c n./._.,XY.Y.e d ~ =.K S R Y wX=.o.K ",
"eX8X8.1.R R ) Y e 9 S.W.&X|.^.G.q Q.W.W.!.c.u.&XC.g.c q q q q q q q q f g.B.=Xm.h.~.Y.Y.~.x M /._.,XY.Y.e q D _ | K K Y 8.R O.K ",
"wXpXdXzX@.) ) F e 9 S.W.&X|.R.T.: g.W.W.W.h.V.#Xm.s x.c.c.c.c.c.c.c.c.v.j.n %XE.j.S.W.W.c.w n./.[.,XY.Y.r q ~ $.8.5.) | ..*.*.K ",
"@._ 1._ K K U Z 0 0 S.W.&X X^.Z.u.i.g.Q.h.A.~.(.f c j.g.g.g.g.g.g.g.g.j.j.t V.~.E.m Y.v.v M.n./._.,XY.Y.r q F ) ( ) R R R R Y & ",
"* * % % % % % * e 0 c.W.=X|.^.Z.x >Xb r V.W.~.k : h h h h h h f f h h f h 9 u W.~.E.g g OXm.n /._.,X!.c.0 q * % % % % % % % % - ",
"pXpXeXyXuXwXfX} e 0 j.h./.+XA.XXn.~.XXT.W.~.f y >XOX.X.X+X+X+X.X.X.X.X.XOX>Xn.9 W.~.E.].#Xl.`.Y._.%Xh.c 0 q ,.aX7.7.tXtXtXpXeXY ",
"9.uXuX;.=.( uX2.0 0 f M.C.F.V.#X+Xn v.S.S.j.: c.Y.S.S.v.v.S.S.S.v.S.S.S.S.Y.Y.w j S.S.S.m '.-Xv.F.m.m.f 0 0 %.7.*.-.wX6.8.uXO.K ",
">.X.pX;.#.4.8X<.6 9 r S.Z.M.m ~.%X`.w : 5 ; ; : ; ; ; ; ; ; ; ; ; ; ; ; ; ; ; : ; : : : C.%X~.h.M.B.b.d 9 0 ..7.8X1.pX8X8X6.O.K ",
";.) wXzX~ 4.sX@.4 e f 6 q ).N.x A.^.F.m.D.M. X@X@X@X@X@X@X@X@X@X@X@X@X@XoXoXoXoXM.m.m.C.^.S.c n.XXf 5 q q 6 | pXF ] @.1.3.$.#.L ",
";.) 9.tX6.~ lXX., 6 0 q j.W./.M.y y k z y v <X=X>X=X=X=X=X=X=X=X=X=X=X=X=X=X&X<Xm.e k k y y u.^.W.x.q q 7 1 =.8.Q xXmX] 7X..[ Q ",
";.R 8.tX1.1.8XeXo.; 7 4 6 6 4 k.c.x.k.x.h.d k.f.f.f.f.f.f.f.f.g.f.f.f.f.f.f.f.f.f c c.k.x.c.k.6 4 6 6 8 > D vX8X_ 5.5.3.3.)  .Y ",
";.[ =.hX9X1.8XjXyX# , < P 1 P 1 1 1 1 , ; 2 , P P P 1 1 1 1 , ; , , P 1 I 1 1 I 2 2 , , , 1 ` P 2 1 I P & D iX8X,.1.3.4.1.[ } ( ",
"-.[ <.1.jX9XtXwX-.# [ ;.=.wX9XbXqX0X0X6X  [ #.[ } 0XkX9X8X6Xo.- ,.-.8.wXhXbX9XqX2.,.* <.o.} ,.jXbXpX7XwXY A 7.:.wXwXbXjX8X2.3.L ",
"pX$.R E :.eXwX9.9.# %.pXO.O.*.7.-. .1.7.o [ uX) E ) 7.yXeX9.%.o 8.aXO.O.*.7.>.$.tX#.# tX9.) E ..eXeX7.wX( A pX-.O.O.;.;...5.8.J ",
"S K K K H H H K S X V L K K K H K K J H   V S K K K H H G J A   A L K K K H K K J V   A K K K K H H H K $ - F K K K H H J J H # "
};
