/* XPM */
static char *result[] = {
/* columns rows colors chars-per-pixel */
"64 64 242 2 ",
"   c #141C2C",
".  c #151829",
"X  c #161E31",
"o  c #191E32",
"O  c #1F1C38",
"+  c #0D1A30",
"@  c #0E243D",
"#  c #162334",
"$  c #192234",
"%  c #12243C",
"&  c #1B253A",
"*  c #162C3C",
"=  c #1B293B",
"-  c #172835",
";  c #16303F",
":  c #35252A",
">  c #3E2B2D",
",  c #382427",
"<  c #262A3A",
"1  c #312D38",
"2  c #39313B",
"3  c #34333A",
"4  c #2E2E36",
"5  c #231A24",
"6  c #4D2B26",
"7  c #422C2C",
"8  c #4A2B29",
"9  c #542E2A",
"0  c #552D27",
"q  c #4E302C",
"w  c #54312C",
"e  c #5C342D",
"r  c #5F382F",
"t  c #432F31",
"y  c #4C3433",
"u  c #453537",
"i  c #5C3B34",
"p  c #5B3E39",
"a  c #573835",
"s  c #64352B",
"d  c #6B362B",
"f  c #67392E",
"g  c #7C3E2D",
"h  c #733A2D",
"j  c #633B33",
"k  c #6C3E32",
"l  c #653730",
"z  c #723E32",
"x  c #5C423E",
"c  c #56413D",
"v  c #6D4135",
"b  c #6B453B",
"n  c #66443B",
"m  c #744335",
"M  c #7C4435",
"N  c #734639",
"B  c #7B4A3B",
"V  c #77493B",
"C  c #715836",
"Z  c #1D2D43",
"A  c #142E4C",
"S  c #182D47",
"D  c #1D3245",
"F  c #1B324C",
"G  c #1C3B4C",
"H  c #133447",
"J  c #1B3954",
"K  c #0D2745",
"L  c #212C43",
"P  c #212B47",
"I  c #2D3C43",
"U  c #22334C",
"Y  c #253448",
"T  c #343A44",
"R  c #223750",
"E  c #243A53",
"W  c #2A3E5A",
"Q  c #263D58",
"!  c #333C50",
"~  c #463E44",
"^  c #1C4353",
"/  c #19465B",
"(  c #1D4755",
")  c #23435C",
"_  c #2B425E",
"`  c #23475B",
"'  c #33444D",
"]  c #184A62",
"[  c #1D5464",
"{  c #1C5C6C",
"}  c #185569",
"|  c #1B5C73",
" . c #0F5568",
".. c #2C4562",
"X. c #234D63",
"o. c #2B4964",
"O. c #2D4D69",
"+. c #244967",
"@. c #324C6B",
"#. c #304666",
"$. c #225264",
"%. c #24546A",
"&. c #225A6D",
"*. c #2A546B",
"=. c #31516E",
"-. c #245C72",
";. c #2B5B75",
":. c #295875",
">. c #325775",
",. c #1D6474",
"<. c #1D667A",
"1. c #1C6C7C",
"2. c #186979",
"3. c #1A727D",
"4. c #166977",
"5. c #236375",
"6. c #24657A",
"7. c #2B647B",
"8. c #246A7C",
"9. c #29677A",
"0. c #31627D",
"q. c #26707D",
"w. c #45444A",
"e. c #5B4542",
"r. c #574745",
"t. c #45585B",
"y. c #4D5055",
"u. c #664A44",
"i. c #6C514C",
"p. c #76544A",
"a. c #774F44",
"s. c #455F62",
"d. c #446465",
"f. c #88422E",
"g. c #84422F",
"h. c #8C4A36",
"j. c #834C3B",
"k. c #8B4E3A",
"l. c #864734",
"z. c #84513E",
"x. c #8E513D",
"c. c #93533D",
"v. c #9A543B",
"b. c #9D593E",
"n. c #924E39",
"m. c #A3593F",
"M. c #835442",
"N. c #8C5D4A",
"B. c #885947",
"V. c #955A44",
"C. c #9B5B43",
"Z. c #935A45",
"A. c #835E50",
"S. c #A35D42",
"D. c #AA5E41",
"F. c #92614C",
"G. c #9B644D",
"H. c #9E6349",
"J. c #8E6451",
"K. c #926551",
"L. c #9B6651",
"P. c #9E6A52",
"I. c #966954",
"U. c #8E6451",
"Y. c #A36146",
"T. c #AD6244",
"R. c #A6654A",
"E. c #A9664A",
"W. c #A3694F",
"Q. c #AD6A4C",
"!. c #B36646",
"~. c #B66847",
"^. c #BB6947",
"/. c #B36B4C",
"(. c #BB6A49",
"). c #B76747",
"_. c #A36A52",
"`. c #AB6B51",
"'. c #AC755C",
"]. c #AB7256",
"[. c #B37254",
"{. c #BA7353",
"}. c #B27A5D",
"|. c #BC7C5D",
" X c #B47659",
".X c #BB704F",
"XX c #BC7F60",
"oX c #B47C60",
"OX c #C4714D",
"+X c #C9744E",
"@X c #C57652",
"#X c #C37955",
"$X c #CB7B55",
"%X c #C37C5A",
"&X c #CD7E58",
"*X c #C97752",
"=X c #C9754F",
"-X c #BD8163",
";X c #BA886C",
":X c #C9815D",
">X c #D3825B",
",X c #C28C6E",
"<X c #C18667",
"1X c #DD8E67",
"2X c #DA8C66",
"3X c #DF9169",
"4X c #E2946C",
"5X c #E4986F",
"6X c #E59970",
"7X c #1C6C82",
"8X c #1D7484",
"9X c #1C758B",
"0X c #1D7B8B",
"qX c #197886",
"wX c #187D91",
"eX c #0E7282",
"rX c #246D81",
"tX c #2B6D82",
"yX c #256681",
"uX c #316A84",
"iX c #247384",
"pX c #247689",
"aX c #2A758A",
"sX c #237B8C",
"dX c #2A7A8D",
"fX c #297286",
"gX c #247F91",
"hX c #2A7D91",
"jX c #1C8493",
"kX c #188998",
"lX c #16919F",
"zX c #24828E",
"xX c #248393",
"cX c #248997",
"vX c #26939C",
"bX c #308093",
"nX c #1A93A2",
"mX c #269BA3",
"MX c #25A4AA",
"NX c #27A5AB",
"BX c #26B4B6",
"VX c #26ACB2",
/* pixels */
"  = * * * ; * * ; # . - * * ; * ; ; ; H   . * * * ; * ; * H - .   * * * * ; * ; H - . - * * ; ; ; * H ;   . * ; ; ; H * * D * . ",
"1.jX8XiX7.7.8.,.6.G * 9X1.6.8.,.<.8.-.-.= ( zX8XiX5.7.5.7X6.;.. { 0X,.4.<.,.<.,.5.` - 8XsX9XtX7.9.rX5.7.& / zX,.8.1.<.,.6.5.$.  ",
"0XqX,.sXtXtX<./ ) Y G pX^ E ( 2.{ J R E - [ jX| qXpXiX7X} J ] + 2.[ ^ ]  .3. ./ F U D sX,.q.sXtXfX-.) ` = { 5.E / ] 3.} J R Y # ",
"sX7XjXzXxXxXsXpXjXF G pXX.jXsXcXxXsX&.} 3 ' t.t.d.s.d.t.y.t.t.u t.w.w.t.d.d.=.y.' 3 ; pX3.jXsXxXxXiXiXsX= [ 8.&.xXsXcXxXpX{ [ X ",
"fXjX8.9.5.5.iX>.;.Y G ;.] <.%.| 5.xX] T .X@Xk.M.j.M.j.M.M.j.M.B.z.z.z.z.z.z.B B /.OXr.<.cXiX<.6.8.rX>.>.= X.X.%.$.-.-.rX6.X.O.X ",
"tXsXkXX..._ 6.=.O.Y - #.T 1 < ! I $.w.^.^.p I.,X;X,X,X,X,X,X,X,X,X,X,X,X,X,X,X;Xa T.*Xy.8.q.' ! I *.' Q & X.O.U = Q Q { -.Q ..X ",
"tXpXjX%.@.o.6.o._ Z w C.Y.Y.Y.R.Y.C.T.T.a.x M.K.K.K.K.J.K.J.J.K.U.K.U.U.U.U.K.U.x N S.~.b.Y.R.R.Y.Y.C.x   ` pX%.L ....%.6.[ _ # ",
"rX0X0X{ E E ) ..U i j.N u.n b u.n u.u.7 Q.>X|.'.'.'.].].'.'.'.'.'.'.'.'.'.].'.'.>X{.y p u.b b b b b b j.s / [ +.U F P { -.` _ # ",
"rX8X8.iX-...O.J u m B.W.R.{.{.{.#X%XH.a OXR.L % K H ^ H @ # @ % @ @ H H H H % % B.+Xi B.#X#X{..X{.Q.G.N.m u ] O.-.) E $.X.@...# ",
"sXrXsXsX-.Q ) J x j k B.K.c.!.!.T.*XV.y OXu.K Y 1.VXBXiXq.5.) zXq.iXcXMXVX8.U A ~ *Xa j.+X!.E.).b.F.V.k j e.<.:.pX*.O.o.@.=._ X ",
"& & * D O % & + p b j l.k.M.^.!.!..XC.y OXi.S P mXxXG J { MXvXzXzXmX= MXiXU Q A r.+Xa z.OX!.!.^.Z.x.h.i N a # $ O $ & & & & $ . ",
"^ [ / [ [ [ [ / x v c.j l D.!.!.T.^.Z.y +Xi.A Y 8XBXMXX.P zXVXJ 5.iXZ iX*.U R A w.OXp k.(.T.!.!.T.k r z.v c ] $.[ [ $.[ [ [ (   ",
"sXxXaX0.xX;.dXeXe.n C.!.!.!.!.!.!.~.c.y OXi.A P vXvX[ F / MXVX5.q.zX< cX7.P R F r.*Xa k.!.!.!.!.!.!.!.S.j e.wXuX>.>.xX7.zXuXO.$ ",
"q.=.xX7.o.` 5.jXe.j S.S.C.!.!.T.E.l.m a OXi.A Y zXVXcX-.zXxX-.mXiXzXO vX9.P E A w.OXp j C D.T.!.~.C.C.S.k c :.;.aXfXiX8.zX;._ & ",
"tX#.;.aX&.[ iX7Xp b V N.L.C.!.{.:X%X_.q !.H.Y Z A { 3.&.G D * ^ ^ J * J J S D Z A.^.w U.:X:X#X^.S.F.N.B v c -.q.` $.&.3.iX@._ # ",
"tXo.%.sX1.` 2.| x v j l.c.k.*XB.u x u > h.OX{.`.`.E.T.E.`.`.Q.Q.`.Q.`.E.Q.`.`.`.^.n.8 u c u a.$Xx.c.l.j v p 6.$.^ NX9.2.;.%.,.& ",
"tX..&.tXgXX.2.{ x n x.r w /.G.e j.l.n.c.v f v v v v v v v v v d k v v k k k k k r s c.n.l.l.s N.#Xs w z.k c wX&./ zX9.3.5.) &.$ ",
"8.Q %.pX,.{ 9XeXc n S.D.T.|.M D.(.(.V m i 7 > > > > > > 7 > > 7 7 > > > > 7 > > > a m z /.OXT.M %X/.T.S.k c wX6.-.%.5.,.9.^ -.X ",
"9.+.<.rX2.<.xX9Xc n C.~.*X|.c.~.~.a : , > m w 0 e s e s e e s e e e e s e s e 8 l 8 , , t E.^.V.|.$X~.C.j e.O.pXq.sXqX8.qX{ &.$ ",
"sX9.+.) <.cXpX<.x n k.!.+X-Xc.OXb , d s M f e g.g g g g g g M g g g g g M g g.s e B s d 7 a .XC.XX#X!.k.r e.7X>.>.uXxX7.5.zX%.$ ",
"&.%.Q E Q +.+./ x i M !.+X-XC./.> d r c.B 6 M d x p p x p x p x x x i i p p s M 9 N Z.w d 7 E.S.XX*X/.M j e.} _ _ W Q Q E ` U X ",
". X # # # # $ + a n M !.@X|.R.E.8 f B z.6 M f c.:X%X%X%X%X%X#X%X#X#X:X#X%X:X_.e h 9 M.M.l 9 E.E.XX*XT.M j a + * - # # - - - # . ",
",.pXiXq.7.7.9.,.x j M !.@X-XR./., V c.q v d z.#X`.L.P.L.G.L.L.L.L.P.L.P.L.G.$XW.s h 8 Z.B., Q.D.XX*X~.M j r.eX9.5.6.5.9.9.5.$.  ",
"xXiXq.dXuXaX8.H x n M !.@X|.R.E.x R.6 d d z.>XW.C.#X|.#X#X#X#X{.#X#X#X{.#XW.G.>XN.e h 9 D.j W.W.XX*X!.M j e.} Q E X.8./ E R U - ",
"dX1.jXxXxXxXaX7Xr.j M !.*X|.R.Q.q w f d z.#X`.[.U.4 2 2 2 2 2 2 2 2 2 2 1 u.`.G.&XB.d h q w D.W.XX$X!.M j e. .*.sXsXcXpX6.} X.$ ",
"dXxXrXtXrXyXaX:.e.j M !.*XXXH./.: 0 h z.#X`.W.J.@ A F F F F A F F F A F F K i._.G.&XN.l s : `.R.XX#X!.M l e./ 5.6.9.9.sX6.%.O.# ",
"aXxXvXX.#.Q yX+.e.j M ).*XXXE.Q.q h V #XQ.`.J.% U E J E E E E E E E E R E E @ p.`.W.&XM.h w `.R.XX*X!.M j c J E = ) Q &.*.W ..# ",
"aXxXcX%.>.@.pX] c j M ).#XXXE.Q.w m |.R.F.I.K U R R R R U J U U J U U R U F E K A.F.G.%Xz w E.E.XX$X/.g j e.7X%.D ....%.6.] Q - ",
"aXjXxX[ Q R +.) e.j B (.$XXXR.Q.w m %XN.W.< F R F E J R R R F E J U R F R R E U % _.K.%XN 9 R.E.XX&X/.g j e. .o.D R U &.6.+.Q # ",
"tXpX6.pX:._ ..J e.j g @X2XXXE.Q.w m %XP.P.D R U E U U E R R E U R E R U U R U E S I._.%XN 9 E.E.XX&X.Xj.j p J O.%.R P %.X.#._ # ",
"xXrXxXxX-.Q _ J x j M.&X3X<XE.Q.w v %XL._.Y R R R J X.E Q ] E E R R ) X.X.E ) E A I._.%XN 9 E.R.XX1X&XZ.j c | >.sX=.O.o.O.=._ # ",
"F L G G Z Z L % p j C.1X5XXXE.`.w m |.L.P.Y sXX.R cXBXxXcXBXcXxX%.sXcXBXiXvXBXsXP I.L.%XN 9 `.E.XX6X3XC.j p K P Z Z P L Z P &   ",
"D ^ G G G / ^ H x i H.6X3X-XR./.w N %XL.P.Y NX&.Q NXrXVXMX-.xXMXcXmXNX*.+.NXiXmXZ I.P.%XN 9 E.E.XX3X6XZ.j e.H ^ ^ ^ ^ ^ G ^ D   ",
"sXbXhXaXzX;.bX9Xu.e b.5X3X-XR.Q.0 m |.L._.Y xX*.) xX-.cXsX) R MXBX+.mXNX9.xX9.dXS L.P.%XV w W.D.-X3X6XV.l r.kXuX>.0.bXtXcXtX*.- ",
"tX;.xX>.*.G -.wXu.x H.4X3X-XR./.w V |.G._.U mX%.E MX5.NXmXX.iXMXmXsXmX%.O.mX9.vXS K.P.%XN 9 Q.E.XX1X6XV.l e.| ;.tXtXq.5.xX;._ # ",
"tX..5.aX*.,.8X7Xx i b.5X1X-XR.Q.9 m |.L.P.Y cXVXsXvXNXcXmXNXmXxX-.vXmXNXq.mXBXzXS I._.%XN 9 E.E.XX1X6XC.l e.:.aX,.%.,.4.iX=...$ ",
"tX..*.cX5.$.qX| n n V.5X3X-XE./.w N |.L.L.Z Q 5.&.] -.) +.5.) E J Q +.9.%.X.-.) F K._.%XV w E.Y.XX3X6XZ.l u.:.| ^ zX5.2.6.O.{ $ ",
"tX..;.7.xXX.q.-.x i C.5X3X-XR./.9 N %XZ.W.w.A U Y U U R R U R R R R R Y U R U F Y _.F.%XV 9 E.E.XX1X6XZ.l e.9X{ ` mX8.3.5.) { $ ",
"q.Q %.iXqX5.qXqXr.i C.3X5X-XW./.e k L.{.P.}.T F R R R R R R R R R R R R R R R Y _.W.{.].k e R.E.XX4X5XZ.j e.kX,.$.$.8.2.5.^ -.$ ",
"tXQ &.sXjX,.jXwXu.j v.:X4X<XR./.q h q [.%XV.].T U R R U R R E R R R R R R R P L.H.{.#Xa d 9 Q.Y.;X4X&XZ.j e.:.7XiX3.3.5.9X[ 5.o ",
"fX*.%.+.7XmXaX<.e.j v.@X>X-XW./.u 9 h l [.[.Z.[.! A A A A A A A A A A A A F _.C.].XXj d e t Q.E.XX&X@Xc.j e.| >.7.fXcXq.3.3.-.$ ",
"iX9...W ..;.yX| e.j c.(.#X-XR.E.a.K.0 h i [.|.L.].i.p.p.p.i.p.p.p.p.p.i.i.L.`.[.{.k s e N.M.H.E.-X*X~.c.j r.7X@.@.@.=.@.o.5._ $ ",
"o . O o o . O . x j c.~.@X-XR.Q.l $XN.9 h i .X[.G.}.}.}.oX}.}.'.oX'.oXoX}.G.Q.{.m d 0 a.$Xm W.E.XX#X!.x.k p + o o X X   $ X o   ",
"^ { [ [ $.[ X.] x i c.~.@X}.R./.a m.$XN.e d j (.:X[.{.{. X X[.{.{.{.[. X[.#X[.v s e B.$XD.j R.E.|.#X~.x.j e. .[ $.$.$.[ $.$.^   ",
"cXxXhXhXuXuXrX] x i v.~.#X|.R./.> e D.$XN.l h j F.F.F.F.F.F.F.F.N.N.N.N.N.K.b s s B.#XD.j > T.R.XX*X!.x.j e.4.+.+.[ -.$./ ) E & ",
"bX7X9XhXhXaXrX .e.a x.~.*XXXR./.a k.k D.$XF.k g 0 8 6 6 9 6 6 6 6 9 6 6 6 0 h s B.*XD.v k.j R.R.XX*X!.x.r e. .E [ { 0X5.%.) ^ $ ",
"dXjXpXaXhXhXdXyXr.w x.!.@X-XR.`.a ^.C.z D.=XL.s M W._._.W._._._._._._._.W.j.e N.#XD.V c.^.j R.E.XX*X!.x.e e.] 6.xXaXsXhXxX{ %.o ",
"aXxXxX&.X.X.tX+.c w c.!.@X|.R./.e !.!.C.k D.$XN.V !.!.^.~.~.^.~.^.^.^.!.!.B a.*X!.M k.).~.l R.E.XX#X!.x.e c J Q U / ) { gX$._ & ",
"aXxXnX%.@.#.rX+.a w V.!.OX|.E.Q.w !.!.!.V.k D.&XF.M.OX!.~.~.!.~.!.!.!.).v.B.&XS.m l.!.!.!.j Y.R.XX*X!.k.r p  .+.Z Q Q $.pX+...% ",
"dXcXcX+...) -.] u 9 c.).@X|.E.Q.r ~.!.T.).j.V +XN.e M S.C.C.b.b.m.C.S.j.e A.&Xk.M ~.!.T.^.j R.E.XX*X!.c.a a | +.Z Q E %.fX[ _ $ ",
"aXwX8.1.) E Q +.u y V.!.OX-XR.Q.w !.!.T.!.S.a.#XN.l.z 9 e e e e w e e k l.N.$XM.v.~.!.T.^.j R.R.|.@X!.c.9 u J _ Q D P { :._ ..# ",
"aXrXgXxX6.W _ J y 9 c.!.#X|.R.~.> l.~.!.).n.V.OXN.g v.v.v.v.v.v.v.v.v.v.M M.@XC.j.!.T.~.x.t E.E.|.@X!.Z.y u } *.qX+._ +.O.=...# ",
"&.X.1.-.E F U F t q b.!.OX|.R.E.u.M.l.(.x.C.(.~.N M l.h.h.h.h.h.h.h.h.l.g.j E.OXC.j.^.v.V a.Y.E.XX@X!.Z.9 t / ) +..._ _ _ _ Y X ",
"  $ # * # * = % t q j.~.#X-XR.R.l &Xa.e v.~.^.b > h k z z z k k z z z k z 7 a (.~.V.i N %Xm H.Y.|.*X!.j.9 t # * = % - * & * -   ",
"iXxXtXtXsX9.sX7Xu w m h.T.-XC.#Xz.^.{.Y.~.^.v p %X X[.[.[.[.[.[.[.[.[.`.{.%Xu.j ^.!.Y.{.).M.{.C.|.!.h.k 9 u 9XtX9.9.sX8.sXtX-.X ",
"aXrXzX>.9.) yX9Xu a f M.N.L.b.OX|.B m.!.m.k.> c.!.T.D.D.D.D.D.D.D.D.D.D.T.T.C.t j.S.D.D.V [.OXb.L.Z.M.l 9 ~ 7X>.>.;.pX:.sX;...X ",
"uX#.pXtX*.{ 3.9Xu w a v.Y.B.B !.OX[.y > > : : > : , : , : : : : : : , : , : > : : > > t Q..X!.j.B.C.v.w w u *.fX3.rXzX3.8X;._ $ ",
"tX..-.xX} [ sX-.t w l 0 w Q.P.k S.!.Y.N.F.A.'.|.oXoXoXoXXXoXoXoXoXoXoX}.oXoXoX'.M.F.B.G.!.b.m H.Q.w 8 s e u ;.<.R { &.3.8.O.$.$ ",
"tX..;.tX8X` 0X;.< 0 w e M T./.N.p x n b a b >X&X:X&X&X>X&X&X&X&X&X&X&X&X&X&X$X>XB p n x x p B./.T.M e w 9 E aX&.[ VX8.4.8.` { X ",
"tX#.&.pX3.6.qXfX:.4 0 0 9 6 6 l.v.n.n.n.k.j h.f.f.f.f.f.f.f.g.l.f.l.f.f.f.f.f.h.j l.n.n.n.v.f.6 6 9 6 0 5 { nX{ [ { 5.3.5.E *.X ",
"tX%.| 8XjX<.qX0XhXZ 4 T I I I I 3 3 I 1 : < 1 I T ' 3 3 I I 1 : 3 4 ' T I I I I = 1 4 4 4 T ' I 3 I T I X $.aX7X<.3.3.{ q.[ ,.  ",
"uX%.<.-.jXjXiXiX:.< / yX:.yX9XlXwXqXeXqX# [ :.{ { 9XlXjXsX7Xo.# 1.:.6.yXjXlXwXqX3.[ ; 9.[ { ,.lXlX0XpXyX= $.>.7.9.sXnXsXqX3.-.  ",
"sX9.W Q o.9.yX9.rXZ ( gX=.@.O.;.:.o.6.5.$ [ iX..W W 5.rXyX9.%.X q.iX@.@.=.;.@.%.iX) D sX;.W Q *.tXuX7.9.= [ sXO.@.@.;.*.X.iX$.X ",
"D Z Y P L L L P D o - D L F D P L L Z < # * Z Z Y L L = < Y =   S Y Z Z Y L L L = = X Z L P P Z < = Z D X = D Y D Z L L L = < X "
};
