/* XPM */
static char *result[] = {
/* columns rows colors chars-per-pixel */
"64 64 248 2 ",
"   c #151B2B",
".  c #191D2E",
"X  c #141726",
"o  c #181F31",
"O  c #0C1D30",
"+  c #16212F",
"@  c #172232",
"#  c #1A2434",
"$  c #1C2639",
"%  c #1B2A3B",
"&  c #172A3A",
"*  c #10283E",
"=  c #3C2B2D",
"-  c #382426",
";  c #22253B",
":  c #3E2E31",
">  c #372E31",
",  c #29252C",
"<  c #221D29",
"1  c #422E2E",
"2  c #492927",
"3  c #542D27",
"4  c #4B312E",
"5  c #5B342D",
"6  c #55332D",
"7  c #412F31",
"8  c #433132",
"9  c #4C3837",
"0  c #543532",
"q  c #5C3B35",
"w  c #583B36",
"e  c #69372B",
"r  c #783C2C",
"t  c #643C32",
"y  c #693D33",
"u  c #6D3A2E",
"i  c #6C453A",
"p  c #6E493E",
"a  c #684238",
"s  c #744639",
"d  c #734A3D",
"f  c #7C4B3B",
"g  c #774334",
"h  c #7C4534",
"j  c #684C39",
"k  c #1D2C43",
"l  c #142D46",
"z  c #1C334C",
"x  c #18354A",
"c  c #1D3B52",
"v  c #0E344A",
"b  c #222C44",
"n  c #21354D",
"m  c #273648",
"M  c #353A47",
"N  c #253B53",
"B  c #273C56",
"V  c #423D45",
"C  c #19414C",
"Z  c #1B4352",
"A  c #1B4D5C",
"S  c #184658",
"D  c #19515E",
"F  c #17515E",
"G  c #0B495C",
"H  c #24435B",
"J  c #2A425C",
"K  c #234A5D",
"L  c #264155",
"P  c #2A4F57",
"I  c #1A4D62",
"U  c #1B5462",
"Y  c #1C5B6C",
"T  c #175768",
"R  c #1D5E71",
"E  c #165F70",
"W  c #0E596C",
"Q  c #2B4562",
"!  c #244D63",
"~  c #2A4A64",
"^  c #284A67",
"/  c #235365",
"(  c #24556B",
")  c #225C6C",
"_  c #29556B",
"`  c #235D71",
"'  c #2C5C75",
"]  c #2B5873",
"[  c #30516E",
"{  c #1D616E",
"}  c #1C6473",
"|  c #1B6976",
" . c #1D6C7C",
".. c #156B7A",
"X. c #1B717D",
"o. c #0F6173",
"O. c #22606D",
"+. c #236374",
"@. c #2B637B",
"#. c #236B7B",
"$. c #256779",
"%. c #23717E",
"&. c #484549",
"*. c #5C4C4A",
"=. c #525454",
"-. c #6B4C45",
";. c #644942",
":. c #774E41",
">. c #65534A",
",. c #7A5345",
"<. c #795648",
"1. c #6E5951",
"2. c #576661",
"3. c #834C3B",
"4. c #874A36",
"5. c #8C533E",
"6. c #86513E",
"7. c #93533C",
"8. c #9A563C",
"9. c #894631",
"0. c #A45A3E",
"q. c #855442",
"w. c #8B5541",
"e. c #875B49",
"r. c #9C5C42",
"t. c #945B44",
"y. c #A25D43",
"u. c #AA5F42",
"i. c #8E614E",
"p. c #95624D",
"a. c #9C624A",
"s. c #9A644A",
"d. c #9A6953",
"f. c #936C53",
"g. c #AD6344",
"h. c #A7664A",
"j. c #B26546",
"k. c #B46B4A",
"l. c #BB6D4B",
"z. c #B66847",
"x. c #BE714E",
"c. c #A36C53",
"v. c #AB6D52",
"b. c #AB765B",
"n. c #A97258",
"m. c #B37354",
"M. c #BA7454",
"N. c #B8795A",
"B. c #B26F51",
"V. c #AE7D64",
"C. c #C16D4A",
"Z. c #C2724E",
"A. c #CB764D",
"S. c #C37552",
"D. c #C67854",
"F. c #CA7B55",
"G. c #C67D5A",
"H. c #D37D54",
"J. c #4E9B4E",
"K. c #4CA149",
"L. c #57A74A",
"P. c #5CA353",
"I. c #6AB44B",
"U. c #7ABE4D",
"Y. c #75B84B",
"T. c #6FAD50",
"R. c #7DC14C",
"E. c #5AA040",
"W. c #98D73D",
"Q. c #87BD4C",
"!. c #B08066",
"~. c #B88467",
"^. c #BD946B",
"/. c #8DB464",
"(. c #92B665",
"). c #A5BB6F",
"_. c #CE825B",
"`. c #C6815C",
"'. c #D2845C",
"]. c #D38963",
"[. c #C8976C",
"{. c #D19A6A",
"}. c #DC946A",
"|. c #CB9974",
" X c #D69C73",
".X c #CF8762",
"XX c #DBA87A",
"oX c #D5BB76",
"OX c #E5AC7B",
"+X c #E49970",
"@X c #87C44A",
"#X c #98CA49",
"$X c #95CE4A",
"%X c #A2CE4A",
"&X c #A3CF45",
"*X c #ABD448",
"=X c #B4DA48",
"-X c #B2D754",
";X c #BAE14A",
":X c #B8E24D",
">X c #9AC267",
",X c #B3CE6D",
"<X c #C7E94C",
"1X c #CCED53",
"2X c #CBEC58",
"3X c #D4F258",
"4X c #D1F153",
"5X c #CBD76A",
"6X c #D5DC6C",
"7X c #C8DB76",
"8X c #D8F464",
"9X c #D5E670",
"0X c #E6EA6E",
"qX c #1B7484",
"wX c #1A7B89",
"eX c #197587",
"rX c #256D82",
"tX c #237384",
"yX c #237B8B",
"uX c #247687",
"iX c #247F90",
"pX c #1B8695",
"aX c #1A8491",
"sX c #24818D",
"dX c #248693",
"fX c #23919B",
"gX c #259CA2",
"hX c #26ABAF",
"jX c #1B9FA8",
"kX c #E5B983",
"lX c #D9C38D",
"zX c #D7C38E",
"xX c #D6DA91",
"cX c #EDCF8F",
"vX c #D9E492",
"bX c #FDEDAD",
"nX c #F9E9A8",
"mX c #FFF1B2",
"MX c #FBF4BB",
"NX c #FCF8BF",
"BX c #F7EFAE",
"VX c #E6EF99",
"CX c #FCFAC2",
"ZX c #FDF7C4",
"AX c #FDFCD4",
"SX c #FCFDE6",
"DX c #FEFDFA",
"FX c #FEFDF5",
/* pixels */
"& F A F A A A A U x X C D F A A A A U U %   A F F A A A S U A X & U F A F A F A F A X x D D F D A A A U & + F D F F A U F I A + ",
" .fX#.tX@.' $.) / H % uXO.{ } } } } T ! n Z dXX.sX$.@.@.tX( _ # ) wX` } } } } } / ~ % qXtXX.%.' @.$.Y _ m C wX{ Y } } } E ( ! & ",
"| tX .wXyXyXtXU ) L & uXL Z D qXqXD c N & C eXW ..X.X.qXT S I O T T x G T aXW S x x & yX} | wXyXyX$.A ` b S +.n U ) qX| I L N # ",
"+.wXaXyXyXyXuXrXtXH & uX/ sXuXdXdXsX+.G V e.-.;.>.>.>.>.>.>.>.a j >.i >.>.=.>.>.>.1.> X.tXsXyXsXyXuX$.tXn S tXI wXiXdXdXyXY +.# ",
"+.dXeX} ! / +.[ [ m & T x Z v c G  .G 9 C.l.t.d.f.p.p.p.p.p.p.d.p.p.p.p.p.p.p.i.a.A.a.P pXaXW S A ..^ ^ $ A _ N c H ! Y +.N ~ $ ",
"+.uXfX` Q Q ) _ J n + *.*.;.*.*.;.*.1.A.j.2 1.~.!.!.!.V.!.!.!.!.!.!.!.V.!.!.!.~.9 q C.h.2.2.>.*.;.=.1.M o S $.K b B B K +.N Q $ ",
"+.wXpXY B H ( ~ B k a 7.5.5.5.5.w.5.w.q.:.e.e.c.d.h.c.d.d.c.c.c.c.c.c.c.c.c.d.d.t.e.d 7.4.7.7.t.t.5.4.h - S qX` n N H ! tXU J $ ",
") qXqX{ H B B H x 5 4.i.<.e.<.e.e.e.<.: y.H.c.;.>.-.-.-.-.-.>.-.-.-.-.;.;.-.-.-.M.'.p V i.,.<.i.e.<.e.q.r M I J L z b A +.B ~ # ",
"+.qXwX#. .B H c 9 s f s.d.k.Z.l.Z.F.j.9 j.c.$ * v o.wXo.v v * v v v W E o.W l O M S.3.-.A.D.x.l.l.h.p.a.i y I _  .( N K ! ~ ~ $ ",
"U Y Y  .H n n v w f a 3.v.f j.g.g.k.h.9 l.e.l m %.hXfX#.#.gXK hXuXgX` hXhX$.n n m Z.:.y Z.j.g.j.8.e.k.a i a F ! ! H J H B J B @ ",
"X     & o @ + O 9 s s 5 y 5.z.g.g.j.g.9 j.i.x b tXgX( N z fXhXyX@.gXb uXyXb N z M x.f y l.g.j.j.g.f u y i a X + @ @   +   @ o X ",
"U qX+.+.X.|  ...=.i 7.3.s g.j.g.g.g.g.9 z.i.k n | hXhX( b #.hX! / yXb $.@.b n z M Z.:.a C.g.g.g.j.7.y r.i i ..%.+.+.tX%.qX#.+.@ ",
"#.tXsX@.+.K $.aX*.a 5.l.j.g.g.g.j.8.5.9 j.p.z b sXhXB N ! hXdXgX+.gX; dXdXb n n m S.s t r.y.j.g.g.z.j.j.i a { ' [ [ uX+.yXrXQ $ ",
"+.~ | X.A C | aX&.i 7.a.5.g.j.g.l.7.f 9 j.e.l k I jXjXuXY } l aX` %.o +.` k z l m S.:.t <.h.z.g.j.t.w.y.i i H @.yX$.#.| yX@.~ $ ",
"x = q &.=.=.P A 9 q a f h.6.l.Z.N.b.b.: 7.l.1.M M &.=.[ V V P &.&.V &.V V V &.V i.C.e ;.N.b.N.l.0.e.h.s i i ~ %.C / / | +.~ ~ $ ",
"5 g s.t._.Z.'.h.~.f.e.w p i h.-., = = 0 r 0.l.z.l.l.z.z.l.l.C.x.k.l.B.k.B.l.B.k.u.7.t 1 8 1 1 h.k.s y t i i _ O.x gXdX{ #.K { % ",
"5 s.,.h.q.,.u.x._.F._.`.D.N.c.n.e.q.,.6.3.4 4 1 8 8 1 1 1 1 1 1 8 1 8 8 1 1 8 1 1 w t.k.0.u.7.g `.7.t t.i i  .+.K O.O.%.+.n ) # ",
": 5.e.h.f p.a.F.x.x.l.F.'.F.Z.Z.S.D.G.f.lXlXlXlXlXlXlXlXlXlXlXlXzXzXlXlXlXlXzXlXlXlXcXcXXXj.l.7.c._.j.j.i i Y X.+.{ Y D qX! +.+ ",
": f <.l.2 a B.0 6 f f 6.r.a.h.m.S.l.z.D.cXNXCXNXCXCXCXNXNXNXCXCXNXCXCXCXCXCXCXCXCXCXNXNXnXXXj.y.n.'.j.g.i i J @.#.#.pXtXtX..| # ",
": 5.,.Z.8.B.a 2 t 6 5 5 6 2 6 0 q y a 8.XXbXCXCXCXCXCXCXCXCXCXCXCXCXCXCXCXCXCXZXCXCXNXCXMXnX{.r.n.`.k.7.q i | @.[ [ @.' / +.` # ",
": w.,.x.l.m.2 g f e r u r r r r e 5 3 6 {.bXNXNXNXNXCXCXCXCXCXCXCXNXCXCXAXSXSXSXAXCXCXNXCXmX{.y.b._.j.7.q i & % $ $ ; ; ; # $ + ",
": 5.,.S.x.v.t 6.t u d i f :.q 0 e a g 2 [.bXCXNXCXNXCXCXCXCXNXNXCXCXCXAXFXDXFXFXSXAXNXZXCXbX{.r.b._.g.7.t i v C C C C c C C C X ",
": w.<.S.D.h.a f e f G.G.G.G.m.m.t.e s 3 ^.mXCXNXNXCXCXCXNXCXNXCXCXCXCXAXDXDXFXFXFXAXZXCXCXbX{.y.b._.j.7.q i X.$.) ` ` +.` _ / # ",
"= w.,.M.D.v.f t u v.b.n.d.t.B.c.B.e a g ^.mXCXCXCXCXCXCXCXNXCXCXCXCXZXAXDXDXDXFXFXAXZXNXZXbX{.r.b._.j.7.q p U c J K X.Y N m N $ ",
": w.<.S.D.m.t e w.B.d.t.r.v.m.B.s.r.u g [.mXNXCXCXCXCXNXCXCXCXCXCXCXCXAXDXDXDXDXSXAXNXCXCXmX{.0.b.'.j.7.t i W / aXyXdXdXqX( R o ",
": w.<.S.D.c.2 s m.v.V l k k b b i.N.s 6 [.mXCXNXCXCXCXNXCXNXNXNXCXCXCXCXAXSXSXSXAXCXCXNXZXBX{.y.b.G.j.7.q -.c H H K / { +.H [ # ",
": w.,.S.D.v.5 r.m.<.l N N z z x &.m.s.3 ^.mXCXZXNXCXCXCXCXCXCXCXCXCXCXCXCXZXCXCXCXCXCXCXCXBX{.r.b.'.k.7.q i I Q ; B J ! $.B ~ # ",
"8 w.<.S.D.v.d B.p.M z n n z N n k e.M.g [.mXCXCXCXCXCXCXCXNXCXCXCXCXCXCXCXCXCXCXCXNXCXNXCXmX[.y.b.'.k.7.q i W ` x H Q ! #.T J # ",
"8 w.<.D.D.c.:.N.>.l N z n n N n z V m.w.[.mXCXCXCXCXCXCXCXCXCXCXCXCXCXCXCXCXCXCXNXCXCXNXZXbX{.y.b.].x.7.q i S Q B b z ! +.B Q $ ",
": w.<.D.F.c.:.N.*.z n N n n n n z m c.w.[.mXZXNXCXCXNXCXCXCXCXCXCXCXCXCXCXCXCXCXCXCXCXCXZXbX{.r.b.].G.r.w i I ^ | K n S ! ~ Q $ ",
"8 w.<.D.F.c.:.N.>.x z z n n N n z M n.6.[.mXZXZXCXCXNXCXNXCXCXCXCXCXCXCXCXCXCXCXCXCXCXZXZXbX{.y.V.+X].B.w s T _ ` ^ Q Q Q ~ H o ",
"8 w.,.M.F.c.:.M.*.x n n n n z n z m d.6.[.bXZXCXCXCXCXCXCXCXCXCXCXCXCXCXCXCXCXCXCXCXZXZXZXbX{.y.V.+X}.l.w -.X . . o   o o o   X ",
"8 q.,.D.D.v.:.N.*.x n n c n n n z M c.5.[.mXZXCXCXCXCXCXCXNXCXCXCXCXCXCXCXCXNXCXZXCXCXZXCXmX{.y.b.}.}.M.w d T +.) ) +.} { O.) + ",
"7 q.<.G.'.c.:.N.*.z n n n n n n z m c.6.[.bXMXNXCXCXCXCXCXCXCXNXCXCXCXCXCXCXCXCXNXZXCXCXNXBX{.y.b.}.}.M.w i ..rX[ [ uX$.yXuX[ % ",
"7 s :.e.e.c.f N.*.c n n n n z n z m d.w.|.bXMXNXCXCXCXCXCXNXNXCXCXCXCXCXCXCXCXCXCXZXCXCXMXbX{.r.b.}.+XN.w -.^ ' yXtXtX| yX@.~ $ ",
"7 f :.s q d.:.N.*.l n n n z n n z M c.w.[.bXMXMXNXCXCXCXCXCXZXZXCXCXCXCXCXCXCXCXCXZXCXMXZXnX{.r.b.}.}.M.0 i ^ rXK ! / | tX_ ~ # ",
"8 q.,.s :.d.:.N.=.z n n n n z n c b c.w.[.bXMXMXMXCXCXCXZXCXCXCXCXCXCXCXCXCXCXCXCXCXMXMXZXbX{.r.b.}.}.M.w p I ` m gXdX} #.Q { & ",
"8 3.,.q y d.d B.<.z n n n n n n z M v.w.[.nXMXmXMXMXMXMXMXZXCXCXCXCXCXCXCXCXZXZXCXMXMXMXBXnX{.y.b.}.+XM.w p qXrXC %.$.X.| N Y $ ",
"8 g :.q y d.t v.V.&.l N n z n n z <.B.u XX9XxXZXMXMXZXZXMXZXCXCXCXCXCXCXCXCXZXNXNXMXCXvX-X5X X0.b.+X}.B.w s ] rXO.O.{ Y  .K  .# ",
"8 y <.i.:.d.6 t.M.i.z n n n c x V M.t.2 ^.5XW.vXMXMXvXvXMXMXMXMXMXMXMXMXZXBXMXNXMXMXvX;XW.,XXX8.b.}.F.j.V f B rX%.yXaX .sX} | # ",
"8 y -.w.t c.;.5 v.m.>.& n m M m e.m.y t kX,X@X,XmX7X@X%XvXMXNXCXMXMXMXMX9X=X,XBXMXnX&X$XL.>X Xy.b..XM.g.q p } ' [ ] uXrX]  .$.# ",
"8 w.,.i.e.N.i.6 f m.d.b.c.c.N.N.B.w.e r.+X).L.>XcXT.I.R.$XVXVX7XBXMXMXxX*X#XR.vXbXvX@XI.J.).+Xr.b..Xk.g.q p Z H N N B B m B B o ",
": w.,.F.].v.h.e.3 s.B.b.`.N.h.k.M.e :.y.XX).J.(.xXP.J.P.L.,X:X*X9XVXBX7XY.P.Q.-X9X9X,XL.J./.XXr.b.G.k.y.q -.  @ @ @ # @ @ # @ X ",
": w.<.S.F.c.q.M.t t `.G.N.m.c.d.f t v.r |.7X&X:X1X-X#X%X$X:X8X8X8X8X3X8X9X2X2X8X2X8X3X:X#X5X}.8.b.].j.y.q :.o.#.) +.) ` +.` ) # ",
": q.,.S.F.v.4 j.p.5 a 0 6 6 3 2 3 f j.r |.0X1X2X4X4X3X3X4X3X8X8X:X*X:X8X8X3X3X4X8X8X4X3X4X0X Xy.b._.k.y.q :.I H c c } I x z n $ ",
": q.,.S.F.v.h 3.M.6.u ,.q.6.a.v.f s.7.7.|.0X<X1X<X1X3X1X2X2X2X2X<X-X=X1X1X1X4X1X1X2X<X1X<X0X{.a.b.H.j.y.w i W H  .#.sXyX$.A U $ ",
": q.:.S.D.h.r.4.a.h.f l.l.B.z.y.a.h.7.0. X6X=X=X<X1X1X1X-X-X:X<X1X3X1X<X4X4X<X<X<X=X<X;X*X6X}.0.b._.j.y.0 i Z /  .+.#.#.iX} _ $ ",
"7 q.:.S.S.h.t.j.g h.t.0.j.g.z.5.h.5.u.8.|.6X&X=X;X;X;X;X-X-X%X&X<X:X;X;X*X:X;X=X*X*X=X=X&X2X}.r.b._.j.g.w i c B k N N H iX$.B $ ",
": w.:.C.S.v.w.C.4.w.p.3.r.w.h e r.w.k.8.|.6X%X-X*X-X=X=X-X*X;X<X;X;X=XQ.P.Q.=X*X=X*X#XT.@X6X X8.n._.j.y.0 i T R k B Q ! tXR Q # ",
": q.:.S.S.v.r.j.y.r.h.9.5 e r 4.y.t.j.r ^.6X#X#X#X*X*X*X*X%X=X=X=X*X&XT.T.Y.*X*X=X&XE.P.Q.5X Xr.b._.j.h.0 t A ! n z n K rXS Q $ ",
": y :.S.F.c.w.z.y.a.t.w.y.y.r.9.w.u.4.3.kX5XQ.Q.R.@X%X#X%X@X%X%X&X&X&X&X#X&X&X%X&X#X#X&X&X5X{.0.b._.j.y.0 6 c H ^ c z S ) B ~ $ ",
": 5 :.S.F.v.q j.y.k.f r 9.r r u 0 u.q.y.|.,XI.U.R.Y.@X$X@XR.@X@X&X#X@XQ.Y.#X#X@X@XQ.@X@XR.,XXX8.n._.h.g.0 0 W (  .( Q Q ^ [ ^ @ ",
"= 5 -.S.F.B.p.s y.r.0 3.4.t.c.B.q.:.A.7.XX,XI.R.I.U.R.I.R.U.R.R.Q.Y.Y.Q.U.@XQ.U.U.Y.U.I.L.>X+Xy.n._.j.y.0 5 l b k b z b b k $ o ",
": e p C.S.v.g.a.j.s N.H.S.C.C.u.4.4 5 q.+X>XI.I.P.Y.R.I.I.I.I.I.I.L.L.T.Y.Y.I.R.Y.Y.U.U.K.,XXX8.b.'.u.7.0 0 x Z Z Z Z Z Z Z Z o ",
"= t p C.g.m.t.z.r.6 8.h e 4 - 8 9 :.:.k.XXQ.K.L.K.L.L.L.K.K.K.J.L.L.K.L.J.K.K.L.K.K.L.K./.oX_.r.n.l.f h 0 6 eXuX] ] uXrXiXuX] & ",
"= 5 a l.w.t.d.0 = = 4 V ;.d.c.M.G.].H.j.oX/././././././././././.(.>X(././././././././.(.cX'.z.8.e.p.v.y 0 0 I ] $.rXuX+.eXrXQ $ ",
"= e i u.g 7.a.c.i.G.D._.'.'.A.z.u.8.4.a [.OXXXOXXXXXOXOXXXXXXXXXXXXXOXXXOXXXXXoXXXOXOXOX'.x.j.h s.f 4.q 5 4 Q tX} ) +.X.X.] ^ % ",
": t 0 u.y q 0.A.D.M.z.0.9.h a g = , = f i.f `.].].].].'.].].].].].'.'.'..X.X].].d.f f f f f a h.F.g 2 e 5 1 ! #.k sX%...#.^ Y & ",
"2 5 3 4.g.7.j.8.9.u q 4 - = 2 5.6.f f f d q k.z.B.k.z.z.k.k.z.k.l.k.k.z.z.z.k.x.w.w f d d d i.7.6.f 5 6 3 Z yX+.Z dXsX| #.H T % ",
"> 3 3 2 e 5 5 L K ; - 3 2 3 2 e 9.h 9.h 9.6 a e e e e e e u e u e u e e e e e u 5 e 4.h h 9.g 2 - 2 2 3 < S fXX./ } O.|  .N ) $ ",
"Y m / / ..o.X.wXsXn # J P / / { T A F S $ % N C D U U F A K n . C N ! ! / Y U F v Z @ Z k F U ) D / ) P % Z @.$.| qXaX| qXY | # ",
"#. ./ !  .dXuXtX#.m x yX) ] +.aXdX#...wXn A yX_ K ! wXdXyXtX' $ +.rX_ ' @.pXyXX.qX+.% sX) ! K qXfXyXuXtXx S uX[ ] @.pXyX .wX#.$ ",
"U ) J N N J ^ ! Y n # | / J J J J B K _ $ x +.J B N J ! ~ ! / # U +.J J J J Q B / J @ { ( N m B ~ K ! ) m x  .~ J J J Q B ( K # ",
". . # @ # + . . .   . . . . o @ + + . + X + . . # @ + . . . .   X + . o @ @ . @ o . X . . o @ . . . . .   X . o o o . @ @ . o   "
};
