/* XPM */
static char *fdda3fbe55d9477bfbb9e4efc12169a0pbX0vV0rTJlxSlrb[] = {
/* columns rows colors chars-per-pixel */
"64 64 237 2 ",
"   c #161B2B",
".  c #191E32",
"X  c #0C1F37",
"o  c #14222F",
"O  c #0F233A",
"+  c #152533",
"@  c #1A2233",
"#  c #152D3B",
"$  c #19293A",
"%  c #15313E",
"&  c #3A292C",
"*  c #2A2A36",
"=  c #362D32",
"-  c #3B3638",
";  c #2B2F38",
":  c #452D2D",
">  c #4B2C29",
",  c #552D27",
"<  c #4B302D",
"1  c #54332D",
"2  c #5B332C",
"3  c #4B3332",
"4  c #433636",
"5  c #583A35",
"6  c #63362D",
"7  c #67392E",
"8  c #643C33",
"9  c #6C3E32",
"0  c #743D2D",
"q  c #5C413B",
"w  c #46403F",
"e  c #6C453A",
"r  c #68453A",
"t  c #744335",
"y  c #7B4534",
"u  c #724639",
"i  c #744A3D",
"p  c #7C4C3C",
"a  c #794739",
"s  c #7A4B34",
"d  c #0D2A44",
"f  c #1C2D44",
"g  c #162E47",
"h  c #1D334B",
"j  c #1C3B4B",
"k  c #183545",
"l  c #1C3C52",
"z  c #0E384B",
"x  c #222E44",
"c  c #21354C",
"v  c #23394E",
"b  c #273445",
"n  c #343945",
"m  c #243B53",
"M  c #273C56",
"N  c #323E53",
"B  c #433D48",
"V  c #1D4454",
"C  c #1D4B5C",
"Z  c #184659",
"A  c #1A525F",
"S  c #19414D",
"D  c #39444C",
"F  c #24445B",
"G  c #224A5D",
"H  c #284458",
"J  c #3B4B52",
"K  c #365157",
"L  c #1C4C61",
"P  c #1C5363",
"I  c #1D5A6C",
"U  c #1A5768",
"Y  c #195D71",
"T  c #244D62",
"R  c #2A4A65",
"E  c #2D4D6A",
"W  c #294763",
"Q  c #225265",
"!  c #23556A",
"~  c #26576C",
"^  c #2A5B74",
"/  c #275A73",
"(  c #31506A",
")  c #1D6474",
"_  c #1C6B7B",
"`  c #1A6878",
"'  c #1A727D",
"]  c #146674",
"[  c #236474",
"{  c #24657A",
"}  c #2A657B",
"|  c #236B7C",
" . c #286477",
".. c #256672",
"X. c #46585A",
"o. c #4E4748",
"O. c #6A4B42",
"+. c #744D41",
"@. c #7A5143",
"#. c #77564A",
"$. c #6E544E",
"%. c #456464",
"&. c #41615F",
"*. c #824E3B",
"=. c #894B36",
"-. c #944C34",
";. c #87513D",
":. c #97543C",
">. c #84432F",
",. c #A35A3E",
"<. c #8B5542",
"1. c #865846",
"2. c #9C5C42",
"3. c #935C45",
"4. c #805548",
"5. c #A35D42",
"6. c #A95E41",
"7. c #94624C",
"8. c #9B644C",
"9. c #9D654A",
"0. c #8D6451",
"q. c #916451",
"w. c #996953",
"e. c #8B624C",
"r. c #AC6344",
"t. c #A2654B",
"y. c #AD6A4D",
"u. c #A6654A",
"i. c #B26545",
"p. c #B66847",
"a. c #B56C4B",
"s. c #B96D4C",
"d. c #BA6A47",
"f. c #BC714E",
"g. c #A26C53",
"h. c #AB6E53",
"j. c #A16750",
"k. c #B16E51",
"l. c #AD7155",
"z. c #AA7459",
"x. c #B37253",
"c. c #BB7453",
"v. c #BB7A59",
"b. c #BA7D60",
"n. c #C5724D",
"m. c #C47552",
"M. c #C47955",
"N. c #C37C5A",
"B. c #CC7C56",
"V. c #C7744F",
"C. c #519A4E",
"Z. c #59A64D",
"A. c #59A451",
"S. c #64AB4D",
"D. c #6BB44B",
"F. c #7BBE4D",
"G. c #75B84C",
"H. c #75BA52",
"J. c #6DAD4E",
"K. c #7CC04E",
"L. c #93D03C",
"P. c #B0825B",
"I. c #8F8264",
"U. c #908264",
"Y. c #BC896C",
"T. c #AB916B",
"R. c #92B566",
"E. c #85BA4A",
"W. c #CC815A",
"Q. c #C5815E",
"!. c #D4845C",
"~. c #CE8963",
"^. c #CB8764",
"/. c #D28E6A",
"(. c #D68B65",
"). c #D7926C",
"_. c #CD946D",
"`. c #E0936C",
"'. c #CEBF7D",
"]. c #CFBD76",
"[. c #D9AF79",
"{. c #E3AD76",
"}. c #88C44B",
"|. c #98C94A",
" X c #99CE4E",
".X c #A3CE48",
"XX c #ACD34B",
"oX c #A7D448",
"OX c #B4DA47",
"+X c #B0D655",
"@X c #BBE249",
"#X c #B9E150",
"$X c #B4D270",
"%X c #C7E94C",
"&X c #CCED53",
"*X c #C8E956",
"=X c #D3F15B",
"-X c #D0F050",
";X c #D1C17E",
":X c #D7EE6F",
">X c #E1DB7E",
",X c #1D7483",
"<X c #1C7C8B",
"1X c #177886",
"2X c #1C7184",
"3X c #286D82",
"4X c #237283",
"5X c #237C8C",
"6X c #267889",
"7X c #1A8795",
"8X c #148390",
"9X c #24828E",
"0X c #238593",
"qX c #25949D",
"wX c #259CA4",
"eX c #26A6AC",
"rX c #25B3B6",
"tX c #D8BD81",
"yX c #DCC684",
"uX c #D2DD8F",
"iX c #E6C688",
"pX c #E9D687",
"aX c #FCDD9C",
"sX c #F2D48C",
"dX c #D5E48E",
"fX c #F8E297",
"gX c #FDDFA1",
"hX c #FCE9A8",
"jX c #FCF4BC",
"kX c #FEF9BC",
"lX c #FCF3B6",
"zX c #ECEBA9",
"xX c #FCF9C2",
"cX c #FCF9C6",
"vX c #FCFCD7",
"bX c #FEFDF7",
"nX c #FDFCE4",
/* pixels */
"  $ # # % % % # % #     % % # # % % % k #   o % # % % % # # k o   $ % # # % % % % k +   # % % % % % # % #   o k % % % % % % k + ",
"j 7X4X,X}  . .| / /   U ,X[ _ ` ` ` ` [ Q @ _ 5X4X4X^  .{ |  .v $ <X_ ) ` ) ` ` ) [ k S <X,X<X . . ._ { ~   ` <X) _ ` ) ` ` [ F ",
"V 0X) ,X4X| 4XU m R @ [ ! j V U 1XL l c v # <X` ] 1X,X,X_ Z L f z ,XZ Z Z ] ] Z l l f U 5XP ,X4X4X| P F W $ | C V Z Y ' C Z v c ",
"V 6X1X7X9X0X5X| <X[ . [ [ I 6X5XqX5X| P S - X.o.&.X.%.&.X.X.&.o.w X.o.X.X.%.%.X.o.o.* P 6X1X<X0X0X5X{ ,X! @ ,XP ) 5X9X0X5X[ I Z ",
"V 9X<X{ [ [ |  .E R @ / F Y L ! U ,X4Xz +.B.r.p *.*.*.*.p p *.4.4.*.*.*.*.*.*.p <.m.u.H <X0X4X[ / '  .E H @ { H P T [ [ 4XQ T F ",
"V 6X7X,XM W G  .W H @ H n n ; n n K H @.V.-.q Y.Y.Y.Y.Y.Y.Y.Y.Y.Y.Y.Y.Y.Y.Y.Y._.w.8 d.r.K 4X~ b b H ( N v $ { F c x F m [ F F M ",
"V 6X7X,XW E Q / M m * *.9.2.2.t.t.2.:.p.:.r q e.q.q.q.0.0.0.0.0.q.0.q.q.q.q.q.q.#.q i r.r.:.5.t.t.5.5.:.& + | _ F c R F [ ) G m ",
"V <X1X_ F m m F M * t *.+.r O.O.r r O.3 r M.B.g.g.g.g.j.g.g.g.g.g.g.g.g.g.j.g.w.x.!.7.4 O.r r O.O.r r i >.- Y Q F f m c | Q F m ",
"V | ,X[ _ F F F x t r y.w.x.c.c.c.M.M.r *.n.#.O O O Z Z d O O O O O d z d z # X b h.i.4 h.M.c.c.c.f.8.h.*.9 b T ! ! m m ! F E m ",
"V <X` 9X_ F m l b *.r a g.1.6.r.r.p.n.5 *.m.x f m qXrXeX~ qXm | | 6X{ eXeXeXG b d 4.d.3 r.f.i.r.i.;.h.<.e y D ` ~ | R R W E R m ",
"  @   k @ . . . * p r 8 =.i r.i.r.r.f.r p m.n f G rX~ F c qXqXeX~ rX! G rXF v v g 1.p.3 i.a.i.i.p.*.2.9 5 i = . @ . @ . @ @ @   ",
"+ A C C A A A A H a i *.< ;.p.r.r.r.d.5 *.c.n h m wXrX9Xx m rX5Xv 9XG F 9Xm v v g 1.p.3 u.i.i.r.i.5.2 t p a D U A A P P P A P j ",
"Z 0X5X} | `  .7X~ y e d.r.i.r.r.i.r.i.5 *.c.n f F rX| F x 4XeXeXF qXF F wXv v v g 1.p.3 5.i.i.i.r.i.r.p.<.t K <X^ ^ } 5X3X0X^ H ",
"C  .{ 7X( F P 7X~ t e p.3.r.i.r.i.:.t 5 *.c.b f F eXqX9XG eXF qX4XqXF H eXv v v g 4.p.3 e s i.r.i.r.3.r.;.t D ~ } 4X4X_ | 9X( m ",
"S H ; K H H P ] V 9 e ;.j.<.r.p.W.N.N.O.t s.O.g f l ` _ V k $ j V l f f l f f g b h.,.3 x.P.W.s.i.<.9.<.i t n { [ T G ) ` } R m ",
"* , =.<.g.c.z.4.#.4.r 5 t r ,.a.q 5 r 4 2 ,.B.h.g.h.u.u.h.h.l.h.h.h.h.l.h.l.l.h.x.s.=.= 5 o.4 3.n.p 2.9 r a B | S U wX! _ ~ P A ",
"6 p 7.<.p.1.r.n.W.~.N.x.8.g.0.0.q 1 1 t y 2 2 6 6 8 6 6 6 6 6 6 6 6 6 6 6 6 6 6 2 , 6 =.y =.y 5 x.y.1 8 i t J <XV ! 6X .' T Z G ",
"< 4.@.y.i g.;.n.B.n.n.B.!.W.m.m.N.x.Q.1.P.T.I.U.U.I.I.I.U.I.I.I.I.I.I.I.I.U.U.U.U.U._.{.[.d.d.6.<.W.5.i.<.t J <XU [ Q I ) ! P T ",
": t +.x.8 2 3.t.a 2.u.u.c.M.f.m.M.m.n.f.[.lXkXkXkXkXkXkXkXkXkXkXkXkXkXkXkXkXkXkXkXkXlXlXhX[.i.p.<.^.s.d.4.u B ^ 4X| ,X` | ,X) G ",
": i @.x.:.t g.: > 1 < 1 1 1 2 i @.3.<.:./.gXxXxXxXxXxXxXxXxXxXxXxXxXxXxXxXxXxXxXxXxXxXxXjXhX[.i.3.~.s.i.e t J { ( ^ 6X5X[ ) ,XF ",
"< i @.y.d.B.r , *.7 0 0 0 0 0 0 2 > 1 1 x.sXkXxXxXxXxXkXxXxXxXxXxXxXxXxXcXcXvXvXcXxXxXxXxXkXsXs.3.~.f.r.8 a D P M M M M v v F x ",
"3 i @.k.s.v.t t i 7 9 1 2 9 6 6 7 7 y > e.aXjXxXxXxXxXxXxXxXxXxXxXxXxXcXvXbXbXbXnXvXxXxXxXkXiXs.7.~.f.r.8 i =   + o + o + + +   ",
"< i @.k.m.M.u *.9 6 8.c.x.v.w.1.4.7 t 2 @.gXjXxXxXxXxXxXxXxXxXxXxXxXxXcXbXbXbXbXbXnXcXxXxXkXiXs.7.~.f.r.8 t K 1X[ [ [ [ [  . .V ",
": i @.k.m.M.@.u 6 *.v.z.g.8.x.x.c.a 6 t 1.aXjXxXxXxXxXxXxXxXxXxXxXxXxXcXbXbXbXbXbXnXcXxXxXkXiXs.7.~.f.r.8 t D I M M Q I m m v v ",
": i @.h.m.M.1.6 9 y.h.x.x.x.c.x.t.3.6 y 7.aXjXxXxXxXxXxXxXxXxXxXxXxXxXcXbXbXbXbXbXvXcXxXcXxXiXa.7.~.s.r.8 t K P ! 4X5X7X| ! P F ",
": i @.h.m.N.q 6 3.x.q.- - B O.O.@.c.<.2 j.aXjXxXxXxXxXxXxXxXxXxXxXxXxXxXvXbXbXbXnXcXxXxXxXkXiXa.7.~.f.r.8 a D C ) [ | | 6X! ~ F ",
"3 i @.h.m.M.8 9 x.h.o.d h g g d n l.h., 1.gXjXxXxXxXxXxXxXxXxXxXxXxXxXxXxXcXcXcXcXxXxXxXxXkXiXa.7.~.f.r.8 i n M c f F m [ F W m ",
"q i @.k.m.M.u 3.h.#.g m v v v m h #.c.a 1.hXjXxXxXxXxXxXxXxXxXxXxXxXxXxXxXxXxXxXxXxXxXxXxXkXiXa.7.~.f.r.8 u D 2Xm c R W [ ) T m ",
"q i @.h.m.M.i h.w.n h v h v h v h n y.t.8.aXxXxXxXxXxXxXxXxXxXxXxXxXxXxXxXxXxXxXxXxXxXxXxXkXiXs.7.~.f.i.8 a D I M f m v [ ! F m ",
"q i @.k.B.M.i l.0.h c v h v v v v g #.y.9.aXxXxXxXxXxXxXxXxXxXxXxXxXxXxXxXxXxXxXxXxXxXxXxXxXiXs.7.~.B.s.8 u n L R G c h ! F E m ",
"q i @.h.M.M.i h.0.v h h h v v v v h #.t.8.aXjXxXxXxXxXxXxXxXxXxXxXxXxXxXxXxXxXxXxXxXxXxXxXxXiXs.7.).(.B.e t D ) / _ W R W E E m ",
"q i @.h.M.M.+.h.0.h h h h v v v v h #.t.8.gXjXxXxXxXxXxXxXxXxXxXxXxXxXxXxXxXxXxXxXxXxXxXxXxXiXs.7.).).(.u i - g x f x x x f $ @ ",
"r i @.k.M.v.+.l.0.h v v v v v v v h #.t.8.hXjXxXxXxXxXxXxXxXxXxXxXxXxXxXxXxXxXxXxXxXxXxXxXkXiXs.7./.).).u i - z j j j j j k S # ",
"5 i @.k.B.M.+.l.0.h h v v v v v v h #.9.8.hXjXxXxXxXxXxXxXxXxXxXxXxXxXxXxXxXxXxXxXxXxXxXxXkXiXs.7./.(.`.u t K 7X} } 3X5X3X0X3XT ",
"5 e +.g.x.N.i h.0.c h v h h v h v h #.t.8.gXlXjXxXxXxXxXxXxXxXxXxXxXxXxXxXxXxXxXxXxXxXxXxXjXiXs.7./.(.`.u u J / ^ } 4X| | 0X( M ",
"5 8 i +.: 7.@.h.0.h h v h h h h v h #.t.8.aXlXjXjXxXxXxXxXxXxXxXxXxXxXxXxXxXxXxXxXxXxXxXjXjXiXs.7./.(.`.u u D ^ 4X[ ! _ ' 3XE M ",
"r e @.<.9 7.@.h.0.h h h h h h v v h #.u.8.aXlXlXjXjXxXcXxXxXxXxXxXxXxXxXxXxXxXxXxXxXxXjXjXjXiXs.7./.(.`.e e B 3XC T 6X[ _ ~ Q C ",
"O.e @.i 1 w.@.y.0.c h v h h v v v g #.y.9.aXjXlXjXjXxXxXxXxXxXxXxXxXxXxXxXxXxXxXxXxXjXlXjXxXiXs.7./.(.`.u e J 6XV I eX[ ' E C P ",
"O.8 i +.1 w.i 8.z.$.g v v v v v h n t.3.9.aXdXjXjXlXlXjXjXxXxXxXxXxXxXxXxXxXjXxXxXjXlXxXdX>XiXs.7./.).(.u t K 7XA ! ! | ` Q Q Q ",
"O.8 i @.5 w.t p v.w.b h v v v v f #.c.8 3.pXoXdXjXjXlXlXjXjXjXjXjXjXxXjXjXcXcXjXjXlXjXdXOXoXyXc.7.).(.W.u u D / ' | ' Y _ _ Y P ",
"O.1 r g.i 7.O.2 j.x.$.d g g g d n h.y.> w.pX}. XhXhX$XoXdXjXlXjXlXlXlXjXlXdX:XlXjXjXuXoX XF.tXc.7.~.N.m.i u J / ^ ^ 0X7X4X' ' G ",
"3 e @.@.5 w.w.2 t v.w.$.O.$.4.0.q.k.u 9 Q.yXG.}.uX$XD.}.oXuXjXzXjXjXlXlX:X@XL.;XlXhX$XL.Z.J.yXf.7.~.c.f.u t J | E R E ^ R T / m ",
"3 i @.x.Q.v.t.1.2 3.x.z.Y.b.h.l.x.3.1 2.N.yXC.S.uXR.C.A.F.+XuXL.>XzXjXzX|.G.J.|.pXpX$XS.C.C.tXf.7.~.f.d.u i =   . . . . . . .   ",
": i @.a.B.v.<.c.e 2 x.M.N.N.c.c.c.9 p 5.w.iXG.}.:X+XS.G.S.|.*X*X=X:X:X:X+X|.+X#X*X*X:X+XJ.J.tXf.7.~.s.a.u i D A G C G G C C A k ",
"< i @.y.M.N.5 5.w., @.w.i @.i 5 2 2 u.=.7.sX%X&X%X-X&X&X*X&X=X:X=X*X*X=X:X:X=X=X=X:X=X=X-X-XiXs.7.~.s.p.u a K ' G L I I L L F m ",
"< i @.y.m.M.i y c.1.6 > 2 2 7 p y y u.=.h.pX%X&X&X&X=X&X=X&X=X=X&XXX|.*X=X&X&X&X&X=X&X&X&X-XiXs.7.~.s.p.u t J C m C ) 1XP l j j ",
"< i @.a.m.c.3.=.:.x.9 y.l.l.k.f.3.t.;.:.h.pX%X%X%X&X&X=X&X#X#X&X&X&X*X%X&X&X&X&X&X%X%X%X@X%XiXs.7.~.s.p.u 9 J P ,X5X6X5X6X4XI G ",
"< i +.y.m.c.<.r.y y.<.:.i.i.i.6.3.y.;.r.h.pXXXXX@X%X%X%X#X+X+XXX%X&X%X@X%X%X%X@XOXOXOX@XOXOXiXs.7.~.s.p.u r n c F m T G | 5XR M ",
": i +.y.m.c.<.p.:.*.y.*.p.r.r.*.*.3.2.r.h.pXoXXXXXOXOXOXOXXXXXOX%X%XOXOXG.}.OXOXoXXXOX.X|.OX;Xs.3.~.s.p.u r D I v h W M [ ,XT M ",
": i @.y.m.c.<.i.r.*.h.a 9 8 6 7 3.3.5.,.8.pX.X.X.XXXOXXXXXoXOX%XOXOXOXE.A.S.|.OXOXOX}.C.A.XXiXs.7.~.s.a.u 8 D ` M f F m [ ` G m ",
"< r e k.M.c.<.i.r.3.h.:.=.=.-.:.;.i.:.:.q.pX.X|.}.|.oX.X.X|..XoXoX.XoX|.|.|..X.X.XoXE.G.}.XXiXs.7.~.s.p.u 2 ; Z H v h f _ F W M ",
"3 1 5 a.M.N.r 5.r.u.t.y :.:.=.>.2 r.=.a Y.iXF.F.K.F.}.|. X}.}.|..X.X X|.F.|..X|.|.|. X.X X XyXs.3.~.s.p.u 2 n U ~ ) m M T R E M ",
"3 2 8 k.m.M.4.;.:.a.t 7 y y a <.r u i.5.v.pXG.K.F.G.F.K.F.F.F.}.}.}.F.F.F.F.}.}.F.F.F.G.D.F.tXs.3.~.a.a.a 2 n U F Q F F F W F x ",
"3 2 8 a.m.c.y.<.;.5.+.g.y.x.N.B.m.8 :.=.k.yXD.H.S.D.F.G.D.G.G.F.F.G.S.G.F.F.G.G.F.G.F.F.D.Z.tXs.3.~.s.i.9 5 * . @ @ @ @ + @ +   ",
"3 2 8 a.p.M.2.d.s.t t.B.r.:.y 6 1 : & +.W.].Z.H.A.S.D.G.Z.Z.Z.Z.Z.Z.C.Z.S.S.S.D.D.Z.D.H.Z.R.{.s.3.!.6.=.8 2 K 1X . .{ ,X_ ,X| C ",
"< 2 5 y.r.3.w.a y & > : & 3 q r q.z.Q.d.`.R.C.A.A.Z.Z.Z.A.A.A.A.Z.D.S.Z.A.A.A.A.C.A.A.C.R.sXN.i.3.y.3.@.8 2 H 2XE ^ ^ 4X} 7X( M ",
"< 5 2 r.=.3.9.1.- $.#.8.l.^.!.B.B.V.n.=.P.yX;X'.'.'.'.'.'.'.'.'.;X;X;X'.'.'.'.'.'.;X'.;XiXW.d.6.4.1.i.*.1 2 n E 4X,X5X,X' 4XE M ",
"3 2 5 5.y 9 a M.Q.!.!.V.d.i.,.:.y 6 1 8 g.N.v.)./././././././././././././././.).^.x.v.v.x.r.5.t x.3.1 2 8 2 n 4XP V ! { ' ^ R F ",
"< 5 1 t 6.8 y.i.i.,.:.y 6 > : e r = 4 r r 3 9.!.W.W.W.W.W.W.W.W.W.W.W.W.W.W.B.W.M.5 5 q q 5 5 9.f.r.6 2 1 1 G 3XV ) rXI ' / P P ",
"& , 6 , =.:.=.0 5 : & > & : , 7 ,.,.,.:.,.p y -.-.-.-.-.-.-.-.-.-.-.-.-.-.-.-.-.-.8 :.:.:.:.,.y > 1 , > , @ 9X7XL ! [ | ' Q V G ",
"j - - - b n S I 1XI   4 4 - - - - 4 - - 4 & = = - - - = - - - & & - - - - - - - - = & = & - 4 - = - - 4 ; + 4X5X] ` ' _ ) ) ! ! ",
"C / P ) ,X7X<X6X4XR o Y Q ) { 8X8X1X] ] U + { C Y Y 1X1X_ 2X/ f z / ! ` ` 7X<X1X] ` k P U L Y ' 8X1X,X2XR + | E | { 7X7X,X,X,XG ",
"V <XR M M [ | { | !   ' | E E ^ } ~ Q ' R $ <X .M m T 4X3X} | v j 0X/ E E ^ } ( ) | * U 5XW m M { 4X| { / @ ,X| E E / } ( / ,XH ",
"$ j c c c x x x c f   k j c c c x c c c $   j c c c x x x x v $ @ V c c c x x x c c @ # j c c c x x x x f   j v c c c x x x x $ "
};
