/* XPM */
static char *_6dc40e98234491aa5f26ef9b0b12172[] = {
/* columns rows colors chars-per-pixel */
"64 64 243 2 ",
"   c #031B2D",
".  c #0B1E2E",
"X  c #021D33",
"o  c #0A1D34",
"O  c #051E3A",
"+  c #0B1F38",
"@  c #07222F",
"#  c #022235",
"$  c #0B2136",
"%  c #03243A",
"&  c #0B243C",
"*  c #02293C",
"=  c #0C293E",
"-  c #112234",
";  c #11243B",
":  c #152A3F",
">  c #0B2641",
",  c #032C42",
"<  c #0D2C43",
"1  c #0E2F48",
"2  c #072740",
"3  c #132C45",
"4  c #1A2D45",
"5  c #152E49",
"6  c #1B2E4A",
"7  c #152641",
"8  c #013244",
"9  c #03354A",
"0  c #003A4B",
"q  c #0C3B4E",
"w  c #0C3146",
"e  c #133146",
"r  c #14334C",
"t  c #1A344C",
"y  c #133A4E",
"u  c #1C3A4D",
"i  c #1D3143",
"p  c #0E3B53",
"a  c #0B3D59",
"s  c #153551",
"d  c #1C3452",
"f  c #133C54",
"g  c #1B3B54",
"h  c #153E59",
"j  c #1B3D59",
"k  c #202F49",
"l  c #22354D",
"z  c #26394D",
"x  c #223552",
"c  c #223C54",
"v  c #2A3C55",
"b  c #233D5A",
"n  c #2C3D5B",
"m  c #2B3752",
"M  c #303F5A",
"N  c #293F60",
"B  c #034053",
"V  c #0B4255",
"C  c #0D445B",
"Z  c #024B5C",
"A  c #09495D",
"S  c #144255",
"D  c #1A4256",
"F  c #15445A",
"G  c #1B445C",
"H  c #144A5D",
"J  c #1B4A5C",
"K  c #144856",
"L  c #08505F",
"P  c #244155",
"I  c #2A4156",
"U  c #24435C",
"Y  c #2B425C",
"T  c #23495D",
"R  c #2B495E",
"E  c #32435D",
"W  c #314057",
"Q  c #0C4C63",
"!  c #094A62",
"~  c #1C4561",
"^  c #144C62",
"/  c #1C4B62",
"(  c #164762",
")  c #0C5163",
"_  c #0D5A6B",
"`  c #065768",
"'  c #155265",
"]  c #1C5266",
"[  c #13546A",
"{  c #1C546A",
"}  c #135B6D",
"|  c #1B5B6D",
" . c #0E5D71",
".. c #145D72",
"X. c #1B5C73",
"o. c #1C5671",
"O. c #244561",
"+. c #2C4563",
"@. c #234C64",
"#. c #2B4B65",
"$. c #254E69",
"%. c #2C4D6A",
"&. c #324563",
"*. c #334B65",
"=. c #394B65",
"-. c #344D6A",
";. c #3B4E6B",
":. c #344667",
">. c #225166",
",. c #2B5166",
"<. c #23536B",
"1. c #2B536C",
"2. c #225A6E",
"3. c #2A596E",
"4. c #355165",
"5. c #33536C",
"6. c #39546C",
"7. c #35596D",
"8. c #3A5A6F",
"9. c #255671",
"0. c #2C5572",
"q. c #245C72",
"w. c #2C5C73",
"e. c #2B5C79",
"r. c #335571",
"t. c #3A5472",
"y. c #335B73",
"u. c #3B5C74",
"i. c #335D79",
"p. c #3A5E79",
"a. c #385678",
"s. c #354F70",
"d. c #16616F",
"f. c #0D6473",
"g. c #156373",
"h. c #1C6475",
"j. c #1D647A",
"k. c #156B7B",
"l. c #1C6A7B",
"z. c #166878",
"x. c #1A747F",
"c. c #236375",
"v. c #2A6275",
"b. c #23657A",
"n. c #2C647A",
"m. c #236B7C",
"M. c #2B6A7D",
"N. c #2B6876",
"B. c #346376",
"V. c #3B6376",
"C. c #33647B",
"Z. c #3B657B",
"A. c #336B7D",
"S. c #3C697D",
"D. c #33717F",
"F. c #226876",
"G. c #425971",
"H. c #42657B",
"J. c #426A7D",
"K. c #456477",
"L. c #1B6E81",
"P. c #156F82",
"I. c #1C7383",
"U. c #1A7686",
"Y. c #246D81",
"T. c #2B6D82",
"R. c #2A6680",
"E. c #336D82",
"W. c #3C6C82",
"Q. c #356E89",
"!. c #3B6D89",
"~. c #3B6782",
"^. c #247384",
"/. c #2C7284",
"(. c #24768A",
"). c #2C758A",
"_. c #247B8C",
"`. c #2C7A8C",
"'. c #277B85",
"]. c #337385",
"[. c #3C7385",
"{. c #327887",
"}. c #33758A",
"|. c #3C758A",
" X c #337A8C",
".X c #3B7A8D",
"XX c #3A7887",
"oX c #267D91",
"OX c #2C7D91",
"+X c #337D92",
"@X c #3C7C92",
"#X c #357791",
"$X c #426D83",
"%X c #496E82",
"&X c #456B85",
"*X c #437285",
"=X c #43758B",
"-X c #49738B",
";X c #427B8E",
":X c #4B7A8D",
">X c #4B7687",
",X c #527286",
"<X c #437C92",
"1X c #4B7D93",
"2X c #477A95",
"3X c #527E93",
"4X c #2A818D",
"5X c #23808F",
"6X c #3C818F",
"7X c #278393",
"8X c #2C8494",
"9X c #2E8699",
"0X c #2D8C9C",
"qX c #288796",
"wX c #348395",
"eX c #3B8394",
"rX c #328997",
"tX c #348599",
"yX c #3B859A",
"uX c #348B9C",
"iX c #3B8B9C",
"pX c #3B8A97",
"aX c #3A929E",
"sX c #37919C",
"dX c #398DA1",
"fX c #368DA1",
"gX c #3691A1",
"hX c #3B94A5",
"jX c #3C9AAA",
"kX c #438395",
"lX c #4B8294",
"zX c #43839A",
"xX c #448A9C",
"cX c #4B8799",
"vX c #4B8293",
"bX c #468DA1",
"nX c #4393A3",
"mX c #4897A8",
"MX c #429FB0",
"NX c #59A8B8",
"BX c #4AA1B5",
"VX c #67BCCA",
"CX c #6FCCD6",
/* pixels */
"0 c.b.j.j.c.n.v.n.q.n.n.q.A.u   , 3.w.v.h.h.c.v.w.C.v.v.v.V.P # * ] 2.N.v.c.n.n.n.n.n.c.N.v.T # # T ,.J y D N.N.v.v.J S J T R t ",
"T.eX X).eXT.E.n.A.E.n.v.q.B.R X 3.;X[.v.A.XXv.q.q.n.v.n.3.,.4.% K |.;XM.kX Xn.M.T.M.n.n.v.S.5.& r >X*XJ @.#.] ] 2.<./ D G g *.l ",
"`.wXzX..iX`.m./.T.].T.] h #.Y % C.E.0.G $.<./ q.n.9./ G g x v & ] @XeXj.}.yXY./.Y./.].q.p j :.& S [.C.@.r > * , 9 9 G U U c v l ",
"(.wXj.j.(.OXwX X+X}.X.[ 9.y.Y X n.}./ f F S H .X Xh.^ F g t n & ^ eX).` j.`.wXwXwX+Xb.^ <.y.-.& p |.>.p J G F v.E.M.S G j r t 6 ",
").wXP.gXtX`.`.`.OX+XyXeXzX=XU & w.zX9.9.xXpXeXyXuXtXyX@X2.Z.:.O / zX(.oXdXOX_.OX`.+X#XzX@XkXu.> p 1XC.^ eXnXeX X XwXpXbXn.G @.f ",
"}.+X0XU.k.+X+X+X X@XY.X.M.n.Y X C.E.( C.eXj.). X`.`.L.).] Z.-.% / #X9XqXk.`.+X X}.}.}.j.j.E.-.& f W.@.0.kXm.^. X X`.'./.v.<.<.J ",
"}.(.gXU.yXX.{ { ] n.@XX.3.5.v O w.v.r 6.P D @.@.^ q.kX{ J 5.*.# >./.tXoX9X^.{ { <.{ zXb.9.r.*.& q *XG #.,.w D <.<./ .XM.J T D T ",
"}.^.gXjXbXQ 9.1.$.>.;X2.y.6.v O y.B.g c l 6 U T O.F |.{ J 5.&.& >.].oXjXBXh.^ 1.5.G |.q.y.t.R = y W.T r c e g U +.f v.D.J T #.T ",
" X(.0XqX+X' 3.5.1.1.1X/ O.*.v O y.A.W.1.x t O.1.#.$.Q.9.( 5.:.& >./.7XqXfXj.<.5.r.#.=Xw.#.+.=.& g W.C.W.b 5 b +.:.j E./.] J #.T ",
" X`.gXgX+X' 3.1.%.r.*X$.O.+.v O y.~.W.y.d t #.O.#.~ |.M.C.+.;.O >..X8XgXdXX.>.r.5.+.-X0.O.-.v ; g W.A.C.#.5 b :.:.j n./.;XT G U ",
"/.`.tXtXwXA F j j j O.$.#.+.v o r.y.@.#.U t g b d j |.{ / #.=.& / .XrX7XyXX.a j b j j $.%.+.E & g J.1.T 5.g d x x s A.A.@.U g P ",
" XY.iXY.Y.@Xn.G O.%.%.%.+.+.v + r.3.@.#.,.T c d d #.1XH @.5.:.& >.].+X`.k. XE./ O.#.-.%.+.+.n 7 g V.@.,.1.@.g b b 5 =Xw.h t.U g ",
").m.M.eXh./.;X>.1.%.+.b n Y v O y.>.<.>.A.v.G b d N r./ r.5.&.% ] ].X.eXY.h.zX<.1.-.-.+.U Y E ; g y.@.3.2.].<.j b b 1.@.,.5.U g ",
".X;Xv..XkXXX=X@.U b Y n n n m & r.S.Z.@.D.XX5.*.;.-.#.u.5.6.E # / lXW.A.cXXX|.1.U b n n n n E ; g $XJ.w.v.;XS.#.-.5.#.5.5.6.U *.",
",.u.#.G [.v.R E v n M n n E m o Y +.6.Y T R &.&.=.&.=.=.E Y W - g 5.#.T B.S.#.R n E E E M M v ; 3 *.*.Y R 4.E &.=.:.&.:.E E Y l ",
"% X % # 8 8 # + + + & > O & ; - + & X % & X & + O & + & # $ ; - + O # * * 8 X & & O % & & - o $ & O X & # # + & % % # % & # & $ ",
", J G J H F F F K S F J F D : o & G S J S D G D F F F J F D u $ # h G J F F F F J J F F D D c # O y J K J D F D F H J K J J c & ",
"M.cX;X|.|.|.;X[.[.;X.X@X@X1XP   7.lX1X=X=X=X=X;XkX X@X.X=X:Xu.% S :XcX[.|.|.<X;X[.|.<X.X.X1XK.& w 1X;XXX|.=X;X|.<X.X.XkX;X[.%Xg ",
"}.).pX XT.] |.n.f C.@X X X[.P X E.@X|.<.>.>.2.E.@X[ l.xXw.,.&.% / .XXX.X}.[ n.;XF w.@XeXY..X,.2 G <XXXM.>.0.$.2..XT.[ cX].{ 5.d ",
").b.l.eXxXb.n.{ ( 9...yXT.w.Y # M.T.n.w.Q.Q.Q.].T.).(.iXC.r.;.& / XXq./.yX/.c.n./ >.} OX`.n.5.% F |.v.q.C.W.!.[. Xl.).].kXq.5.b ",
"}.R.$.w.zXh.q.^ M.b.wXyXq.0.Y X ~.T.{ .XzX].|.@XwXI.iXwXn.%.;.O / |.3.>.}.}.o.{ 2.N.^.nXQ.0.*.& F ;X{ E.1XQ.Q.@XwXz.(.eX}.3.r.d ",
"/.n.r.~ |.Y.zXX.M.`.l.T.9.r.n + ~.n.E.].A ) g.Z `._.z.).2.r.*.& ( W.5.#.Q.).@XE.^ {.z.+X9.a.:.& S <X3.<X>.C b.!  .rX_ eX9.3.%.j ",
"].C.%.b ;X].).A A }. Xm.0.-.m o Z.n.|.{ V [ '.k._ }.b.M.{ y.6.& / *X-.U A./.+XQ V c./.^.q.a.E - S XXv.=Xh C f.qX`  Xg./.<.@.y.S ",
"].n.-.O.<XT.pXpX| m./.T.0.t.v o ~.c.kX| ] N.CXNX} /.c.].H >Xu.# / $X6.U E.).).pXn.2././.q.r.;.; S .Xc.[./ v.aXCX^.}.h.].#.-.3Xf ",
"].n.r.G <X_ 8X'.L c./.T.9.r.I X N.6XeX| C H /.g._ /.j.].V @.6.X / =X5.T T.^.I.pX) | /./.X.q.6.& f 6X'.`.C ^ } /.Z  Xg.].@.t y.f ",
"|.q.O.~ zX+XuXU.`.eXY.+X<XC.P # A.6XnXh.].E.m.m.wXeXm./.9 y.6.% / =X%.j T.dX9XrXl.zXl.OX+X}.#.& S eXaX4X| }./.b.m.pXd.{./ U $Xp ",
"|.n.1.F X.g.qXU. .L.0XqXyX].D X A.}. Xg.g.l.h.g.b.) Y.iXB S.u.X @.*X5.@.c.L.P.9X} ..U.0XuXzX,.& p .X^.`.} m...l...h.Z bXq./ ;X0 ",
"}.v.$.W.@XwXdXoXOX8XhX7XOXn.U & S.n.c.pX).`.+XwXT.@X^.wX) v.u.X / |.@.<.].+X8XrX^.OX0XqXqX}.%.& F ;X| XX@X}. XyX`.^. X/.<X^ |.B ",
"/.T.>.@.e.{ }.bXyX(.Y./.j.q.Y X S.E.q.q.n.n.).mXbX X@X/.} [.6.# ] |.2.<.0.9.c.yXiX8Xk.^.Y.c.,.> p =X0.C.0.C.E.kXnXwX}.kXc.c.[.q ",
"].lXS.#.j h ^ n.<X<X<X|.;X-XI X B.1X-X1.r.3.q.M.M.n.^ ^ ].[.*.$ J lX;X3.U j f { XXeXzX<X[.=X6.& D 1X-Xu.r.r.3.v./.m.q.F q.[.y.s ",
"V.V.8.*.-.-.#.%.%.,.1.%.r.6.m . u.Z.u.r.-.5.y.1.1.,.t.-.,.5.E - g %Xu.5.:.&.6.5.1.1.1.%.y.u.*.; r %Xu.5.-.t.5.5.,.,.-.#.,.#.&.l ",
"& e = e 3 5 5 5 3 r < 3 3 7 - o = < < < 3 5 1 1 r 3 3 3 < < 4 o $ 3 < 3 5 6 7 3 r < r < < 3 : $ O > < e e 3 3 5 3 3 3 4 = < 3 $ ",
"# # * * # * * # % * * * * # . - X * * , # * * * * * % * * % $ o o # % * * * * % % * * * * % $ o X # % # * % % & * % & % * * # o ",
"S *XW.W.[.E.*X$X*XW.W.S.J.,XI   g *XJ.S.$X$XZ.S.S.J.V.Z.H.J.=.& : 7.=X[.W.|.*X*X*X*XS.W.J.,XG.; & 4.J.S.J.*X%XV.Z.S.H.H.J.J.K.4 ",
" X.X<XE.wXm.X.v.2.n.n.q.O.6.Y # B.[.W.1.y.W.3.3.<.w.5.5.Y Y Y = @.lX.Xm.+X}.q.q.q.v.n.A.$.5.:.& h W.S.3.3.$Xy.1.<.q.r.5.@.U E l ",
"^.wX@X..rXrX X.X@X@Xb.^ S #.Y X v.N./ p H H C n.n.9.p f t e I & H kXyXf.^.wX#X.X.X.XQ.{ C G :.> f =X2.H C C S q.m.b.( f j r v k ",
"`.wXz._.8XoX`. X`.T.R.T./.E.b % v.|.@.J | l.l.pXiX`.R.{ J T I * ^ eXI.k.oX`.`.`. X XT.m.T.].r.& p =Xw.C } z.g.+XiXtXb.q./ @.U g ",
"^.wX8XhX_.OX+X X+X+X}.#XeX.Xb & B.;X<.w.cXeX`.8X8XOX#XzX^ *X*.& ^ eX(.uXtX`.+X+X X+X}.}.@X<X5.> f =XZ.] zXiX+XwXrXOX).bXw.y.&Xs ",
").OXfXk.L.).Q.[.E..XQ.{ 3.y.n o C.C.f u.Z./ ]. X).+X).Y.q.3.*.& /  XuX_.f.).}.].}.]..X9.@.u.&.& s -XU ,.=X] n.E.Q.].eXM.q.@.r.d ",
").l.gX8XnXQ / / H { <X<.y.5.v + p.i.s 5.r r F C C ! #X).9.$.*.& J  X`.rXmXm.C / / F .Xv.r.;.*.& s $Xj U O.1 f j G 9 /./.<.@.5.t ",
"}.Y.8XhXiX[ 0.r.3.<.=X>.1.5.c O p.i./ S u t U @.O./ @Xj./ ,.*.& / ].`.aXmXj.<.5.y./ |.v.3.%.*.& s J.@.G c 6 d :.+.G n.].>.T 5.t ",
"}.`.uXrXyX^ 0.5.1.0.-X@.T +.v O i.!.:Xy.u 7 Y R +.O.<Xn.0.#.-.# / ].rXrXuXh.$.t.r.@.;Xq.~ #.R & y W.S.$XY 6 n &.&.j A.M.S.T 5.t ",
").`.uXdXyXA $.#.+.+.p.%.#.+.v + y.A.C.#.c 4 v n b ~ ;Xn.y.b ;.> @..X4X0XuXX.O.:.#.U y.3.#.+.E & f S.w.1.U 5 n n +.s M.{.~.U -.x ",
"`.+XiXU.+Xq.F j b d O.+.%.+.m + y.n.#.#.#.t t x t h ;X] s *.-.& G |.8XqX8XY.~ j j s j #.-.&.E & s Z.@.@.1.h d d d r ].M.F U -.l ",
"`.g.tX`.g.kXE.@.5.-.-.:.+.+.v O y.<.U #.1.@.c Y U %.*Xp 1.u.:.2 / ].I.rXg.}.<X3.5.-.r.%.+.&.v & g p.G @.<.w.j b N b =X2.G r.5.g ",
"/.}.X.zX/./.;XJ O.+.+.n b Y m O y.1.5.@.W.=X#.b b +.G @.5.5.:.& F <Xb.).eXb.kX<.O.#.+.+.n n Y & t H.%.3.w.;Xr.O.N U ~ @.r.5.t.r ",
"E.|.v.n.bX/.B.T U n n n Y Y m o 6.r.u.@.C.W.r.t.t.t.5.5.6.*.E ; T :XC.c.yX XA.1.U Y b Y +.v E ; d &Xp.<.3.W.u.-.t.5.t.5.-.6.&.x ",
"f f f q q.H y g u c c t c l k o t g g h S F j g b b b c c c l - 3 P y q ' c.9 h g g c g g l l $ & Y y S y D g U b b c b U g x 4 ",
"X # # # # % % X # # # X #   - . # X # # X # * X # X # # # X o $ $ X X # # * X # X # # # # X $ $ $ X # @ # % X # # # X X X # # # ",
"D Z.S.B.S.Z.V.V.B.S.B.Z.Z.H.z   y J.J.Z.J.H.Z.S.Z.S.S.B.Z.%X6.+ = 8.J.V.Z.S.Z.V.J.V.Z.B.W.S.4.$ # 7.Z.S.J.H.Z.S.S.S.S.Z.J.J.K.e ",
"E.@XeX].A.w.|.|.2.[.kX/..X;Xu # A.;X=Xy.y.Z.y.W.1XM./..XC.u.5.> / lX<X].M.c.Q.1X<.w.@X X/.kXu.$ h >X:XW.y.u.Z.B.kX].N.;XE.v.p.b ",
"}.T.`.eX@X9.].T.B X.m.pXT.W.Y X A.#XQ.q.<.{ 9.n.].j.k.bXn.1.-.& / .XM..XwXm.c.|.H ^ h.wX`.|.5.& f [.[.C.0.0.<.9.).m.h.kX<X3.1.s ",
"Q.n.] M.zXb.{ ] c.j.z.iXn.5.P X C.M.] T.iXpX X@X).^.rX`.A.%.-.> / |.@.q. X X{ >.' m.h.).@X<.*.& p ;X<.2.|.kX@X@XwXz.wX`..X<.5.g ",
"E.n.0.>.@Xm.[.9.b.l.`.wX0.t.Y # W.n.b.yXz.g.^.g.+XI._.wXq.r.:.& / *X1.<.M.).w.n.|  Xh.zXe.1.*.= S ;X] |.].X./.l.^.wXz.pXn.1.,.h ",
"}.q.0.J @X^.@XQ |  X^.M.1.t.v O C.n.}.b.C [ g.! .. Xh./.{ ,.%.2 / *X5.J X. X@Xc.^ E.).R.0.r.&.& p |.q..XJ C h.` Z eXg.].3.$.1.f ",
"T.A.%.~ @X/.).h.^ n.}.T.0.5.v X W.b.}.X.( 9.NXmX| Q.c.]./ *Xu.# / $X5.@.n./.+Xb.2.{ /.).0.s.-.& S |.c.].h $.`.VXj.T.j.}.@.5.:Xf ",
"T.A.%.O.2Xj.+XyX' M.}.T.1.5.Y X ]./.wX| { n.NXmX[ /.h.E.H 3.7.* / W.r.G n. Xz.mXn.{ ).).9.r.6.& f .X^.`.H w.`.VXj./.j.].,.+.S.f ",
"].n.%.G <Xb.`.g.| }.`.Y.n.y.I X N.wXnX} ^ ^ ) ) X.).b.].0 ,.4.% F |.%.~ M.+XL.`.B M.^.^.T.C.#.2 f .XiX4X^ ' ) _ Z  Xh.].@.g V.q ",
"E.n.y.F }.(.rX`.`.`.I.qXrX].c $ A. XpXd.}.].}.m.#Xb.^.].9 S.G.X / [.0.H X.+X4XsXl.`.k._.aXeX%.= f kXwX`.h..X].)./. X) <XF @.>Xq ",
"Q.n.w.C.b...rXI.` x.uXP.uXM.c X S.b./. X| h.h.l.....g.eXA B.6.O G W.w.n.b.j.U._._ f._.U._.xX,.& f .Xd.eXb.X.b.Y.g.g.} ].E.C =Xq ",
"T.M.^ A.2X}.yXMXgX7XL.OX}.w.U O ~.E.{ Q.<X#XuXMXuXdX+X(.z.M.u.O / =X^ q.2XQ.).nX8X_. .`.+Xq.#.> f ;X{ n.;X<X@XmXjXqXhX X/.| |.p ",
"T.].w.( ( C ! `.wX`.+X#Xe.Z.Y X S.;X~.9.<.{ j.tXtXY.X.h./.6X5.O J =XC.>.( a a o. X/.@X2Xe.~.5.& f ;XW.0.0.9.o.).rX8Xm.m.m.kX~.p ",
"A.=XS.5.#.O.$.<.C.C.A.e.&XH.v X B.<XW.1.y.y.0.0.0.r.$.>.A.3.R & T :XJ.y.,.#.%.@.w.C.C.i.C.-X4.& y lX$XB.0.5.r.r.1.3.3./ y.Z.6.t ",
"V F g c b Y b b j g f h j g i   S H D G b b b U n b U j y u l $ w J D g b U b U h D h j F f u $ = J D D h U b b n Y U G g t v 7 "
};
