/* XPM */
static char *_1945ab3735c4c12dd15baf32f002f79lpYNcL8OufXiFprz[] = {
/* columns rows colors chars-per-pixel */
"64 64 194 2 ",
"   c #131425",
".  c #131629",
"X  c #141B2D",
"o  c #161E32",
"O  c #191D34",
"+  c #1E1F38",
"@  c #152435",
"#  c #192136",
"$  c #152837",
"%  c #162638",
"&  c #1B253C",
"*  c #162A3B",
"=  c #1B293E",
"-  c #20253E",
";  c #172E40",
":  c #1D2B42",
">  c #1F2F48",
",  c #173545",
"<  c #193445",
"1  c #173847",
"2  c #1B3847",
"3  c #1C354A",
"4  c #173A4A",
"5  c #1A3A4A",
"6  c #1D3D51",
"7  c #202740",
"8  c #212D45",
"9  c #222E49",
"0  c #23334D",
"q  c #29334F",
"w  c #22394E",
"e  c #243651",
"r  c #293653",
"t  c #253A54",
"y  c #293A55",
"u  c #263E59",
"i  c #2A3E5B",
"p  c #303F5D",
"a  c #164354",
"s  c #1B4354",
"d  c #1B4857",
"f  c #1E4559",
"g  c #1C4A5B",
"h  c #19515F",
"j  c #244157",
"k  c #294157",
"l  c #24435B",
"z  c #29425D",
"x  c #224C5E",
"c  c #29485F",
"v  c #1D4D61",
"b  c #1D5363",
"n  c #1C5A66",
"m  c #1D5768",
"M  c #1E5B6B",
"N  c #264761",
"B  c #2B4562",
"V  c #254C62",
"C  c #2C4A65",
"Z  c #274E68",
"A  c #2E4D6A",
"S  c #314463",
"D  c #314966",
"F  c #354768",
"G  c #334D6C",
"H  c #384C6D",
"J  c #225264",
"K  c #2A5066",
"L  c #25546A",
"P  c #2B536C",
"I  c #235B6D",
"U  c #2A586E",
"Y  c #31516E",
"T  c #384F70",
"R  c #2E5571",
"E  c #245D72",
"W  c #2B5B74",
"Q  c #2D5E78",
"!  c #345372",
"~  c #395576",
"^  c #325A76",
"/  c #345D7A",
"(  c #1F606E",
")  c #1E6372",
"_  c #1F6876",
"`  c #1E6D7C",
"'  c #177079",
"]  c #1D727E",
"[  c #21616F",
"{  c #236374",
"}  c #296276",
"|  c #216876",
" . c #256579",
".. c #2C657B",
"X. c #246B7C",
"o. c #296A7D",
"O. c #32627D",
"+. c #21707E",
"@. c #1D7582",
"#. c #1C7A85",
"$. c #1E7C8A",
"%. c #2F6780",
"&. c #266E81",
"*. c #2C6C83",
"=. c #2D6F88",
"-. c #336681",
";. c #346B85",
":. c #396A85",
">. c #346E88",
",. c #247384",
"<. c #2B7286",
"1. c #227A86",
"2. c #267689",
"3. c #2C748A",
"4. c #247B8C",
"5. c #2B7A8D",
"6. c #317087",
"7. c #32738B",
"8. c #38708B",
"9. c #31798E",
"0. c #267D91",
"q. c #2D7C92",
"w. c #2E7D93",
"e. c #2D7D92",
"r. c #2A7F94",
"t. c #2E7E94",
"y. c #2D7E94",
"u. c #2C7D92",
"i. c #327C93",
"p. c #1D828E",
"a. c #1D8190",
"s. c #1E8594",
"d. c #1E8895",
"f. c #1F8E9A",
"g. c #1D919D",
"h. c #21808F",
"j. c #208190",
"k. c #258192",
"l. c #278596",
"z. c #248494",
"x. c #2B8195",
"c. c #2B8295",
"v. c #2A8195",
"b. c #2C8094",
"n. c #2A8496",
"m. c #2D8497",
"M. c #2B8295",
"N. c #208996",
"B. c #278498",
"V. c #268798",
"C. c #2A8699",
"Z. c #28879B",
"A. c #2B8599",
"S. c #25899A",
"D. c #208F9C",
"F. c #258C9D",
"G. c #258B9B",
"H. c #2B889B",
"J. c #298B9D",
"K. c #2A8B9D",
"L. c #2A8A9E",
"P. c #2B8B9C",
"I. c #318497",
"U. c #318195",
"Y. c #318298",
"T. c #318499",
"R. c #31889A",
"E. c #31899C",
"W. c #21909F",
"Q. c #23929E",
"!. c #1E94A1",
"~. c #1F9BA5",
"^. c #258FA0",
"/. c #248FA1",
"(. c #2A8FA2",
"). c #2E8FA2",
"_. c #2B8EA1",
"`. c #2391A2",
"'. c #2294A2",
"]. c #2493A3",
"[. c #2A92A3",
"{. c #229AA7",
"}. c #2398A6",
"|. c #2099A9",
" X c #259BA9",
".X c #2A9BAA",
"XX c #3194A6",
"oX c #27A0AC",
"OX c #28A4AF",
"+X c #24A5B3",
"@X c #24ABB5",
"#X c #28B1B9",
"$X c #2AC2C6",
"%X c #2BD1D9",
/* pixels */
"; ,.,.,.,.&.&.&.o.o.3.} . 5 ,.X.,.2.X.X.X.o.o.,.L . g 2.&.,.&.&.o.o.o.X.<.6   b 1.X.,.,.o.X.X.X.o.,.6 X { ,.,.,.&.o.o.X.X.<.X.@ ",
"b ).5.<.u./ O./ &.M B P o } 5.U W ..P Q Q P C z l @ ,.(.%.5.;./ O.O.X.l C u % 3.&.P } W U  .E L z z 0 , H.l.%.x./ / / o.{ z P : ",
"V P.X.&.l.x.r.x...V L Z o } %.0 j j E j.E u t 0 y % &.k.I 4.n.M.x.5.L V U u % 3.J 0 l j ` $.b j y e 8 , m.,.E k.x.u.x.&.V V P = ",
"V I.$.|.5.t.y.y.y.u.W.} o } 5.Z `.L.A.L.x.C.&.} L o <.2.a.L.5.t.t.y.w.V.S.u @ w.{ W }.C.L.L.u.L.Q &.0 < R.` F.e.y.y.y.5.e.F.<.& ",
"V Y.^.O.<.&.&.,.5.G ^ P # W P Z 2.L X. .2.3.I L P o o.L.5.O.,.&.o.4.O.G / y % ;.z X.} U &.X.<.I g m s 5 E '...%.&.&.o.5.! ! ! = ",
"J 7.J..X{ z C l 2.~ ! C o W A t 0 : l u g 5.i B D @ o.w.].W.l C z L 3.G ! t % ;.i i : 0 z 0 g x 5 j s 2 < _  X@.u A u +./ ! G = ",
"J 7.C.[.E G ~ C 3.G C C @ U =.} 0 0 C C V <.L C C @ o.5.[.S.V ~ G E 7.B A y % -.&.L : 0 l b m W V G 0 , { s `.X.D / D ,./ z C = ",
"J i.G..XI B A z  .C B B @ U =...y : B z l ,.,.Z B @ o.r.[.S.z A B J ..z B e % -.&.W 8 , b u I u.X.C e 5 o.g /.X.i A z { P z B : ",
"V i.G.3.X.j t t i A C B # U I B C 0 0 0 f 5.i C D @ ..C.x.3.L t t t B A B e * ..x B l v 0 8 | %.y Y 0 2 ..g 3.,.x t e u C C z : ",
"J ;.4.<.%.k.C A A B z z # P Z A Q } u u V E B ! C @ ..%.l.W x...C A A z B 0 $ W C B d 6 l t L J C ~ 0 2 } g &.O.S.A A A B z z : ",
"J P.o.Q.u.0.B z z z z B # U 3.W &.j.P A G G ! ! C o 2.y.&.S.u.X.i N l l B e % *.&.f b ..A A A G ! ! 0 2 ,.s j.k.4.L i z z z B : ",
"< l y x E e e 0 0 0 0 0 o 3 l t t t y y y y y t 0 o u l 0 ( V e 0 e e e t : @ t 0 s 3 y y y y y t e = % f s < ) e e 0 0 0 0 0 % ",
". @ % $ $ % $ $ % % % @ X X % % % % % % % % % $ @ . X % % $ $ % * @ o o o X   @ a h % $ % % % % % $ @   % g @ $ % % $ % % % % X ",
"5 M.5.;.<.5.3.3.5.<.x.} . J m.3.7.7.7.5.3.3.<.7.W . 2 4.&.%.<.u.,.d 4 4 a a d b l } 5.3.3.5.<.3.=.7.j $ I v o.<.3.3.&.5.3.u.,.% ",
"J Y.y.5.! w.} C 5.r.n.W o o.H.O.H G ! 5.~ 3.l.G D o { <.4.7.! M s l E ) { u 5 M l G G H / 5.G n.3.H 0 5  .d 4./ O.+.y =.C.y.o.& ",
"J -.^ S.3.! V J { F.O.A o  .O.^ y.5.5.4.X.x.V.! A X &./  .#.I t l E 4.J./ y @ | f W u.3.x.2.&.C.2.! 0 2  .g h.x.G C L } S.=.Y : ",
"J :.S ..3.%.L ,.1.5.! G o o./ x.} I P o.@.4.=.G C X o.~ l d I &.I ,.4.=.! y * X.g V.L I V 5.@.N./ ! 0 2 X.s V 3...I 2.1.0.^ Y : ",
"J :.B E t.1.w [ 4.O.! C o ..:.,.0 I k.L ,._ ~ U L X X./ z  .u.X.t ] 1.^ ! t $ | b I t { X.U @. .G } e 2 X.s l e.k.x J #...! Y = ",
"J :.S } 3.u.3.J 1.O.Y A o ..:.X.f $.%XX.X.` ! I &.X X./ z <.%.l.! | 4.^ ! u $ | g L b Q.$XI ] &.S @.l , X.6 l 3.3.u.c ] %.! ! : ",
"J :.i } 7.u.E { 1.*./ G o X.[.,.C L I P 1.` C f W X X.^ i 4.;.L z 4.1.-.^ y $ | g I K L L } $.*.r I u , X.6 l w.7.X.V @.%.O.! : ",
"J O.l L 2.l.` | $.^.Q.P o o.R.4.E X.{ o.I ,.W I } . X.R u } 1.E ) ` $.[.S.e $ | g ) { X.} 2.M 4.j ,.j , X.a l j.$.$.) ` S.`...& ",
"J O.L 4.&.D.,.X.S.u.3.Y o ..~ 3.2.*.4.1.&.3.4.m Q . o.! ) ,.,.| I 1.G.t.3.y $ { g 4.&.&.a.&.&.u.| X.u , X.s U  .E 4.E j.x.u.W = ",
"x 7.U U V I [.(.3.<.O.Y o } ;.! / / 5.}.5.2.X.,.U . o.;.Z L V E h.2.3.%.O.u $ X.s Y O./ F.F.<.2.1.z.e 2 X.s L m e j.F.3.3...R = ",
"x A.%.A z z Q 3.3.;.5.W X } H.O.Y ! Y ! ^ B W <.G X o.C./ B z C =.3.3.%.y.l % X.s G ! ! ! ^ ! C o.%.0 * b l P l z P 3.3.=.<.o.= ",
"% 8 : : 8 : : & & & : = X : 8 : : : : : : : & & : X : : : 8 8 : & & & 7 8 & X , f 8 0 8 : : : 0 7 0 6 b * & : 8 8 8 - & & : : @ ",
"X ; 1 1 1 2 2 2 1 2 2 , X X , 1 1 1 , 1 , , 2 5 = X X , 1 1 1 1 4 4 , 4 2 % . % b < @ 5 4 4 , $ , g v @ $ 1 1 1 2 2 4 1 4 4 1 X ",
"s P.M.M.i.:.;.;.<.o.*...X J H.<.3.b.%.%.*.*.....U X I A.5.P.7.;.;.;.3.%.7.l X 2.,.g g E E { M f g V e * 5.u.y.M.:.;.-.6.<.%.;.= ",
"J P.2. .x.;.=.=.X.f r C # } %.l j j V E L y e 8 t @ &.G.W 2.3.=.;.=.I 0 i u % 7.W e % o * , 1 y t r 8 1 A.z.W j.%.%.%.&.L q B : ",
"V U.{ z.u.r.r.r.=...4.W o } 3.u L I ,.`.4. .Z l l @ =.u.) 4.u.M.M.w...X.3.u @ 3.L u &.} 4.N.X. .l 5 : < R. .2.4.u.r.x.3...2...& ",
"x Y.d.0.3.M.r.x.w.=.x.W o Q =.L }.r.A.x.x.A.&. .U o &.x.d.3.y.y.t.r.3.3.u.u @ 3.L ,.|.y.r.u.A.L.E M 6 , U.N.l.=.M.M.M.5.%.5.*.= ",
"J i.H.6.o.I I I u.G Y A o W C l Z u I J ) 3.C C A @ ..A.y.5.{ I J X.;.G ! y % ;.i U t l E L ] ;.z B s 2 7.S.3.2.I E J 4.~ G G = ",
"J 7.[.+XI S G z <.! ! C o W R j 0 3 z i l <.B A A @ ..3.oX Xz G S L 3.G ! t % ;.C t : 0 z r m ;.u C s 2 7.0.+X4.p G i ,.O.Y A = ",
"J i.J.J.I G ~ A u.A l B o U 3.<.e 3 A A Z ,.} V C @ o.w.[.k.V ~ G } 7.i C t % -.4...: u A z E 2.E z s 2 7.r.[.,.G ~ C 1.^ u C = ",
"J I.F.[.I y z u L C C z o U ..P u : u y f <.E V C @ o.C.F.N.l z i l L B C e % %.E A e 0 u 0 M 3.E j 5 2 i.F.[.` 0 z u V A B B : ",
"J 7.l.O.2.E i z B C B z # P Z B G i 0 0 l 3.y Y C @ ..u.5...,.C B z C C B e * Q N G A e e 8 { } i C < 2 7.G.=...| B B B C B B = ",
"L 3.&.x.=.S.C A C z z i @ P W A *.@.u u z L G ~ C o &.o.z.%.x.*.B A B z z e % } W G 4.| u u V C ! C 5 s y...V.%.(.A C C z z z : ",
"x M.W 4.k.*.C z B B B z @ Z &.R Q &.! ! ! ! ! ! B o o.<.} W.3.E i z B B B y @ ..X.G =...! ! ! ! ! G g d X.Q X.N. .N y u u u u % ",
"@ & + % 2 + & & & & & & o % & & & & & & & & & & & o # & + 2 : & % & & & & # o % & & & & & & & & & & # , 5 t s g < 5 6 6 6 5 6 s ",
"o a s s s a s s s a s 2 X $ f a s s s a s a s g 2 . * f s a s s d a a s s = . < f s f f f s d s f g *   f { I I I I { I M M n , ",
"g E.A.7.;.M.<.;.E.i.).... } XX9.:.;.>.H.>.y.i.8.^ X X.XXi.8.>.A.%.i.E.9.R.C @ 5.E.7.>.:.7.H.;.E.7.7.l = E.H.;.-.i.x.W y.y.A.3.# ",
"J 7.2.F.^ %.L z  .x.5.U o ..y.^ ! ^ ^ 5.^ 3.S.G D @ o.7.k.5.! <.j U 2.5.<.y $ 5.<.! ~ ~ ..2.! C.3.G e 2 7.*.z.%.O.&.t W z.y...& ",
"b -.G 5.3.H J | X.S.~ G o X.~ ..J.k.x.l.$.H.5.! G o o.~ U l./ D I { j.y.G i $ 7.G 3.z.4.L.4.] H.=.! t 1 7.F *.A.T A { X.S.O.G : ",
"b ;.S W 7.4.J 1.1.%.! A o  .O.4.B V l W $.@.O.G A @ o./ B <.3.X.x #.4./ ! y $ 7.-.4.t J i &.` 4.~ G 0 1 7.G L w.3.b X.$.<.! Y : ",
"b >.z W y.2.C I 4.O.! C o { :.o.w ) @XW ` X.^  . .X X./ z <.u. .z ` 1.~ ! t $ 6.:.E t 1.oXQ @.X.D X.l , 7.G Z e.4.U Z #.%.! Y : ",
"b >.S { ;.x.5.C 1.O.G G o  .i.<.t ) #XE X.+.! L Q X X./ z <.O.].Y ( 4.! ! i $ 7.7.{ g 1.OXW @.&.i ) l , 7.D V ..<.H.k ' %.G ! : ",
"J ;.y } y.k.&.2.] u.3.G o  ..X1.U  .I o.$.,.C g W X o./ y 5.t.N.} $.@.r.%.y % 5. X| E } L <.@.,.r E l < >.B C x.u.,. .@.3.u.W = ",
"b ;.c J X.N.` | f.S.W.U o ..7.1.| X._ _ L 4. .m ..X o.^ B ..+.d.[ ` f.[.G.r $ 3.3.@.X.X.| ) x S.L ,.j < 7.C J &.4.@.I p.F.Q.*.& ",
"h -.V 1.5.[.D.l.t.5.%.D o ..~ %.4.3.'.`.l.x.X.n ..X o.! L 4.,.!.N.r.e.w.O.y $ 7.H 3.3.5.~.z.k.x.X.X.j < 7.B ` ,.4.`.z.y.<.=.! : ",
"x m.W i y C n.C.5.3.=.W o ..U.^ G ! ;.L.=.E E 4.W X ,.y.P u e E F.A.t.3.=.u % y.3.! ! ! 3.n...I | 4.t < A.%.B y i u.J.w.3.=...: ",
"f 3.Q G C C Y ^ W ^ %.P X I 3.W ! ! G G Y S P ..C o { 3.! C C D ! / Q W *.i @ <.*.! ! ! G G G S P W e : 3...G C G G ^ Q W ..W & ",
"o O O # # # O O O O O o o @ O O # O # # # # O O # o o o O # & & O o o o O O X o O O O O # # O # O o o X o O # # # O o o o O O X ",
"o 5 a a a s s s s s d 5 X % s s s a a a a a s g 2 X % a s s s f s s s f g : . * a s s s a a s s f d * . 1 s s s s s s s f d a o ",
"f H.m.M.y.-.:.:.<.o.....o L H.=.=.5.....%.%...W L o { P.9.H.7.-.:.;.3...;.N o ,.4...5.3.....*...W W e = b.m.9.H.:.:.-.;.&.....= ",
"V P.,...H.3.3.3. .x y B @ W ..e t u V | L e 0 8 e % o.^.W ,.u.<.3.3.{ u i y % =.L t j e E | v 0 0 9 9 , m.4.K j.3.7.7.&.g 0 B : ",
"x m.` D.u.y.y.5.=.3.z.W o Q 3.u  .,.4.].0.&.L V V # o.0.,.l.5.y.t.w.=.3.k.l @ 3.E z ,.&.S.].,.o.V L 0 , I.| 4.5.y.t.t.3.&.4.&.: ",
"x Y.g.<.<.t.y.b.3.O.3.W o W ..L F.3.Y.t.y.w.` { W o o.C.N.%.y.y.y.M.;.O.3.l % 7.L &./.3.5.y.i.t.M o.t < i.d.4.;.M.M.M.y.O.=...: ",
"V 7.V.y.X.V L L u.G ! C o W D z B 0 L V m 4.@.C C @ ..t.n.x.I L V { 3.G ! y % ;.y A 0 u V l ` 7.V G e , 7.L.y.4.Z L x 1./ G G : ",
"J 7.G.+XE S Y z 4.! P C o W W l 0 > i i j 0.L C D @ o.7. X|.C G D P 3.D Y y % -.L l : 0 z r L 3.N Y 0 1 7.C.@X1.S ! B o./ G A : ",
"J i.J..XI G ~ A 5.C z B o R 3.=.e : B B Z 0.X.V C @ ..t.J.z.V ! G I 3.i C t % -.3.Q 8 e C i I 5.X.C e , i.L.].,.C ^ A 2./ i B : ",
"V Y.S.J.( r u t c C C z o W  .Z z : t e f u.P l D @ ..A.H.l.j y y e V A C e % ..L C t 0 t 9 M 3.V C t , i.l.G.@.t u y l A C B : ",
"J >.N...4.o.B C C C B z # U Z B A l y y Z ,.e Y C @ } 3.n.W h.U B C C B B e * W l A P t e 0 X.} y ~ 0 , ;.4.&.*.4.B C C C B z : ",
"J 5.o.S.<.N.B B B i z i # L E C &.4.B z B B Y ! G o o.<.4.5.0.&.B C B i z e * ..I A 4.| z B C V ! ~ e < y...l.%.`.P B B l z z : ",
"s o.V 1.4.L z u i i i u # V E C R Q A A A G G G z o I ..L N. .Z i u i i z 0 % Q I C W W G G G G G C 0 : o.L  .z.W N y u u u i : ",
"o # # % , + & & = & & % X @ % % % & & & & & & = % o # # # < = # & & & & = % X # & & & % & & & & & & # X # # # 2 # % = & & & & o "
};
