/* XPM */
static char *_3ec7a70e74f4e6b9303f24a9451eba9hJPR4L48p4FpZWwO[] = {
/* columns rows colors chars-per-pixel */
"64 64 190 2 ",
"   c #131729",
".  c #141A2D",
"X  c #161E32",
"o  c #191E33",
"O  c #162235",
"+  c #192236",
"@  c #172639",
"#  c #1A253A",
"$  c #162B3C",
"%  c #192A3D",
"&  c #16303F",
"*  c #1E2740",
"=  c #172F40",
"-  c #1D2C42",
";  c #173243",
":  c #1A3344",
">  c #173748",
",  c #1B3649",
"<  c #17394A",
"1  c #1B3B4C",
"2  c #1D3E51",
"3  c #202D45",
"4  c #222F48",
"5  c #213047",
"6  c #22334C",
"7  c #22384C",
"8  c #243651",
"9  c #283652",
"0  c #253B54",
"q  c #293B56",
"w  c #263E5A",
"e  c #2A3E5A",
"r  c #1D4253",
"t  c #164857",
"y  c #1D4758",
"u  c #1E4C5D",
"i  c #1E505F",
"p  c #224156",
"a  c #25435C",
"s  c #2A425E",
"d  c #224A5D",
"f  c #20505F",
"g  c #1D4E60",
"h  c #1D5262",
"j  c #1E5A67",
"k  c #1E5C6C",
"l  c #1F5E70",
"z  c #274461",
"x  c #2C4562",
"c  c #254C63",
"v  c #2B4A65",
"b  c #264F68",
"n  c #2D4C69",
"m  c #304664",
"M  c #304866",
"N  c #324C6B",
"B  c #384C6E",
"V  c #235264",
"C  c #295067",
"Z  c #25546A",
"A  c #2B536C",
"S  c #245B6D",
"D  c #295A6F",
"F  c #32516E",
"G  c #354F70",
"H  c #384F70",
"J  c #2E5671",
"K  c #255D71",
"L  c #2B5B74",
"P  c #2D5E79",
"I  c #345473",
"U  c #385675",
"Y  c #335976",
"T  c #395876",
"R  c #335C7A",
"E  c #395C7B",
"W  c #1D606C",
"Q  c #1E6473",
"!  c #1D6976",
"~  c #1F667C",
"^  c #1E6C7B",
"/  c #1D717E",
"(  c #22616F",
")  c #246374",
"_  c #2A6276",
"`  c #216875",
"'  c #256579",
"]  c #2B647B",
"[  c #246B7C",
"{  c #2A6A7E",
"}  c #32637E",
"|  c #38607E",
" . c #22717D",
".. c #1D7482",
"X. c #1D7A85",
"o. c #1F7D8B",
"O. c #2E6680",
"+. c #256E81",
"@. c #2C6C82",
"#. c #2E6F88",
"$. c #336581",
"%. c #396684",
"&. c #326B84",
"*. c #346E89",
"=. c #247384",
"-. c #2B7286",
";. c #217986",
":. c #257689",
">. c #2A768A",
",. c #2C758B",
"<. c #2E778D",
"1. c #2E778E",
"2. c #2D768D",
"3. c #2C748A",
"4. c #24798A",
"5. c #247B8C",
"6. c #2B798D",
"7. c #2B798E",
"8. c #2B7A8D",
"9. c #2F7A8E",
"0. c #2B7A8D",
"q. c #327187",
"w. c #31768D",
"e. c #32738B",
"r. c #30798E",
"t. c #277E90",
"y. c #257F91",
"u. c #297D90",
"i. c #2B7F92",
"p. c #2A7E91",
"a. c #2C7D91",
"s. c #2D7E93",
"d. c #297F94",
"f. c #2D7F94",
"g. c #2C7D92",
"h. c #357790",
"j. c #317B92",
"k. c #1E818E",
"l. c #1E8593",
"z. c #1D8A99",
"x. c #20808F",
"c. c #268091",
"v. c #248394",
"b. c #298193",
"n. c #288195",
"m. c #2A8195",
"M. c #288294",
"N. c #2B8395",
"B. c #2C8195",
"V. c #2C8297",
"C. c #2D8196",
"Z. c #2C8496",
"A. c #2B8295",
"S. c #228995",
"D. c #248799",
"F. c #278598",
"G. c #278699",
"H. c #2B8599",
"J. c #2A8799",
"K. c #298498",
"L. c #2C8599",
"P. c #258999",
"I. c #26899A",
"U. c #258B9C",
"Y. c #288899",
"T. c #29899B",
"R. c #2B899B",
"E. c #298A9C",
"W. c #2E889D",
"Q. c #2C8A9D",
"!. c #2B8A9D",
"~. c #318195",
"^. c #308499",
"/. c #30889D",
"(. c #23929E",
"). c #29909F",
"_. c #1F97A4",
"`. c #258FA0",
"'. c #2C8BA0",
"]. c #2C8DA1",
"[. c #2A8EA1",
"{. c #328EA1",
"}. c #2593A3",
"|. c #2994A4",
" X c #219BA6",
".X c #269CAB",
"XX c #299CAA",
"oX c #3191A4",
"OX c #28ABB1",
"+X c #25B1B7",
/* pixels */
"@ 1 1 1 1 1 1 1 r ;   ; 1 1 1 1 1 1 1 r O X 1 1 1 1 1 1 1 r :   $ 1 1 1 1 1 1 1 r $   : 1 1 1 1 1 1 2 1   @ 1 1 1 1 1 1 1 r $   ",
") Q.6.p.$.$.@.[ ] c % 6.@.@.@.] @.] L L - y ].>.p.$.$.$.[ L A X [ >.] -.] ] ] L L 0 > R.6.p.$.$.$.+._ P O ) :.] -.] { ] L L p $ ",
"@.p.' M.1.1.-.V v 0 , w.a p a [ [ a 8 8 - V J.K t.1.1.3.Z a x @ @.c 8 a K ..c 0 8 3 y R.K :.6.,.,.K a n # @.C 8 a S ..d w 6 3 1 ",
"{ c.z.s.V.V.s.,.I.c - 9.C D.M.R.J.d.' ' - V p.o.V.V.V.f.3.D.L + -.Z 4.I.J.!.b.-.[ 1 r Z.X.p.f.V.f.3.M.@.+ @.S 4.I.M.!.M.:.' a : ",
"_ '.s.{ ) K =.R Y s : R a K c K ) 6.C J 6 d Q.p.{ _ K +.} I n @ ] s K c ) K ' u u y , ) R.@.) K ' @.I F # L s ) d K K :.L A s ; ",
"] g..X' m m K } N e : } c 3 6 x w +.s N 3 c j..X=.s M S &.M x @ } A 7 - e r u a s 0 : r o.S.s N b @.M n @ P b 7 - z q ) A x q : ",
"] V.|.) M N _ L x 0 : q.-.8 7 n a +.' n 3 V V.}.=.m N L { s s # ] :.a % u u ) -.A 9 y S ! c.x N V { s x # L 5.v : n s ) =.V q : ",
"_ J.M.' p 0 a n n 8 : ] v x 6 8 1 =.v n 3 d H.J.+.a 0 0 v n e % L b s y 2 6 =.A n 8 r S ) 4.d 0 0 x n s # S C n 6 8 6 ' L n q : ",
"] ,.6.@.:.x n x x 8 : L n { K 0 a K x Y 3 V 1.6.@.5.x n x s w % D n d y w 0 Z v I 8 r S ) @.c.n n x s s % S A L [ a w Z v I q : ",
"' @.>.M.] z s s x 8 - @.L ] { N F N I F - V ,.] F.@.z w a s w # _ S y K I n n F I 6 r S V F.+.v a s z s # L ] L =.A N N F I 8 ; ",
"X + # : o # # # # + X # # + + # # # # # X O + + : + # # % % #   + 1 < o # # # # # O   1 % $ # + # + + + . X + + o # # # + + X . ",
"r ' S S _ _ ) S ) r . S ' K K K _ K S _ - X k S Z ) ) 2 $ ; > > r g ) _ K ) K S _ 2 O u V S ) ( S K ) S . y ' K K S ) S S _ p X ",
"@.^.s.} j.L @.M.Q.c : Q.q.U T q.&.e.M.T 6 y 0.M.*.L h d K Q V 2 k s U T %.8.} R.E q y S ) e.&.' A H.H.@.+ >.f.U T } s.} J.| s : ",
"] Y >.,.N V K v.$.q > *.R a.-.>.[ t.p.I 3 h } ) ! d a K F.r.m # l c 3.=.>.=.=.K.Y 8 r S S F.I b S 5.1.N $ { Y 3.5.>.;.;.F.Y q : ",
"] Y A s.' V ;.-.Y q 1 &.>.C Z C =...} F - u } p j =.Z / :.Y x $ S Q ' d c { X.@.F 6 r ) 8 @.-.V =.4.R N $ ] &.) d c ) X.@.N 0 : ",
"] Y A 9.=.b  .@.I e > q.] 2 (.XXK / F [ 1 u } s >.0.A Q =.I n % S h d [ OXK ^ L ) u r ) , @.p.L S ;.I N $ ] &.y W +XK ..P K V ; ",
"] I A w.p.L  .@.R e : ^.=.d [ { ' ..x K 7 u R s 6.] A [ =.R n % S h V _ =._ X.A c d r ) , @.g.[ S =.R F # -.M.V S =._ X.L d b ; ",
"] A c >.c.) =.U.U.s : ^.c._ _ K ) [ S ' 6 u R a =.' j / v.|.L % S j ) ' S [ ' K S c 1 ) 7 =.o.^ Q o.}.] + -.v.) ' S ) Q ' V Z = ",
"_ A [ +.v.4.5.p.@.e > } ] >.@.S.4.0.=.) : u R K +.[ ) =.M.1.n % S V >.{ S.4.>.4.' a r K a ' S 5.=.p.6.J # _ Y >.@.v.x.>.:.! c = ",
"{ r.F a A !.V.,.e.v : ^.} Y Y 9.1._ ' >.3 h ^.J x s 4.M.,.3.L % ) p Y Y 3.6.] [ F.0 , S c V 8 :.!.g.3.P + >.1.Y Y *.f.] ) F.c ; ",
"a b 0 8 8 0 a a c 7 # Z a e e q q 9 0 s % 1 Z w 8 0 e a a c a O y 0 s e 9 q q q a 8 r , 8 8 8 q a a a a X c b e e q 9 q 8 a 6 $ ",
". $ $ = ; $ $ $ ; @   O $ $ $ = = = ; ; O   @ $ $ ; $ $ $ ; @   @ y O $ > ; $ @ 1 g $ @ $ = ; ; $ $ = $   . $ $ $ & ; = ; ; @   ",
"K Q.6.9.$.$.&.[ { b # >.-.-.-.] { { _ ] - 2 V.9.V.$.$.&.@.] D . [ ' y h Z S g y c 8 : b.>.p.$.$.$.-.] ] O _ 6.{ ,.{ { { ] ] a % ",
"@.M.' b.3.3.-.V s e : e.a 8 0 ) ' a 6 6 - V !.K 5.1.1.3.V 0 x # @.V , % 1 t 2 0 6 - y [.] :.>.-.3._ s x # @.C 8 a Z [ a 0 6 4 , ",
"{ :.l.d.V.L.g.3.I.c - s.V 4.5.!.!.5.) K - V M.X.p.V.L.f.@.F.] + @.V :.R.M.U.d.+.y > p V.4.p.s.H.d.@.c.@.+ @.S +.c.J.U.a.[ K a : ",
"] !.>.@.[ [ 5.R R s : } c +.L ' ' a.L L 5 d Q.p.-.[ ' =.$.Y A @ ] v [ Z { ' 0.] b r r L.c.@.+.{ =.@.Y J # P x @.S ' ' p.] L s ; ",
"_ f..X' x x ) } F q : } a 6 7 s a +.x F 5 d g..X5.s m S $.N x @ } x 6 - s 0 ' A s p y e.}.S.s M V 3.N n @ P v 6 - s 0 ' J x q : ",
"] H.|.K N N { P z 0 - q.-.8 8 N x [ ) n 6 d f.|.+.N I _ { s x # ] >.a 6 n s ' =.c 2 y j.`.5.n I D @.s x # P 6.c : v z ' =.V q : ",
"] R.R.) 0 0 a n n 8 : ] C e 6 0 8 =.C n 4 d Q.J.[ 0 w a v n s # ] Z x 6 8 6 [ ] s , r L.`.=.p e a v n s # L Z n 6 8 6 ' _ v q : ",
"_ 3.,.3.=.x n x x 8 : L x P b 6 0 ) x Y 3 c 1.>.@.:.x n x x w % Z v L K 8 7 K n N : y w.p.{ 5.n n x z s # Z v L K 8 8 K v I q ; ",
"-.3.5.K.-.x x z x 0 - @.L @.+.N F N Y Y 3 V r.>.I.:.x x x x s # ] { ] 5.F F N I I a h -.{ F.3.v w w e e + D ] L 4.n n M I Y q ; ",
"- 3 % 1 # - # * - # O - - # * - - - - - # # - % r * - # - - # X % - - * - - - - - % > r 0 h 1 1 2 2 1 2 1 r 1 8 0 p p 0 6 3 # O ",
"; h d u u g u d h > . y u u i u u u d V % @ h d y u h u d u r   1 V u f u u i d V : . ( ' S ) ) ) ( ) k $ u ) ) ) ) Q j ; u 1 . ",
"{ Q.H.&.V.L q.H.{.b = oXj.R E w.w.1.V.%.6 u oXZ.&.j.{ &.L.Z.{ O 0.^.| E &.B.*.Q.%.s r {.b.$.h.>.J s.R.-.. -.H.Y Y } s.Y h R x : ",
"] R b.@.I c S c.&.e > q.Y ,.-.0.=.p.5.I 4 c %.=.>.I b Z t.3.n $ -.Y @.-.s.=.@.I.Y 8 y %.] c.U Z c ;.s.I # { R @.6.9.=.@.Z n e : ",
"] I A 1.] S ;.>.Y e 1 $.@.' S A o.o.{ I 4 d R n 9.@.V ..5.Y m $ { &.[ Z A +...3.I 8 r %.m 6.@.V ..5.R M % _ $.+.S Z [ ..k n q : ",
"] Y c s.>.c =.@.I q > q.@.7 ;.M.K [ I @., u $.x 1.4.v ! =.I n $ } &.a S (.] ..L L d 2 &.s @.5.Z Q 4.Y N % _ &.d S (._ ..h h c ; ",
"] I Z -.M.] ` @.Y e : ~.>.p ;.M.) =.n K 6 u } v 3.d.@.( =.Y M $ -.9.V ) !.] X.A c c r %.s ] 1.3.V ;.Y N # @.L.c j |.{ ;.h y b ; ",
"] A c >.x.[ ;.v.I.s : Q.;._ ' S  .=.b K 6 u } s >.v.[ / x.U.A + >.(.K ' S ' ^ ] V c 1 O.q @.c.[ ^ o.U.] + >.(.k ' K =.! h h V ; ",
"] A Q :.(.=.t.D.6.e 1 %.{ ;.=.k.+.p.' ) 7 u R A -.l.4.=.D.J.A @ { } 4.=.v./ =.t.' c 1 } Z +.5.o.=.M.c.P # ] R 4.=.k.=.=.k k Z = ",
"' @.A v ] |.f.,.&.s : j.} R } [.J.[ ) 4.5 V j.A c Z `.W.g.3.A # ,.$.Y R M.!.-.) 4.a r f.A c b U.!.,.@.R # @.&.Y Y s.U.-.' k.c ; ",
"S @.M s x J P L { a % -.P M N M N x A P 3 y 3.n s s F P L ] A + { { M N M N m x L 8 1 3.A x x N L L P L o ) @.M N M M M n P q = ",
". X X O O X X X X . X X X O o O O O o o X . . o + O O X X X X .   o O o O O O O X X   . X O O O X X X . . . o O X O O O O X X . ",
"r ' ) _ S L K S ' a X S ' ) ) S S K S K = = ) ' ' L L L K ' C . y ) _ ' S S S S _ 1 @ ) ' ' D S K K ' S X y Q S ) S S S S K 2 O ",
"{ Q.-.Z.*.*.3.S x s : r.Z b A K ' v a e 3 V |.@.b.&.&.q.' x n % @.) v Z J ' C a w 6 r |.{ 0.q.*.q.) a n # @.] v Z A ' b a w 6 1 ",
"{ 5.4.M.f.f.,.{ :.a - e.a S ' v.M.) a d - V M.+.t.s.V.g.] +.L + @.V b ) 5.U.) V a 7 p B.Q 5.s.V.s.] [ ] # { V c ) :.v.' S c 8 , ",
"] U.5.@.9.9.0.$.3.a - &.C M.>.V.s.d.^ ] 6 d !.y.-.6.9.s.&.@.L + @.A t.>.8.0.^.+.) a 1 V.5.-.0.9.p.&.@.] # ] V t.0.,.6./.>.) a : ",
"_ f.`.[ v v [ R N q , Y 0 0 7 a a ;.~ N 4 d f.}.4.v v K @.N x @ R q 0 - a 0 [ L n 9 1 j.[.c.b v Z @.B M % L e 0 - a a [ L n e : ",
"_ s..X' N N [ R x 0 : &.) 7 6 x a :.K n 4 d j.XX:.M I L @.x x # } ] 0 , x e ' @.A 9 1 j..Xv.n I D 3.x v # P @.a - x e ) { A q : ",
"] W.|.) e s c A x 8 : @.] q - e 0 :.K v 6 d H.[.[ q z a A x s # ] ] s 3 w 8 ' @.b 9 2 ^.U.5.w z a L x s # L ' n - w 8 ) -.b q : ",
"_ p.>.=.K e s x n 8 : L s n 0 8 0 [ q I 6 d g.0.{ ) s s x n e % Z a n a 7 6 +.v N 0 2 q.5.@.[ s x x x s % C a n a 7 6 [ b M e : ",
"[ -.c.p.4.x n z z 8 : ] b @.=.x n n I Y 3 V j.6.p.c.n n x s e % ] L ] 4.v n n F Y 8 r 9.>.0.U.A x x s s % S L P 5.n n n F Y e : ",
"y a c ) 8 6 6 8 8 3 % a 0 a a e e e e q # , c a ! 0 7 6 8 8 6 @ a a 0 a e e e e q - ; c 0 ' a 8 6 7 8 8 + p a 0 a e e e e e 3 % ",
"X = = : = : : : : $   % : : : ; ; ; ; : @ . $ = ; ; : : = : = . O ; : ; : ; : ; 1 $   % = ; ; ; : ; : = . @ ; : : ; ; > ; > %   ",
"K !.s.$.M.@.1.s.H.b % Z.0.} } 1.9.,.9.*.6 r ].p.$.s.-.@.s.V.{ o +.Z.$.} &.B.q.B.q.a > R.K.$.w.>.@.s.s.-.+ ' K.$.} &.b.&.V.q.v $ ",
"_ $.F.O.R b Z t.3.s : s.L R ] -.@.3.t.G 4 V &.4.3.Y b c 5.9.A # -.} Y $.@.=.$.R.I 9 y &.=.:.Y A a :.s.Y # @.} Y O.#.5.] F.Y q : ",
") I P g.L K / c.Y e 1 $.O.5.[ { ;.c.@.I 3 u R N 6.L S ..4.} m $ ] R 5.=.@.;.X.,.I 9 r %.n 4.} Z ^ ;.$.M % ] } 5.^ +.c.o.>.Y q : ",
") I b f.=.d X.@.I q > *.@.0 ) { ' / Y ] , d $.s 3.5.C / =.I n $ ] -.d V =._ ..P P a r &.s @.0.V ! ;.I N % _ q.V d  .L X.] J d ; ",
") I A 3.6.L ^ @.G e : j.=.p S.XXS ..A ) , u $.x -.6.{ k 4.H M % @.6.u ! +X' ..L S c 1 &.s +.3.@.Z 4.I N % ] s.V Q +X_ ..] V V ; ",
") I v >.4.[ o.:.6.e : ).l.C S Z [ X.v Z 6 y $.s 3.M.Q ^ 4.s.A + 5._.S K Z [ / A c d 1 &.e +.M.=.^ X.p.L + =. XZ S S [ ..L d c ; ",
"_ P ' +.(.=.;.c.I.s : *.=.=.=.X.) =.Q ) 7 y $.K +.l.X.! =.(.L + { 3.;.=.;.[ ' +.k c 1 $.S [ l.k.! =.(.{ # ] #...[ o./ ' =.l Z $ ",
"' R K K =.}.d.6.@.s : e.Y $.@. X`.=...5.3 u $.Z K K z.4.>.@.n # @.R $.$.U.}.b.=.k.a 1 *.A K S [ ;.>.3.J # { R $.} U.}.b.=.l.c ; ",
"_ ,.M e s P { ] @.a = s.] N N I I x K { 3 y 6.N e e A O.{ { A + >.@.N N F Y N A @.8 1 0.I e e M } O.] _ + [ -.N N F Y N A @.0 ; ",
"# - - - - # # # % # X - - - - - - - # # O O - - - - - # # % # . % - - - - - - - # # O - - - - - # # % % X # % - - - - - - # # X "
};
