/* XPM */
static char *b32b05237d104f739d142b2e80f10679NfuM01XXbZdR9gGH[] = {
/* columns rows colors chars-per-pixel */
"64 64 227 2 ",
"   c #12121E",
".  c #1A151A",
"X  c #1E1111",
"o  c #0F111E",
"O  c #2A170C",
"+  c #331D0E",
"@  c #261717",
"#  c #351F11",
"$  c #3C1E17",
"%  c #3A2413",
"&  c #362112",
"*  c #0E1524",
"=  c #0C1B2D",
"-  c #131625",
";  c #141926",
":  c #1B1A24",
">  c #141629",
",  c #151B2C",
"<  c #191D2C",
"1  c #191520",
"2  c #0A1B33",
"3  c #0B1F39",
"4  c #161E31",
"5  c #191E32",
"6  c #221F28",
"7  c #3F1D20",
"8  c #1C212E",
"9  c #13232E",
"0  c #0D233B",
"q  c #0E2D3C",
"w  c #152233",
"e  c #1A2234",
"r  c #132936",
"t  c #14263A",
"y  c #1B253A",
"u  c #152C3C",
"i  c #1A2A3D",
"p  c #15313E",
"a  c #18313F",
"s  c #22222A",
"d  c #2B242A",
"f  c #212633",
"g  c #242936",
"h  c #262B39",
"j  c #292E3B",
"k  c #232438",
"l  c #2B313E",
"z  c #24313E",
"x  c #383239",
"c  c #4F271B",
"v  c #562923",
"b  c #583534",
"n  c #482D31",
"m  c #643633",
"M  c #743B33",
"N  c #0D2D4C",
"B  c #0C2844",
"V  c #152C42",
"C  c #1D2C43",
"Z  c #1E2E49",
"A  c #163443",
"S  c #1A3344",
"D  c #153845",
"F  c #15344B",
"G  c #1D334B",
"H  c #163C4C",
"J  c #1A3B4C",
"K  c #183947",
"L  c #0E3254",
"P  c #0E3659",
"I  c #0E3A59",
"U  c #113555",
"Y  c #1F3651",
"T  c #143B52",
"R  c #1D3C52",
"E  c #123B5D",
"W  c #103759",
"Q  c #0E354D",
"!  c #212D45",
"~  c #222F49",
"^  c #233244",
"/  c #2D3342",
"(  c #22334D",
")  c #25374A",
"_  c #313644",
"`  c #333946",
"'  c #363D4A",
"]  c #383F4C",
"[  c #223652",
"{  c #223B55",
"}  c #243D5A",
"|  c #2A3E5B",
" . c #293B56",
".. c #123E62",
"X. c #15424E",
"o. c #19404F",
"O. c #0D4753",
"+. c #164352",
"@. c #1B4354",
"#. c #154857",
"$. c #1A4956",
"%. c #1D4559",
"&. c #134C5B",
"*. c #1D4A5C",
"=. c #1E505F",
"-. c #16515D",
";. c #39404D",
":. c #37404C",
">. c #224157",
",. c #24435D",
"<. c #2A415E",
"1. c #214A5E",
"2. c #3B4350",
"3. c #23505E",
"4. c #134264",
"5. c #1E4D63",
"6. c #154669",
"7. c #164A6C",
"8. c #1F4760",
"9. c #1D5364",
"0. c #1B5966",
"q. c #1D556A",
"w. c #1D5B6C",
"e. c #135A67",
"r. c #1D5D71",
"t. c #1F5771",
"y. c #0E5463",
"u. c #254561",
"i. c #2B4563",
"p. c #244B63",
"a. c #2B4966",
"s. c #254E69",
"d. c #2C4C6A",
"f. c #2C4768",
"g. c #314C6C",
"h. c #314666",
"j. c #215265",
"k. c #23546A",
"l. c #2B526D",
"z. c #225A6D",
"x. c #265A67",
"c. c #314F70",
"v. c #245771",
"b. c #2D5572",
"n. c #235D72",
"m. c #2B5B76",
"M. c #265E78",
"N. c #2C5D79",
"B. c #315473",
"V. c #325D7A",
"C. c #305977",
"Z. c #1A616F",
"A. c #16626E",
"S. c #0C6A72",
"D. c #1D6474",
"F. c #1C6A76",
"G. c #1D6679",
"H. c #166F7B",
"J. c #1C6B7B",
"K. c #166573",
"L. c #16747D",
"P. c #1B727E",
"I. c #0F717A",
"U. c #226375",
"Y. c #24657A",
"T. c #2B637D",
"R. c #236A7D",
"E. c #2A697F",
"W. c #32617D",
"Q. c #21707F",
"!. c #5F4A47",
"~. c #7C544B",
"^. c #85483D",
"/. c #86544B",
"(. c #C57363",
"). c #DF8F74",
"_. c #EC967F",
"`. c #1C6E81",
"'. c #1C7383",
"]. c #147A85",
"[. c #1B7985",
"{. c #1E7689",
"}. c #1D7B8B",
"|. c #167886",
" X c #1E7E91",
".X c #2D6681",
"XX c #246D82",
"oX c #2B6B83",
"OX c #316A84",
"+X c #316682",
"@X c #237285",
"#X c #287186",
"$X c #257589",
"%X c #2A748A",
"&X c #257C8E",
"*X c #237A8D",
"=X c #29798E",
"-X c #207A85",
";X c #247E91",
":X c #297C92",
">X c #1C818E",
",X c #13828F",
"<X c #1C8492",
"1X c #1C8896",
"2X c #1E8A9A",
"3X c #1A8595",
"4X c #1D919E",
"5X c #0F888F",
"6X c #238394",
"7X c #298396",
"8X c #238699",
"9X c #238B9B",
"0X c #268A99",
"qX c #248A95",
"wX c #1A93A1",
"eX c #1E99A5",
"rX c #278EA0",
"tX c #2192A2",
"yX c #2899A8",
"uX c #24A4AB",
"iX c #35ACBF",
"pX c #21ADB2",
"aX c #15BCC3",
"sX c #30ACC2",
"dX c #29E2E9",
"fX c #DF9D83",
"gX c #F6AE8F",
/* pixels */
"w H H o.+.+.o.o.$.A - A +.+.+.+.+.+.+.$.t , H +.+.+.+.+.o.$.H > t +.+.+.+.+.+.+.+.H - A +.+.+.+.+.+.+.+.w , o.+.+.+.+.+.+.+.H , ",
"w.9X$X&XE.E.oXY.v.p.w @X`.R.@Xn.Y.U.z.k.S o.8X$X&XE.E.E.R.z.v.4 z.}.n.{.U.U.G.r.q.1.i -X$X}.XXm.T.R.r.n.i $.[.r.{.G.r.D.t.k.p.w ",
"U.6XY.&X%X%X#X9.p.>.i %X,.{ *.'.`.%.G ( i *.8Xz.@X$X$X#Xz.1.a.e U.k.( %.0.|.q.R ( Z S 6XD.D.-X@X$XY.*.k.i *.n.( *.9.|.q.%.( ( e ",
"n.&X3X&X&X;X&X#X6Xj.e &Xk. X6X6X6X;XU.r.S @.6X[.&X&X;X&XXX&XY.4 U.z.D.2X6X2X&X@Xr.5.i -X'. X*X;X;X#X@X{.y *.R.w.1X&X8X;X-Xw.w.4 ",
"z.8X*XY.z.k.R.N.g.,.i m.{ k.>.k.k.$Xp.s.! @.7X;XR.z.k.Y.T.h.a.w l. .5.@.k.j.w.+.#.$.D H &X$Xn.k.w.R.i.d.y *.,.1.@.p.j.D.U.>.d.e ",
"z.%XwXD.i.i.z.T.f.} i N.8.Z Z } { J.,.i.! @.%XtX[.<.h.k.oXi.i.w l.k.J C [ Y #.%.{ } u $.q.wXp.i.,.R.f.a.y %.k.R C { [ 5.U. .i.e ",
"z.;X2XD.i.i.z.v.<.{ i T.J.{ G u.{ G.G.p.! @.:X2X'.i.f.k.T.| ,.e k.'.p.y +.+.q.@X9. .K D.@.1Xp.i.,.n.,.u.y @.`.z.Z } } 5.@Xq.<.e ",
"z.;X{.r.>.{ { u.i.{ i n.u.| G G G @Xu.a.! @.;X<XR.1.{ { ,.i.} e j.5.{ H R Z D.v.,.| S Z.q.{.9.{ { } u.,.y @.9.,.{ G Z 9.U.,.i.e ",
"U.#X{.G.{.i.i.,.,.[ i n.p.n.w.{ } k.i.B.! $.$X*XT.&Xa.i.,.} } e j.5.R &.} } p.p.d.| A D.w.XX`.n.<.u.{ } y @.r.p.G.8. .p.p.f.a.w ",
"w.XXY.[.r.} { } } [ t Y.z.k.n.a.a.i.d.d.C +.#Xn.<XY.,.{ { { { e 1.9.+.z.l.a.i.a.a.[ u w.J {.J.8.[ { { } y R G.u.w.p.i.i.i.a.} w ",
", 4 , u < w 4 4 4 4 , , 4 4 < 4 4 w w w , , < , p 4 4 e e y t , 4 K H , w 4 w 4 w , - i A w w , w 4 4 4 , > < 4 , 4 4 4 4 4 , , ",
"+.J.z.z.D.D.Y.n.J.*., w.D.U.n.U.D.U.n.U.S , Z.D.j.Y.J.+.u = , - r +.Y.U.U.J.Y.D.U.j., $.*.z.U.F.D.G.D.J.t D P.D.D.r.D.D.D.U.k., ",
"Y.7X&XN.%Xv.T.;X6Xp.i 7XoXB.B.oXXXoX;XB.! +.6X}..Xk.-.a ^ l ' ' / f ^ B.V.&XN.8XT.<.K D.q.6XN.`.,.;X6X$Xi w.6Xl.b.b.$XN.&XT.a.e ",
"n.B.R.$Xg.j.w.>XT.} A oXb.$XXX@XD.{.&XB.! $.W.z.e.p 8 ` ;.2.;.;.;.2.j J %X@XD.6XN.| S D.*.2XN.,.9.'.6Xd.i q.b.Y.@XY.@XJ.{.T.i.e ",
"n.B.p.=XXX*.P.@Xb.} A .XXX5.j.j.J.J.N.l.Z $.V.>.w.i ' 2.] ] ;.:.:.] 2.l 8 z.L.Y.d.} S D.S Y.*Xw.D.[.T.d.y 9..XJ.{ 9.k.H.R.d.p.e ",
"z.B.p.#X'.p.D.R.c.} V OXY.@.qXuXn.J.s.D.H @.W.<.*./ 2.] ;.;.;.;.;.;.' ;.8 o.'.U.1.w.S D.S U.&XJ.*.P.b.d.i =.oXq.@.pX@Xw.Y.p.D.e ",
"z.b.p.oX$Xn.J.XXN.} i 6X{.1.Y.U.R.P.u.9.G $.V.| , _ 2.] ] ;.;.;.] ] ;.;.: H >Xz.{ j.S D.S G.$X{.9.H.T.b.y 9.2Xw.1.Y.n.P.Y.( z.e ",
"z.s.1.XX6Xw.F.2X2X,.i :X}.w.q.9.w.G.n.n.G $.T.{ , l ] ;.;.] ] ] ] ;.] / f A w.G.j.z.u D.S J.}.[.0.L.2X*Xy 9.*XF.U.w.w.w.J.*.Y.4 ",
"z.d.w.T.;X`.{.$XT.} u T.m.XXY.<X{.*X'.D.G $.N.K , g / _ ' ] ] ] ' / j g 8   +.6XA.q.u G.J D.9.[.`.{.XXm.y 9.b.R.XX{.1XXX$XD.J.4 ",
"Y.;Xs.{ p.;X:X$X$Xp.i 7XoXB.B.oXoXv.r.@X! *.*X, f 8 8 f h j j j g e 8 e e f i n.'.p.i Z.R *.G n.8X$X$XXXy 0.6Xb.g.N.$XN.k.[.M.4 ",
"J 1.( ^ ! ~ ( ( @.C w %.{ ( ( ~ ~ ~ ! ) y u %., f f f 8 8 8 < < e f 8 j h 8 w ( ( { H A C ! ! ! ( ( ( R 4 A %.( ( ~ ! ! ! ! ! , ",
", u A A A A A A A r - t A A p A A A A K w - t ; f f j j f j h e h l f h g 8 , r A #.r t A D D D A A D D , , p A A A A A A D A , ",
"w.8X*X&XoXoXoXD.n.p.w -X-XR.@Xn.Y.Y.n.n.S H tXo.o e h g g j h g h h f e *   A +.R { t {.-X&X#XE.E.@XY.T.i $.6XU.{.XXM.U.n.z.j.w ",
"Y.6Xn.-X#X#XXX*.>.} i %X1.{ R D.G.R G Z y *.9X3.n 6 ; 8 e e e e e < - : /.b T } ( C S 6XJ.D.$XXX$XU.,.p.i *.n.( >.5.J.5.Y ( ( e ",
"U.{.].&X;X;X&XXX<Xj.e =X9.'.;X8X8X*Xw.q.Z %.8XA.M c O @ . . . . . @ O $ _.~.'.*X*.H S &X'.}.;X6X6X#X$X}.y *.Y.q.<X&X2X&X{.w.w.w ",
"z.6X@XR.U.n.@XN.l.,.u N.>.n.p.n.z.@Xk.v.S @.7X6Xb c + % # # & # + % O v (.n J.n.1.1.A #X6XXXY.n.D.XXh.b.y *.,.p.5.k.k.D.T.p.l.e ",
"z.:XeXD.<.<.U.T.f.} u N.>.( Z } { J.,.a.Z $.:X'.z @ + # % # % % & & + ^.c V w.z.} >.D E.<XwXp.i.,.XXf.a.y *.s.R C { [ 5.U. .a.e ",
"z.8X4Xw.i.i.U.v.,.{ i oX`.{ G u.} R.D.p.! %.:Xr x / . X @ O O O O O @ : f 1 9.}.5.J D $X<X<Xp.i.p.Y.,.u.y %.'.q.C } } 9.'.9.<.e ",
"z.6X}.r.{ { { u.i.[ i U.p.} Z G G @Xp.i.Z *.$X9 j ` ` l f s s s s h / ` _ < K M.,.J D &X3X'.5.{ { } u.u.y $.9.,.( G Z 9.Y.,.i.e ",
"z.XX`.R.'.<.i.,.} ( i k.,.v.q.( [ k.<.B.! *.@.6 j h l _ ' ] ;.] ` _ l h l l ; G g.R K XX'.U.{.k.u.u.} ,.y +.5.u.r.R G *.s.i.a.e ",
"Y.#XR.}.G.} } } } [ i T.v.Y.G.a.d.i.d.d.( r w < l ` ' / h j h j h h / ' ' h 8 w i.*.5XD.z.}.XX8.[ } } } e +.D.u.D.s.i.i.d.d.i.w ",
"e y w p 5 e e e e e 4 y e 4 5 y y y e e 4 ; ` < f ' ] ' ' ` ` ` ' ' ;.' j ; l j w e.S.H J +.J K J J J K J +.J K K J R J C y 4 , ",
"A 0.=.=.9.q.j.9.0.H , *.x.9.9.q.9.9.j.x.r g 2.l ; j ` ] ;.] ;.;.' ;.` h < f ' ` 9 I.O.[.J.z.D.F.J.F.D.H.A J J.D.D.D.J.D.A $.9., ",
"U.7X7X+X&Xz.oX6X9Xp.y 0X=XV.V.oX%XoX;XW.S ` ;.` f , g / ' ] ] ;.] ` h < < / ' ;.8 3XaX8X*XoX.X{.p.$X6X;Xy 9.8XN.b.b.$XN.9.p.b.e ",
"n.b.$X$Xg.*.9.<XoX .u oXb.%X$X*XJ.-X&X<.g 2.;.l j l , < f / / / j e < e h f ] ;.f J.dX9X0XqXN.p.$.D.<Xb.i 9.m.M.-X#X@XR.D.,.a.e ",
"n.B.a.%XXXj.L.@XB.} A oXXXn.z.j.'.[.oXi / 2.;.8 j 2.j 8 < < 8 < , < g ' l < ] ] _ u yX0XiX8XXXk.D.[.T.d.i 9.T.P.p.j.k.L.D.>.i.w ",
"n.B.p.%X{.p.J.T.c. .p OXXXJ P.rXU.J.b.w ] ] ;.8 j ;.] ` j f 8 e f / ' 2.h ; ] ' ;.< R.iXsX8XR.R.j.'.b.d.i 9.oXq.R uX$XK.w.H r.w ",
"n.B.p.oX;XU.F.R.B.} u :X$X>.U.*XR.P.>.g 2.] ' < j ;.' ;.' ' _ ' ' ' ] ;.l , ' ' ;.j J }.*.x.#X{.j.P.N.b.i 9.8Xw.@.*XR.'.0.K z.e ",
"n.s.,.#X>XD.P.<X2X,.i 8X}.w.Y.w.J.J.$.g 2.;./ < g ;.' ' ] ] ;.] ] ' ' ] ` , / ] ' ` 1 7 M !. X'.w.].1X$Xk 9.8XK.U.Z.D.D.0.o.J.4 ",
"n.s.w.XX<XJ.'.6X$X} u T.N.@XR.}.J.6XA.< ` / j < g ;.' ] ' ' ' ' ' ] ' ;.` ; h ] ;.j d fXgXm r.1XD.}.-XT.y 9.B.XXXX{.|.J.J.-.J.4 ",
"Y.$Xp.>.j.8X:X#XoX,.i :XT.B.C.=X;XXX9., h h h - g ;.' ] ;.] ] ;.;.] ' ;.` ; g / _ w x gXgXb G XXrX%XXXT.i 0.&Xb.B.T.6XXXD.P.U.4 ",
"j.Y.i.| | a.s.s.v.{ t T.k.i.i.i.i.| a.G < e - - _ ;.' / ` ' ' _ / / ' ;.' - ; f f - /.gX).n } i.d.s.s.k.e +.Y.i.i.i.<.<.| p.<.w ",
"> , , 4 w 4 , , , , , > 5 4 4 w w w w e , - - - _ ;.] ` l l j j / ' ] ] ;., * < , @ v M m < w w , , , , , > > 4 4 4 w w w 4 4 , ",
"+.Y.R.R.n.n.n.n.Y.1., w.R.U.Y.k.k.n.z.n.S u J.w h ` ;.;.;.] ] ] ;.;.] ] ' < A ! / ' _ k t J.Y.n.n.U.Y.Y.i K J.n.Q.Y.k.n.U.n.j.4 ",
"Y.2XR.;XoXoXXX9.} } C #X5.1.p.5.w.%.R [ C *.tXD 1 h / ` ' ' ' ' ' ` / j f r +.e h / / ) 9.J.&XoXoXD.*.a.C *.R.R 8.p.r.*.Y [ ( y ",
"U.}.'.*X&X;X#XT.@X1.y =X%.9.U. X;Xr.%.@.C *.6X#.; e 8 < e e e e e e < 8 1 +.*XD.@.R u &XJ.}.*X;X;XR.G.@XC %.U.,.D.R.1XJ.U.p.*.e ",
"z.8X@XoX$X#X&XE..X1.i oXp.`.R.%X#X$XF.z.G @.8XF.< f g f g g g g g f g g : D 6XXX9.p.C *X}.XX$X#X$X#XN.T.i 1.j.w.{.R.@X&X$Xq.k.e ",
"z.&XtXJ.>.,.G.T.h. .C N.[ ( Z R Y '.Y.i.Z @.=XyXT 3 4 4 f f e f f e , t 2 Z 0.Y.,.<.S XX1XwX9.u.,.R.g.d.y 1.,.( C R R 9.Y.} a.e ",
"z.&X4XD.i.f.U.N.i.{ i .XD.( G } { {.r.u.! @.:XtXF U ..P N N N N N N L ..B [ 9.XXp.| S XX1X4Xs.d.p.@Xi.a.y @.XX5.C } } 8.XX5.i.y ",
"z.6X1XD. .} %.p.i.[ i T.v.{ C Y G {.w.,.! @.6X2XF E 7.4.L B 3 B W 4.7.6.0 Z w.XX,.| C @X3X3X*. .{ p.,.,.y @.r.u.G Y ( 5.XX*.<.y ",
"z.$XR.J.D.} ,.,.,.G i z.} u.R G G G. .d.Z @.XX{.V 4.7.6.6.P 2 L 7.7.7.6.0 C r.k.<.<.C R.[.U.F.u.,.,.} ,.y @.%.} u.G C 5.z.| a.e ",
"U.XX&X}.`.} ,.} } Y i U.5.r.G.,.,.u.d.b.Z @.$X@X&.U 7.4.6.E = W 7.6.7.6.0 ,.i.d.b.<.u }.R.{.{.n.} >.{ ,.y $.G.p.H.k.u.u.a.B.i.e ",
"J R R 0.Z Z Z Z Z C w R G G Y [ [ ( ( ( y C R J -.B 7.6.6.W 2 U ..E 4.4.3 ~ ( ( ( C w R Z 0.8.~ Z Z Z ~ e i R G G ( ( ( ( ( C 4 ",
", V u A A D A S D t > t K D K A A D A J t , S K A 0 ..4.E L 2 N 4.6.6.L 0 H K D K K > i K S K K J K K J w , S J J J K K K J K , ",
"k.8X&XE.&XR.#X&X6Xj.w 6X&XT.T.#X*X#X&XOX( J 9X8XoXV N L L L 2 U 7.6.7.L F rXoX&X#Xl.y &X8XoXoX6XM.;X&X6XC *.2XoXT.T.&XoX;X#Xm.e ",
"n.T.}.oXb.p.z.}.oX} u =Xv.m.T.#XR.XX&Xg.! *.E.XX6XV P P L L 2 U 7.6.7.L F &XY.6Xm.| K E.M.<Xm.k.>.R.6XN.i q.oXl.oXoX&XY.-XT.i.e ",
"z.B.v.&Xm.w.H.}.C.} A .XT.[.F.Y.}.>XoXg.! $.V.a.&XF E 6.4.L 2 U 7.7.7.N F {.L.$Xb.| S E.h.#XoXj.Z.[.%Xc.i 9.V.@XD.D.*X[.@Xb.i.e ",
"z.b.a.:X{.*.L.XXB.} u +X#XJ w.#XY.P.b.M.G $.W.<.#XR.U 6.4.L 2 L 4.4.6.B }.Y.H.U.v.k.S oX<.U.&XU.q.P.V.B.y 9.oXD.{ *XU.J.Y.a.z.e ",
"z.b.p.oX$Xz.D.XXg.} u %X$XJ -XyXn.'.l.w.J +.W.<.%Xk.N 4.4.N 3 0 w 0 L 0 uX@XJ.U.1.k.S oX| R.oX-Xp.L.V.c.C 9.6Xw.*.uXR.F.Y.>.z.e ",
"z.m.i.$X{.J.}.'.$X} i 8X>Xk.w.9.J.'.p.j.G @.+X<.;Xz.3 P W N * g _ h * q D.{.'.z.R z.S oX| U.8X[.Z.[.6XoXk q.eXD.w.D.J.P.U.{ U.e ",
"z.v.r.R.2X'.P.{.8X,.u oXT.P.'.[.D.@XJ.R.{ J k.$.#.X.- 3 0 ,   g g l < O.,X,XG.@Xw.n.u T.5.G.<X3XD.[.6X$Xk q.T.'.J.[.|.r.@X0.R.w ",
"z.T.k.k.J.2X*X$XT.,.u %Xm.N.T.9X9X'.K.J.S u H u A q 8 8 8 8 - , , , 8 t y.S.e.D.].D.i $Xk.p.5.D.@X$XXXT.i q.oXm.N.#XwX*XJ.|.J.w ",
"k.#Xi. .| l.m.m.Y.1.e $XT.h.f.g.l.i.1.H w p +.V t u r , , w 9 , 8 < ; ; * t t t H H i {.v.|  .<.l.m.v.Y.y *.@Xd.a.h.d.d.i.z.p.w ",
"w y y i i y e e y e , y y i i y y i y 4 4 4 4 w w w w 4 4 w w , , , , , , 4 4 4 , , , e y y i y y e e e , , e y y y y y y w e , "
};
