/* XPM */
static char *_4067631b5bc4c519a53f618f80c83b4P8hlPoExqOLgvKaR[] = {
/* columns rows colors chars-per-pixel */
"64 64 247 2 ",
"   c #0D121E",
".  c #16121C",
"X  c #0E0B15",
"o  c #391814",
"O  c #2A170E",
"+  c #0D1524",
"@  c #0D1828",
"#  c #121523",
"$  c #141926",
"%  c #1A1B26",
"&  c #141B2C",
"*  c #1A1E2B",
"=  c #151628",
"-  c #0A1B35",
";  c #151E31",
":  c #191E32",
">  c #2B1C24",
",  c #1C212D",
"<  c #15202E",
"1  c #0C223C",
"2  c #0E2434",
"3  c #152234",
"4  c #1B2334",
"5  c #162539",
"6  c #19263A",
"7  c #152A3C",
"8  c #1A293D",
"9  c #192834",
"0  c #15303E",
"q  c #0F242F",
"w  c #22232E",
"e  c #2C242C",
"r  c #352629",
"t  c #222533",
"y  c #252936",
"u  c #262B39",
"i  c #292E3C",
"p  c #2B2834",
"a  c #2C313D",
"s  c #25333F",
"d  c #35333B",
"f  c #36250E",
"g  c #491A1B",
"h  c #47251B",
"j  c #4B3438",
"k  c #4F2F2F",
"l  c #643633",
"z  c #70322D",
"x  c #78463D",
"c  c #61463B",
"v  c #5C483D",
"b  c #0E2C4C",
"n  c #0C2644",
"m  c #152D41",
"M  c #1D2C44",
"N  c #1D2F49",
"B  c #142948",
"V  c #0E374C",
"C  c #153444",
"Z  c #193345",
"A  c #153649",
"S  c #1D344C",
"D  c #163B4B",
"F  c #1A3B4D",
"G  c #123946",
"H  c #0E2E51",
"J  c #0F3255",
"K  c #1C3D52",
"L  c #12395C",
"P  c #173757",
"I  c #202C45",
"U  c #212F49",
"Y  c #2D3442",
"T  c #21324C",
"R  c #253848",
"E  c #333644",
"W  c #343946",
"Q  c #353C4A",
"!  c #3A3D4C",
"~  c #3C3845",
"^  c #233652",
"/  c #233A55",
"(  c #243D5A",
")  c #293D5B",
"_  c #283954",
"`  c #133D62",
"'  c #403E4B",
"]  c #15414E",
"[  c #18404E",
"{  c #0E4756",
"}  c #154454",
"|  c #1A4354",
" . c #1D445B",
".. c #1B4B5C",
"X. c #164A5A",
"o. c #1A505F",
"O. c #0D535D",
"+. c #3B414E",
"@. c #23425D",
"#. c #29425E",
"$. c #264758",
"%. c #3E4452",
"&. c #374A58",
"*. c #254954",
"=. c #1D4C62",
"-. c #15456A",
";. c #164A6E",
":. c #154365",
">. c #1C5264",
",. c #1D556A",
"<. c #1C5B6D",
"1. c #155868",
"2. c #174D71",
"3. c #184E72",
"4. c #195075",
"5. c #1D5D71",
"6. c #1A5679",
"7. c #0D5060",
"8. c #264462",
"9. c #2A4564",
"0. c #234C65",
"q. c #2A4966",
"w. c #244D69",
"e. c #2C4B6B",
"r. c #2B4668",
"t. c #304C6D",
"y. c #32476A",
"u. c #215266",
"i. c #23536B",
"p. c #2A526E",
"a. c #225A6D",
"s. c #2A5768",
"d. c #2F4E70",
"f. c #255672",
"g. c #2D5373",
"h. c #245C74",
"j. c #2A5A75",
"k. c #2C5C7A",
"l. c #245E79",
"z. c #315373",
"x. c #325B78",
"c. c #35546B",
"v. c #16616C",
"b. c #1C6374",
"n. c #1D657A",
"m. c #1C6B7C",
"M. c #176777",
"N. c #17727E",
"B. c #0E6874",
"V. c #226276",
"C. c #24647A",
"Z. c #2A637D",
"A. c #236A7D",
"S. c #2B677A",
"D. c #306777",
"F. c #404653",
"G. c #414856",
"H. c #424A5B",
"J. c #4B4649",
"K. c #764944",
"L. c #70524C",
"P. c #5B696F",
"I. c #843C36",
"U. c #88453C",
"Y. c #894B42",
"T. c #954D43",
"R. c #8C554C",
"E. c #8B6151",
"W. c #A86959",
"Q. c #B86A59",
"!. c #BB735D",
"~. c #BA7764",
"^. c #AD7F6D",
"/. c #956B5F",
"(. c #C5715E",
"). c #C87865",
"_. c #BB8474",
"`. c #C9846D",
"'. c #D59279",
"]. c #D28973",
"[. c #E2977C",
"{. c #1D6D81",
"}. c #167482",
"|. c #1C7384",
" X c #1A7986",
".X c #1D758A",
"XX c #167B8B",
"oX c #1C7B8C",
"OX c #167887",
"+X c #1D7E91",
"@X c #0C7980",
"#X c #2D6481",
"$X c #246D83",
"%X c #2A6C84",
"&X c #286C86",
"*X c #316884",
"=X c #237285",
"-X c #297286",
";X c #24758B",
":X c #29728A",
">X c #237A8E",
",X c #297A8E",
"<X c #217887",
"1X c #377485",
"2X c #247C92",
"3X c #297992",
"4X c #427887",
"5X c #1C8395",
"6X c #1C8A9B",
"7X c #188797",
"8X c #1A8A95",
"9X c #238294",
"0X c #238599",
"qX c #2C839A",
"wX c #26889A",
"eX c #338A99",
"rX c #2C8A95",
"tX c #1C8FA1",
"yX c #1B95A5",
"uX c #258DA2",
"iX c #318CA4",
"pX c #2393A2",
"aX c #3597AB",
"sX c #389DB2",
"dX c #38A3B8",
"fX c #24AAB5",
"gX c #41A9BB",
"hX c #32B3C6",
"jX c #1EB9C7",
"kX c #44B5C6",
"lX c #40BDD4",
"zX c #2EF1F8",
"xX c #4CC7D6",
"cX c #54DBE6",
"vX c #56E4ED",
"bX c #B4A29A",
"nX c #E79D84",
"mX c #F3AB8D",
"MX c #F5AF91",
"NX c #FBB493",
"BX c #F8B697",
"VX c #E9A78C",
"CX c #D3B9B3",
"ZX c #E3AC96",
"AX c #F2CAB5",
"SX c #FEC09E",
"DX c #FFFFFC",
/* pixels */
"A ..............>.m & | ............=.>.3 5 X.X.o.>.>.X.] ] 0   C >.o.>.X.X.....>.C & X...o.........>.X.$ A >.X.>.X.X.....>.Z & ",
">X0X=X>XZ.#X%X<.i.K Z 2Xh.C.C.C.C.h.w.w.8 <.5X<X<X$.*.R R R s y 8 Z a.>Xl.n.h.i.i.S | wX=X>X#XZ.#XA.i.p.4 $X|.a.$Xh.n.h.w.w.^ A ",
":X X|.2X>X>X$X>.5.K F :XS  .>.XX{. .S K 8 b.9XF 9 p W ! F.F.F.G.%.W t * m.XX=. .S M  .0X<.|.>X>X;Xa.u.i.6 A. ./ 0.M.}.=.@./ M F ",
"-X5X7X;X>X>X>X&X5XK F :X=.6X>X9X2X>X5.n.6 V.,.$ E G.%.%.%.%.%.%.%.%.%.d C 2X0Xn.b.F | 9X X;X3X2X2X&X2XC.4 %X,.XX9X2X9X9X$Xb. .S ",
"%X0X>X5.u.u.{.g.t.T K p./  .@.0.,.$X8.e.8 ..4 a %.%.%.%.%.%.%.%.%.%.+.%.a 0 o.G X.| C >.9X=Xu.u.b.Z.y.9.5 j.^ =.S u.=.A.w.8._ D ",
"%X2XyXu.e.9.n.g.e.T S Z.=.M T )  .$X8.q.M D 4 a +.%.%.%.%.%.%.%.%.F.+.+.%.* C =.9.U F | .X7X#.e.u.%X9.9.5 h.,.S M @.^ V.i.9.^ D ",
"-X5XtXu.9.@.5.w.8.S S -XC.T S (  ..X5.9.M 7 t i ! %.%.%.F.F.+.W a i y t , * 4 v.i.U ..,.m.+X( 9.0.h.( @.6 h.{.8.M @./ n.{.0.^ D ",
"$X+X|.5.@./ ( 8.8.S S h.8.@.S S  .{./ e.8 . y u a +.+.Y i t , t % y E i a a w 3 g.T | <.b.{.=./ ( @.8.( 8 i.=.9.^ S N m.0.q._ F ",
"<X<XoX.X{.9.8.( @.S S V.0.{.5.( 8.0.q.e.8 % i u u y * t a w a E y a Y i y i , 4 z.U X.<.b.A.+Xw.9.@.( ( 8 <.u.h.|.@.@.w.e.z._ F ",
"V.h.b.m.=.^ / / ( M Z V.0.u.i.9.9.9.9.( 5 $ t $ % y y a W y i a y i a i y a , 4 9.8 K =.| oX5.K ^ / / / 3 >.,.0.h.9.9.9.9.9.T 7 ",
"& 4 3 5 : 5 3 3 3 ; & ; 3 3 3 3 3 3 3 3 $ # # t t a a t i y i a y i a t , < $ # 5 < # A 5 7 3 3 5 3 3 3 & & ; 3 * 3 ; 3 3 3 * = ",
"b.=XS.C.=XC.=XA.<XF 7 <XA.C.C.A.A.A.A.C.* , t a t y a y a t y 4 & + $ w % r 8 A.%XK Z >.u.C.=Xm.A.$X=Xn.& <.<XC.C.A.=XA.A.A.$.5 ",
",X-X9Xk.A.@.%X0X2XS | wXk.z.z.-XC.>X>Xy., w , a y y u 4 , e % e l Y.R.].nX).+.6Xz.T =.,.n.:XZ.,.0.0X2Xh.6 <X&Xz.z.Z.<XZ.0Xx._ F ",
"%Xe.<X&Xq.>.n.5Xk.T | #XZ.<X$X-Xm.oX&Xe.4 w t * @ * % . l k R.~.[.mXNXE.v k s.+Xp.T ..,.>.9Xe.u.n.oX&X9.8 C.g.>X|.$Xm.m.>Xz.^ D ",
"%Xe.i.>Xm.>.}.Z.z.T | *X|. .5.i.|.m.g.f.8 # # j j O f o W.k c r E.BXBXJ., L.*.$Xe.T ..<.S =X<X>.m.|.g.9.8 C.-X,. .i.V.N.l.e./ D ",
"%Xe.i.&X.X0.m.j.z.T K :XV...fXwX<.m.e.M.S . o '.).o O h VXCX/.e bXNXmXP.P.CXR l.5.| X.<.S &X2Xh.>.|.t.q.8 Z.&X| v.fXV.}.p.>.=.S ",
"%X9.a.&X<Xa.N.Z.Z.T K uXm.0.V.h.|.m./ a.S . h nX).z O W.BXDXbXd AXNX~._.AX`.*.u.>. .X.,.S >X3Xm.n.m.Z.e.6 |.5X..>.h.A. Xw. .@.Z ",
"%X@.a.>XoX>.}.6X5XU | 3Xm.<.<.V.b.m...n.6 w O x ].(.).BXMXSXAXZXBXMXmXU.MX).R n.<. .| ,.F |. Xm.n.XX6XC.4 $X.Xn.n.<.b.b.C.,.0.Z ",
"%Xw.n.C.oX|..X&Xk.T | #Xk.Z.%X5X+X.Xb.O., %.r O o U.].MXMXMXMXNXNXMX~.W.BX].$.}.v.F  .<.K 5.,.XX|.>X%Xe.8 C.g.&X%X5X5X=X{.m.@.C ",
">X<X8.S w.2X>X&X>X/ F wXZ.z.z.#XZ.i.m.X.y +.  O O o Q.[.MXMXMXMXVX'.nXBXBXY.9 C..XM F >. .=.^ $X2X>X-Xh.4 <X>Xd.g.k.%Xp.i.oX/ Z ",
"K S M M M M M M S 4 5 K S U U I I I U 4 , ! t   . O z ).MXBXMXMX'.W.~.BX].o & T T F G 5 M M I I I M Z M * S S M M M I M 8 M 6 3 ",
"5 F D D F D D D [ 5 = C D D D D D ] 7 # t Y F.Q 3 X k T.R.'.BXBXBXSXBX`.h a < 7 D } < A D D D D D D ] A = 5 D D D D D D D | 7 = ",
"<X9X>X,X#X*X-Xh.h./ Z 9XC.C.S.Z.C.Z.K * Y u Q &.' a w K.Y.I.U.~.'.`.T.o i y   0 @.8 | wX=X>X#X*X%XA.h.j.4 $X<XC.-Xh.C.h.f.i./ Z ",
",X|.n.>X-X;XA...i.T K ,XF K  .|.n.@.4 * 4 * ] @XR &.+.t r x T.I.z U.k & a # u t Z 8 ..wX,.m.>X>X-X,.@.q.6 A.=.T @.b.m. .^ T I F ",
":XXX+X>X2X2X>X-X5XK F ,X,.7X>X0X9X9X<.@ t s.o.v.B.G p %.Y 4 j R.Q.K.w i t 4 Q +.q G  .2X X2X3X2X>X&X2XC.4 $X,. X9X9X0X3Xn.5. .F ",
"-X0X-XA.h.a.>Xg.z.T K p. .u.0.i.<.;X| i H.c.eXfXD.[ 4 . t W W 4 w % , t W E a G.a q X.0X9X=X<.i.m.Z.t.q.5 j./ ,. .a.,.<Xp.w./ F ",
"&X9XyXi.r.9.m.j.e.S F k.K M T ) K G e 4XaXqXfXjXhXaXdXD.t t 4 t u Y t Q %.+.4 %.%.. } 3XyXXX) r.i.&X9.8.5 j.0.S M ( ^ V.i.9._ D ",
"<X0X6Xu.e.9.V.w.8.S S :Xn.S K 9.N % 1XkXdXcXvXzXvXkX&XkX1XE %.y ! %.u %.%.+.t +.G.p X.2X7X}.#.e.i.h.( ( 6 h..X@.M 8./ V.|.0.^ D ",
"-X+X>X<./ / ( 8.8.N S C.8./ N S : c.aXkXxXvXcXkXiXqXqXxXsXx.F.u %.%.y %.%.+., ! %.! 7 $X+X{.0./ / @.9.( 6 a...8.S S N m.i.q._ F ",
"-X=X$X.X$X9.9.( @.N S h.8.C.=.3 p 1XiXiXxXxXgXsXsXS.xXdXqXeX~ u +.%.y %.%.%.* ! %.%.t | 2X#X+X8.9.8.@.( 8 i.0.f.n./ / u.q.z.^ F ",
"<XC.m.oXh.( ( ( 8.N Z C.w.C.} t ! j.lXqX:XqXsXgXsXaXaXiXhXS.! u +.%.u %.%.+., Y +.%.W 7 C.oX5.( ^ / / ^ 4 5.5.w.n.9.9.9.e.e.T C ",
"; : 5 7 : 4 4 3 4 3 ; : : : * +.Q R qXdXsXiXqXqXqXdXdXdXqX&.+.u +.+.y +.F.%.* t Y %.+.4 K | F F F F F F D K F F F F D F 8 6 ; & ",
"..V.a.a.V.a.V.a.n.Z 3 A.A.] y %.Q t 4 u.qXaXsXsXaXqX-X0.u ! %.i +.F.! %.%.i , E F.+.G.i | V.A.m.A.m.m.v.3 >.|.A.A.m.}.>.D 5.F 3 ",
",X9X9X#X<X0.:X0X9XS F uX:XM a F.W % r W E $.$._ $.R Y i i Q F.%.%.F.%.~ j X + t Y %.G.p <.:X&X5.i.9X9XC.: <X3Xz.z.k.=Xf.>.p.( F ",
"%Xg.oXZ.q.,.5.5Xk.T | Z.Z.} d %.@ j ~.K.K.j %.F.%.%.E Y Y Q F.%.F.+.j U.T.~.^.d + E %.w ,.wXt.@.>.oX-Xr.5 Z.z.=XoX<X|.{.o.q._ D ",
"&Xe.i.3Xn.,. XZ.d.T | *X.Xm W Y + K.nX`.).l Q %.~ ! ! E i Q G.F.G.~ z Q.].VXNX'.d # Y , S 3X{.>.}.|.g.9.8 C.%X5.=.@.A.}.1.#.^ D ",
"&Xe.i.>X.X=.N.k.e.T | *XC.G 9 u + E.].Y.R.l H.c.1Xc.! E i +.%.+.+.W > T.~.~.nXNXE.+ t 4 @.$XoXa.5.|.t.9.8 Z.&X .b.fXV.}.o.>...A ",
"%X9.h.%XoXl.N.C.g.T F wXm.X.3 t + K.[.~.`.x D.1XD.pX! Y a E Y Y Q Q Y g Q.~.[.NXx X D p.9.=X3Xm.<.|.k.e.8 =X6X..<.<XA.}.o.X.@.A ",
"$X8.u.<XoXb.XX7X7XU F 0Xm.n.b.* X h ].W.W.j pXeXrXD.! Y i Q F.%.G.G.+.e z !.).Q.r 3 ..h.( -X5Xm.M.oXtXh.4 =X7Xb.{.b.N.m.o.>.=.Z ",
"$Xw.M.<X7Xm.oX<XZ.U | x.Z.=X<X7XB.o.W.(.U.k D.eXeXD.$.i i W F.%.%.%.%.! e g l y 1.@.| j.<.m. XoX|.>X.Xp.8 C.g..X$X7X XoX1.1...Z ",
">X$X8./ a.0X>X&X-XT F wXk.z.x.-X:XC.*.l k Q F.%.c.&.Y t t +.F.%.%.%.F.%.Y y & m.oXT X.9Xw./ ( >X0X>X&Xh.4 =X:Xz.z.:X2XC.v.XX@.Z ",
"u.i.( ( ) @.8.8.i.M C C.8.#.#.) ) _ K I H.%.Y Y i i E i t %.+.+.%.Q Q Y y $ 8 #.8.M A a.8.( ) ) 8.8.0.@.; >.p.) #.) ) ) / @.U 7 ",
"= ; 3 3 5 3 3 3 3 & = & 3 3 3 5 3 3 3 8 ! H.F.H.%.Y i & 4 Y i i i y , * * * & 5 5 3 # & 3 3 5 3 3 3 3 & & = ; 3 3 5 5 5 5 5 3 = ",
"<.=X=XA.j.Z.C.V.C.K 5 |.$X$XA.h.V.V.h.h.5 *.$.u i t 4 * & 4 4 t , * 9 u Y 4 } V.C.F C |.A.=XS.Z.S.A.A.C.; <.}.V.=Xh.h.V.h.V.K 5 ",
"9X+XA.>X%X&XC. .( T K -X .0.0.5.,.K S T 8 b.tXm + * t u i Y Y Y Y i t 4 3 1 =.F U M ..tXa.|.:X&X&X<./ 9.8 A.<.^  .,.M. .S U M K ",
",X XXX>X3X2X&X&X+XS S ,X .m.=X6X<XA...>.8 a.9XV b b 1 5 3 4 < < & 2 B H H A <X,.=.Z  .9X}.+X3X2X>XA.<XC.4 $X>.5.m.oX6X$X<.>.K F ",
"-X5X$X&X$X&X>Xj.Z.S F Z.i.m.h.$X-X2XM.i.8 i.wX{ b ` L L J J b b b ` ;.2.L A 9XC.h./  .wXoX&X-X$X>X#Xk.p.6 C.@.|.C.$X$X>XC.h.( S ",
"%X0XyX<.8.( {.g.e.S K j.^ N S /  .oX,.9.M u.qX:.n L ` ` L H n b -.;.3.4.L - m.f.e.T | 3XyX5X@.9.>.%Xy.9.5 j./ T M K S b.f.r._ D ",
"%XwXtX>.e.9.$Xw.8.S S :X5.N S (  ..X5.q.M i.uXX.n -.3.3.;.L 1 :.4.3.3.4.b N A.{.0.T | 3XtXoXe.d.a.&X) 8.5 h..X .M @./ C.{.0.^ D ",
";X5X5X>./ / @.8.8.N S %X0.^ N T K .X=.9.M i.uX{ B 2.2.;.3.` - -.4.3.3.4.b M |.h.@.T  .2X7X+X/ / ( w.9.( 6 h.5.( M S N m.h.@._ D ",
"$X{.C.|.h.( 8.@.8.M F a.( w.K S  .5./ g.8 0.3X7.n 2.2.2.3.L - -.4.3.3.4.n M m.@.e.T | =XoXh.|.9.9.9.@.( 8 >.K 0.=.S T 5.@.e./ D ",
"<XA.+X+Xn.( @.( @.N S C.w.n.b.9.8.9.g.e.6 <.;X5.n ;.2.2.4.J - -.4.3.3.;.1 8.q.g.g.T X.9X|.+X2Xw.@.@.( ( 8 5.5.f.XXe.q.q.e.g.^ A ",
"Z M D | M M M M M 6 5 Z M M N U U U U M ; Z S 8 n :.2.2.-.H - :.3.3.3.;.- U U U M 4 7 S M >.S M M M M M 3 Z M M U U U U T U 4 3 ",
"m | F F K | F F | 5 ; K | | | | } } | | ; 3 | K 1 J L L L H - ` 3.3.6.L C X.} D X.m & } K F } | | F } D & C } } | } } } | } C = ",
"<X0X2X#X+Xh.3X2X9XK S pX;Xk.k.>X-X>X>X#X8 >.pX9X .n L J L n - :.3.2.6.b ,.0X%X9X*X/ | yX6X#X3X Xh.0X9XA.: .X6Xk.x.Z.2X:X0X#X@.A ",
"%Xg.5XZ.w...5.5XZ.T F :Xg.&X%X|.V.>X=Xe.8 a.j.<X$X+ 1 n 1 @ - :.3.2.4.b ,.=X$X>Xp.T ..Z.A.5Xd.@.=.oX;Xe.8 A.g.Z.=X>X|.C.>Xg.^ D ",
"%Xe.h.>Xh.5.}.<Xz.T K #X$Xm.n.h. XXXk.e.8 a.g.p.m.$ t 4 4 * n ;.2.2.4.b S oXOXZ.t.T X.Z.r.2XZ.,.N..Xk.r.8 C.Z.}.n.C..XN.%Xt.^ D ",
"$Xe.i.9X}...}.C.d.T F *XC.Z oX>Xm.m.e.n.8 i.g.w.b.$ Q W Y $ 1 ;.2.2.3.b oXV.N.j.C. .| #X#.$X.Xi.b.=Xz.q.8 Z.&XX.>.wXV.}.j.a. .D ",
"A.r.h.%XoXu.N.Z.t.T F qXm.| 5X9Xm.|.@.,.8 >.g.w.m.# t u ,   n ;.4.4.;.b 6XC.}.p.>. .| #X#.=X;X{.,.|.z.e.8 A.9X..<.pXC. Xi.....A ",
"A.e.w.=X}.m.XX.X>XT F uX X<.<.<.m.|. .5.8 i.j.@.m.} @ + q V 1 L :.:.n V 5.}.N.=.>. .| #X#.=X6Xm.m. X5Xh.4 .XyX>.V.<.|.m.u.=.0.A ",
"Z.w.m.|.tX{. XoX>XU F #XA.|.oXXXb..Xm.n.6 }  .} ] O.{ { { { & ; - 5 @ <.6XOX{.}.M. .| k.5.=X7XXXm.=X8Xh.6 C.k. X{.7X}.m.|.b.=.Z ",
"=Xh.0.0.m.7X=X=XZ.T F 3Xg.k.Z.6X2Xb.7.} ; G D C m C O.{ } C & t a Y u 5 M.B.1.1.OXK | >Xi. ...b.=X>X&Xf.6 $X#Xk.k.+XtX=X{.7X .Z ",
"5.h.( / ( 0.i.i.h.S Z $Xp.9.9.9.9.M 7 C ; G } m 7 7 m A C m $ t Y Y Y * ; 7 8 7 A 5 D m.q.) / #.p.p.i.u.4 b.C.r.q.9.q.9.9.a.T m ",
"; : 3 4 4 ; ; ; : * & : 4 4 3 4 4 3 ; ; ; ; ; ; 3 3 ; ; ; ; $ $ t u i , & 3 3 3 ; ; ; : 3 4 5 4 : : : * & & : 3 3 5 3 3 4 : ; & "
};
