/* XPM */
static char *_595553161264ad4858fc275456a95a71mtV3DzRkssef7yN[] = {
/* columns rows colors chars-per-pixel */
"64 64 232 2 ",
"   c #0D121E",
".  c #18131A",
"X  c #110A10",
"o  c #28160A",
"O  c #291717",
"+  c #361915",
"@  c #210B06",
"#  c #3D2119",
"$  c #0D1422",
"%  c #0C1B2D",
"&  c #0C1828",
"*  c #111524",
"=  c #141926",
"-  c #191A25",
";  c #141C2C",
":  c #1A1E2A",
">  c #131727",
",  c #0B1D35",
"<  c #0A1F37",
"1  c #151E31",
"2  c #1A1D33",
"3  c #14212F",
"4  c #1C212E",
"5  c #0B233C",
"6  c #092434",
"7  c #152333",
"8  c #1A2235",
"9  c #152539",
"0  c #1A253A",
"q  c #152C3C",
"w  c #1A2B3D",
"e  c #182936",
"r  c #16313F",
"t  c #19313E",
"y  c #0B303B",
"u  c #23222B",
"i  c #35272A",
"p  c #212633",
"a  c #242936",
"s  c #262B39",
"d  c #292D3B",
"f  c #2B2A34",
"g  c #2B313E",
"h  c #372F35",
"j  c #211C26",
"k  c #4C2A2D",
"l  c #5A3A3A",
"z  c #4E322E",
"x  c #6A3A35",
"c  c #6E3632",
"v  c #76433C",
"b  c #0A2542",
"n  c #0B2C4B",
"m  c #0D2C45",
"M  c #152E42",
"N  c #1D2C43",
"B  c #1F2F4A",
"V  c #0A3C46",
"C  c #0C3744",
"Z  c #163443",
"A  c #1A3344",
"S  c #1A3847",
"D  c #1D344B",
"F  c #153B4A",
"G  c #1B3B4C",
"H  c #143847",
"J  c #0B2E51",
"K  c #0D3254",
"L  c #0E3659",
"P  c #0F3A5D",
"I  c #1E3651",
"U  c #1D3C53",
"Y  c #193E57",
"T  c #212D45",
"R  c #212F49",
"E  c #223244",
"W  c #2D3441",
"Q  c #22334C",
"!  c #213A4E",
"~  c #323643",
"^  c #323947",
"/  c #363E4C",
"(  c #383F4D",
")  c #393D44",
"_  c #233651",
"`  c #233B55",
"'  c #293A56",
"]  c #243D5A",
"[  c #2A3D5A",
"{  c #0F3E61",
"}  c #103E61",
"|  c #4C3F43",
" . c #09424B",
".. c #19404F",
"X. c #0B4752",
"o. c #154453",
"O. c #1B4354",
"+. c #194957",
"@. c #1D465A",
"#. c #164C5B",
"$. c #1B4B5C",
"%. c #164958",
"&. c #19515E",
"*. c #065158",
"=. c #37404E",
"-. c #39404E",
";. c #224155",
":. c #24435C",
">. c #2A425E",
",. c #22495E",
"<. c #3A4251",
"1. c #114264",
"2. c #1D4D62",
"3. c #114669",
"4. c #12496D",
"5. c #1C5364",
"6. c #1D556A",
"7. c #1D5B6C",
"8. c #185664",
"9. c #1D5E72",
"0. c #0F4265",
"q. c #254561",
"w. c #2A4563",
"e. c #234C63",
"r. c #2A4A65",
"t. c #264D69",
"y. c #2C4C6A",
"u. c #2C4768",
"i. c #314C6C",
"p. c #304768",
"a. c #225265",
"s. c #24546B",
"d. c #2A526C",
"f. c #235A6E",
"g. c #275366",
"h. c #31506E",
"j. c #2E4F71",
"k. c #2D5572",
"l. c #245C73",
"z. c #2A5C75",
"x. c #2C5C79",
"c. c #245570",
"v. c #325373",
"b. c #325D7A",
"n. c #315976",
"m. c #1D6374",
"M. c #1E657A",
"N. c #166D7B",
"B. c #1C6A7B",
"V. c #1B6876",
"C. c #1A727D",
"Z. c #157079",
"A. c #17616C",
"S. c #236275",
"D. c #2A6176",
"F. c #24657B",
"G. c #2B637C",
"H. c #236A7C",
"J. c #2A697E",
"K. c #31617E",
"L. c #20616F",
"P. c #454C5B",
"I. c #434A59",
"U. c #5C4346",
"Y. c #6A4243",
"T. c #6D6F6F",
"R. c #82453C",
"E. c #8B4E45",
"W. c #944D44",
"Q. c #9C5C52",
"!. c #92554C",
"~. c #9A6558",
"^. c #A76557",
"/. c #BE6B5B",
"(. c #B77063",
"). c #A45C4F",
"_. c #C37666",
"`. c #B88F7C",
"'. c #CA8371",
"]. c #D38975",
"[. c #DB947D",
"{. c #1E6D81",
"}. c #176F80",
"|. c #1C7484",
" X c #1E7689",
".X c #1D7A8B",
"XX c #197885",
"oX c #1F7E91",
"OX c #2C6681",
"+X c #246C82",
"@X c #2B6B83",
"#X c #286C85",
"$X c #316582",
"%X c #326C85",
"&X c #326E88",
"*X c #247285",
"=X c #2A7186",
"-X c #24768A",
";X c #2B748A",
":X c #237A8D",
">X c #297A8D",
",X c #267887",
"<X c #31748D",
"1X c #247D92",
"2X c #2B7C92",
"3X c #347C96",
"4X c #1C808F",
"5X c #1D8395",
"6X c #1C8B9B",
"7X c #188899",
"8X c #1F919F",
"9X c #238294",
"0X c #2B8195",
"qX c #248599",
"wX c #238B9C",
"eX c #29889B",
"rX c #1E8FA3",
"tX c #268DA1",
"yX c #2593A4",
"uX c #25B0BB",
"iX c #B4B6B7",
"pX c #E29D83",
"aX c #DBA991",
"sX c #EDAB8D",
"dX c #E8A388",
"fX c #EFAE92",
"gX c #F7B496",
"hX c #F3A98D",
"jX c #CB9D87",
"kX c #F9C1A9",
"lX c white",
"zX c #C2C5C6",
/* pixels */
"; 7 7 7 w 7 7 7 7 3 > ; 7 ; 3 3 7 7 7 7 ; ; 3 7 ; 3 7 7 7 7 7 > ; 7 3 7 7 7 7 7 7 ; > ; 7 7 7 7 7 7 9 q 7 * ; 7 7 7 9 9 7 7 9 ; ",
"5.*XH.f.D F.H.F.H.@.7 *X*X*XF.G.D.H.F.F.1 O.*XF.,XS.l.S.S.S.2.; 7.*X|.H.S.S.F.F.J.,.; H.|.H.1XF.F.H.M.H.2.; V.{..XH.S.S.F.M.F.S ",
"=Xf.:.,.O.M.2.Y _ R S tX+X*X;X@X@XS.;.r.0 f.F.` ,.a.{.2.G A Q e 9X*XF.,XJ.OXF.$.[ ` Z *X2.:.a.9.B.$.Y _ R Z tX{.M.*XJ.#XS.O.] D ",
"=Xs.l.9.@.wX*XF.s.` S 0X|.wX1X9X0X#X-X*X8 l.J.2.|.:XyX*X9.e.$.7 1X{..X1X9X9X-XH.,X,.e ,X@.M.*X5X7XB.l.a.D q tXV..X1X9X9X*X{.|.D ",
"J.w.+X$.! =X1XF.f.:.Z 0X9X@X#XJ.*X=Xx.x.0 d.g.M.H.H.H.:X*X2.O.3 S..X;X*XH.H.,Xk.z.` q J.:.B.f.+XH.+X2.8.U Z 9.5X#X+XH.H.*Xy.c.D ",
"G.[ Q w D ` M.d.>.' Z <XeXqX:.w.,.H.i.y.0 g.w._ N ] ` G ! p s s s E a.G [ ` L.d.w.Q Z z._ Q N ` S o.H D D r Z m.rX:.w.` H.u.w.N ",
"D.+Xe.N D >.F.H.e.' S 2XwX9Xr.v.r.#X>.w.9 r.*Xe.T N 8 d / =.<.<.=./ ~ d w Q H.t.[ Q w J.M.D A @.o.9.B.s.R S 9.%.6Xq.y.q.H.] ] N ",
"D.l.r.N A Q m.H.e.' S 0XwX:X;.` ` q.>.:.7 e.7.:.7 a / <./ / / / / / / =.g ; O.w.:.Q w S.@._ F F D |.9.e.R S 9.2.5X@._ I Y ] ] N ",
"f.q.y.e.N D 9.q.i.' S ;X:XD.H.q.>.:.:.[ 9 ,.e.A a <./ / / / / / / / / / =.p w :.[ N w a.I O.G D D 9.:.y.Q S 7.6.M.B.e.] ] U ` N ",
"G.D.x.m.E y.r.y.v.' S 0X*X1X:Xs.[ ] ] :.8 e.9.; W / / ( ( / / / / / / / / a ; ` ] D w H.$.o.9.e.q.q.r.y.R S m.O.oXoX6.` ] U U N ",
"A N N w N T T N N 0 7 D w ..A 0 0 0 0 0 ; w e : 4 4 p a g ~ ^ / ( / / / ^ a : 0 N 0 ; N Z e 0 0 0 0 0 8 ; ; S 7 Z A 2 8 8 8 8 1 ",
"q O.O.S N ..O.G O.Z > S O.G O.O.O...O.G ; > : a s p a s 4 : : p s g ^ ^ d p 4 ; 7 7 1 q o.$.#.#.$.+.O.$.S * Z O.O.$.#.$.@.@.$.7 ",
">X0X$Xr.O.0X@X0X&X:.S eX0X&X<X,XJ.eXeX,X8 H 8 p s p s d p a a : s p - 4 p a p e 8.O.G #.e.b.b.@X2X;XqX$X` S 7.5.2X#X|.l.eXqX:XN ",
"=Xn.G.e.,.:XF.9Xx._ G %XOX9Xv.g.,.*X:Xd.w H 4 a d p s a 8 s p a g a p 4 : ; - F @X` e &.:.OX#X=XM.*XwXy.R G 7.5.rXd.,.O.|.9Xy.N ",
"OXK.*XU Q *XC.,Xv._ G %Xw.=X@Xs.M.|.J.y.w O.- = ; ; a a p d p a a p d a p p - ; :.` S 7.5.H.f.a.H.C.+Xy.R G m.D -X+Xs.M.|.J.y.N ",
"J.@Xs.D S l.|.D.d.@.S %X>.J.9Xf.6.*Xv.y.8 S.Q k l i - $ * 4 p p a p d p p d p : D ` S 7.5.D B.yXS.V.k.l.O.S m.A +X9Xm.6.|.d.r.N ",
"@X;Xf.@.G S.|.z.,.,.S %X>.#X@X*Xs.*Xv.i.0 D.a.^.hX].(.!.l i   = : 4 p p p p 4 : ` ' S 7.5.@.B.wXS.C.e.5.@.S m.A *X;X X2.|.k.y.N ",
";XwX7.,.A H.M.f.,.e.S OX' #X:XH.S..X9XD.2 H.V.~.dXz z i ~.sXv @ O . .   ; : 8 - 7.:.S 7.8.l.f.,.H.B.e.5.@.S m.N ,X9XM.7.XXwX+X0 ",
"J.G.,Xa.@.C.f.*X9.e.S G.e.J.:X-Xm.qX9XD.8 D.w.~.kXu T.zXjXfXsXl o o x ~.O . . G :X` S 6.7.*XM.|.M.{.M.m.O.S m.Q H.7..X7.5X1XF.w ",
"@XG.K.w.@.wXJ.H.|.O.S 2Xd.e.e.1XeX;X#Xz.8 J.l.R.kXT.iXlXgXdXgX[.+ o !.hXz o O l.#XQ S 7.:.b.b.eX1XS.M..XD Z m.G #.A  XqX;X+Xz.N ",
"S.G.r.` A r.w.:.f.Q Z ,Xd.[ ` r.z.z.z.l.2 f.g.^.gX`.aXkXsXsXsXfX_.Q.'.].# o O t o.D Z 5.! w.>.>.>.[ :.a.T Z #.` ` ' >.s.s.s.f.w ",
"; ; 1 7 w ; 7 1 ; ; > ; ; 1 7 1 ; ; ; ; ; ; + '.sXgXhXdXsXsXsXsX[._.^.z o O a ~ : ; > 9 Z ; 7 3 7 7 ; e o.F ; ; ; 7 ; ; ; ; ; ; ",
"@.H.S.7.A f.l.f.S.O.; S.H.H.D.D.D.S.S.S.2 G s.c pXpXdXfXsXsXsXsX[.W.@ o + . $ W s   7 7.#.H 7.6.8.+.H O.Z q B.M.|.S.S.S.S.S.S.7 ",
"H.z.:.e.O.S.q.[ ' Q S tX+X*X;X$X%XS.` w.0 D.a.^.^.E.dXsXsXsXsXdX_.+ o O .   4 ^ a   Z *X@.w 7 F Z w Q ` 0 +.yX+X,X@XOX@XS.` r.w ",
"J.f.2.6.@.9XM.6.@.I A 0XB.1X1X1X1X+X+X+X8 z.7.x [.gXfXsXsXgXdX).c E.Q.j $ a / W a - w H.U 9.H.9X5XM.a.G 7 $.qXN..X1XqX1XJ.+XH.w ",
"G.e.-X9.A :XqX+Xf.q.Z 0XoX#X,X,X:X;XG.J.0 s.l.! l _.dXgXdXQ.c E._.(.z $ ~ / g a s : w J.$.|.#X*X*X9Xf.$.Z @.qX|.+X-X*X*X#Xx.l.0 ",
"x.[ ` N D :.M.d.>.[ S 2XwX9Xe.r.e.*Xi.i.0 g.w.:.; O x E.v R./.(.l - 8 ^ g 4 - 4 4 - Z z.Q Q D :.O.H.` :.S O.-X6X4X:.:.$.#Xw.w.0 ",
"z.+Xq.N ` >.S.H.q.' S 2XyX9Xr.v.g.;Xw.r.0 t.*X,.w 3 a   Y._.l : e W W p - ; / <.p ; S D.9.D _ w.[ m.l.:.Z @.1X6X Xw.j.t.*X>.:.0 ",
"l.F.r.A D Q S.+Xe.` A 0XwX9X:.[ :.s.w.w.9 e.m.:.N 0 : 4 - u 7 d a 4 - = a I.P.P.P.p q J.s._ D ` ! {.l.` Z @.qX6X{._ ] :.a.] ] 0 ",
"f.:.y.:.A R S.e.w.[ S ;X:XJ.H.w.>.w.w.>.0 ,.@.:.q.0 s a s 8 4 4 - 4 s W ( P.P.I.P.( w e.] t.` B _ M.] w.w O.;X-XF.M.[ :.[ [ [ 0 ",
"S.F.z.V.A w.r.y.v.[ S 0X*X:XqXz.w.:.[ :.0 e.S.d.1XA d g <./ W / / / / ( / <.I.P.I.<.~ H s.M.{.w.q.q.t.r.S $.+XH.9XoXq.] ] ` ] 0 ",
"` ] _ D N ' _ _ _ N 7 e.Q 5.,.Q R R R Q 7 D ` Q ` 0 g d ( ( <.=.=./ / / W ^ =.<.=./ ( w D Q _ Q Q Q Q R N +.G G 7.U A N D A D M ",
"; w Z w w q Z q Z e > 7 q r r w Z q Z w ; 1 N q r 7 W g ( / / / / / / ^ 4 d ^ / / / =.~ ; Z t r r Z q S ; ; #.#.+.+.&.&.#.#.%.H ",
"H.0X&Xg.O.0X@X0X<Xr.e 0X0X;X;X*XG.0X0X,X1 f.tXOX%Xq.d a / =./ =./ / / / 4 : d ^ / / / =.E z.K.;X0X;X>X%XA o.wX:XD.;XH.H.9X9XH.; ",
"*XG.k.q.$.1Xz.9Xx.' S %X=X1Xv.s.,.*X9XG.0 S.@Xv.%X;.d d ( =./ / / / / =.W ; 4 d ^ / / =.~ e G.-XH.J.1Xy.N 5.G.|.-Xk.@.U  X1Xt.8 ",
"J.n.,X$.` 9XXX:Xv.' Z $Xp.;X$Xd.M. X@Xi.0 f.b.-X,X$.d =.( ( ( ( ( / / ( W s - 4 d ^ / / ( e V.F.|..X+Xy.N $.k.d.9Xz.2.m..XG.w.0 ",
"J.%Xf.A A f.N.D.d.:.Z %X>.J.qXs.7.*Xv.i.0 f.<Xs.:.8.d <./ ( ( ( ( / / =.g a p * p g ( / =.: %.H.F.N.k.z.A $.x.q.:X|.e.|.|.y.w.0 ",
"OX;Xs.+.O.f.N.D.e.a.Z %X>.J.;X:Xe.|.v.i.0 f.3Xe.7.C.d <./ / ( / / / / ( W a a - : W ( / <.u A.uX7.C.g.7.S $.x.q.H.-XH.7.|.y.r.0 ",
",XwX6.@.D H.C.l.@.e.Z OX' OX1X-X+X|.:XG.8 S.yX7.S.O.W <.=.=.<.=./ / / ( ^ s p Z q d =./ =.s S f.B.XXe.a.D $.k.` -X5Xl.V.XX9Xc.2 ",
"J.J.|.a.@.B.7.*X7.s.Z J.:.F.9X.Xm.qXwX#X2 f.@X|.,X+.p W g g g ^ / / / =.~ a a 7 3 d / / =.~ S .XM.|.M.M.D $.d.$.*X6Xm.V.6X6Xl.2 ",
"J.k.OXe.$.8X,XH.B.e.t ;Xg.l.S.9XqX;X#Xv.0 f.K.G.&X$.u W g g g W W ( / / ^ a s - * a ^ =.<.a G yX5XB.B.|.A $.J.2.2.9.6X9X-XH.t.8 ",
"=X=Xv.>.! b.h.r.+X:.w 0Xb.[ [ k.;X@X@XOX2 l.0Xv.v.T ~ =./ ( ( ( d ^ / / / s a 8 e : : p 4 - >.v.k.r.s.F.N $.1Xr.] [ x.OXG.J.l.8 ",
"0 0 0 w A 8 0 0 8 8 1 w 0 w w 0 0 0 0 0 ; 0 T N 0 ; ^ / / / / / ^ s / ( W p s 4 * * > ; 8 $ 2 8 2 0 2 2 1 7 0 2 0 0 2 2 2 2 2 ; ",
"M @.O.U S G O.O.@.S ; S @.O.O.@.@.O.O.O.1 7 O.@.$.q u g ~ ^ / ^ / d g W a s p 8 r l | f h !.h o.O.O.$.5.A > ..$.5.$.$.$.$.5.$.; ",
"H.+Xl.S.U z.l.g.e.` A eX1X0X<X%X&X=Xs.k.w s.*Xs.;XZ   ; 4 p a s s p 4 a p 8 - q ~ _.dXdXdXgXU.6.l.5.2.e.D G 6X|.|.;XOX#XB.s.k.0 ",
"J.,.` @.$.|.5.:.D B S eXM.*X1X;X;XS.s.d.8 f.f.D $.Z : a 8 ; : 4 4 ; = ; : : - H ) W.v gXfX].k A..X5.Y D w O.wX7.B.-X:X:X9.5.c.0 ",
"@Xf.*XV.O.eX0X*Xf.:.Z 0X.X;X>X2X2X=X;X*X8 f.S.F.wX7.% 0 8 4 p a s a a p 4 ; $ @.J.i x ].'.W.g 1X>X2XM.6.I G qXN.+X;X1X1X@X#XJ.0 ",
"G.[ q.S O.e.H.z.r.[ S 2XqX1Xf.g.l.=Xp.y.0 d.>.q.;.Z m P n b 5 % 7 7 7 ; , n 5 N v.I Q./.W.k D 2.@.M.6.t.Q G 2XqX:X6.e.6.@Xp.w.0 ",
"G.l.` A O._ 9.F.q.[ S <XtXwX:.u.q.*Xw.w.7 g.z.` N 7 P 4.1.K n L L K K J J K 5 D y.` k U.;.A N ] B 9.c.r.Q G ;XrX7Xq.y.t.;Xw.q.0 ",
"D.H.w.D U _ m.*X2.' A 0XwX:X:.w.q.l.] :.7 g.#Xe.N 5 3.3.3.P 5 n 3.1.1.} K K 5 _ q.` 9 9.M.` N ] I M.B.e.R G 2X5X5X:.u.e.l.] [ 0 ",
"s.:.w.` D N M.s.>.` A 2X1X+X6._ ` ] ] ] 7 e.@.:.N n 4.3.3.1.n & L 3.3.4.P K b D q.D w f.Y [ B D N |.e.w.Q G ;X.XB.9.[ ] [ :.] 0 ",
"f.e.d.m.I ` e.q.h.` S ;X*X*XoXe.] ] I ` 7 ,.@.t.o.K 4.3.3.{ b % n 4.3.3.3.L b N U D N f.@.s.m.` ` 2.q.j.Q O.-X{.H.5Xa.] ] U ` 0 ",
"a.a.q.5.D w.w.w.w.Q q H.e.|.l.` D I I I 7 @.5.] m { 3.3.3.K 5 ; m 3.3.3.3.L , w I D 0 a.@.:.6.:.:.] w.w.N S m.2..Xs.U D I _ _ 0 ",
"; 2 7 0 S ; 7 1 7 1 ; ; ; 7 7 1 7 1 7 1 ; ; 8 7 , 3.3.3.1.n % ; , 1.3.3.3.P n , 9 9 > ; 8 7 8 8 8 8 7 7 7 > ; 1 e 8 2 7 7 7 7 ; ",
"2.*XJ.s.O.H.F.H.J.,.7 H.*Xz.F.H.S.#XH.S.1 @.,X5.m 4.3.3.P b U w & } 3.3.3.1.} b H e.; M.*XF.S.F.*X+X+X+XU q :X|.l.F.N.M.*X{.M.7 ",
"=X;Xv.t.$.:Xx.9XK.[ S 2X9X>Xb.F.r.1X1XOX8 S.2XS L 4.3.3.K , r.N #.b P } L 1.3.L b 1 q :XF.y.k.x.+X#X6Xk.R $.1X|.:Xx.m.q.1X5Xl.0 ",
"G.v.-Xm.@.qX*X:Xx.[ Z $Xh.9Xn.d.m..X;Xi.0 f.n.M 0.3.3.} b M y.0 F.] < n K 1.1.1.L , q OXt..X.X.X|.|.-Xk.R o.OXw.6Xz.q.M.|.:Xu.0 ",
"G.%XM.A D l.XXJ.k.:.Z %Xw.J.0Xf.m. Xb.y.8 l.y.m 4.3.3.P 5 D k.0 f.k.D 5 n L 1.1.1.L 5 ,.+X2.5.g.H.Z.z.k.Q o.#X[ +XoX9.V.|.x.r.0 ",
"G.&Xs.$.$.f.N.D.g.5.Z %Xw.J.2X+X,. Xv.i.0 S.r.n 4.3.3.L 5 ` V.w S.y.t.B.5 n K } 1.P b $ 5.O.|.uXs.N.z.9.O.o.#X[ H.-X-X2.XXj.y.w ",
"+XyX6.$.G S.XXz.` e.Z %X[ OX;X*XF.|.G.v.8 H.#.P 4.3.} n 5 A o.0 %.Q G 8.X.6 b K L b % > & $.m.m.M.C.e.@.I o.#X' +X1X|.m.XX+Xk.0 ",
"G.1XN.5.O.M.7.B.5.s.w @Xe.S.:X.XB..XwX@X2 m.q n } 1.L b C C V 1 C M q V *. ., 5 < & ; ; * 8.}.}.V.m.m.7.@...OX6.+X7XXXm.|.6X+X0 ",
"D.v.=Xs.2.6X-X|.N.s.w OXa.H.H.6X.X-XM.G ; e ; & < n J , V  . .7 C M H C X.X.V % ; ; ; > * #.9.7X7X.XN.N.D O.OX2.9.m.|.|.*X#Xc.0 ",
"H.;Xv.w.U OXz.s..Xq.w 0Xz.[ ` l.*X#.Z * 4 a s a ; % % 6 C V V 2 V V q 9 q  .y : 8 8 > % V w N d.F.d.7.B.N O.qXg._ Q q.G.+XH.F.0 ",
"D ` ' Q D Q Q Q Q N 7 ;.Q Q Q Q R 7 7 ;   = 4 8 4 : > 7 7 7 7 1 q 9 9 7 7 7 ; 8 ; = $ 9 9 7 0 R R R T T 8 7 G Q Q Q Q R R E D 1 "
};
