/* XPM */
static char *b959e098ff7847c6e9d6f4712ec63a87pvqFoBVvagFqqzwb[] = {
/* columns rows colors chars-per-pixel */
"64 64 246 2 ",
"   c #0C1219",
".  c #19151C",
"X  c #110D12",
"o  c #2C1611",
"O  c #2F2118",
"+  c #0D1726",
"@  c #121624",
"#  c #151A26",
"$  c #151B2C",
"%  c #1A1D2B",
"&  c #191927",
"*  c #0E1C34",
"=  c #161E31",
"-  c #191E32",
";  c #221D28",
":  c #3C1F23",
">  c #1D212E",
",  c #14202F",
"<  c #0D233C",
"1  c #09253E",
"2  c #162334",
"3  c #1B2234",
"4  c #142539",
"5  c #1A2539",
"6  c #162B3B",
"7  c #1A2A3C",
"8  c #122936",
"9  c #1A313D",
"0  c #35272B",
"q  c #222633",
"w  c #242935",
"e  c #292937",
"r  c #262C39",
"t  c #292D3B",
"y  c #282736",
"u  c #382C35",
"i  c #2B313E",
"p  c #2A3130",
"a  c #2E2930",
"s  c #422D31",
"d  c #463439",
"f  c #5B3C3C",
"g  c #592825",
"h  c #65332C",
"j  c #633834",
"k  c #753A34",
"l  c #6C312C",
"z  c #4E231E",
"x  c #7B433B",
"c  c #0E2A45",
"v  c #0E2A4A",
"b  c #0D2744",
"n  c #112A43",
"m  c #1D2D44",
"M  c #1E2E48",
"N  c #102740",
"B  c #163544",
"V  c #1A3445",
"C  c #1D344B",
"Z  c #153B49",
"A  c #1A3B4C",
"S  c #163748",
"D  c #0F3254",
"F  c #0F345A",
"G  c #103455",
"H  c #1D3D52",
"J  c #103559",
"K  c #113A5D",
"L  c #1B3B56",
"P  c #0F2D50",
"I  c #222D45",
"U  c #232F48",
"Y  c #2D3442",
"T  c #22334C",
"R  c #243748",
"E  c #313644",
"W  c #333946",
"Q  c #363C4A",
"!  c #393E4B",
"~  c #3B3A45",
"^  c #243651",
"/  c #233B55",
"(  c #253E5A",
")  c #2A3E5A",
"_  c #293A54",
"`  c #123E62",
"'  c #4C3B45",
"]  c #1A404F",
"[  c #164352",
"{  c #1A4353",
"}  c #194957",
"|  c #1E445A",
" . c #1C4B5D",
".. c #154B58",
"X. c #18515E",
"o. c #0D4B53",
"O. c #28404E",
"+. c #3B414F",
"@. c #24435C",
"#. c #2A415D",
"$. c #21495D",
"%. c #264455",
"&. c #3D4452",
"*. c #3A4B5B",
"=. c #2A525D",
"-. c #1D4D62",
";. c #144A6E",
":. c #134467",
">. c #1D5363",
",. c #1B5966",
"<. c #1E576B",
"1. c #1D5B6C",
"2. c #145A67",
"3. c #154E73",
"4. c #1F5E72",
"5. c #0F5667",
"6. c #264561",
"7. c #2B4562",
"8. c #234C64",
"9. c #2A4A66",
"0. c #244E69",
"q. c #2E4C6A",
"w. c #314C6C",
"e. c #304866",
"r. c #225265",
"t. c #23546B",
"y. c #2B536E",
"u. c #225A6D",
"i. c #205966",
"p. c #34566A",
"a. c #2D5572",
"s. c #235D72",
"d. c #2B5B75",
"f. c #2D5D79",
"g. c #255973",
"h. c #325473",
"j. c #315D7A",
"k. c #315977",
"l. c #334F70",
"z. c #1C616E",
"x. c #1D6374",
"c. c #1E6976",
"v. c #1E6679",
"b. c #1C6C7C",
"n. c #156775",
"m. c #1A717D",
"M. c #17727D",
"N. c #37616A",
"B. c #226375",
"V. c #24657A",
"C. c #2B647D",
"Z. c #236B7D",
"A. c #29697D",
"S. c #266476",
"D. c #31627D",
"F. c #366773",
"G. c #21707D",
"H. c #33747F",
"J. c #424857",
"K. c #474A4C",
"L. c #784C46",
"P. c #72554B",
"I. c #4D5363",
"U. c #505969",
"Y. c #73706D",
"T. c #824338",
"R. c #93463A",
"E. c #885447",
"W. c #985548",
"Q. c #905449",
"!. c #986857",
"~. c #A76757",
"^. c #B66A5B",
"/. c #AF715B",
"(. c #BA7965",
"). c #AE7264",
"_. c #9D6856",
"`. c #C77B67",
"'. c #D37863",
"]. c #C26F5E",
"[. c #CB856E",
"{. c #C98872",
"}. c #D58C73",
"|. c #1E6E81",
" X c #177482",
".X c #1C7483",
"XX c #1C7986",
"oX c #1E7689",
"OX c #1D7B8B",
"+X c #177B86",
"@X c #1B7F90",
"#X c #2E6681",
"$X c #246D82",
"%X c #2A6B83",
"&X c #2F6D89",
"*X c #326682",
"=X c #316A85",
"-X c #237385",
";X c #297286",
":X c #257589",
">X c #2A748A",
",X c #247B8D",
"<X c #29798E",
"1X c #287985",
"2X c #257E91",
"3X c #297D91",
"4X c #297790",
"5X c #307A86",
"6X c #1E8494",
"7X c #1F8D9D",
"8X c #1B909E",
"9X c #22828D",
"0X c #238395",
"qX c #298394",
"wX c #248598",
"eX c #22899A",
"rX c #2B8B9D",
"tX c #2A8898",
"yX c #318998",
"uX c #1D93A1",
"iX c #278DA0",
"pX c #2897A6",
"aX c #3697A8",
"sX c #3997A9",
"dX c #37A6B7",
"fX c #29A5B0",
"gX c #43A7B9",
"hX c #2EB6C1",
"jX c #4AB9C8",
"kX c #35D9DE",
"lX c #4CC7D3",
"zX c #5CD7E2",
"xX c #41E8EC",
"cX c #AEA29D",
"vX c #9C8F88",
"bX c #D69983",
"nX c #EEAA8D",
"mX c #E9A488",
"MX c #F2A98B",
"NX c #F2AE90",
"BX c #FBB697",
"VX c #CFB3A9",
"CX c #E59F86",
"ZX c #FEC19F",
"AX c #FDE2D6",
"SX c #FFDECD",
/* pixels */
"6 ] ] [ [ [ [ [ } 6 @ B [ [ } [ [ [ } } 2 2 } } 9 6 6 8 B } A @ 6  .[ [ [ [ [ [ } B @ Z [ [ [ [ [ H } [ $ 8 [ [ [ [ [ [ [ } B & ",
"Z.wX-X:XC.C.%Xx.g.@.6 :Xv.Z.-Xs.V.s.g.g.m Z  .A R Y Y i R ] %., b.:XV.oXs.V.V.g.t.H V 0X:X2X%XC.C.Z.u.g.3 1.oXs.oXV.V.s.u.t.$.8 ",
"-XOXV.,X;X:X$X-.8./ V ;XH %. .|.v.| / M 3 r W ! +.&.+.&.+.~ e , x.$./ 8.x. X .H T M [ 0Xx.-X,X;X:Xs.| 9.5 s.t.H  .<. X-.| T T 6 ",
"-XOX6X,X2X2X,X;X2X/ V :X-.6X,X0X0X2X-.$ i &.&.&.+.+.+.+.&.&.&.Q 9 | |.wXeXeX,XZ.B.H A qXOX,X2X2X2X$X,X$X3 s.u.v.6X,X0XwX:X4.8.5 ",
"A.wX-Xs.t.t.$Xy.w.^ V a./ -.@.r.t.;X7 q +.&.+.+.&.+.+.+.+.+.+.&.W 3 8./ u.t.B.[ [ } A >.,X;Xu.t.1.A.w.q.5 t./ 8.H t.>.Z.t.@.#.6 ",
"A.,XuXt.7.7.B.a.q.T V d.$.M T ) ( x.3 t Q &.+.+.+.+.&.&.&.&.+.Q Q > 5 M / H ..$.( T A [ b.7X( e.6.%X7.9.5 t.8.C m ( ^ <.t.( #.6 ",
"A.2XeXt.7.7.u.9.#.T V $Xx.T T #.6.,.& t E &.+.&.&.&.Q W Y q w > > > 3 5 ..[ 1.$Xt.T } 4.x.0X( 9.0.s.) #.5 t.b.8.M #./ <.$X8.) 6 ",
"V.2X-X1.@./ / 6.6.C V u.@.( C C L [ > t t W Q Y r w > t q t E i i r q 6 A M Z.8.7.^ [ u.x.-X-./ / ( 6.#.5 -.-.#.T C M 4.u.7.#.6 ",
"$X-X:X$XZ.#.9.( ( M V u.6.s.<./ ( 3 e t r q % w i t i W w t i w w w q 7 ( ^ 8.7.q.T [ u.1.$XOX9.#.#.( ( 5 >.t.t.b.( / 8.9.q.#.6 ",
"Z.s..XoX0./ / / ( M m V.8.t.u.7.7.3 > % $ > t i E t w t q t i t t t % V 0.7.#.9.9.I A 1.{ ,XV.@.^ / / / 3 >.4.9.4.6.9.7.9.9./ 8 ",
"$ - 2 6 $ 2 2 2 = = $ $ = $ $ = = $ % q w w i w t t w i w w w > $ + @ $ 2 $ = $ = = @ V 6 8 = = 2 = = = $ $ $ = % = = 2 2 2 = $ ",
">.b.s.u.Z.B.V.s.Z.H = c.Z.B.B.Z...; q t r q i w r 3 > $ + @ ; s f E.i B.B.Z.V.x.V.@.8 -.r.s.V.b.x.v.v.x.$  ..XB.B.B.b.B.x.V.8.$ ",
":X<X,Xf.:X8.V.2X2X/ V wXC.h.h.>X..; 3 w t q w > $ a 0 f L.~.`.[.(.(.d f.D.>X#X0Xk.^ } u.x.4XC.v.6.0XwX%X3 Z.,Xh.h.j.,Xf.0Xf.#.6 ",
"A.w.-X%Xw. .1.0Xf.T A C.a.2X;X,XZ & w $ + @ . . E.`.(.`.}.nXBXP.X 0 ! 2X$Xb.-X0Xa.T [ u.t.eXa.$.,.OX:Xq.7 B.a.;X,X$XZ.b.0Xf.) 6 ",
"A.q.t.4XB. .XXA.l.T A *X$X$.r.r.x.2 . 0 !.: O o [.!.; ; P.BXNXVXp cX' -.r.B.M.C.q.T [ B.R $X:X<.b..Xa.9.7 s.%Xx.%.r.u.M.A.q.@.6 ",
"A.q.t.;X.X8.m.d.w.T A =XV.A 9XpXv.b.X /.MXl X E.MXAXY.K.AXNX[.VXK.cXd n.hXB.b.y.u. .] B.C $X,XV.>..Xw.q.7 s.%X .>.fXA.b.s.t.1.7 ",
"A.7.t.%X,Xt.m.A.j.T V qX-X| B.S.-X[ X !.MX~.W.CXMXSXvXY.AXMXmX).bXbXu 1.A.A.XX8.$.$.A u.C ;X4X$X1.m.C.y.5 x.eX>.r.A.V.XXt.| t.6 ",
"V.6.8.$X6X1.b.7XeXT V <X.Xx.B.1.B t 0 o !.`.`.mXNXnXnXnXnXnXmXT.}.mX~ x.u.x.x.V.>.$.A s.T -XOXb.1.OX7X$X3 B.,Xc.V.1.x.1.Z.>.u.8 ",
"V.9.x.$X6Xb.-X;XA.^ V f.f.;X:X2.; +.q o o z ^.CXNXnXnXnXBXBX{.{.NX[.~ $X6X.X:XoXc.@.A s.H x.<.OX|.,X$Xa.5 s.a.$X$X@X@X;XoX2.t.8 ",
"-X;X9.( 0.0X4X%X>X/ V qXf.w.j.8.w Q @ . o o x [.nXnXnXmX(.(.(.{.BXk R j.*X;Xy.u..X/ B ,.@.-./ $XwX<X;XV.3 Z.4Xh.h.C.>Xd.t..X6.7 ",
"{ / T U I T T T / 5 8 $.T T T 3 w ! Y     . : W.`.BXBXmX~.~.W.(.[.O m ^ U U T I T / [ V I I I U T T C A $ A %.T T I I I I U 7 , ",
"2 B B B B B B V S 8 @ 6 B B 8 % t Y &.E &   . W.T.Q.{.NXZXBXBX(.: > $ B Z B 6 8 Z } 6 6 B B B B B B B B $ $ B B B B B B B Z 6 @ ",
"Z.0X:X<X*X=X;XB.f.@.5 -X:X,X,.% t t Y Q ! t   P.].R.l T.~.~.h . t & ,  .>. .} | 8.T B 0X,X0X%X%X%X-XV.d.3 4.,XV.2XV.V.V.s.g.8.8 ",
"-X.XV.,X%X>XA.$.9./ V A.A @.A % t 3 $ % t Q +.1XN.L.^.W.k h X 5 w q W % [ X.| / T I { qXB.-X:X;X:Xs.$.9.5 u.t.C @.<.b.| / ^ T m ",
";X.X6X,X0X0X:X;X0X%.V :X| OX,XV & i &.t # % G.=.XX2.0 L.^.s 3 t r W +.t b.pX0X|. .Z { 3X X2X2X0X2X$X,X$X3 u.t.v.6X0XeX,X|.g.8.7 ",
"%X0XA.V.s.s.:Xa.y.^ V a.( r.t.>.t U.U.I.e 9 ,.pXrXF.%.# . % q r Q Q i E A s.A.t.0.{ { 4X2X$XB.g.B.A.w.q.5 t./ u.-.u.u.$Xg.9.#.6 ",
"A.2XuXt.7.) Z.f.q.T V f.@.I 5 q I.I.I.J.sXaXrXhXhXdXdXsXO.e w +.&.Q > ! 3 T B.t.#.A | %X7X7X#.7.8.$X7.7.5 t.6.T m ( ^ 1.g.#.#.6 ",
"$XwX7Xt.q.7.V.y.7.T m %XZ.T > +.J.I.&.sXdXjXzXxXxXzXiX3XjXO.t &.&.Q > ! 3 / s.$X8.A | <X6X,X#.q.t.V.( #.5 r.$X8.M #.( u.-X-._ 6 ",
"A.0X0X1./ / @.7.7.T V u.6.M E J.&.J.;XdXjXzXzXlXaX2X3XaXlX,XY &.&.Q > ! 3 M Z.t.#.A { 3X6X$X$.( / #.7.( 5 >.-.#.T C M B.s.6.) 6 ",
"A.;X$X$XA.7.7.( ( M V t.H r J.&.J.Q pX<XgXjXjXdXdXyXyXlX3XpX=.! &.Q > +.3 T u.9.q.A | >X,XV.,X9.6.6.( ( 5 -.8.0.4./ ^ t.9.w.) 6 ",
":XA.-X,Xs.( ( / ( C V V.7 ! J.J.J.i qXhX:X<XyXgXgXsXaXiXaXfXO.+.&.! > ! 3 7.w.q.q./ X.A.s.0XV.@.^ / / / 3 -.4.8.b.9.9.7.q.q.( 6 ",
"3 - 2 n - 3 3 3 3 - 2 5 E &.Y E W q A rXdXaXrXtXtXiXdXdXpXu.e +.&.! > ! > 3 5 5 5 3 B V A } V A A A V A A A V V V A A A 7 3 3 $ ",
"{ 1.r.i.,.i.,.>.z.S @ 3 &.+.i & % $   9 S.tXpXaXpXpXqXB.R w Q +.&.! % Q q } 1.>.u.A $ Z.Z.u.B.c.c.B.c.z.6  .b.x.B.x.b.1.B >.| $ ",
";X3X3X*X>Xt.>XqXqX@.@ E &.Q Y Y > @ 0 d Y Y O.O.O.O.Y e e i &.+.&.! % E t -.&XeXj./ { qX,X%X&XZ.0.2X0X$X- Z.2Xk.h.j.;Xd.>.y.9.6 ",
"A.y.,X%Xq.8.x.0Xf.^ @ Y &.! &.! > + E.~.L.f u &.&.&.! i i i +.+.&.! % W W 2 -X,Xa.T [ D.d.eXh.8. ..X,Xq.5 B.h.%X,X:X-Xb.,.7.#.6 ",
"A.w.y.:XV.t.XXA.w./ @ q Q &.&.E > & /.}.{.W.u Q ~ ~ ! E i i &.+.Q ! % W ! 9 n.%Xw.T [ *X7.:X$X>.b.XXf.q.7 s.C.b.$.$.V. X>.@.) 6 ",
"A.q.0.2X:X6.b.f.w.( $ $ t ! &.Q > & {./.E.E.d *.p.F.&.E i t E Y i Y % E ! 7 z.f.u.| { *X7.A.,Xg.1.-Xl.q.7 s.%X .>.fXB.b.>. .1.7 ",
"A.7.t.%X2Xd.b.C.h.^ A  .& r Y Y 3 & (.}.`./.d qXp.tXN.i t i ! +.! t > w Q q } a.| $.{ D.#.V.4X-Xi.m.f.q.5 V.0X>.>.,XA.XX>.[ t.6 ",
"A.9.8.-XOXx.XX6X0XT V wX[ @ % ; & X W.}.~.T.=.pXH.5X*.E t W &.+.+.E > % > %  .S.r.$.] f./ $X0Xb.x.OX7XA.3 B.0Xx.V.4.Z.x.X.} u.8 ",
"A.6.1.$X6Xb.OX,X%XT S D.C.$Xx.5.8 5.K.'.~.h ! 5XrX5XN.Y q Q &.+.&.+.$ & $ + b.OXz. .] f.8.Z.:XOXb.2X:Xd.5 s.a.-X$X@XXX.X2...u.8 ",
":XV.9.#.t.wX<X%X%X/ V 4Xf.h.j.3X;X$X2.d h a &.&.*.p._ w q +.&.+.! i # $ u d $.x..X/ [ 3Xt.@.#.2XrX>X$Xd.3 Z.>Xh.h.%X2XV.x.XXr.7 ",
"t.g.#.) ) 7.9.9.t.C 7 V.0.7.7.#.7.) @.V E &.Y t t y e t i ! W E q @ ; k ^.mXk T 6.I V S.7.) ) 7.9.9.0.0.3 -.s.7.7.) ) ) ) 0.^ 8 ",
"& - = 2 2 2 = - - $ $ $ - 2 2 2 2 8 3 $ t &.&.&.&.W t w q q % % q 3 u '.Q.{./.@ 5 2 & $ 3 3 8 2 2 = - = $ & % 3 = 2 2 2 2 3 2 $ ",
">.Z.Z.A.S.S.S.B.A.@.= x.Z.A.Z.u.s.B.S.$.@ > i Y i r 3 3 r 3 3 r t 2 s ^.k ^.j u.A.H 8 Z.Z.-XS.S.S.S.V.s.=  .G.B.-Xs.u.u.u.B.$.= ",
":XOXA.2X%X%X$X .) / V %X| @.8.<.<.@./ T 4 4 3 > > w t t q w 2 4 N 1 j T.g k x C T I { eXB.$X%X%X%Xx.@.9.5 s.s./ $.0.4.L ^ T T m ",
";X-XOX,X,X,X$XA.:X/ V >X| 1.V.0X,XB.$. .n J D v n n n n < * b J ` v g W.T.R.L.-. .C { ,Xb.,X,X2X,XV.Z.V.3 u.t.r.b.-X6XZ.4. .| 7 ",
"$X0XA.$X;X;X:Xf.C.^ V A.$.$XA.>X:X<Xx.d.C v J J J J J J N c J :.3.F w h j =.B.V.u./ A <XOX%X:X;X,X%Xf.d.5 u.@.Z.$XA.$X2X$Xt.6.7 ",
"A.4XiXs.#.@.$Xa.w.T V a.T T C / H ,Xt.e.C v J J :.;.:.G < F K ;.3.J M M H L x.g.9.^ A >XiX6X$.#.8.$Xw.9.5 t.( ^ m / C 1.g.7.#.6 ",
"A.2XpXu.q.q.$Xy.7.T V %XB.T C ( ( ,Xg.7.C v J :.3.3.3.K < J :.;.3.J 7 C ( ^ s.Z.0.T A >XiXOX7.w.t.$X#.6.5 t.$X@.m ( / t.b.8.) 6 ",
"A.0X0X<.) ( $.6.7.T V V.t.^ M ^ H :Xt.7.T N J ;.3.;.3.:.< J ;.;.3.J m C / C V.V.$.T A 3X6XOX/ ( ( 0.#.#.5 t.s.#.M / C 1.V.$.) 6 ",
"A.;XV.b.s.) #.#.#.C V r.( 9./ T / B.) l.T * J ;.;.;.3.:.< K ;.;.3.G H 6.C M B.9.q.^ A %X,XC..X6.#.( ( ( 5 $.@.6.8.C M 1.0.7.#.6 ",
"-XA.0X2XV.( #.( ( T V S.0.V.v.7.7.7.q.h.T * J ;.;.;.3.:.< K ;.;.3.G | .X7.7.7.q.h.^ [ ,XZ.,X2X0.( ( ( ( 5 >.s.t..X9.7.9.q.h.) 7 ",
"A T | >.I M M M I 7 2 C T T T T T T T T 5 * J ;.;.;.3.D * K ;.;.3.J 5 T T T T T T 7 6 / I 1./ M m m m m = V C M T T T T T T m 2 ",
"5 A V A A A A A A 6 $ V A A A A A A A A 2 * D :.;.;.:.c < J ;.;.3.J n ] Z A A V A 6 $ A A A A A [ A A A $ 8 A A A A A A A H V $ ",
"A.0X,XC.2XV.>X<XqX@.m 0X>Xj.j.>X<X>X>X*XT * D J ;.:.P S S J ;.;.3.G 9.*X#X2X%X0X=X@.V rXwX%X>X,XC.3X2X-X- x.eX#XD.C.2X%X0X%X0.7 ",
"A.f.2XA.a.$.t.,X#X^ A ;Xy.C.%X;XV.$X:Xw.T < J D J J v [ S J ;.;.3.G 8.>X>X$XA.0Xh.^ [ C.V.0Xh.t.| Z.,Xy.5 V.f.f.%X%X:XV.,Xf.) 6 ",
"A.w.d.<Xd.,.XX,Xh.^ A D.A..Xb.S.m.XX#Xw.m v J D D D < n.c J ;.;.3.G ,.-Xs.,X XA.w.^ [ D.7.2X%Xr.b.XXC.w.7 s.f..Xx.B.:XXX;Xq.) 6 ",
"A.w.0.2Xb.$. XA.h.T A =XA.A Z.;Xb.b.y.V.B v G D G b S b.1 J ;.;.3.J m u.,XB.M.d.a.@.] *X#.$X,Xt.x.-Xh.q.5 s.%X>.$.9Xs..XS.t.r.7 ",
"A.w.y.%X:Xt.M.A.l.^ V 3X-XA 9XrXB.G.9.1.B b J G v c B.1.c G :.;.3.J V G.fXB.b.y.r.$.] =X7.$X>X-Xr.-Xh.w.5 S.2X>.1.fXS.m.d.$.r.7 ",
"A.q.0.;XOX$XXX:X,X^ V eXOXu.x.<.b.b.0.B $ = c D < 2.-XXX< v K ` J N -.B.1.,Xc.r.8.8.A %X) $XwX.Xz..X0XC.3 Z.uX1.x.1.Z.b.u.@.t.5 ",
"A.t.B.Z.7X.X.X,X0X^ A *XV..X-XXXx.-Xb.Z % 3 - 2 $ [ o.o.8 $ < 4 3 3 ,.-X6X.XB.b.,.8.A f.>.Z.6XOXx.b.6XV.3 S.j..XZ.OXXXB..X,.u.3 ",
"$Xd.t.0.Z.7X:X;XA.^ V >Xa.f.C.eXwXZ.2.o.$ q Y E r 8 o.o., > > w i t 7 y.2X7X:Xb. X$.A ;X0.8.-.v.:X:X$Xy.5 A.C.f.f.:X7X:Xb.+Xi.5 ",
"S.V.7.) ) y.d.a.V./ m :Xa.e.e.w.q.7.V 6 $ % i i i % B Z 8 # > q t Y t 3 e.q.9.9.s.T V :Xy.#.) 7.d.d.s.g.3 1.A.q.q.e.q.9.7.s./ 6 ",
"3 5 5 7 7 5 3 3 3 = $ 5 5 5 7 5 5 7 2 = = $ $ $ & $ 2 = 2 $ + $ 3 3 > $ 5 5 5 5 3 3 $ 3 5 7 7 5 3 3 3 3 $ = 3 5 5 5 5 5 5 3 3 $ "
};
