/* XPM */
static char *_67d5ebcc18346c699435be5ca1df04bS3gqG7OiL9i4v0ip[] = {
/* columns rows colors chars-per-pixel */
"64 64 222 2 ",
"   c #0D111D",
".  c #14121D",
"X  c #1A1418",
"o  c #2C160C",
"O  c #25140B",
"+  c #331C0E",
"@  c #271615",
"#  c #351F10",
"$  c #3B2412",
"%  c #372113",
"&  c #36210F",
"*  c #0D1622",
"=  c #0B192C",
"-  c #121523",
";  c #141926",
":  c #15172A",
">  c #141B2B",
",  c #1A1D2B",
"<  c #1A1C26",
"1  c #0A1F3B",
"2  c #0B1D31",
"3  c #161E31",
"4  c #191E33",
"5  c #211C24",
"6  c #281D29",
"7  c #0F202C",
"8  c #14212E",
"9  c #1B212E",
"0  c #0D2333",
"q  c #0B223D",
"w  c #0F2835",
"e  c #162234",
"r  c #1B2334",
"t  c #14253A",
"y  c #1A253A",
"u  c #162C3B",
"i  c #1A2A3D",
"p  c #162837",
"a  c #18313F",
"s  c #25222C",
"d  c #212634",
"f  c #242936",
"g  c #262C3A",
"h  c #292E3B",
"j  c #2A2935",
"k  c #2B313E",
"l  c #23313E",
"z  c #39232C",
"x  c #4F201E",
"c  c #513231",
"v  c #69352E",
"b  c #7B4136",
"n  c #0C2945",
"m  c #0D2C4C",
"M  c #0D2542",
"N  c #1C2D42",
"B  c #1F2F49",
"V  c #162C44",
"C  c #163544",
"Z  c #193344",
"A  c #163946",
"S  c #183A47",
"D  c #13344A",
"F  c #1D344A",
"G  c #153B4A",
"H  c #1A3B4C",
"J  c #0F3355",
"K  c #1D3E52",
"L  c #113A5C",
"P  c #1E3853",
"I  c #0D344C",
"U  c #212E45",
"Y  c #222F4A",
"T  c #282E40",
"R  c #213146",
"E  c #2D3342",
"W  c #22334C",
"Q  c #21394E",
"!  c #283747",
"~  c #313644",
"^  c #323946",
"/  c #353C4A",
"(  c #393F4C",
")  c #303748",
"_  c #243651",
"`  c #233B54",
"'  c #283A55",
"]  c #253D5A",
"[  c #2A3E5B",
"{  c #293752",
"}  c #113E62",
"|  c #1A404E",
" . c #16404F",
".. c #164453",
"X. c #1A4353",
"o. c #1A4957",
"O. c #1E465B",
"+. c #174A5B",
"@. c #1D4A5C",
"#. c #114852",
"$. c #18525F",
"%. c #0D4A54",
"&. c #3A414E",
"*. c #224155",
"=. c #24435C",
"-. c #2A425E",
";. c #22495E",
":. c #3C4351",
">. c #2A545D",
",. c #134265",
"<. c #1E4C62",
"1. c #144668",
"2. c #164A6D",
"3. c #1D5364",
"4. c #1D5569",
"5. c #1E5C6D",
"6. c #175A68",
"7. c #174D72",
"8. c #184E71",
"9. c #1D5D72",
"0. c #185275",
"q. c #0C5C66",
"w. c #264461",
"e. c #2A4562",
"r. c #234C63",
"t. c #2B4A65",
"y. c #254F69",
"u. c #2D4C6A",
"i. c #314563",
"p. c #324C6B",
"a. c #314868",
"s. c #225365",
"d. c #215866",
"f. c #24546B",
"g. c #2B526D",
"h. c #225A6D",
"j. c #2A596E",
"k. c #31516F",
"l. c #324F71",
"z. c #2C5571",
"x. c #245C72",
"c. c #2B5C74",
"v. c #2D5E79",
"b. c #245973",
"n. c #325473",
"m. c #325976",
"M. c #325B7A",
"N. c #3A5D7C",
"B. c #1B626F",
"V. c #1E6374",
"C. c #1C6A76",
"Z. c #1D6679",
"A. c #1D6B7B",
"S. c #156B79",
"D. c #1C717E",
"F. c #14747E",
"G. c #0F626B",
"H. c #236375",
"J. c #296175",
"K. c #24657A",
"L. c #2B637B",
"P. c #236B7C",
"I. c #2A697E",
"U. c #32627D",
"Y. c #23707F",
"T. c #51494F",
"R. c #82483F",
"E. c #834A44",
"W. c #A36757",
"Q. c #BC7264",
"!. c #C07860",
"~. c #C4907A",
"^. c #E69478",
"/. c #1F6D81",
"(. c #1D7483",
"). c #1B7A86",
"_. c #1F7589",
"`. c #1D7C8A",
"'. c #157686",
"]. c #1D7E90",
"[. c #077D80",
"{. c #2D6681",
"}. c #246D82",
"|. c #2C6C83",
" X c #2D6F88",
".X c #326681",
"XX c #326A84",
"oX c #237384",
"OX c #2A7186",
"+X c #207987",
"@X c #24768A",
"#X c #2B748A",
"$X c #247B8C",
"%X c #2A798D",
"&X c #31738C",
"*X c #257D91",
"=X c #2A7D92",
"-X c #1D818D",
";X c #1D8493",
":X c #1E8C9A",
">X c #1D8796",
",X c #22838F",
"<X c #248294",
"1X c #298295",
"2X c #258699",
"3X c #2A8699",
"4X c #238B9C",
"5X c #298A9C",
"6X c #28929D",
"7X c #1E94A4",
"8X c #1C9CA9",
"9X c #298FA1",
"0X c #2393A2",
"qX c #2799A6",
"wX c #309DAF",
"eX c #2AA4B4",
"rX c #35A5B9",
"tX c #27ABB3",
"yX c #13C0CA",
"uX c #27DAE2",
"iX c #FFB796",
"pX c #FFC19D",
/* pixels */
"> H X.X.......X...X.> t X.X...X.X.X...o.H : Z ..X.X.....X...o.e >  .......X.X.....o.3 p X.........X.X.o.u - A ......X.X.X.....p ",
"H 4X$X$X X{.XXP.x.v.y h.$XK.@XK.I.I.x.b.;.u $X=X$X#XU.XXOXx.c.N H 2XK.oX}.K.P.K.f.f.i 9.<X@X$XL.L.|.A.b.=.u `.P.}.oXx.K.x.f.f.F ",
"H 5XA.@X%X#X%Xx.;.s.y I.b.Q ;.x.`.<.` W W Z 1XK.}.=X#X%XI.r.u.N @.}.Q ;.r.(.V.*._ _ y P.@Xh.$X@X$XoXs.r.` C }.Q =.r.S.Z.O.` Q N ",
"H 1X;X<X%X1X1X#X$X@Xr I.K.K.4X1X2X1XoX5.<.i =X(.1X%X1X1X#X%X*XN O.oXf.4X1X4X1X*Xx.Z.y H.+X$X=X1X1X%X|.<X=.Z @X<.;X1X2X2X1XH.K.F ",
"H 1X2XOXh.h.H.|.p.z.y c.-.f.=.s.s.oXc.r.w.i #X2XOXH.h.h.|.p.n.N =.u.;.r.r.f.f.3. .@.X.C (.=XK.f.f.P.n.p._ C b.` <.=.h.h.|.=.g.W ",
"X.&X:X;X-.p.r.}.u.u.y j.b.` N ] { 9.x.-.-.u OX3X0Xt.p.-.OXn.u.N *.v.*.N Q ` ..@.` -.i O.@.7XH.e.w.x.c.a.Q Z v.@.U Q [ ` P.[ t.R ",
"H 1X4X+Xw.u.r.K.-.e.y j.@Xy.N =.] 5.@Xf.[ i #X<X4Xt.p.t.I.t.e.N ` #XK.U H 3.@.OXH.t.i V.O.;XK.e.w.h.u.w.Q i }.P._ _ w.*.oXV.w.R ",
"H =X].P.<.` ` =.e.w.y f.f.w._ F N H.b.-.-.i #X2X#Xf.` ` =.t.e.i *.b.=.O.X.F ;.}.] u.i 5.@.oXZ.` ` ] w.e.W Z 5.;.-.W Q K }.=.t.R ",
"X.%X`.P.`.g.e.w.=.=.y f.b.g.A.=.] s.t.k.e.i #X$X|.*Xc.e.t.=.-.i *.x.=.+.;.] ;.s.t.k.y B.4.}.K./.w.e.=.=.W Z H.r.H.9.] ;.s.t.k.R ",
"H @Xx.`./.r.] ] ] =.y s.I.u.K.g.u.t.u.u.] i OXb.1X@Xy.` ] ] -.i H H.X.3.c.t.t.t.u.w.y 5.O.V.$Xb.] ] ] =.W i Z.f.h.b.e.t.t.u.e.N ",
"> 4 3 u r r e e e r > 3 r r 4 r r r r r e > r 4 u i 4 y r y i 3 > i ..y e r e e e e > > H e V 4 r e e r 3 > , 4 4 4 4 3 e e e > ",
"u P.H.x.K.H.H.K.K.H.> @.oXH.H.H.P.K.K.K.r.: o.V.f.x.Y.3.C e > ; > G x.J.H.P.K.K.H.H.y H @.h.H.A.V.P.H.Y.O.e A.P.H.H.H.K.P.H.H.N ",
"..3X=XOXXXK.g.3X<X|.4 oX1Xm.m.U.%XL.4XU.e.u %X$X#Xm.5.C a l ~ ^ ~ f i n.N.%X.X#X%Xp.i H.@.$XL.@X<.|.2X*X=.C 2XI.n.n.#X|.%X=Xp.W ",
"X..Xc.<Xn.g.4.(.=Xu.y K.M.OXOXOXP.A.2Xv.[ u |.c.B...8 h ( :.:.:.:.:.~ i P.%XV.$XOXp.i 5.O.@X@Xt.@.Z.:Xv._ A L.z.$X}.oXA.+XOXp.R ",
"X.XXe.|.=Xs.V.oXM.u.y J. XV.r.h.x.F.I.n.-.u {.e.d.A h :.&.&.&.&.&.&.:./ 9 =.(.D.n.u.i H.O.r.*XK.d.(.}.n._ A {.oXO.s.r./.S.c.u.R ",
"X.XXw.|.$Xx.s.oXn.u.y c. X3.V.tXK.S.c.b.V.i |.i.s.R ( &.&.&.&.&.&.&.( :.g u oXoXt.V.N H.X.@.*X_.r.C.I.n.` A |.K.C :XqX5.A.u.V.H ",
"X.XX-.I. X}.H.oXL.z.r K.4Xf.h.P.J.).b.=.s.i {.a.y f :.( &.&.&.&.&.&.&.:.h ; $XP._ h.N B.K @.%X*Xd.C.}.M.' C 2XA.*.H.J.}.D.=.s.Q ",
"X.L.] H.1XP.5.;X4XK.4 K.2XV.d.s.H.V.}.3.f.u {.t.e d ( &.&.&.&.&.&.&.&.^ f e 6.A.s.P.i 9.K s.`.`.5.S.>X4X` C *XD.H.H.d.5.A.s.H.Q ",
"X.L.<.K.@X`.}.*X}.b.y c.M.|.I.+X<X@X+X5.f.u {.;.8 d E ^ ( &.&.&.&./ E g f - u $XA.V.i V.O.4.9.A.(._.oX|._ A v.v.oX}.:XOXoXA.A.Q ",
"H 4Xc.=.` }.1X%X#XI.r P.=Xn.m..X#XL.h.@Xg.i 3XH 6 r d d g k k k h d 9 r r f 9 s.oX}.r 3.O.@.X.;.<X*X%X@X=.Z 2XL.n.n.OX|.j.P.@XU ",
"i ;._ W W W Q Q ` K > K =._ _ Q W W W Q W e ;.u , f r r , , , , , d 9 g k f > U Q ` H C i W U W W Q Q ` N p O._ W Q Y Y Y U W y ",
"> u Z Z C C C Z C Z > > Z C C C C C C S u - y 8 , f g k f g h d g k g g h d ; e u ..C e C C S A C C Z H u : u C C C C C C A A e ",
"C 2X$X$X|.I.{.P.x.J.r h.1XK.OXJ.I.I.J.J.;.p <XH.. 9 f h f h k f h k f f >   8 X.O.=.e V.2X@X=XXXXXOXP.J.;.u <X}.}.@Xc.K.K.x.b.F ",
"X.2XV.oX#XOX#Xx.*.t.y I.J.Q ` s.(.r._ U W Z 5XP.z 6 ; r r d f r r r , - c v l =.W W y P.1Xh.@XOX#X}.r.w.` C }.` _ =.A.5._ _ W U ",
"K =X'.<X=X1X*X#X*XoXr I.K.V.2X=X4X*X}.h.r.i =X'.T.v O @ X . X X X X @ O Q.!.j.2Xs.@.p P.oX`.*X1X1X@X#X2X=.N OXr.>X*X4X1X*Xx.x.F ",
"H 1X*XI.K.x.P.|.p.z.y j.w.x.r.H.h.}.J.g.w.i #X4XT.v + & $ + # + + $ & o Q.E.$.OXr.s.Z x.1XoXP.H.h.oXn.n.` C c.=.x.r.x.H.OXr.j.W ",
"X.#X0X;X=.e.r.oXu.u.y j.y._ N ] { 9.b.e.-.u OX*X@.6 o + $ % $ $ % $ + v v e <.|.-.t.a x.=X8X9.[ [ K.v.u._ C v.*.N F ] ` P.-.t.W ",
"X.1X4XoXw.u.s.P.] w.y j.$Xr.N w.[ x.}.r.[ i =X$.s / , O @ o o + o o o 5 9 < A 1Xx.*.u H.2X:Xh.e.e.K.g.w.Q Z }.A.F _ e.=.oXV.w.W ",
"K 1X<XoX=.` ` w.w.w.y f.x.w.W _ U K.K.=.[ i =XS d / ( E d < 5 5 5 s h ^ / g 7 K.t.*.u H.1X$XV.` ` ] w.e.W Z 5.=.] B _ P oXr.t.W ",
"X.OX(.I.].u.e.w.] =.y r.r.u.H.` Q f.t.p.-.Z K., h h h E / &.:.:.( / E h k E , t p.r.i K.|.}.}.}.w.e.=.w.W Z 4.w.x.<.W ` f.e.n.R ",
"K 1XK.]._.y.] =.] =.y f.}.b.oXg.u.t.u.n.-.p u < h ^ ^ E g h k h f f h ^ &.~ d ; =.[ F.(.h.oX*Xx.] ] ] ] U i Z.y.9.x.w.e.t.z.u.R ",
"e i r a y y y y y y 3 y y y 4 y y y y y y - h f , / &.&./ ^ ^ ~ / ( &.:.^ r 9 E , +.[.%.H X...C H H H H H X.K S S H K K F y y > ",
"e 3.3.s.d.d.d.s.d.3.> H h.s.s.s.d.d.s.d.| , :./ ; d / &.&.&.&.&.&.&.&.k r > ~ :., $.q.G.+XH.H.C.A.P.C.D.o.u V.A.C.C.A.A...S 5.i ",
"X.3X3XOXOXP.z.1X5XOX4 Y.9XU.N..X=X.X5XXX*.h :./ f ; d E ( &.&.&.&.&.k r ; g ( &.j 6.yX:X%X#XU.*Xf.|.<X<X=.u 4X|.n.n.|.|.f.@.m.Q ",
"...XJ.<Xn.r.r.(.*Xp.t K.M. X=X%XoXP.4XU.f / :.^ f E , , d E E E E f , > f r / &.~ S uXeX3X6X|.k.@.5.>X{.' C |.z.$X@X$XP.Y.@.p.W ",
"X.XXe.|.%Xf.C.).v.p.y J.XX}.f.f.P.F.OX[ f :.:.k 9 :.E r > , 9 9 > > r E / , / &.:., 3X5XrXwX|.H.s.).}.n._ A {.oXf.d.r.(.S.@.e.W ",
"X.XX-.I.1Xx.4.(.n.u.y J.&Xr.3.qXI.D.L.y E :.:.k 9 :.&./ k d r 9 d h ^ &.( - ~ &.:.j ..eXrXwXI.oXr.D.I.l._ A |.H.H ,X6XK.D.X.9.H ",
"X.XX-.|.OX@Xh.(.m.u.r K.5Xs.3.,XI.(.c.r ( &.:.g 9 :.&.&.&.( ~ / / ( &.&.( ; E &.&./ 9 @XZ.>.L.<Xb.C.I.n._ C 1X(.X.P.%XoXD.H s.Q ",
"X.L.] K.<XA.A.`.:XI.4 K.4XV.P.h.P.V.P.r :.:./ r , &.&.&.&.&.&.&.&.&.&.&.&.9 f :.( &., @ c b I.:XH.D.<X4X` Z 2X).H.P.H.Y.A...V.Q ",
"X.L.<.P.<X`.A.<X$Xc.r J.N.@X}.$X(.oX-Xe ~ / T d , &.&.&.&.&.&.&.&.&.&.&.&.9 r ( &.( ; W.pXW.Q 0XP.oX*X@X` A L.I.@XoX-XP.`.@.C.Q ",
"X.1Xj.w.=.@X3X#XOXJ.r I.&Xn.n. X1XOXH.e d h h , , &.&.&.&.&.&.&.&.&.&.&.&.9 , E ^ k ; ~.iXW.U c.5X1X#X|.` C *Xv.n.M.1X@XH.A.oXW ",
"C P.u.-.-.e.u.u.b.s.3 f.L.e.e.i.i.-.-.*., r ,   f &.&.^ / ( &./ / E / &.&.r   d f > c ^.iXR._ e.p.g.u.b.Q u K.g.e.e.e.e.-.t.t.U ",
"> : 3 3 e e 3 3 3 > > : , e 3 e e e e y 3 - - - h &.&.( E E E h k ^ &.&.:.f   - > 5 x v R.z 3 e 3 3 3 3 > > : 3 e 3 e e e e e > ",
"u H.P.P.H.H.J.H.H.H.e X.oXH.P.x.h.H.x.x.;.> H.H d / &.&.&.&.( &.&.&.&.&.:.f u R T ) / E , 4.}.x.H.H.K.P.O.e A.H.K.P.h.x.H.x.H.F ",
"X.4XoX*XOX{. Xx.` e.y J.K.;.s.r.9.r.K _ Q N 5X5.. d E / &.( &.&.&.&./ E h 9 G Z d E ) ! O.H.$X X X}.4.w.` Z @Xr.=.r.b.f.] ` _ F ",
"K 1X'.<X=X*X$XI.oXH.4 I.H.O.V.oX4X}.4.O.O.i =XZ.= < r 9 r d d d d d r , < 7 /.}.r.@.r Z.`.(.$X*X*X#XH.oX=.N oX=.H.K.2X@XP.f.r.F ",
"H 1X].|.#X#X$XOXL.v.r J.f.Z.}.#X#X%X_.9.r.i %X>Xu s g d d f f d d d f f d > oX=Xh.c.i H.2XoXOX@X#X%XL.{.=.Z J.r.$X}.OX%X=Xh.c.Q ",
"K %X4X<X=.w.4.@Xa.u.y c.-._ N ` P 9.@Xr.' u  XqXZ.= 3 > r d d d d f 9 t 2 N @.}.r.p.i h.=X7XA.w.;.H.M.p._ C z.Q W F *.O.}.w.p.W ",
"K %X4X+Xw.l.s.oXw.t.y c.}.=.N ] { 9.}.r.[ i OXqX9.M } L m n m m m n m } m P ;.P.x.u.i h.*X7XK.p.u.P.c.e._ N |.H.F _ w.] P.x.t.W ",
"K 1X>X+X` ] *.s.w.w.y j.I.w.N _ F 9.}.O.[ i #X0X4.m 0.2.L m q q J ,.2.8.m V =.@Xs.w.i x.>X:XV.` ] r.t.w.Q N K.f.{ F ` P @Xf.w.W ",
"K oX(.K.(.=.-.w.=.=.y s.w.w.=.F U 9.r.e.w.u I.1XO.J 8.2.2.} 1 q 1.2.2.7.m t =.K.[ u.y h.$XoXK.x.[ w.-.w.W Z 4.] r.K W _ H.[ p.W ",
"X.@X}.`.].y.=.=.] =.y f.x.y.(.r.w.w.u.n.-.i #X#XS.m 7.1.2.2.1 n 7.2.2.7.m F u.t.n.n.y C.@X+X$XoX-.=.] =.W Z A.f.Z.A.w.t.t.n.k.W ",
"u O.F 3.] W U B B W e F K W _ _ _ _ _ _ N p *.W $.I L } ,.L 1 M ,.} } 2.n N ` _ _ W r H _ O.5.W B B U W N p K F Q _ _ _ _ _ W y ",
"> u Z Z C C H Z C Z > e C C C C C H C H N : i H Z q } 7.7.} 1 q L 1.,.,.q D G D C H 3 e S C S C H H S H u > i S H H H H H S H p ",
"H 3X<X X#XoXI.3X%X@X4 H.5X{.U.{.1XOX1XXXj.y %X0X}.n L D D } q M 2.2.2.,.q $X=X#X#XXXi 5.0X=X.X1XP.#X=X3Xr.u 4X%XU.U.#X%X%X=X.XQ ",
"X. X}.1Xn.f.r.$X$Xz.y K.{.z.{.|.oXJ.<Xv.[ Z |.J.<Xn > s 9 t q M 7.2.2.2.q oXI.%XOXa.N H.v.$X Xn.=.f.2X X' S #Xn.{.|.%XI.OX%Xp.W ",
"X..Xe.%X{.b.A.`.|.p.y J.M.@XP.K.@X-X@Xn.-.u {.i.P.0 . ; > ; = n 7.2.7.} q P.).`.L.p.i H.p.c.=Xc.5.(.$XM.{ A .X|.(.A.oX`.(.L.p.W ",
"| XX-.|.2Xf.5.oXn.u.y c.&Xs.*.$XI.(.L.c.f.i {.i.x.0 < r 9 * 2 n 2.1.8.m 6.OXA.A.z.K.N H.k.g.*XoXs.C.I.m.{ A XXoXF P.Y.P.P.g.x.Q ",
"| XX-.|. XoX3.+Xn.p.y H.=Xr.d.tXP.(.L.s.h.i {.i.H.0 , 9 , - q q e 0 J 1 `.qXV.oXw.H.N H.p.j.OX1Xf.B.|.n.' C =XP.O.<X6XH.oXt.h.` ",
"H XX-.I.@XA.(.(.@Xc.4 K.0X5.x.s.K.).I.*.s.i |.i.x.w , 9 , * 0 r ~ k 3 2 3.Z.(.A.` H.N H.n.t.1X,XV.(.$X=X' C 0X`.s.H.H.+XA.=.x.Q ",
"H {.5.P.-X-XA.<X2XI.4 J..X(.P.`.(.H._.5.x.y h.@...> , 9 9 ; * r g E f u (.;XA.$X5.A.N x.b.V.@X:XP.oX$X4X' A XX}.D.(.-XV.oXH.P.Q ",
"H OXs.h.x.:X<X%X|.z.r I..Xv.U.*X0X+XZ.F.@.e #.C C > , 9 9 ; * > > > 9 9 ..F.S.Z.S.;Xi V.L.s.;.x.}.@X#X{.' C %Xm.L.{.7X4XOX).`.W ",
"H %Xz.[ [ u.c.c.J.J.r H.OXp.p.p.k.p.t.+.u e #.A u u ; > ; ; u ; , 9 ; > - t u t C +.y V.}.e.[ -.g.L.c.I.*.N @Xc.p.p.p.k.i.f.x.U ",
"e y y N N y y y y y 3 y y i i i y i N 4 3 3 3 3 e e 3 > > 3 e > > > > > > e e e 3 > 3 r y i i i y r y y r > y y i i y y i y r e "
};
