/* XPM */
static char *d475d24ca1d34a1ab077ac3bab15a104hYLks7sr8vvFZFIf[] = {
/* columns rows colors chars-per-pixel */
"64 64 241 2 ",
"   c #0E121E",
".  c #12121C",
"X  c #1D1318",
"o  c #180D10",
"O  c #28150A",
"+  c #281714",
"@  c #29110D",
"#  c #0D1523",
"$  c #0C1929",
"%  c #121524",
"&  c #141926",
"*  c #1A1B25",
"=  c #15172A",
"-  c #141B2C",
";  c #1A1E2A",
":  c #191624",
">  c #0B1D34",
",  c #0A1F3A",
"<  c #161E31",
"1  c #191D32",
"2  c #060D22",
"3  c #13212E",
"4  c #1C212E",
"5  c #182126",
"6  c #0B233B",
"7  c #0D2C3C",
"8  c #0A2235",
"9  c #152334",
"0  c #1B2334",
"q  c #132936",
"w  c #152539",
"e  c #1A253A",
"r  c #152C3B",
"t  c #1B2A3D",
"y  c #1E2935",
"u  c #09323C",
"i  c #14313E",
"p  c #19313F",
"a  c #24242E",
"s  c #37292A",
"d  c #222633",
"f  c #242936",
"g  c #262C39",
"h  c #292F3C",
"j  c #2C2734",
"k  c #2B313E",
"l  c #39353A",
"z  c #302D30",
"x  c #472827",
"c  c #4A3736",
"v  c #593533",
"b  c #532C2B",
"n  c #663835",
"m  c #6F3732",
"M  c #4F241F",
"N  c #6A403A",
"B  c #7A473D",
"V  c #0A2644",
"C  c #0C2B45",
"Z  c #0B2C4C",
"A  c #1C2C43",
"S  c #192C44",
"D  c #0D3542",
"F  c #0C394A",
"G  c #153342",
"H  c #1B3245",
"J  c #1D334B",
"K  c #143B4B",
"L  c #1B3B4C",
"P  c #173848",
"I  c #0C2E51",
"U  c #0C3354",
"Y  c #0E3B5C",
"T  c #0D3857",
"R  c #1E3651",
"E  c #1D3C53",
"W  c #173B56",
"Q  c #202C44",
"!  c #202F49",
"~  c #2D3442",
"^  c #22344D",
"/  c #24384D",
"(  c #303644",
")  c #323947",
"_  c #333C4A",
"`  c #3C3C44",
"'  c #233652",
"]  c #233A55",
"[  c #243D5A",
"{  c #293E5B",
"}  c #283955",
"|  c #0E3E61",
" . c #103F60",
".. c #07444D",
"X. c #12414E",
"o. c #1B414D",
"O. c #0A4A56",
"+. c #154353",
"@. c #1C4253",
"#. c #1D445A",
"$. c #1C4B5C",
"%. c #174958",
"&. c #1B515E",
"*. c #18535B",
"=. c #3B4249",
"-. c #214256",
";. c #24425C",
":. c #2A425E",
">. c #21495E",
",. c #3E4453",
"<. c #385A5B",
"1. c #0F4265",
"2. c #0F4669",
"3. c #104162",
"4. c #1D4D62",
"5. c #134969",
"6. c #1C5364",
"7. c #1B5965",
"8. c #1D566B",
"9. c #1C5B6C",
"0. c #155A68",
"q. c #1D5D71",
"w. c #254562",
"e. c #2A4563",
"r. c #234C64",
"t. c #2A4B66",
"y. c #2C4B6A",
"u. c #274A68",
"i. c #314C6C",
"p. c #304468",
"a. c #215365",
"s. c #23546B",
"d. c #2B526D",
"f. c #235B6E",
"g. c #2B5D6B",
"h. c #255671",
"j. c #2C5472",
"k. c #235D73",
"l. c #2B5A75",
"z. c #2D5D79",
"x. c #2B5A79",
"c. c #325372",
"v. c #325A77",
"b. c #325D7B",
"n. c #34526F",
"m. c #1C6374",
"M. c #1D667A",
"N. c #1C6B7C",
"B. c #176876",
"V. c #19717E",
"C. c #1A606E",
"Z. c #236275",
"A. c #296175",
"S. c #24657A",
"D. c #2B637C",
"F. c #236A7D",
"G. c #2A697E",
"H. c #31617D",
"J. c #2E686B",
"K. c #414956",
"L. c #454A58",
"P. c #514B4F",
"I. c #764A43",
"U. c #6A534B",
"Y. c #73524B",
"T. c #437072",
"R. c #787B7E",
"E. c #676E76",
"W. c #585C64",
"Q. c #89463C",
"!. c #8C564C",
"~. c #965548",
"^. c #8F5148",
"/. c #996556",
"(. c #A76457",
"). c #B5685C",
"_. c #BA7666",
"`. c #B36F63",
"'. c #A25F54",
"]. c #C57868",
"[. c #C66C59",
"{. c #8F857F",
"}. c #D28C76",
"|. c #DA957E",
" X c #D18570",
".X c #1B6D81",
"XX c #1C7384",
"oX c #1A7885",
"OX c #1D7689",
"+X c #1C7B8C",
"@X c #157785",
"#X c #1E7E91",
"$X c #2C6781",
"%X c #246C82",
"&X c #2B6C83",
"*X c #266983",
"=X c #326C86",
"-X c #336784",
";X c #237285",
":X c #2A7186",
">X c #23758A",
",X c #2B748B",
"<X c #237A8D",
"1X c #2A7A8E",
"2X c #207886",
"3X c #237D92",
"4X c #2A7C93",
"5X c #277A95",
"6X c #31778E",
"7X c #7B7E80",
"8X c #1C8293",
"9X c #1C8B9B",
"0X c #1B8899",
"qX c #1D919D",
"wX c #238294",
"eX c #2A8295",
"rX c #248699",
"tX c #238B9C",
"yX c #298A9D",
"uX c #2A859A",
"iX c #2C9992",
"pX c #318883",
"aX c #1A91A2",
"sX c #258DA2",
"dX c #2293A3",
"fX c #2499A6",
"gX c #28B3A9",
"hX c #548D9A",
"jX c #ABAFB4",
"kX c #91989B",
"lX c #D89A82",
"zX c #E49B83",
"xX c #ECAA8D",
"cX c #EAA588",
"vX c #F2AE90",
"bX c #F6B193",
"nX c #FCB697",
"mX c #F0AF94",
"MX c #E5B8A3",
"NX c #D0CDCD",
"BX c #F8FBFC",
/* pixels */
"9 r q t r r r r i - - q 9 q r q q q r 9 % - r r r r r r r i 9 % 9 r r r i r r r i - % r i r r r r r G P 9 % q r r i i i r G i - ",
";XF.>X#.r.%XF.Z.S.e 6.uX>X<XD.G.G.S.S.r.= Z.F.F.>Xk.Z.S.Z.k.J r OX;X<XD.A.A.F.m.A.A P <X%X2X<XS.F.F.S.S.H K OX;X#XA.Z.D.F.k.k.w ",
"&X] ;.E 9.q.E ' ' e Z.yXS.3X&X:X%X$.;.[ 9 &Xr./ -.m..XW H A t L tXk.%X%XG.&XZ.@.w.A $.F.E ;.a..Xm.#.E ' 9 6.dXq.N.%X*X%X9.E ;.e ",
",Xr.#X@.F.rX>Xk.k.e Z.wX0XwXeXeX<X%X8Xr.- :Xs.N.<XrXtX;Xk.q.L L tXoX#X3XwXwX%X;X2XA @.2X$.+X>X8X+X;X8.8.1 &.dXB.>X3X3X3X%XOXM.9 ",
"l.w.Z.H r.;X>Xr.l.t f.sX<XF.S.Z.;Xl.j.;.9 l.;.S.s.k.k.3Xk.#.t r m.C.S.F.Z.m.%Xy.d.e #.d.;.8.r.k.Z.9.K %.K P m.<X%Xq.f.M.*Xe.r.w ",
"j.] ! A ' ;.%X[ y.t f.4XfXZ.:.e.8.l.e.[ 9 l.;.! A ;.^ +.g f h k g f H t / ;.S.e.e.e >.d.E A / ' K +.P [ t P G +X8X] e.$.*X{ ;.9 ",
"&X%X' S [ r.%Xq.t.t f.eXdXZ.t.y.f.h.[ ] 9 l.N./ ^ ^ 4 f _ _ _ _ _ _ ) ( y t S.[ ;.e @.F.9.S E %.%..XN.u.1 9.4.B.OX;.y.r.k.' [ 9 ",
"k.r.[ A A E ;X4.y.t f.rXrXm.' ' E ;.;.' 9 s.$.[ 9 d _ _ _ _ _ _ _ _ _ _ _ 4 H ;.;.e @.8.E P K H #.>X$.r.9 6.4.m..XE ' R ] [ ] 9 ",
"s.w.h.E A #.f.:.c.e f.1X>XS.N.[ ;.[ ] J 9 r.#.' 0 _ _ _ _ _ _ _ _ _ _ _ _ k - ] ] e @.$.E X.L / @.8.[ y.9 6.4.m.q..Xw.;.[ R R 9 ",
"*Xd.S.#.} y.t.d.y.e Z.<X>XwXM.[ ] ] ] J 9 k.8.- f ~ ~ ) _ _ _ _ _ _ _ _ _ h ; A [ e @.B.K %.s.w.w.;.y.e.0 8.%.%.8XN.#.E E E R 9 ",
"e 9 1 t e 9 9 9 9 - 9 e 9 P 1 < < < < < - 0 9 ; ; 4 4 d d h k ( _ _ _ _ _ g 4 - e - - e i - - - - < - - - - P - G < < < < < < - ",
"$.&.6.H @.6.$.$.a.< G 8.$.$.&.6.6.$.7.P % K - d f d d g d ; ; ; d f k ~ h d d & q q r K $.9.7.9.9.8.8.9.r 9 @.#.8.0.0.9.8.9.6.% ",
"yX&Xb./ F.,X,X4Xb.t S.sX1XH.eXD.,XeXyXr.r ;X4 0 f 4 d f d d g 4 f f & ; 0 d d 0 7.J +.$.y.v.v.,X&XeX4Xc.e 0.$.F.&X*X9.x.dXwXZ.- ",
"D.j.:X/ F.;X2X>Xi.t k.v.<X:Xc.r.f.wXG.} G Z.: d f d f f 4 f d d g d f f ; & : 3 l.Q K #.d.1X&X;Xm.wX;Xy.e 0.#.N.#X:.#.8.+X;X:.- ",
"H.:X8.A >.OXXXD.i.t k.c.d.4XA.6.OX;Xc.} G G.- # # # 4 d a f f d f 4 f f d f 4 & H A &.$.B.a.f.s.XXV.j.y.9 0.$.-.<X%X8.V.XXj.w.- ",
"-XF.>.L $.M.N.d.k.t f.c.t.1X;Xr.N.D.c.} G =X8.c !.P.s : # # 4 4 d d f d 4 f d ; t A &.6.$.L fXsX9.N.y.B.e 8.$.E 3X#X9.0.%Xy.w.< ",
"6X%X4.P >..X;Xw.s.A k.c.d.&X3Xh.N.G.c.[ t 1XB.I.bX}._.(.Y.U.* . : ; 4 4 d d 4 ; t Q $.7.$.#.2XF.F.N.] m.t 8.$.@.<X<XM.9.N.j.e.< ",
"uX<X8.P r.N.M.r.S.A f.y.t.,X3Xf.XXwXrX} t eX@XN vXc s s U.nX`.@ + + X X % * 4 : @.Q $.&.0.k.6.a.F.N.@.m.e 6.$.] 0X+X9.N.+X9Xh.- ",
"v.G.;XL B.m.F.m.F.t f.y.Z.&XwXF.<XeX:X{ r -Xk.Y.nXU.W.BXMXcXnX/.O O M }.x o o P %Xe $.$.F.%XXXoXM.OX9.N.9 6.$.-.q.m.N.B.3X%Xr.- ",
",Xz.v./ m.1Xk.XX%Xe Z.,Xt.;.h.sX4X:X&X:.r eXD.b bX{.kXBXMXcXxXbXN @ m zXB o @ #.S.t &.%.e.c.H.4X&Xs.N.XX; $.6.@.+.E #X<X;X%Xd.- ",
"k.r.{ J ^ { ' ;.;.9 $.k.[ ' ' w.r.r.f.' 9 Z.-.~.nXlXlXMXcXxXxXxX|.(.].|.x O + y q 0 @.@.' { } / ' / ] ] t X.P / ^ / } ;.;.>.-.= ",
"- 9 3 t 9 3 9 9 9 - % - 3 9 9 9 3 9 9 - % - : ~.|.bXbXcXxXxXxXxXzX_.^.x O + * ~ f   % G q - q q q 3 - G +.q - 3 9 q 9 3 3 3 - - ",
"F.S.%X#.-.D.Z.A.A.e #.<X;X:XD.D.G.S.F.r.- Z.B.b  X}.|.vXxXxXxXxXzX'.@ O + X   g ~ . @.N.+.+.7.7.7.L K @.- &.#XOX<XA.D.F.F.S.s.= ",
"&X-.;.E 8.f.} ' ' e Z.yXZ.<X&X&X:X4.[ ;.t :XK I._.^.|.vXxXcXvXcX_.M + s .   ; ( g . @.Z.J e w +.G A ^ ' 9 N.qXN.<X&X&X&Xr.} w.- ",
",X;.N.@.F.3X%Xa.r.e Z.<XoX3X3X3X>X*X3Xr.e :X4.` _.nXbXxXxXbXlX'.m ^.).s # g ( k f ; p f.#.+X>XrX3X>X$.K 3 F.+X@X<XeXeX<X%X#Xk.= ",
"l.r.OXJ r.<X5Xs.l.A f.yX>X;X;X%X<XD.z.w.t D.s.m.+ B }.vXzX^.n ^.].(.x # k ) g 0 d ; P r.6.q.Z.F.2X%X;.>.r Z.8XN.%XF.N.OXD.l.r.- ",
"j.' ^ A ' >.F.[ i.t g.4XfXF.:.:.Z.D.i.[ t z.} / 9   x v m ^.].(.c 4 y ~ g ; & 4 4 . @.r./ A ' [ $.q.^ >.i f.<XaXM.[ [ 8.G.e.[ - ",
"$XF.' H [ r.%X8.y.A f.eXdXZ.i.i.S.l.;.] t $XS.J / H 4 # s `.c & 0 ~ k 4 & ; _ L._ . >.%X8.A [ e.4.N.4.-.r k.rX9Xq.u.y.k.D.[ ] - ",
"k.s.} A ^ E %X6.t.t k.rXtXm.} [ W w.;.J w k.+.' / J - ; % : - g d * & - f ,.L.K.L.( @.q.w.^ ^ ^ $.%Xw.] q Z.tX9X0./ ] #.w.;.] - ",
"r.;.s.E A ] k.{ c.t f.<X%XS.S.[ n.kXjXjXjXkXE.u.$.t d g k g 4 4 4 d g ~ _ K.K.K.K.K.g K w.r.E ! $.8.{ ;.9 k.%X%XN.Z.[ ;.[ [ ' - ",
"%Xh.*X%.' y.t.j.j.e Z.>X<XwXF.e.NXNXNXNXNXNXNXhXB.' f k _ _ ~ _ _ _ _ _ _ _ ,.K.K._ ) t r.OXh.w.w.w.y.;.K m.k..X8XM.' [ ] [ ' - ",
"J A A A A ! ! ! A < H ^ J $.A Q W.7XR.R.R.R.E.) A e f k ( _ _ _ _ _ _ _ k k _ _ _ _ _ g e A A A e e e e G K r P %.H H S H S J G ",
"P o.o.H P o.L L o.- 9 o.P L L o.. a =.` ` =.* 3 @.P f g ~ _ _ _ _ _ _ _ 0 d ~ _ _ _ _ _ 4 L o.o.o.L o.o.% G 7.&.&.&.7.7.*.0.%.G ",
"eX,X-X] F.,X,X4X-Xt Z.yX1X=XeXa././.=.T.T.K.N c X.P f d k _ _ _ _ _ _ _ h & d ~ _ _ _ _ ~ -.-X3X:XeX,Xv.9 V.rX<XD.2Xf.;XwX8X6.% ",
"&Xd.G.] F.;X%X>Xi.A Z.D.wX&Xd.L !./.pXiXiXJ. XI.% d f k ( _ _ _ _ _ _ _ ( 0 = d k _ _ _ _ 0 Z.<XZ.#X%Xe.w S.l.8XD.y.L 4.0X*X[ - ",
"b.&Xm.H f.8XoXD.i.t k.c.l.,XD.6.Y.~.J.gXiX<.B c Q g d _ _ _ _ _ _ _ _ _ ~ f 4 & d k _ _ _ 0 %.*XV.XXl.e.r S.e.Z.>Xk.8.B.OXd.[ - ",
"-X%X#.P #.M.N.c.k.t k.c.t.4X2XW B ~.l T.pX<.5 = f 0 d _ _ _ _ _ _ _ _ _ ~ d g & ; g _ _ _ a 0.:XM.B.y.q.r S.e.s.3X.Xa.@XS.y.[ - ",
"6XF.6.@.$.B.;Xt.9.A f.c.d.&X3Xk.g.l K.P.P.` * & 4 4 d _ _ _ _ _ _ _ _ _ ) f f ; - f _ _ _ j V.rXm.N.;.9.r S.e.f.S.8Xd.B.S.y.;.- ",
"yXOX6.E 6.XXN.;.k.A f.y.t.1X8XS.@X*.z l k a p q . # d =._ _ _ _ _ _ _ _ ) f d r o.a _ _ _ ~ e 9.B.XX-.k.9 Z.[ f.wX+Xa.V.8X8X;.- ",
"b.F.;XE m.m.N.m.F.A f.t.s.<XqXm.2XwXS./ 9 d.&XXX9.9.4 g g g g h ) _ _ _ ) f f 4 q d ) _ _ ) H @Xm.+X9.F.9 Z.;.q.2X8X0.+X0XOX[ - ",
"&Xj.D./ N.rXF.B.;Xe Z.D.r.r.F.dX4X,X&X:.e 1Xv.z.=X<X0 ~ ~ ~ ~ ~ h ) _ _ _ g d 4 & 4 k _ _ f P dX<Xq.B.N.9 F.k.$.#.M.qX>X%XS.;.= ",
":Xl.i.' :.n.e.d.l.e f.:Xe.{ e.z.D.D.&X;.9 :XD.i.i./ g _ _ _ _ _ ~ h _ _ _ g d d 3 - ; ; 4 & ^ i.y.:.r.r.9 Z.D.[ [ e.j.l.h.k.] % ",
"1 1 < S e < < 1 < - < 1 1 9 9 1 1 1 1 - - - 1 1 1 % f ) ) _ _ ) _ g ~ _ ~ d d d % - # # 9 ; ; < - 1 = = - - = < 1 < - = = = = - ",
"4.8.6.E E >.$.4.a.9 A 6.a.a.a.a.a.a.a.L % #.9.4.6.@.& 0 h k ~ ~ ~ k f k f f d - +.n Y.c c /.I.%.6.6.7.9.w r 9.9.9.a.s.a.f.m.#.= ",
"%Xa.h.4.>.h.r.;.;.t Z.yX,XeX=X=X:X9.t.w.0 &Xf.s.D.E % = - ; 4 d f d ; 0 0 4 * - g (.zXxXxXnX!.5.8.#.#.[ w m.0Xm.OX*X&X*X0.r.r.- ",
"G.] 6.@.B.XX6.E E e S.<XN.<X4X5X;Xf.S.;.e G.E >.s.B.9 a d ; - 4 4 - & - ; 4 : r &.Q.b lXxX|.v .XOX8.E E 9 N.OX0.XX>X#XXXq.M.r.- ",
"D.s.#X%.Z.uX4Xk.Z.A Z.rXOX:X1X1X1X&X>X;.0 &Xs.OX>XeX7 6 9 - 4 0 f f d d ; - $ G :Xf x  X_.(.s %X4X,X6.q.e m.wXN.&X>X>X<X$X*Xr.- ",
"d.' L L #.6.%X;.i.A f.uXsXF.>.>.F.j.p.] e l.' ] J -.6 1.U V 6 , > w 8 > 6 V Z 9 i.J n [.Q.b J #.%.F.w.y.e 9.4XdX.X$.r.q.D.p.[ - ",
"D.8.J E ] ;.;Xr.y.A f.4XfXZ.e.e.S.l.w.' e D.8.J ^ J C 5.3.U V U Y U U U I I V w e.J j P.o.S R [ E S.s.y.e f.5XaX.Xu.y.k.$X:.[ - ",
"A.k.' L ' #.>Xq.t.A k.yXtX9.[ ;.a.r.[ J 0 D.q.' J S U 2.1.1.Z 6 Y 1.1.1.U I V S ;.S +..X8.J J ' E OX8.w.e k.3X0X.X} w.r.d.[ ] - ",
"r.[ [ E A E .X} y.t f.wX%XN.4.] ] [ [ J e a.R [ J 6 1.1.1.1.U , 7 1.1.1.1.U V S ;.e L s.] [ J A E .X] y.w f.;XXXm.9.[ [ [ [ R < ",
"k.w.M.6./ ;.r.y.d.e Z.;X<X<X.X] [ E E J w s.#.8.0.6 2.1.1.| V 7 F | 1.1.1.Y V w E S L 9.;.m.8.] [ w.y.y.e Z.>XXX.X+X[ [ E R R < ",
"r.] #.@.' [ [ [ } 9 %.r.8.N.E H S H J S 9 #.E E G Z 2.1.1.T , q C Y 1.1.1.Y V > J e A #.R E [ } } } } ' < #.#.%.N.E J J J J J - ",
"9 r 9 J r 9 w w r - = 9 9 r 9 r w w w 9 - - 9 t - U 2.1.1.U , - # T 2.1.1.Y U , < 9 % 9 e r r r t t r r - % 9 9 r w t t w t 9 - ",
">X:X&X-.m.>X;X:X&Xe a.rX&XD.<XF.:X;X<X#.< ;X2XF.F Y 1.1.Y Z > t %.V 2.1.1.1. .I 6 9 P wX;XD.D.;X<X>X;X&Xe 6.tX;Xk.;XN.%X<XOXq.= ",
"1Xz.v.;.N.&X%X<Xi.A Z.:X8XD.$Xr.k.wX:X;.e 1XD.;.C 2.1.1.T 6 S J *Xw Z Y U Y 3.Y Z 2 $.>Xs.l.x.*XA.3X<Xe.e N.*XOX;Xj.4.a.8X>Xr.- ",
"b.D.+X@.S.8X+X&Xn.t f.c.G.1Xj.9.N.wXc.} t D.D.C.Z 2.1.1.Z 6 } H S.e.w 6 Z Y 3.3.Y V K d.k.+XOX;XXX+XS.y.e m.j.h.0Xd.9.V.+XD.{ - ",
"-X;XE L -.XXV.c.d.t f.c.t.eXN.$.oX&Xc.} r &X%XD Y 1.1.Y V C 4.H F.{ 9.T 6 I Y  .3.Y 6 G XXE m.h.N.N.j.k.e m.j.;.>X+Xq.B.F.j.;.- ",
"=XS.6.%.f.m.;Xd.m.A f.c.d.:X<Xa.B.&Xi.[ r :X;X7 1.1.1.Y , F 9.H *X} q..XF > I Y Y Y Z $ r +.fXdX9.V.r.B.r q.j.;.%X>XS.9.%Xi.e.- ",
"tX+Xr.@.#.oXXX;.s.t k.c.t.,X<XF.oX;X$X} 9 tX+XC 2.1.1.Z > r L r %.t X.O.O.7 6 Z U V $ -   +.m.9.XXXXE 6.e q.j.;.<X3XB..XOX:Xr.- ",
"=XXXB.@.9.m.N.8.N.A f.l.f.;XqXN.oXwXrX{ 9 &X%.> I Y T V 8 D D 9 D r D ..O...u 8 , $ % - % F @X@Xm.XX0.N.e 9.h.q.>X9XB.B.OX9Xa.= ",
"H.l.&X] @X9XOXB.oXt k.l.9.k.+X0X2XN.8./ = 0 ; = $ , V , u ..D 9 F r D D ......u % - - % # K M.aX+XXXV.N.0 m.l.6.4.q.N.>X%X*Xw.- ",
"<Xl.i.' r.z.t.m.S.e q.>X:.' :.A.8.K X.7 % 0 f f 4 & # $ u F r 9 ..D w q 7 F u - 0 4 & $ r w J y.y.w.9.s.1 m.<X;.^ / w.k.k.S.6.- ",
"J A A J A Q ! t t < t H A H ! Q 9 9 0 9 # # & - - - & - 9 < < < 9 9 9 9 9 < - - - % # < 9 < e e e e e e - 9 A t A A t e e t e - "
};
