/* XPM */
static char *_05a4090e74c474284bb0eccf198e219nAl1mx3ijowpNOaf[] = {
/* columns rows colors chars-per-pixel */
"64 64 233 2 ",
"   c #0E101E",
".  c #11121D",
"X  c #1A141A",
"o  c #130E12",
"O  c #2A160B",
"+  c #231618",
"@  c #351A15",
"#  c #2B150B",
"$  c #23211E",
"%  c #0D1524",
"&  c #0F1A2C",
"*  c #0C1829",
"=  c #121523",
"-  c #141A26",
";  c #141B2C",
":  c #191D2B",
">  c #191826",
",  c #0C1E34",
"<  c #091E38",
"1  c #161E31",
"2  c #191D32",
"3  c #211E27",
"4  c #14212F",
"5  c #1C212D",
"6  c #0C2435",
"7  c #0B233C",
"8  c #082839",
"9  c #152334",
"0  c #1A2234",
"q  c #142936",
"w  c #14263A",
"e  c #1A253A",
"r  c #162B3B",
"t  c #1B2A3D",
"y  c #12313E",
"u  c #0C2C36",
"i  c #29242D",
"p  c #212633",
"a  c #242936",
"s  c #262B39",
"d  c #292E3B",
"f  c #2C2B34",
"g  c #2C313E",
"h  c #22313E",
"j  c #34282F",
"k  c #412E36",
"l  c #4E3032",
"z  c #633B38",
"x  c #733A35",
"c  c #672F2A",
"v  c #6C433C",
"b  c #56443C",
"n  c #0A2543",
"m  c #0C2B45",
"M  c #0B2C4C",
"N  c #1D2C43",
"B  c #1A2E45",
"V  c #0D3647",
"C  c #153443",
"Z  c #1B3345",
"A  c #193946",
"S  c #1D354A",
"D  c #143B4C",
"F  c #1C3B4D",
"G  c #133747",
"H  c #0B2F51",
"J  c #0D3254",
"K  c #0F3B5D",
"L  c #0E3659",
"P  c #1F3651",
"I  c #1E3C52",
"U  c #173E58",
"Y  c #212D45",
"T  c #212F49",
"R  c #213047",
"E  c #2D3441",
"W  c #22344D",
"Q  c #213A4E",
"!  c #263946",
"~  c #313644",
"^  c #323946",
"/  c #363D4B",
"(  c #383F4D",
")  c #233652",
"_  c #233A54",
"`  c #293B55",
"'  c #243D5A",
"]  c #293E5A",
"[  c #293651",
"{  c #0F3E61",
"}  c #103F61",
"|  c #493F47",
" . c #09434C",
".. c #074C53",
"X. c #154554",
"o. c #1B4254",
"O. c #1C455A",
"+. c #1C4A5C",
"@. c #174A59",
"#. c #1A505D",
"$. c #16545F",
"%. c #18404D",
"&. c #39404F",
"*. c #37404D",
"=. c #214256",
"-. c #24435D",
";. c #2A425E",
":. c #214A5D",
">. c #3B4351",
",. c #364953",
"<. c #114265",
"1. c #1D4D62",
"2. c #114669",
"3. c #12496D",
"4. c #174E63",
"5. c #1C5364",
"6. c #1E5569",
"7. c #1D5B6C",
"8. c #1B5967",
"9. c #1D5E72",
"0. c #0E4162",
"q. c #254561",
"w. c #2B4563",
"e. c #234C64",
"r. c #2B4966",
"t. c #264E6A",
"y. c #2C4C6B",
"u. c #2A476A",
"i. c #314565",
"p. c #314D6C",
"a. c #314869",
"s. c #225265",
"d. c #24546B",
"f. c #2B536D",
"g. c #235B6D",
"h. c #215866",
"j. c #33506F",
"k. c #334F70",
"l. c #2D5472",
"z. c #235C72",
"x. c #2B5B74",
"c. c #2D5D79",
"v. c #275874",
"b. c #325372",
"n. c #325A76",
"m. c #325D7C",
"M. c #1C606F",
"N. c #1D6374",
"B. c #1D667A",
"V. c #1C6C7C",
"C. c #176978",
"Z. c #1A727E",
"A. c #226274",
"S. c #296175",
"D. c #24657B",
"F. c #2B637C",
"G. c #236A7C",
"H. c #2A697E",
"J. c #206877",
"K. c #31627D",
"L. c #584543",
"P. c #454C5C",
"I. c #474C53",
"U. c #744A46",
"Y. c #6A4744",
"T. c #494F60",
"R. c #83453D",
"E. c #8A5549",
"W. c #8C5147",
"Q. c #A66458",
"!. c #B76B5C",
"~. c #B8705E",
"^. c #BA7464",
"/. c #B56F61",
"(. c #916359",
"). c #C87867",
"_. c #C68471",
"`. c #D7947C",
"'. c #D28772",
"]. c #E28C7C",
"[. c #1E6E80",
"{. c #1C7483",
"}. c #1A7986",
"|. c #1B768A",
" X c #1D7B8C",
".X c #177988",
"XX c #1D7E90",
"oX c #2A6580",
"OX c #236D83",
"+X c #2C6B83",
"@X c #276782",
"#X c #336682",
"$X c #326B85",
"%X c #237285",
"&X c #2B7186",
"*X c #24758A",
"=X c #2B748A",
"-X c #247A8D",
";X c #297A8E",
":X c #207887",
">X c #32718B",
",X c #247D91",
"<X c #2A7C92",
"1X c #357C96",
"2X c #1D8393",
"3X c #1C8D9D",
"4X c #1A8999",
"5X c #1C8B96",
"6X c #248294",
"7X c #2A8294",
"8X c #248599",
"9X c #29859A",
"0X c #248A9C",
"qX c #2A8A9C",
"wX c #2A899A",
"eX c #1D98A8",
"rX c #278DA1",
"tX c #2595A5",
"yX c #20A4AF",
"uX c #25AAB3",
"iX c #808283",
"pX c #A6978F",
"aX c #D99C83",
"sX c #E79A83",
"dX c #EDAA8D",
"fX c #EAA588",
"gX c #F4AA8C",
"hX c #F2AE91",
"jX c #F9B696",
"kX c #E5AF97",
"lX c #DFC1B3",
"zX c #F5CAB6",
"xX c #F9FCFD",
/* pixels */
"G.d.A.S d.z.d.e.=.q -X;XOXH.n.n.S.h.f.S F *Xd.F.z.h.d.6.-.-.e 5.6XD.%Xf.f.l.A.e.y.e 5.:Xg.G.D.d.z.6.e.e.e +.XXD.*Xl.f.l.z.O.q.r ",
"d._ :.o.}.6.O._ W r 7X%X%X6X;X<XOX1.d.S I &XF =.s. XB.o.F ) 0 6.6Xz.-X;X;X*Xg.:.d.e h.A.I e.6..XN.+.I _ 0 5.rX9.{.-X-X;X9.4.e.t ",
"g.OX{.S 9X7X*Xz.d.w ;X X8X<X7X<X;X*X6XS I ;Xs.5X<X0X6X-XA.J.e g.0X X;X6X6X,XOX*XOX0 h.G.5.2X<X0X,X*X7.9.0 5.8X{.-X,X,X,XOX%XB.e ",
"` d.F S d.%Xx.q.r.w =XqX=XA.v.g.%Xp.b.N I f.-.s.:.d.A.OXI S 0 Z 6.G.G.g.h.N.F.i.y.0 h.;.-.o.:.d.h.5.D @.D r 8.,XOXh.d.7.D.w.w.w ",
"e._ N S ) 9.c.] w.w &X9XtXe.a.;.G.b.y.N I c.=.N ) ) t h d E ~ ~ d ! A t w.:.H.w.w.0 s.d.I N ) P D @.I ;.w o.D .XXX] r.:.@X' ;.e ",
"%Xd.N S ] z.*Xd.;.r =X9X0Xe.p.w.D.r.q.N F %Xz.T e 0 E ( &.&.( &.&./ / d 0 :.F.` ;.0 :.G.6.N D X.O.*XV.e.0 9.+.C.|.] r.e.v._ ' w ",
"s.r.W B N 7.D.-.;.w =X8X;X6.) ) _ -.w.N F h.-.t a &.&./ / / / / / / / *.a 9 ;.;.] 0 :.1._ D D N O.%X_ r.0 5.4.N.V.O.) P _ ' _ 9 ",
"d.f.9.S W e.e.p.w.w &X*XOX%Xx.;.w.' ] N F d.F 0 >./ / / / / / / / / / / ^ : W _ _ 0 :.1.I X.o.) =.e.q.y.0 6.4.B.B.|.q.;.' I ) 9 ",
"S.f.z.S r.r.y.y.;.r *XF.:X:Xd._ _ _ ' N Z A.q p E E ^ / ( ( ( / / / / / E : e _ _ 0 :.7.D 5.f.q.q.q.r.;.2 5.O.o.2XB.I P I P ) 9 ",
"2 2 2 t 2 0 9 0 1 ; 1 2 9 w ; 1 1 1 1 ; ; ; 5 5 5 5 p p d g ~ / / ( / / s p ; 0 0 ; ; w C ; ; ; ; ; ; ; ; = S ; q ; 1 1 1 1 ; ; ",
"g.g.+.S 7.7.g.g.:.; 5.A.h.g.g.g.z.g.A.w ; ; p s s a g s : : : 5 a d E g p a : q r r C o.6.A.A.N.A.N.A.J.w r o.1.z.N.C.N.N.B.7.; ",
"<Xm.y.I ,XF.8X#Xr.r 7X<X;XK.*Xf.<X9X6XN C t p a p a s p a d p s g : - 5 p p 5 @.6.Z @.+.p.b.b.=X@X6X*Xk.e 6.O.OX=X@X6.d.8X6XA.2 ",
"b.+Xg.F ,XJ.6XF.] r +Xn.6XF.y.s.N.6Xx.R C 0 p a p a s p a a 0 d a a d 5 ; - - 6.n.e @.o.x.,X&X%XN.8XOXr.w 6.+.N.8Xw.O.5. X*Xq.9 ",
"K.OXF N S.Z.%Xl.;.r +Xi.S.;Xz.g.{.H.b.T o.Z . % * ; p p a a p d p a d p a p > 0 r.e 8.+.B.:.g.d.{.V.l.r.w 6.+.=.-XOX6.Z.%Xl.w.0 ",
"#Xg.o.F g.V.F.t.6.t $Xw.S.<XOX:.{.x.b.N +.x.l (.U.k 3 = % 5 0 p p a s 5 a p 5 0 r.e 8.5.+.o.uXqX7.B.r.V.r 6.+.I -X,X7.7.OXy.r.0 ",
"7Xg.O.Z z.{.D._ s.r $Xw.D.+X;Xd.{.c.b.T o.*XY.gX`.).Q.U.U.i o X ; 5 5 0 p 5 5 0 y.t 8.5.5.+.%XD.V.B._ N.t 6.+.o.<X<XN.7.[.c.r.0 ",
"0XN.:.Z G.M.D.+.z.w +X] x.;X:Xg. X0X,XY =.,XL.gXL.$ j b dX`.@ O + X X = - 5 > y %X0 5.5.N.A.h.g.N.V.o.B.e 5.+.=.2X XM.N.2X3Xv.: ",
"l.*Xg.o. XA.*XN.g.w H.q.D.%X8XN.,X<XoXN :.c.z jX(.I.xXlXfXjX_.# O @ _.v o + 0 %XS.0 6.+.OXD. X XG.{.N.V.0 6.+.:.7.9.|.V.,XOXt.2 ",
"+Xm.r.F ,XH.S.:Xs.e 7XF.e.=.H.rX;X&X+XS +.9Xk fXpXiXxXzXfXdXjXE.# c ]./.O # h @Xv.0 7.+.r.b.K.<XH.h.V.OX; #.5.o.X.I 6X,X=XOXv.2 ",
"d.;.) N ` ] ) -.) 9 A.e.` ) ` w.e.e.d.t F 5.E.jXaXaXjXdXdXdXdXfX~.).sXv O @ a q I 0 X.o.[ ] [ [ ) W _ _ t X.S W W ) ` -.=.:.=.; ",
"1 9 9 t 9 9 9 9 9 = - 9 9 9 9 9 9 9 9 ; ; = W.aXhXjXfXdXdXdXdXfX).Q.z O # + E g = ; = G 9 4 q q q 9 4 G X.q 4 9 9 q 9 4 4 9 4 ; ",
"%XD.G.S x.F.S.S.s.; A.*X*X+XK.K.H.A.H.S r {.l _.`.`.hXdXdXdXdXfX~.@ O @ +   5 / ; % +.C.D @.7.5.5.o.F -.; 5.-X*X*XF.F.H.G.G.g.; ",
"g._ -.o.A.e.) W W t 9X*XD.;X+X&XG.I ;.R =.D.U.^.R.`.hXdXdXdXdX'.c O @ X   - E E ; . g.z.Z 9 r @.C N ) ) 9 V.3XJ.;X+X+X+Xs.` w.1 ",
"z.d.B.F 8X*XB.1.-.e ;X[.2X,X6X6X*X%X,XS _ ;Xj ~.jXjXdXdXjXdX!.x R.~.l   p ^ ^ a p . d.7.+. X;XtX-XOX+.D 9 OX}..X-X9X9X;XD. Xv.; ",
"-.G.A.N G.,XOXd.f.r =X8XOX%X%X%X,Xx.F.R I c.e.f R.'.hXdXQ.c R.^.).v % s / E a a s . g.e.7.A.H.J.*X%X:.+.r A.2XV.%XOXB.:XS.v.r.1 ",
"] ) N S ` 7.c.] w.r &XqXtXs.w.;.%Xb.p.N I l.] S . k z x R.!./.Y.3 0 ^ E 0 - 5 5 : = g.;.) N _ ` 5.z.) -.r g.;XeXB.] ] 6.H.r.] 1 ",
"OXd.N F ;.g.OXe.;.r &X0XrXd.b.y.%Xf.r.N Q =Xz.R 9 0 ; i ^.Y.> 0 E E p ; = E P.&.; 9 e.OXe.N ;.q.+.OXe._ r A.6XeXz.y.y.z.S.] ] 1 ",
"A.y.R S R 6.OXe.;.w =X0X0Xs.` _ e.r.w.N F S.e.W N 5 5 - > ; d a : - = 5 ( T.P.T.>.= s.z.q.T W W 1.OXe._ r S.0X4X7.) ' O.e.;.` 1 ",
"-.r.e.S T h.d.q.r.w +X*X@XOXd.q.w.q.q.N F e.' t.S p s d s 5 5 : 5 a E / >.P.P.P.P.d F e.q.e.F T 1.d.] -.q g.*XOXV.z.] ;.] ' _ 1 ",
"D.l.V.S w.r.y.l.r.e ;XOX-X,X@X] q.] ;.N F G.t.-X5.p g ^ >.~ / ( / / ( / / >.P.P.>.>.a 5.f.|.d.r.q.r.y.q.G A.A.*X2XV.` ' _ _ ) ; ",
") R S N W W W W N 1 =.R o.+.T N N N T e w I N R N s g ^ &.&.&./ / / / ~ g / >.>./ &.~ r R N T T T T T e S X.Z o.+.S Z Z S Z S r ",
"Z A Z N C C Z A C = 9 Z C C Z F Z Z Z 9 ; Z Z C y s E ^ &./ / / / / &.a p E / / / / >.p r F Z Z A Z A A = C 8.#.@.#.5.5.#.$.@.C ",
"7X>Xd.F 6X+X7X>Xx.9 =X9X>X>X-XS.7X7XwXS F rX;X#Xc.d a E >./ *./ / / &.E - p E / / / *.^ Q #XK.8X=X,X=XK.9 G.0X%XF.;Xz.%X6X6X6.= ",
"S.l.d.o.6XS.-XH.w.r +X+X8Xn.l.-.D.6X+XT o.>Xn.#Xv.s d ^ &./ / ( / / / / p - p E / / / >.p O.+X*Xz.,X@X;.w J.v.2XF.l.F +.2X*X;.; ",
"n.*X1.W ;X}.-Xx.w.w H.i.H.+Xl.A.{.=Xb.T o.#X+X*XN.a ( / &.( ( ( / / ( ^ s 0 - a E / / &.g %.G.G.}. Xl.r.w J.r.@X*Xf.5.V. Xl.;.; ",
"$Xz.S Z s.V.D.y.d.w +Xi.v.9XA.s.}.c.b.T o.>XG.) N.h &./ ( ( ( ( / / ( / a s ; : s / / ( ~ ; V.S.V.N.y.z.9 J.a.g.,XB.e..XD.y.;.; ",
"=Xg.+.%.g.C.G.e.z.w +Xi.S.+X6Xr.Z.c.k.R o.1XD.o.2X! / / / / / / / / ( / s s 5 = p / / / / - yX6X7.V.q.N.9 J.r.g.D.2Xf.C.D.y.q.; ",
"0Xg.+.Z G.Z.S.I d.w H.] x.;X-XG.{.*X=XT o.tXV.g.6.s >.&.&.>.&./ / / / / d a 0 D 5 / / / / 0 1.g.{.V._ g.w A.] h.,X Xd.Z. XXX;.; ",
"F.%Xg.o.V.6.*X8.S.w H.e.A.-X2XM.2X0X6XY o.$XOX:XN.5 E E g g E / / / / / s a 0 9 0 ^ / / >.p 7.{.9. X6.G.0 A.=.7.*X4X6.}.4X2Xq.; ",
"l.oXd.o.3X-X%XC.A.w &Xd.z.z.-X0X;X&XF.T o.$Xc.+XD.0 g E g g E g / / / / d a p . 5 g / >./ 5 G.eX XV.B.B.0 G.f.1.1.[.3X;X%XD.;.; ",
"=Xb.w.F n.b.r.G.f.w ;X+X;.` y.+X&X+X=XR F qXc.b.] s >./ ( ( &.~ g ( / ( E p p 9 9 : 0 p > e j.b.l.r.A.d.0 OX+Xq.` r.@X@XF.OXt.- ",
"e e t S e e e e e ; t e t N t e e e e 1 9 T N N ; d ( / / / / ( d E &./ s p a = * % = 0 5 % e 2 e e 2 2 ; e e e e e 2 2 2 2 2 ; ",
"o.o.F S F F F o.F ; B o.o.o.o.o.I o.o.w ; F o.O.F : d E ^ / / / ~ a ~ s a s 5 C i L.f i L.U.t o.o.o.O.O.1 9 o.+.+.o.O.O.+.5.F - ",
"%Xz.J.I v.x.d.t.q.e ;X9X<X<X$X$X&Xz.x.) S ;Xg.&Xs.. - 5 p a s s d 5 p a p 0 = D U.sXaX`.hX_.Q D.7.5.1.e.e 7.3XV. X+X+X+XB.v.t.; ",
":.Q -.o.V.6.I S W t 7XOXG.,X=X;XG.s.f.N I H.S o.F ; p p : - 5 5 : = - ; : : 4 D W.R.^.jXhXQ.t }.B.O.S S 9 B.XX8.{.-X-X*X5.6.e.1 ",
"z.G.{.I 7X7X*X7.d.e ;X X*X;X<X7X=X=X,XS F =X6.8X*X7 9 0 5 p a s a a p p : = & OX,.@ /._._.c g.6X<X<X5.7.e A.XXV.+X<X<X;X+X-Xd.; ",
"] e.F o.e.G.D.e.r.w &X9X<XA.d.g.*Xy.y.N _ f.=.e.o.7 K M n 6 , ; 0 9 1 & 7 M 6 ;.t.k ).W.W.j +.1.6.G.1.y.e g.,X6XOXd.6.J.F.a.;.1 ",
"d._ N o.) 6.D.;.w.r +X9XtXe.w.;.OXf.r.N _ F.-.N e M 3.<.L M J L J H M H J H w w.r.g x | F N S ) I V.e.y.w g.<XeX{.q.u.v.+Xr.' 1 ",
"OXd.S o.` 7.-X5.;.w =X0X0X:.r.q.A.;.;.N F =Xz.W 9 L 3.2.<.M n <.<.<.<.L H M w ;.;.t D OX9.N P _ O.{.9.q.e z.,X3XC.' u.d.x.] _ 1 ",
"-.q.) F N 7.D.] w.w =X6X%X7.) ) _ -.-.t F d.' ` 7 <.2.2.2.L < 7 2.2.2.<.J M w ;.' t :.h.' ) N N O.|._ r.e g.,X|.B.e.` _ ;.;._ 1 ",
":.e.9.I W e.e.y.w.w +X%XOX-Xz.] ;._ _ t F 1.=.1.m 3.2.2.2.H , 6 <.2.2.2.K M w ) P t =.e.' 9.1.W I e.r.y.e A.OX{.D.2X' -.' _ ) 1 ",
"z.t.9.F w.r.r.y.] 9 G.g.*XOX1.P I I _ t S 9.q.D H 3.2.2.K n & , <.2.2.2.<.M , P P t I 7.-.9.d.q.q.q.r.q.0 6.N.N.2X6.P P P _ ) 1 ",
"2 2 0 S 2 0 1 9 1 ; 1 ; 9 w ; 9 1 1 1 ; ; 1 9 * L 3.2.2.L 7 ; & J 3.<.2.} J 7 1 e ; ; 2 2 2 0 0 0 0 0 1 ; ; - 1 C ; 2 9 1 1 1 ; ",
"A.A.h.F 7.z.g.z.s.; 5.A.d.g.A.g.A.z.A.t w A.A.m { 2.2.<.M n S % M 3.<.2.<.{ J < 6.r r G.A.z.z.N.B.N.A.A.9 I {.9.d.N.N.N.N.N.5.; ",
",Xm.y.O.-XK.6X+Xa.w =X9X6Xm.*Xs.<X6X;XS o.rXh.m 3.2.2.{ 7 P ] C M J 2.K } <.} M 7 1 6.6Xx.l.l.OX+X,X;Xk.e G.6XXX@X@X9.v.8X,Xg.; ",
"j.+XV.o.6XOX,XH.r.r F.b.6XF.y.g.V.8Xn.T o.$XF J 3.2.2.J 7 q.W O.v., M H L <.<.K m % g.v.v.XX X XV.2XOXy.e N.y.D.8Xr.e.N.2XOX;.; ",
"K.%XF F z..X%Xb.r.w +Xa.x.<XA.7.}.+Xb.N o.#XB 0.2.2.<.M w f.W o.F.` 6 m J K <.<.K 7 D x.V.1.6.d.}.V.l.y.e N.l.q.-X{.7.{.%Xl.q.; ",
"#Xz.o.@.g.C.D.f.9.w +Xr.x.<X%X:.Z.c.b.T o.#X7 2.2.2.} n t N.o.I oX] B.V n J K <.<.L * F 7.F yX8X8.V.y.V.w N.l.-.*X,Xz.7.OXp.w.1 ",
"0Xz.+.F g.}.D.] d.w +Xi.S.>X-Xg.{.S.b.T O.G.M 3.2.2.L 7 B o.F G s.T 7.4.8 7 J L L 7 * % C 6.{.J.C.V._ 6.e N.l.-.*X,XV.C.[.c.r.1 ",
"9XC.5.F N.M.G.O.S.9 +Xy.d.*X XV.}.6X7XY #.4.n <.<.{ M 8 V V r r C w V ....8 < M < % ; = 9 V.C.V.N.V.O.B.e N.x.e.*X4XC.C.}.3Xd.; ",
"p.*XA.+.2X[.|.M.A.w F.d.V.G.3X{.-X-Xz.0 r w % < M J n 8  . .r r C C V  ... .u * ; ; ;   r N.|.4X}.}.C.B.w 9.f.N.B..X{.[.OX*Xe.; ",
"+Xn.y.I ;X+Xz. XS.0 ;XF.;._ x.6X9.X.6 : p a a ; * , , y  ...w r  .y w r V  .6 0 0 5 = u C N q.*XOXz.V.B.2 V.;X;.W ) z.*X*XOXd.; ",
"e.;.` S [ ` [ =.) 9 s.-.` ) ) ` t q 9 % ; 5 0 0 : = & w q r 9 w C w w 9 w 9 ; 0 ; = * y w 9 N W W W W W 1 o.:.) W W ) ) ) =.F ; ",
"; ; 9 Z ; 1 9 ; ; ; ; ; 1 1 9 1 1 9 9 ; % % % ; ; * 1 9 9 9 1 2 2 9 9 9 9 1 ; ; % % 1 1 1 9 w 9 9 9 9 9 ; = ; 9 9 9 9 9 9 9 ; ; "
};
