/* XPM */
static char *dca8bf38b19e4937f0e4494f17c8bccbYsJwFdm6d3ANIPhc[] = {
/* columns rows colors chars-per-pixel */
"64 64 244 2 ",
"   c #17141B",
".  c #140D12",
"X  c #2A170B",
"o  c #341A0F",
"O  c #251713",
"+  c #2B130B",
"@  c #332110",
"#  c #35210F",
"$  c #0D192C",
"%  c #0C1625",
"&  c #121624",
"*  c #151925",
"=  c #1A1A26",
"-  c #151C2B",
";  c #191D2B",
":  c #121729",
">  c #0A1C34",
",  c #0A1E3A",
"<  c #161F31",
"1  c #191D32",
"2  c #15212F",
"3  c #1C212E",
"4  c #0F2134",
"5  c #0A213D",
"6  c #152333",
"7  c #1A2235",
"8  c #162539",
"9  c #1B253A",
"0  c #152D3C",
"q  c #1A2A3D",
"w  c #152836",
"e  c #14303E",
"r  c #1B303D",
"t  c #0C212E",
"y  c #24252B",
"u  c #222632",
"i  c #242936",
"p  c #252B39",
"a  c #292E3B",
"s  c #272937",
"d  c #2B313E",
"f  c #26323F",
"g  c #392F32",
"h  c #493739",
"j  c #573838",
"k  c #513029",
"l  c #6B3B34",
"z  c #79443B",
"x  c #65403E",
"c  c #0A2543",
"v  c #0B2B4C",
"b  c #0B2944",
"n  c #122C41",
"m  c #1D2C42",
"M  c #1E2F49",
"N  c #182A45",
"B  c #163343",
"V  c #1B3245",
"C  c #14354A",
"Z  c #1E334B",
"A  c #143C4D",
"S  c #1C3A4C",
"D  c #163846",
"F  c #0C2E52",
"G  c #0D3256",
"H  c #0D345A",
"J  c #0F395E",
"K  c #1E3C53",
"L  c #113B5E",
"P  c #183A52",
"I  c #0D3649",
"U  c #212C43",
"Y  c #222F49",
"T  c #292C40",
"R  c #223044",
"E  c #2D3442",
"W  c #21334C",
"Q  c #233A4D",
"!  c #2C384A",
"~  c #323544",
"^  c #333946",
"/  c #353C4B",
"(  c #393E4D",
")  c #373746",
"_  c #233651",
"`  c #233A54",
"'  c #283C56",
"]  c #253D5A",
"[  c #293E5A",
"{  c #283753",
"}  c #0F3C61",
"|  c #113E61",
" . c #18414F",
".. c #154353",
"X. c #1C4354",
"o. c #1D455B",
"O. c #1C4B5C",
"+. c #164B58",
"@. c #19515F",
"#. c #0E4853",
"$. c #3A414E",
"%. c #37404E",
"&. c #214155",
"*. c #24435C",
"=. c #29425E",
"-. c #22495D",
";. c #2C4959",
":. c #3C4352",
">. c #3D4859",
",. c #114265",
"<. c #1E4C62",
"1. c #12456A",
"2. c #13496E",
"3. c #1D5464",
"4. c #1B5966",
"5. c #1E5569",
"6. c #1D5B6B",
"7. c #165A68",
"8. c #144D72",
"9. c #1E5C71",
"0. c #165873",
"q. c #0E5963",
"w. c #254661",
"e. c #2A4562",
"r. c #234C63",
"t. c #2B4A66",
"y. c #2D4C6A",
"u. c #254E6A",
"i. c #314B6C",
"p. c #324769",
"a. c #225265",
"s. c #23546A",
"d. c #2B526D",
"f. c #225B6D",
"g. c #2B5263",
"h. c #38566A",
"j. c #235670",
"k. c #2D5472",
"l. c #245D72",
"z. c #2B5B76",
"x. c #2C5D7A",
"c. c #255F79",
"v. c #315474",
"b. c #315B7A",
"n. c #325A77",
"m. c #1D616E",
"M. c #1D6374",
"N. c #1C6A77",
"B. c #1D667A",
"V. c #1C6C7C",
"C. c #156674",
"Z. c #1B717E",
"A. c #16737F",
"S. c #246275",
"D. c #24647A",
"F. c #2B637C",
"G. c #236A7D",
"H. c #2A697E",
"J. c #286075",
"K. c #34697C",
"L. c #2F737E",
"P. c #424A5A",
"I. c #404756",
"U. c #4F4947",
"Y. c #7B4A41",
"T. c #7E5047",
"R. c #654D4B",
"E. c #4B5564",
"W. c #516261",
"Q. c #86473B",
"!. c #97594A",
"~. c #88544B",
"^. c #926558",
"/. c #B16E5C",
"(. c #B07764",
"). c #C47A67",
"_. c #C16D53",
"`. c #B9846E",
"'. c #D38D75",
"]. c #DA967C",
"[. c #CB856C",
"{. c #E4987E",
"}. c #1E6D81",
"|. c #1D7483",
" X c #1E7688",
".X c #1C7B8B",
"XX c #197887",
"oX c #1F7E91",
"OX c #2C6781",
"+X c #246D82",
"@X c #2B6C83",
"#X c #2B6E88",
"$X c #316A84",
"%X c #316682",
"&X c #237285",
"*X c #2A7186",
"=X c #24768A",
"-X c #2A748A",
";X c #237A8D",
":X c #297A8E",
">X c #2F7983",
",X c #337787",
"<X c #247D91",
"1X c #2A7D93",
"2X c #297E98",
"3X c #1B8493",
"4X c #1B8A99",
"5X c #198793",
"6X c #238294",
"7X c #2A8195",
"8X c #248699",
"9X c #2B849A",
"0X c #248A9B",
"qX c #2A8B9D",
"wX c #338999",
"eX c #248A95",
"rX c #1E95A4",
"tX c #2E8CA3",
"yX c #258EA2",
"uX c #2796A5",
"iX c #3497AA",
"pX c #359DB2",
"aX c #3A8EA0",
"sX c #39A6B9",
"dX c #27A3B0",
"fX c #1DA6B2",
"gX c #41AABB",
"hX c #24BBC4",
"jX c #43B4C6",
"kX c #4CBFD0",
"lX c #4BC5D4",
"zX c #54D0DD",
"xX c #50D7E3",
"cX c #60DDE9",
"vX c #2AE2E3",
"bX c #DFA185",
"nX c #EDAB8C",
"mX c #E9A587",
"MX c #F2AB8C",
"NX c #F9B595",
"BX c #F4B08F",
"VX c #E69B82",
"CX c #F5CEB9",
"ZX c #EDE9E7",
/* pixels */
"- 0 0 0 0 0 0 0 e 8 : 6 0 0 0 0 0 0 e B 6 & 8 0 0 0 B B B B B 6 : 8 e 0 0 e 0 0 B C 6 : 0 0 0 e e 0 0 B 0 : 6 e 0 0 e e e B C 0 ",
"3.8X=X;XH.H.OXG.D.a.- G.&X+X;XD.D.D.S.S.S q :X:X;X@Xl.a.3.O.f.S 8 ;XG.&X=Xl.D.D.S.S.m X.6X&X;XH.F.H.V.D.s.- M.|.G..XD.D.B.S.l.-.",
"S.0XD.;X*X*X@X<.` ] q -X*.` *.S.V.K W W q X.8X3.S 9 u s u u s ; 0 m.&.*.O.B.7.X.Z Y 9 5.6Xs.=X@X@X+X3.*.=.q H.o.*.O.9.V.o.K Y W ",
"S.;X3X6X6X6X<X#X6Xs.7 :Xr.|.;X8X8X&Xl.5.V S X.; ) %.:.:.:.:.:.$.~ 2 6 &X6X0X3X=Xs.5.8 5.;XXX<X6X8X<X+XoXj.7 @X<.}.6X6X8X;XB.9.o.",
"f.0X=XH.D.S.&Xx.n.e.q F.*.G.s.S.S.:Xs.s.` & u ( :.:.:.$.$.$.$.$.:.$.u e s.S.G.M.A @.C C V.<XH.S.l.G.z.y.e.q z.] 6.<.c.l.&Xa.s.*.",
"f.1XuXN.=.e.f.F.i.[ 0 x.*.W M ] ` G.e.e.R ; d $.$.$.:.:.$.$.$.$.( $./ = q [ C ..Z ] V S X.3X.X[ =.a.F.e.] 8 k.*.Y M ] W N.*.=.=.",
"f.1XyXS.i.i.l.z.[ ] q H.&X` W e.] D.D.t.q 3 E $.$.$.$.$.$.$.:.:.$.~ i u - A ..S.B.t.9 6.O.V.=Xe.y.f.j.' ] 8 z.}.*.Z w.] M.B.r.[ ",
"f.8X6XS.` ` ` t.e.` q c.r.=.Y W Z +Xs.*.3 u a ( $.$.:.:.:.( ~ p 3 3 u 3 ; - K &Xr.u.q 3.O.G.|.` ` ` *.*.` 8 s.<.=.M K Z N.a.w.[ ",
"f.-X=XD.+Xe.e.*.*._ q f.w.z.s.W ` l.e.e.; i i a / ) ~ a u 3 3 u u i E i i - K s.=.v.q @.3.S.l.}.e.e.*.] ` 8 a.w.s.6.` ` 5.e.y.=.",
"S.:X&X<X+Xw.*.] *.` 8 H.z.D.+Xy.y.t.v.t.* u s i u 3 * ; 3 d s a d 7 i i u 7 t.t.y.y.9 4.O.5.6X+X*.] ] ] ` 8 l.l.j.}.t.y.t.y.y.] ",
"8 9 7 D 7 7 7 7 7 7 - 8 8 7 7 9 9 9 7 9 * ; ; ; & 3 d d a i i u d u p i 3 & 1 7 7 7 - < S 7 C 1 7 1 < 1 1 - 7 7 1 1 7 7 7 7 7 < ",
"B 3.O.3.3.3.3.3.5.X.: O.3.3.3.3.3.3.a.a.6 * ; u u i s 7 i i i i a 7 - % & X.M.4.3.6.0 6 X.O.3.7.7.5.3.6.O.: O.6.4.5.7.7.4.3.5.X.",
"S.9X1X%X:XS.#X9X9Xs.8 qX:Xn.n.$X-X@X9Xv.* u 7 a u i a u i u - % * y h l i #X-X-X6Xb.M 3.3.H.OX-X5.x.0X6Xf.7 6X;Xv.v.F.=XOX8Xb.e.",
"l.b.=X&Xi.-.f.6XOX[ 0 #Xk.@XH.*XG.=X6Xy.- 3 3 i u 7 - - * = h T.Y.k (./.;.;XM.;X<Xi.q 3.O.N.<Xe.-.5..X@X[ 0 +Xy.#X&X&XN.+X6Xk.[ ",
"l.n.t.-XH.O.Z.;Xn.[ 0 OX@Xf.a.r.&XZ.OXe.- 3 ; * & y h O O + ).NX`.U.y T.;.a.V.A.F.y.q 3.O.&.:X+X5.V.&Xn.[ 0 H.D.S.r.r.D.A.H.y.*.",
"f.n.-.:X=Xr.M.H.v.=.0 $XH.X.;XuXf.N.k.l.D     O . (.MXk + k bXmXCXZXg !.L.dXl.V.t.M.Z 3.O.S :X6Xa.7.+Xi.=.0 H.H.K M.dXl.V.d.3.5.",
"f.n.u.#X;Xl.M.H.n.=.q :X+X-.G.:XS.Z.e.5.;.+ o @ + `.VXl . `.NXmXBXZXU.[.W.&XD.V.] 5.V 3.O.S -X<XD.6.G.k.e.q :X=XX.6.;XD.|.a.X.a.",
"f.y.*.&X<Xf.V.3X8X*.q 7X.X3.f.a.G.N.f.-.S O o @ o k '.).(.nXnXnXnXnXmXNX_.u G.N.r.9.m 3.O.` .X.XM.V..X6Xt.q :X.X5.l.a.S.N.l.3.s.",
"f.d.M.+X6XN.|.<X*X=.0 F.x.+XS..XV.&XO.& ; ; O o @ X o !.BXnXnXnXnXBXNX'.R.G.M.|.V.M.m 3.O.r.M.M.M.}.<X#Xe.0 F.k.=XG..X|.+X|.6.s.",
"S.:Xd.*.r.0X1X#X#Xe.q :XF.n.b.1X1Xa.; ~ ; %   + o @ o !.'.nXnXnXBX].[.Q.` 9X*Xf.C. Xq O.O.o.3.` <X<X-X#Xu.0 :XF.k.n.:X<Xj.M.|.r.",
"-.c.=.` { =.t.t.s.` 6 c.s.[ =.[ =.W ; / i * *   . . k /.).{.nXnXnX].'.!.T [ ' { ` *.V  .B { { { ] w.w.a.` 6 f.r.] ] { { { { *.W ",
": - 6 8 8 6 6 6 8 2 : * 6 6 6 6 w * 3 d :.:.$.~ E d 3   g ~.].BXBXNXNXz - 0 w 6 6 B  .w 6 6 8 w 6 6 6 6 2 : * 6 6 6 8 8 8 w w 2 ",
"O.:X&X&XH.H.H.G.D.a.- S.&X&X&XJ.s.3 i a / $.$.:.:.:.:./ i 3 g z /.~.l E m.@.3...A o.- +.6X=X&XH.H.H.G.D.r.< G.Z.G.=Xl.S.D.S.S.*.",
"D.8XD.:XOX@X@X<.] [ q -X-.` *.D.3.= d ( $.$.$./ E s u u ~ ) f . q Q N n 8  .D M ` .X7.f.6XD.=X@X#X@Xa.[ [ q @X-.` *.9.9.K _ Y W ",
"S.=X.X<X1X1X:X+X6Xu.8 :Xr.M.&XyXN.= d $.:./ d u * ; 3 *   = i i V V.o.}.&X0X6XM..X.X5X5XXXV.<X9X8X&X+X6Xu.7 &X<.V.&X8X6X+X9.5.&.",
"l.8X&X@X+XH.:XF.F.w.q F.*.&XD.-XO.= a d E p 3 * / E.E.P.u u u u = V a.M.S.H.G.G.f.rXfX:X3XB.#X+XG.&Xx.z.=.q z.` G.l.D.G.:Xs.s.*.",
"f.1XuXG.=.=.S.F.i.] q z.` W Z *.` 6 u p s 3 * p E.E.E.E.:.u :./ * V ] m Z ] ,XwXwXhXhXpXaXsXG.] =.S.F.e.` q z.` W M ] _ N.e.=.[ ",
"S.7XuXS.i.i.S.F.=.] q OX+X` Z e.e.7.8 ; - ; i a P.E.E.E.P.d / P.s ..G.Z M aXsXsXzXxXvXzXpX9XgXu.i.D.z.] ` q F.}.` Z e.] M.G.r.' ",
"l.0X0XG.` ` *.t.e.` q F.j.` M ` Z  XV = * p i i :.E.E.E.P.d d P.s  .s.W l.jXjXcXcXzXsXtX9XqXlX1X*.*.t.e._ q l.r.] M ` Z V.l.w.' ",
"f.-X&XD.D.=.e.=.*._ q s.*.d.r.W ` @.; a * s u 3 ( P.P.:.:.a p P.a B t.r.iX1XjXlXkXpXiX1X*XzXtXtXs.[ e.=._ q r.*.j.<.W W 9.=.i.] ",
"G.-X=X<X=X*.*.] *.` q H.j.D.&Xe.=.- a s * s 7 ; ~ :.$.:.:.a i P.s @.z.l.iXpX&X9XiXsXjXiXtXiXtXsX*.' ] ] W 7 D.j.c.G.e.e.e.d.v.] ",
"V W m O.m m 9 m m 9 7 W M U U Y q i ( i * i i * E :.:.:.:.a i I.a 6 Y 9 r.sXsXtX1X<X2XtXsXpXpXH.Z S D D Z S X.S S S K K Q W U 8 ",
"8 X.S  . .X. .S X.B : D X.X. .X.0 ~ ( i * i p * E :.$.:.:.a u P.a B X.X.S &.:XiXsXpXpXpXtX=X-.r 6.6.4.7.+.e @.6.4.6.7.7.+.0 X.q ",
"S.qX1X$X7XS.*X9XqXa.6 7X7XK.b.:X@.d %.i * i p * d :.$.$.:.E   p = 7.7XF.;.a E ! g.g.-.*.Q / ) Q -.H.<X8Xr.6 6X:Xb.n.H.;Xs.O.F.=.",
"S.F.6X#Xd.-.s.;X-X[ q *Xk.OX@X:X7.u d i * i p * i ( $.$.( d ~ E i ; 0 R.~.- E ~ ~ ( $.:.:.:.( ! S <..X#X[ B -Xd.H.+X=XG.G.X.e.[ ",
"S.n.d.:XF.f.|.;Xn.[ B %XH.+XS.z..X- u i * i a ; 3 / :.$.$.:.:.:.I.) : ^.BX^.~.~.x ) ( ( :.:./ R 5.Z.&Xv.[ B OXD.}.5.a. XV.O.t.' ",
"S.n.*.1X=X&.Z.@Xv.[ B $X@XK G.;XD.#.3 s * i a 3 * a / :.:.$.$.( :.d 2 h NXNX[.(.Y./ ,XK.P.>.^ R a.V.H.y.[ B OXD.X.S.6Xl.V.X.<.r.",
"S.n.t.OX<Xz.M.@Xv.=.0 :X-Xo.=X0Xf.;XZ = * s s s * 3 a E ~ / ( $.:.u - h nXnX/.!.R.>Xh.uXh.:.~ 7.9.M.#Xi.=.0 :X=XX.V.yXl.Z.X.O.a.",
"S.d.*.&X6XG.|.;X6X*.q 7X3Xf.f.3.|.|.s.  3 p s s u * ; u i a a E E ; & h nXnX!.Q.h uXwXK.>.>.) V.M.N.6X8X=.0 8X3X3.S.f.&XC...3.a.",
"S.d.3.&X0XN. X8X;X=.q K.H.&XG.|.G.+XV.2 7 s i p E s 7 ; * ; ; - ; * % Y.'.mX!.l ) K.wX,Xh.>.! 3XN.V.6X6Xe.B H.c.&X&X|.V.Z.+.7.a.",
"S.@Xu.r.l.0X1X#X@Xe.q -Xz.x.F.0X8XD.N.+.; p i a $.~ d a i u u & ; & e./ j z z j / I.:.>./ E q 9.4X1X*XOX=.m -Xz.z.z.8X8X+XM.Z.*.",
"f.-Xy.[ =.z.F.x.#X*.7 :XF.i.i.i.i.e.d.j.; u s a / $.$./ / ( E a / 7 t.v.e.U u E / E E E / ( R [ k.x.z.H.*.8 =Xx.e.y.i.y.e.u.j.` ",
"- 1 1 7 7 1 1 1 1 - - 1 1 7 1 7 1 7 1 1 - & ; 7 u s a a a a ; u ; & 7 1 1 7 u ( P.:.>.:.I.E ; 7 1 ; ; ; - - ; 1 1 1 1 1 1 1 ; - ",
"V s.3.3.a.a.a.a.a.X.* o.f.s.3.-.r.a.a.a.6 * u ; * * 3 3 3 ; - ; & 4.3.a.f.-.a.-.E ! ! E Q 5.f.a.a.s.f.S.o.- O.5.5.6.3.3.3.3.f.S ",
"D.0X*X7X$X$X#Xf.t.e.q *Xj.s.j.a.l.r.*.] m % ; 3 u u u a a d a u - M.f.r.a.j.6.o.Z W 7 5.6XD.;XOXOX@X6.t.e.q *Xf.r.l.s.5.o.*.` W ",
"D.;XV.<X:X:X*Xc.D.*.q -XK r.f.=X&X3.K K W , > > 4 4 4 4 6 $ 4 $ C G.K <.3.oX X3.&.*.8 S.;XB.;X;X<X&Xl.G.u.8 +Xo.-.3. X.X5.o.X.Q ",
"S.6X X#X:X:X:X@X:Xr.8 -Xs.<X-X7X7X1XM.S.` , F c H H H } F c 1.b C D.r.oX:X:X:X:XM.D.m f.6X X-X:X:X1XOX#Xt.8 H.<.oX=X:X:X:X9.l.*.",
"f.1X8XG.r.r.G.x.i.' m b.` *.Z r.O.&XB.t.{ > H c c H | 2.L ,.8.F B u.W _ K o.o.&Xj.y.m a.9XyX&Xr.u.S.x.p.` q k.W ` Z o.o.N.t.e.[ ",
"l.1XuXG.y.i.D.F.e.` q H.s.W Z ] _ &Xj.t.W > H G , G 1.2.8.2.8.L B H.6.W Z ] ` +X9.t.q s.1XrXV.y.y.l.F.e.` q z.B._ Z ] _ B.l.t.[ ",
"S.0XyXM.[ e.r.u.e.` q H.D.` V ` K +XD.t.{ > H H c v } 2.2.2.8.| C +Xl.W Z ` K &X6.w.m s.<X4XV.' *.r.u.] ` q c.D.` Z ] K N.D.*.' ",
"l.<X&XG.s.] ] =.w._ m s.] e.W W _ }.] y.M c G G v 5 G 1.8.2.8.| C s.] w.Z Z K V.' y.m a.=X&XD.s.[ ] *.*._ N r.` w.` Z M B.*.t.] ",
"D.@X=X:X;X=.w.] ] _ m S.r.S.V.=.w.t.e.N c H J G G 5 v } 2.2.8.| C S.t.}.M.] *.t.y.n.q 6.:X&X+XoXe.*.] ] _ q l.a.l.V.] *.w.y.v.] ",
"o.r.r.G.*.W W _ _ M 8 <.*.*.w.] e.] 8 c H 1.2.H G v c H 1.2.8.| n r.] *.w.] ] [ [ ] 7 X.r.r.G.*._ W W _ Y 7 r.o.] w.] ] [ [ ' M ",
"* 7 7 0 7 q 0 8 q 7 - < 8 8 q q - > v J ,.2.1.G H v 5 H 1.2.8.,.$ 7 q q q q q q 0 0 < : 7 8 q 8 q q q q 7 - < q 0 q q 0 q 0 q 6 ",
"a.6X*XF.=XG.*X-X:Xr.6 ;X;XOXS.C 5 G ,.1.2.2.J G c b c H 1.2.8.| C 6X&XH.F.&X=X&X&X#Xm o.0X=XF.=XG.+X;X:Xa.6 =X;XH.F.+X=X&X;XOX*.",
"S.#X6XH.x.r.j.6X-X*.m :Xx.' : % v } 2.2.1.| G c A u.b H 1.2.8.L ..:Xk.z.x.#XD.&X<Xi.q f.@X.X#Xz.<.u.6X=X*.m <Xc.k.x.+X+XD.6Xy.] ",
"f.v.z.;Xk.l.N.6Xb.` B $Xw.% - - > G ,.,.J v 5 P <Xy.c H 1.2.8.L A x.c..X X&XXX.XH.i.m f.v.j.6Xd.5.Z.;Xx.[ B OXk..X|.;X|.A.&Xk.] ",
"f.n.r.1X=XO.Z.+Xv.] B $X+Xt & 3 - , G G 5 n k.e.H.;Xb G 1.2.8.L A OX}.K 6.f.}.V.k.x.m f.z.w.;X.X<.V.H.v.[ B OX#XX.3.S.D.Z.z.s.*.",
"f.k.u.#X:Xs.m.+Xi.[ B -X&XC % ; 3 - $ n 8 X.$X[ D.9.c L 2.2.8.L A #XG.X.yXuX5.V.u.B.m f.k.r.#X:XS.5.&Xi.[ B #X+XX.|.dX5.|.k.3.<.",
"f.n.e.-X&XD.|.&X@X[ q 8X.Xa...: i p * P M C <.N ..B , J 1.2.8.| A uX|.s.S.f.V.V.*.5.q 5.z.=.:X<XM.V.&X-X=.q 8X3XO.M.f.G.|.u.O.-.",
"f.z.6.G.5XV.|..X0X*.q #X+XV.|.4 : i i t 6 0 C n A #.5 F J } L c n 3.7.@.7.V.N.|.6.M.m s.z.6.+X3XN.V.;XrXt.0 #X+XV.V..XM.M.B.6.r.",
"l.z.6.l. X4X=X=XOX' q $Xn.OXD.+.$ * ; 4 8 e A B C A I % > > $ - 7 = $ e C q.q.C.C.}.q 6.x.5.5.M.|.;X-X@X[ B #Xk.OXH.4X4X.X|.XX*.",
"f.-Xe.' [ F.OXH.@X-.q 7XH.[ q C B $ $ 0 8 0 #.C N m 6 * ; 3 i i i p 3 - V B B q ..j.9 6.:Xe.` ` u.H.H.+Xr.q ;XF.i.i.k.z.t.f.G.` ",
"q M M W R U p q M 8 < Z W M 8 7 7 8 8 8 < 6 8 7 8 q - & - - ; - - - - & 8 7 7 7 1 9 - 8 m m M M m 9 9 m 9 - B m m M m m U p 9 8 "
};
