/* XPM */
static char *_01ae828230e4f448cd48f5bc22abbe0xnNWY8796wiG9eAt[] = {
/* columns rows colors chars-per-pixel */
"64 64 230 2 ",
"   c #140A1B",
".  c #0E0814",
"X  c #150F22",
"o  c #0C1527",
"O  c #131425",
"+  c #131629",
"@  c #141B2D",
"#  c #151E30",
"$  c #1B1E35",
"%  c #0D1E35",
"&  c #152334",
"*  c #142937",
"=  c #152639",
"-  c #1C263B",
";  c #162B3C",
":  c #192B3E",
">  c #1B2237",
",  c #16313D",
"<  c #18313F",
"1  c #0F2039",
"2  c #212C3E",
"3  c #162B42",
"4  c #1B2D42",
"5  c #1D2F4A",
"6  c #162741",
"7  c #173342",
"8  c #1A3244",
"9  c #163A45",
"0  c #1A3947",
"q  c #1C3549",
"w  c #173E49",
"e  c #1C3B4B",
"r  c #1E3E50",
"t  c #1D3754",
"y  c #212E44",
"u  c #212C4C",
"i  c #243146",
"p  c #23344C",
"a  c #29354B",
"s  c #2A394D",
"d  c #24364A",
"f  c #2F2E52",
"g  c #243651",
"h  c #253B53",
"j  c #2B3C54",
"k  c #263D5A",
"l  c #2B3E5A",
"z  c #2B3553",
"x  c #323E57",
"c  c #303A4C",
"v  c #16434D",
"b  c #1A424E",
"n  c #15444B",
"m  c #1D4452",
"M  c #1D4A55",
"N  c #1E4D5A",
"B  c #174954",
"V  c #1D535C",
"C  c #18555B",
"Z  c #234255",
"A  c #2D4157",
"S  c #25445B",
"D  c #2C425D",
"F  c #224B5C",
"G  c #29485D",
"H  c #344456",
"J  c #33455B",
"K  c #354A5C",
"L  c #3B4B5D",
"P  c #394658",
"I  c #21525E",
"U  c #314857",
"Y  c #1F5661",
"T  c #1D5B63",
"R  c #195A68",
"E  c #1C4A61",
"W  c #2C4461",
"Q  c #244D61",
"!  c #2C4B64",
"~  c #2D4E69",
"^  c #334662",
"/  c #344965",
"(  c #344D6A",
")  c #3A4F6B",
"_  c #394A65",
"`  c #225563",
"'  c #295267",
"]  c #27556A",
"[  c #2B536B",
"{  c #235B6C",
"}  c #2B596E",
"|  c #225B65",
" . c #34526D",
".. c #3E536D",
"X. c #365766",
"o. c #245E72",
"O. c #2C5C74",
"+. c #355571",
"@. c #335B74",
"#. c #385C79",
"$. c #14646B",
"%. c #1A6268",
"&. c #176C71",
"*. c #12767A",
"=. c #23616C",
"-. c #246373",
";. c #2A6375",
":. c #2D667A",
">. c #256D7C",
",. c #2B6B7D",
"<. c #246978",
"1. c #32647B",
"2. c #34647C",
"3. c #22717D",
"4. c #414D5E",
"5. c #495669",
"6. c #545E6D",
"7. c #435B76",
"8. c #515E70",
"9. c #414E61",
"0. c #566172",
"q. c #5A6474",
"w. c #5E6B7B",
"e. c #5A667A",
"r. c #5B626D",
"t. c #666E7A",
"y. c #6A737E",
"u. c #76797D",
"i. c #0F7E80",
"p. c #2C6E81",
"a. c #256E80",
"s. c #346C83",
"d. c #386B86",
"f. c #2A7483",
"g. c #2D758A",
"h. c #257B8A",
"j. c #2C7D8C",
"k. c #247583",
"l. c #347186",
"z. c #35748B",
"x. c #39748D",
"c. c #33798E",
"v. c #2E7C91",
"b. c #347C92",
"n. c #3B7E93",
"m. c #4B6783",
"M. c #546C87",
"N. c #5A7591",
"B. c #6A7684",
"V. c #757D8A",
"C. c #777D85",
"Z. c #657D9A",
"A. c #677C9A",
"S. c #14878A",
"D. c #0F9492",
"F. c #16979B",
"G. c #13878F",
"H. c #2C8394",
"J. c #2A8C9B",
"K. c #278A97",
"L. c #338296",
"P. c #328A9C",
"I. c #34869B",
"U. c #2D8895",
"Y. c #139FA2",
"T. c #2C94A2",
"R. c #3293A3",
"E. c #3299A9",
"W. c #318EA1",
"Q. c #16ADAF",
"!. c #31A3B1",
"~. c #2AA4B1",
"^. c #7A828C",
"/. c #77808B",
"(. c #69829F",
"). c #698099",
"_. c #7C8693",
"`. c #798694",
"'. c #6B84A2",
"]. c #698CAB",
"[. c #6489A9",
"{. c #6791B3",
"}. c #11C3BC",
"|. c #37CDD2",
" X c #40F8FB",
".X c #8B8E93",
"XX c #818B96",
"oX c #86929E",
"OX c #8D939A",
"+X c #8C9196",
"@X c #91959C",
"#X c #86898D",
"$X c #8A97A5",
"%X c #999EA6",
"&X c #949CA7",
"*X c #9CA1AA",
"=X c #9AA5B3",
"-X c #9AA6B5",
";X c #A2ADBB",
":X c #A7ACB4",
">X c #A5B1BF",
",X c #ACB2B9",
"<X c #ACB0B7",
"1X c #A6B2C0",
"2X c #ACB8C5",
"3X c #B3BCC7",
"4X c #B3BDC9",
"5X c #BABEC3",
"6X c #B5C1CD",
"7X c #BCC3CC",
"8X c #BCC6D1",
"9X c #BCC8D4",
"0X c #C0C5CC",
"qX c #C2CAD2",
"wX c #C6CCD4",
"eX c #CBD3DB",
"rX c #D5DDE4",
"tX c #D9DFE5",
"yX c #E0DFE0",
"uX c #DAE2E9",
"iX c #DBE0E5",
"pX c #EAECEE",
"aX c #E4E6E8",
"sX c #EBEDF0",
"dX c #E7EDF2",
"fX c #EEF1F3",
"gX c #F3F4F5",
"hX c #F4F7FA",
"jX c #FDFDFD",
"kX c #F7F8F8",
/* pixels */
"@ : m m m m m m r q m m b e e & @ 0 m m m m e e e r r e e e : @ @ e m m m m b m q e m e e m 0 @ # m e m b e e e r e e e e e = @ ",
"; c.b.z.z.z.z.z.1.' c.l.s.z.s.- 8 L.R.c.s.z.R.R.} ;.O.[ ' ' ! + F I.L.z.z.z.z.c.' 1.c.s.s.z.@.+ { P.H.2.s.L.!.H.] ,.O.' Q [ h @ ",
"0 I.U.2./ ( ( ( l i ( >.! ( ( - m n.j.f.f. .L.P.h D p h h g l # { L.H. .( ( ( ( p l :.-./  .W @ ,.c.j.>.:.#.E.,.h W p h g g g @ ",
"0 b.s.@.+.+.+.+.W p ( <.f.( +.- e x. .2.K.b.L.E.S p k D h W W # { z.1.+.+.+.+.+.g D O.h.1. .! @ :.2.@.f.K.l.R.v.p h D k h W h @ ",
"0 b.( +.+.( !  .G e Z H.s.( +.- e z.( +.,.b.b.R.! p D D l W W # o.d.( +.+.! [ ! Z e O.J.+.+.! @ ;.#.(  .h.z.P.L.p h W D D W g @ ",
"0 b.( +.( ! -.F p f.{ H.( +. .- e z.( +.] L.b.f.h l k W W D D @ o.s.( +.! ] { h Q 3.>.z./  .! @ ;.#.+./ a.b.P.-.p h h W W W p @ ",
"0 c.( +.! Z =.J.S g.-.j.( ! ! - e z.( +.} c.b.! p h S l W D D @ -.d. . .S Z j.f.! h.>.s./ ~ G @ ;.2.+.( f.b.c.h p h h W D D p @ ",
"0 c. .@.! %.T. X;.g.-.v.( h S - e x.( +.] J.d.W.s.h p D D W D @ -.d. . .{ &.|.|.[ j.>.l.D S S @ ;.2.+./ k.b.l.H.W p h W D W p @ ",
"0 b.H.( D m Z =.a b.-.L.D 8 O.- b x.( +.A 3.h.>.h p y D D D W @ { I.l._ S e | I ! j.,.s.y N [ @ ;.#. ./ ` k.3.G z p g W l W g @ ",
"0 P.~.c.z.s.s.s.z.!.-.H.z F v.$ m c.Y ! s.:.p.p.,.O.i D D k W @ ] T.T.l.l.s.:.1.I.K.f.s.y f.O.+ :.,.Q @.,.;.p.p.f.' p W h D g @ ",
"0 b.{ o.{ { | | | ` p J.{ F v.$ e L.] h -.-.-.-.{ F > h g h W @ ;.s.Y { -.=.{ ` | m ] J.p >.O.+ :.b.G F <.<.<.<.<.h - l p D g @ ",
"0 z.^ / / / ^ O.f.f.,.@.H.| b.> e L.p./ ( +.,.,.,.f.;.g h l W @ o.2.J / / / ( p.,.f.} g.a.>.O.+ ;.L.O.D J ;.f.f.,.<.S p h W g @ ",
"0 z.@.+.+.+.+.H.<.Q j.J.v.K.g.> 0 c.g. .@.f.` ` ` ] j.;.W W W # { s.@. . . .s.J.] O.K.f.v.J.[ + ]  ._ ) _ @.2.;.@.@.' ~ W W p @ ",
"8 b.H.2. .+.+.+. . .W G j.H.@.- 8 H.J.#.G S / / ( / ! N ] ;.D + ` R.H. .(  . .+. .( h ] U.j.W @ y Z.(.(.(.A.A.A.A.A.7.S :.O.p @ ",
": O.[ ~ / ( ( / ! ! ( ( D S ~ 4 4 ! ' D j z A A A A l a D G z 2 Z [ ! A A A A j D J D W D ! D @ i (.Z.Z.Z.Z.Z.Z.Z.(.M.p O.! i @ ",
"# @ + @ @ @ @ @ @ @ @ @ @ @ + i 7.............................7...) ............7.7.7.p + + # @ i Z.Z.Z.Z.Z.Z.Z.Z.(.M.# @ @ @ @ ",
"@ 8 N m m m N N N N N N M N B y 4 @ # @ @ # # # # # # # @ # @ @ @ @ @ @ # @ # @ # @ = i b F 0 + p (.Z.Z.Z.Z.Z.Z.Z.'.M.0 F Q 8 @ ",
": z.L.l.1.z.l.s.s.s.s.z.s.z.2.p 4 @ # @ @ # # # # # # # # & & # # # # # # # # # # @ - a } s.! @ i (.Z.Z.Z.Z.Z.Z.Z.'.e.Z s.z.! @ ",
"0 x.:.! !  ./ ^ ^ ^ ^ ( l z h p 4 @ # # # # # & # @ # @ & O X @ # # # # # # # # # @ - a y z l # y Z.Z.Z.Z.Z.Z.Z.Z.'.m.0 F ! D @ ",
"8 l.! p h h h h h h h h S h p p 4 @ # @ @ @ # O @ @ O @ O C &.& + # @ # @ # # # # @ - a h h l @ i ].Z.Z.Z.Z.Z.Z.Z.'.N.p ! [ D @ ",
"8 x.<.D P.~.P.I.P.P.W.!.T.K.} y y @ # # @ @ @ $.; & R O $.D.D.*.& @ # @ @ # # # # @ - p j.L.W @ - [.].].].].].[.[.{.7.o.E.j.l @ ",
"8 x.S ! ~.H.2.s.2.s. .z.<.g O.i 4 @ # # @ @ + }.; X Q.+ C O . }.v O # @ @ # # # # @ - p & O.! @ = D j l j j l l p h p G x.s.l @ ",
"8 d.g W  .p S Q S G p [ h.j ( p 4 @ # @ @ @ @ &.S.S.$.+   &.S.S.; + # @ # # # # # @ - p :  .W # - i s _ ^ ^ ^ J J 4 p D #.+.h @ ",
"8 d.l h p 4 p D D W y ~ h.W ( p 4 @ # @ @ @ @ O *.D.$.X R S.i.& + @ @ # # # # @ # @ - Z F ( ! # = p i j z z z h z y i D #.+.h @ ",
"p m.2.:.l i h / / / p / :. . .p y @ # @ @ @ @ &   @ F.  S.v O & @ & & @ # # @ @ # @ - h ] +.^ # = p p p p p p p p p p h D ( l @ ",
"= O.o.o.t % 6 t t t = E G.E N 4 y @ # @ @ @ @ @ @ * $.+ n F.S.C O B M + # # # # # @ - p R o.r . & z l J D D D D ^ p p q 3 t 3 o ",
"t._._.^././.V./.C./.C.^.`.V.C.c 4 @ # @ @ @ @ @ @ @ @ @ @ @ @ @ @ @ @ # @ # # # # @ - p y._./.C.H p y i y y y y p y p 0._.C._.C.",
"kXjXjXjXjXjXjXjXjXjXjXjXjXjXjX5.= @ # # # # # # # # # @ # # # # @ @ @ # # # # # # @ = j aXjXkXjXw.= l ( / / ( / ( p = ,XjXkXjXkX",
"jXkXkXkXkXkXkXkXkXkXkXkXkXkXjX5.= @ @ @ @ + @ + @ @ @ @ @ @ @ @ @ @ @ @ @ @ @ @ @ @ & a aXjXkXjXq.6 4 p p p p p y 4 = <XjXkXkXkX",
"jXjXjXjXjXjXjXjXjXjXjXjXjXjXjXL y i i i i i i i i i i y y y y y y y i i i i i i a a p y yXjXjXhX5.g / ( ( ( ( ) ( ^ 3 <XjXkXjXjX",
"jXjXjXjXjXjXjXjXjXjXjXjXjXjXjXr.1 l h h g g h g g h l / ^ J J _ D l l p g h p Q N [ q s pXjXjXtXL h W l l l l l l W 5 oXjXjXjXjX",
"jXjXjXjXjXjXjXjXjXjXjXjXjXjXjXaXOX+X.X.X.X.X.XOX#Xu.C.i & > & # t.^.C..X.X+X.XOX.X+XC.:XjXkXjXiX9.h W D l z z l D W 5 oXjXjXjXjX",
"jXjXjXjXjXjXjXjXjXjXjXjXjXjXjXjXjXaXrXuXuXuXuXrXB.L 4.2 D D W i P 4.5.wXuXrXuXuXtXdXqXqXjXjXjXiX4.h W l R $.$.S l W 5 oXjXjXjXjX",
"jXjXjXjXjXjXjXjXjXjXjXjXjXjXjXjXeX2X4X4X4X4X6X&X6 k h = 4 i p - p D 5 _.9X4X4X4X4X8XXXw.iXjXjXtX4.h W l h.Q.Y.] l W 5 oXjXjXjXjX",
"jXjXjXjXjXjXjXjXjXjXjXjXjXjXjXjXrX4X8X6X6X6X9X&Xj N.M.M.m.m.m.M.M.N._ XXeX6X6X6X6X6XrXtX/.gXjXrXL h D D z f f l D ^ 5 oXjXjXjXjX",
"jXjXjXjXjXjXjXjXjXjXjXjXjXjXjXjXkXsXpXpXpXpXgX3Xs p p h h p p p g h 4 &XsXsXsXfXfXfXkXjX&XaXjXrXL h W W r 9 w l D W 5 $XjXjXjXjX",
"jXjXjXjXjXjXjXjXjXjXjXjXjXjXjXjXjXjXjXjXjXjXjXjXeX5X7X7X0X0X0X7X7X0XwXhXjXjXjXjXjXjXkXjX*XaXjXrXK k / l a.Y.F.! W / 5 oXjXjXjXjX",
"jXjXjXjXjXjXjXjXjXjXjXjXjXjXjXjXjXfX@XOX&X&X@XOX%X*X*X%X*X*X*X*X%X%X%X%X@X.X.XaXjXjXjXjX=XpXjXrX8.t g q 5 u u 5 q q h ;XjXjXjXjX",
"jXjXjXjXjXjXjXjXjXjXjXjXjXjXjXkXjX/.3 4 g g p 3 4 p q 4 5 5 q q 5 4 q h g p 6 y.jXjXaXy.4.6.5XfX8X/.q.e.w.w.w.w.w.e.&XuXkXjXjXjX",
"jXjXjXjXjXjXjXjXjXjXjXjXjXjXjXkXjXB.D J a j j j j s j J j p z j l J s a D _ l q.jXjXOXp a l L kXgXfXhXhXhXhXhXhXhXhXfXjXjXjXjXjX",
"jXjXjXjXjXjXjXjXjXjXjXjXjXjXjXkXjXB.D / l a l D l p h l l z a z D l J J / _ l t.jXjXOXJ 5...5.gXjXjXjXjXjXjXjXjXjXjXjXjXjXjXjXjX",
"jXjXjXjXjXjXjXjXjXjXjXjXjXjXjXkXjXB.D ^ j p z l j D D A D D j j z j J / J j l B.jXjXOX7.'.Z.5.gXjXjXjXjXjXjXjXjXjXjXjXjXjXjXjXjX",
"jXjXjXjXjXjXjXjXjXjXjXjXjXjXjXkXjXV.l a z D s 4 A J J J J J J J - J a j s i l B.jXjXXXD N.m.H gXjXjXjXjXjXjXjXjXjXjXjXjXjXjXjXjX",
"jXjXjXjXjXjXjXjXjXjXjXjXjXjXjXkXjXw.k / ) ) / / / ^ / ^ ^ ^ ^ / / ^ / / ) ) D 5.jXjX<X4 y = 6.jXjXjXjXjXjXjXjXjXjXjXjXjXjXjXjXjX",
"jXjXjXjXjXjXjXjXjXjXjXjXjXjXjXkXjX5X5.0.6.6.6.6.6.6.6.0.0.0.0.0.0.0.6.6.0.q.5.<XjXjXkX,X:X:XiXjXjXjXjXjXjXjXjXjXjXjXjXjXjXjXjXjX",
"jXjXjXjXjXjXjXjXjXjXjXjXjXjXjXjXjXjXjXjXjXjXjXjXjXjXjXjXjXjXjXjXjXjXjXjXjXjXjXjXjXjXjXjXjXjXjXjXjXjXjXjXjXjXjXjXjXjXjXjXjXjXjXjX",
"pXsXsXsXsXsXsXsXsXsXsXsXsXsXsXsXsXpXsXsXsXsXsXsXsXsXsXsXsXsXsXsXsXsXsXsXsXsXsXsXsXsXsXpXsXpXsXsXsXsXsXsXsXsXsXsXsXsXsXsXsXpXpXpX",
"1X1X1X1X>X>X1X1X1X1X1X1X1X1X1X1X1X1X1X1X1X1X1X1X1X1X1X1X1X1X1X1X1X1X1X1X1X1X1X1X1X1X1X1X1X1X1X>X>X>X1X1X1X>X>X>X>X>X;X>X1X1X;X1X",
"-X;X=X=X;X;X;X;X;X;X;X;X;X;X;X;X-X-X;X>X;X;X;X;X;X;X;X;X;X;X;X;X;X;X;X;X;X;X;X;X;X;X;X;X;X;X;X>X;X;X;X;X;X;X;X;X;X;X;X;X=X=X-X-X",
"`.q._.V.L K K H H H H K J J H s A K X.L X.L J J J K J H H K K c L K K J K K H H H J K K J H H s X.X.K H K H J J K P H P B.`.0./.",
">X0.3X=XZ w 0 7 7 7 8 0 ; = = o * V %.v V V 7 0 e e C B ; ; 7 o e N v 4 e e 8 8 7 8 0 7 = = = o M T C , C b 0 e e e B w $X6X0.=X",
"-X8.4X=Xi & * = = = & & & & * # 8 I C b b V V V V V e ; ; 8 0 @ e F : & = & = = & & & & & & : @ m N C e M Y V V V M , : $X6X0.&X",
"4X5.-X`.e T ` V V V Y T V V e # < ` v v %.N N V I F N I T T e @ 0 ` 0 8 V T I ` V Y T T T V 8 @ m V n %.%.N N N N M V V /.;X8.,X",
"qXK i d T N m F F M e M 9 7 m # < I C C m m ` ` I V m e m N q @ 0 F * N &.M m m M m e V ; m 0 + b N C T m V V V V N m m h h J 7X",
"7XK * 8 b & 8 e e 0 & 8 v : q # < F V e m M b v b v | 0 0 0 8 o e g & h 0 = 0 0 0 < # N 7 4 8 @ m m T 8 M b b b b V N 8 e 7 j 4X",
"7XJ ; - - & & * = ; & 8 V 8 q @ < N N 0 F w = 8 8 * V e e q 8 o e h & : & & * ; : = & M v 8 8 @ m M V 8 V * 4 4 : 9 I q e 8 j 4X",
"8XJ e e * & * 4 ; 4 & 8 e 8 q @ < M V e F w 8 e e 7 V e ; 8 8 o e h b 7 & & : 4 8 : & 0 < 8 : + m m V 8 N ; e e 8 w I 4 : 3 j 3X",
"qXJ e m 4 & * 8 4 4 & e T 9 e @ < F T N M w 8 0 q ; V e ; ; 4 o e Z M e * & : 8 8 ; & M v 7 8 + m N %.e N 7 e 0 8 w I 4 ; ; j 3X",
"qXJ e 8 8 & & * = = & 0 e * q @ , F m b m 9 = ; ; * 7 8 8 4 4 @ 0 m 0 8 ; & = ; ; & = e 7 4 8 + m m m e N * ; ; * * 8 8 8 * j 3X",
"qXJ 7 8 8 4 & & * = 4 8 ; 0 e @ < F 4 q e 0 b : : : 8 8 8 4 4 @ 0 e 0 8 8 ; = = = * 8 4 8 e 8 + m e 8 e q e 0 * ; : 8 8 4 = j 3X",
"qXJ 3 8 8 m 7 3 ; ; ; ; 0 q e @ < I e e 0 e =.8 q q 0 4 4 : 4 @ 0 7 8 4 e M 8 ; * ; * 8 e e 8 + m m e e 8 ` N 4 0 0 8 ; 4 = j 4X",
"8XK v 0 e C B C 0 8 8 0 q q q @ < =.M 8 8 e T : 4 : : : ; ; 4 @ e m e 4 N C B M 8 8 8 q q q 8 + M T m 8 4 N m = ; ; ; ; : = j 4X",
"9XA ; 8 : 0 e m 8 8 8 8 8 8 : @ * T V N F e 7 : 4 : : : ; ; ; @ 8 0 8 : 8 0 b e 8 8 8 8 8 4 ; + b | N N M 7 ; : ; ; ; ; : = s 3X",
"qXs o @ @ @ @ @ @ @ @ @ @ @ @ @ + * 7 9 9 * + @ # # # # # # @ @ @ # @ @ @ @ @ @ # # # @ @ @ @ @ @ < , 7 7 @ @ @ @ @ @ # # o i 3X"
};
